<svg width="348" height="271" viewBox="0 0 348 271" fill="none" xmlns="http://www.w3.org/2000/svg">
<path d="M185.365 183.685C179.842 183.685 175.365 179.208 175.365 173.685V147.326C175.365 141.803 179.842 137.326 185.365 137.326H337.653C343.176 137.326 347.653 141.803 347.653 147.326V173.685C347.653 179.208 343.176 183.685 337.653 183.685H185.365Z" fill="white"/>
<path d="M14.4845 270.298C7.75541 270.298 2.94692 263.786 4.92743 257.354L82.0097 7.0568C83.3015 2.86207 87.1777 0 91.5668 0H180.851C185.24 0 189.116 2.86206 190.408 7.05678L267.49 257.355C269.471 263.786 264.662 270.298 257.933 270.298H217.469C213.015 270.298 209.099 267.353 207.862 263.075L194.847 218.055C193.61 213.777 189.694 210.832 185.24 210.832H87.1775C82.7243 210.832 78.8076 213.777 77.5709 218.055L64.5558 263.075C63.3191 267.353 59.4025 270.298 54.9492 270.298H14.4845ZM97.4224 150.92C95.5532 157.321 100.353 163.723 107.021 163.723H165.396C172.064 163.723 176.865 157.321 174.995 150.92L141.422 35.9579C140.745 33.6417 138.622 32.0496 136.209 32.0496C133.796 32.0496 131.672 33.6417 130.996 35.9579L97.4224 150.92Z" fill="white"/>
</svg>
