<svg width="399" height="214" viewBox="0 0 399 214" fill="none" xmlns="http://www.w3.org/2000/svg">
<path fill-rule="evenodd" clip-rule="evenodd" d="M389 1.50709C389 2.36095 389.54 3.70445 390.2 4.49263C391.653 6.22783 395 6.39502 395 4.73148C395 4.07466 394.311 3.53726 393.469 3.53726C392.626 3.53726 391.678 2.73116 391.362 1.74593C390.655 -0.453818 389 -0.621008 389 1.50709ZM386.513 4.7064C385.708 6.26127 387.86 10.9569 389.143 10.447C389.697 10.2261 390.077 9.66837 389.987 9.20741C388.857 3.38082 387.864 2.09464 386.513 4.7064ZM352.573 10.5605C352.163 11.3534 352.351 12.7542 352.99 13.6738C353.936 15.0352 353.16 15.9416 348.826 18.5402C341.705 22.8107 340.545 23.9596 342.158 25.1502C343.701 26.2883 341.982 35.2199 338.314 45.1259C335.974 51.4445 335.841 53.4974 337.868 52.001C339.257 50.9752 344.637 33.862 345.461 27.848C346.122 23.0317 346.348 22.7869 354.031 18.5928C358.371 16.2234 362.335 14.2852 362.839 14.2852C363.343 14.2852 364.315 13.4791 365 12.4939C366.715 10.0254 363.943 10.0589 359.902 12.5548C357.061 14.3091 356.808 14.2673 355.111 11.763C353.832 9.87856 353.105 9.53343 352.573 10.5605ZM378.5 13.5866C376.85 15.1666 375.827 16.8528 376.226 17.3341C376.625 17.8153 377.638 17.5287 378.476 16.6975C379.442 15.7398 380 15.6562 380 16.4683C380 19.5302 377.637 30.6866 376.353 33.6913C375.176 36.4439 375.17 36.9754 376.314 36.9754C378.212 36.9754 379.831 32.2236 381.214 22.5934C382.172 15.9213 382.761 14.3246 384.368 14.0392C385.454 13.8457 386.529 13.017 386.755 12.1953C387.481 9.56448 381.68 10.5425 378.5 13.5866ZM371.558 15.778C369.888 22.3402 370.186 26.2274 372.357 26.2274C373.062 26.2274 373.5 23.9393 373.5 20.2563C373.5 14.7259 372.444 12.2921 371.558 15.778ZM297 25.2099C294.525 26.5916 290.848 28.1119 288.828 28.5884C285.688 29.33 285.082 29.1174 284.645 27.1243C284.016 24.2498 282 25.487 282 28.7472C282 30.3367 280.839 31.7053 278.5 32.872C275.199 34.5201 273.296 38.0119 276.5 36.5431C277.389 36.1358 278 36.5311 278 37.5128C278 38.4228 278.242 39.9227 278.539 40.8446C278.863 41.8549 278.1 43.0527 276.617 43.86C274.939 44.7724 274.31 45.895 274.637 47.3901C274.901 48.5951 273.966 53.3935 272.559 58.0521C269.584 67.8996 269.471 68.8419 271.508 66.8224C272.337 66.0008 274.173 60.8967 275.587 55.4798C277.608 47.74 278.69 45.3432 280.643 44.2804C283.404 42.7781 283.315 43.1722 279.469 49.5146C278.274 51.4851 277.018 54.0383 276.679 55.1872C275.657 58.6528 277.66 57.5398 279.904 53.3959C281.059 51.2606 283.339 47.3651 284.969 44.7378C288.32 39.3387 288.608 38.1696 286.587 38.1696C284.496 38.1696 286.851 31.3291 289.193 30.5982C291.783 29.7886 292.079 31.1273 290.489 36.4571C288.492 43.153 288.514 56.0828 290.523 56.0828C291.862 56.0828 291.85 56.4399 290.429 59.0302C287.958 63.5336 289.284 65.4145 291.871 61.0759C294.057 57.4096 294.214 57.3487 297.006 59.072C300.689 61.3458 301.969 59.2845 298.54 56.6023C295.941 54.5674 295.928 52.0834 298.523 53.2729C300.352 54.1112 304 44.5049 304 38.8527C304 33.6399 301.049 30.431 297.29 31.5572L294.5 32.3931L296.924 29.3097C298.258 27.6151 299.945 26.2274 300.674 26.2274C301.403 26.2274 302 25.4213 302 24.4361C302 22.2495 302.416 22.1862 297 25.2099ZM392.473 23.8915C391.479 25.8106 394.802 31.0043 397.023 31.0043C398.11 31.0043 399 30.4669 399 29.8101C399 29.1532 398.314 28.6158 397.475 28.6158C396.637 28.6158 395.523 27.2723 395 25.6303C393.958 22.3569 393.448 22.007 392.473 23.8915ZM353.764 27.7202C350.118 33.4405 344.669 45.3385 345.332 46.1302C346.456 47.4725 350.914 45.274 355.448 41.1408C358.937 37.9606 360.649 37.1246 362.525 37.6871C365.445 38.5613 365.741 36.9515 363.171 34.1749C360.756 31.5644 360.137 31.6695 357.903 35.0598C355.863 38.1564 349 43.4564 349 41.9338C349 41.4214 351.025 37.3969 353.5 32.9891C355.975 28.5824 358 24.7203 358 24.4074C358 22.7021 355.931 24.3202 353.764 27.7202ZM256.167 30.1528C254.308 32.847 255.62 37.373 258.041 36.6171C259.352 36.2075 259.995 36.7831 260.253 38.5971C260.583 40.9127 260.749 40.8148 262.001 37.5725C262.762 35.602 264.304 33.0858 265.428 31.9811C268.553 28.9084 266.381 27.83 263.028 30.7905C259.323 34.0615 258.222 34.0651 257.82 30.8072C257.531 28.4749 257.37 28.4104 256.167 30.1528ZM316.75 33.5348C314.688 34.7804 313 36.3329 313 36.9849C313 38.4669 314.058 38.4693 316 36.9933C317.99 35.4802 319.201 40.4063 317.462 42.9464C316.788 43.9317 315.928 45.9463 315.551 47.4236C315.003 49.5708 315.364 50.3363 317.348 51.2367C320.541 52.6865 327 50.6695 327 48.2225C327 46.8348 326.575 46.7166 325.066 47.6815C324.002 48.361 321.944 48.9175 320.492 48.9175C318.516 48.9175 317.939 48.3921 318.193 46.8277C318.38 45.6788 319.419 44.7366 320.503 44.7354C321.587 44.7342 322.625 43.7943 322.81 42.6455C322.995 41.4979 322.664 40.558 322.073 40.558C321.483 40.558 321 39.2145 321 37.5725C321 35.2031 321.504 34.5869 323.441 34.5869C324.784 34.5869 326.16 34.0495 326.5 33.3927C326.84 32.7359 326.228 32.1985 325.141 32.1985C324.053 32.1985 322.564 31.9895 321.832 31.7351C321.099 31.4796 318.813 32.2892 316.75 33.5348ZM241.975 35.2617C240.68 39.3292 240.699 48.0864 242 47.1262C242.55 46.7202 243 45.3635 243 44.112C243 42.8605 243.9 41.2614 245 40.558C246.804 39.4056 247.012 39.6647 247.118 43.2032C247.184 45.3612 247.164 47.7986 247.075 48.619C246.868 50.519 249.227 50.5572 250.8 48.6787C251.733 47.5645 251.997 47.6302 251.985 48.9772C251.96 51.7538 250.821 53.0734 245.251 56.7743C240.223 60.1157 238.711 62.0539 241.132 62.0539C241.755 62.0539 243.803 60.9182 245.685 59.5294C247.566 58.1405 249.292 57.2281 249.52 57.5004C249.748 57.7727 248.379 61.6897 246.476 66.205C244.574 70.7204 243.228 74.6661 243.485 74.973C244.371 76.0311 246.697 72.8007 248.516 67.982C249.883 64.3612 250.737 63.3628 251.921 63.9993C254.806 65.5518 262 65.9543 262 64.563C262 63.8393 260.9 63.2482 259.556 63.2482C256.364 63.2482 251.681 58.4653 252.47 56.01C252.798 54.9889 255.527 52.7116 258.533 50.9513C261.54 49.1898 264 47.2062 264 46.5422C264 44.8715 263.479 44.9945 259 47.7233C256.844 49.037 254.899 50.1118 254.679 50.1118C253.742 50.1118 255.34 44.0965 256.611 42.8366C257.375 42.0794 258 40.6571 258 39.6755C258 38.5338 256.469 39.5477 253.75 42.4891L249.5 47.0856L249.17 42.9548C248.92 39.826 249.378 38.3033 251.061 36.6756C254.573 33.2805 252.284 32.5472 247.798 35.6307L243.729 38.4275L244.384 35.313C245.24 31.2395 243.269 31.1977 241.975 35.2617ZM283.965 34.2884C283.945 34.7816 283.337 36.4595 282.613 38.0179L281.298 40.8518L280.686 38.0609C280.329 36.4272 280.578 34.8879 281.288 34.3493C282.84 33.1706 284.01 33.1443 283.965 34.2884ZM300.332 35.4826C300.579 35.9758 298.806 37.8352 296.391 39.617C292.355 42.593 292 42.6706 292 40.5795C292 36.7891 298.875 32.583 300.332 35.4826ZM301.519 41.6794C301.154 43.0527 300.473 43.8923 300.005 43.5471C299.537 43.202 297.525 44.0666 295.534 45.4686C293.543 46.8718 291.702 47.7663 291.443 47.4558C290.927 46.8396 301.286 38.2412 301.841 38.8252C302.029 39.0222 301.884 40.3072 301.519 41.6794ZM196.126 45.8293C195.279 49.8466 194.18 51.7168 191.507 53.6896C189.578 55.1131 188 56.7707 188 57.375C188 58.9752 189.256 58.7221 191.777 56.6119C194.581 54.2676 194.559 55.0976 191.513 66.4869C188.817 76.5661 188.525 78.773 189.882 78.773C190.669 78.773 194.929 64.157 196.54 55.9336C197.075 53.2 201.562 49.1898 202.642 50.4808C202.853 50.7316 202.376 54.9901 201.583 59.9426C200.046 69.5345 195.547 81.3501 188.373 94.6334C185.968 99.0878 184 103.252 184 103.889C184 111.271 198.285 83.7553 202.309 68.6221C204.727 59.5306 206.147 48.6154 205.078 47.3388C204.509 46.6593 202.993 46.7142 201.151 47.4809L198.151 48.73L198.706 44.6446C199.523 38.6329 197.442 39.5895 196.126 45.8293ZM164.473 46.8277C163.759 49.1253 165.446 55.2648 166.956 55.8667C167.94 56.2584 168.131 55.6362 167.665 53.5559C167.314 51.9903 167.021 49.4991 167.014 48.0219C166.999 45.1581 165.248 44.3353 164.473 46.8277ZM298.964 48.0995C297.433 49.7427 292 52.7808 292 51.995C292 51.2522 298.417 46.5709 299.464 46.5494C299.995 46.5387 299.77 47.2361 298.964 48.0995ZM40.985 49.5361C39.439 51.761 41.514 61.9058 43.723 62.9185C46.225 64.065 47.559 61.1881 45.676 58.7042C44.754 57.4872 44 54.8194 44 52.7749C44 48.3992 42.726 47.0307 40.985 49.5361ZM282.325 52.7987C280.075 55.5896 277.695 59.1293 277.036 60.6639C275.649 63.8942 276.668 66.0474 278.119 62.9508C278.652 61.8139 280.869 58.4271 283.044 55.4248C286.407 50.7841 287.863 47.7233 286.708 47.7233C286.548 47.7233 284.575 50.0079 282.325 52.7987ZM18.886 52.376C18.215 54.6772 15.896 57.2938 11.953 60.2005C5.075 65.27 0 70.1591 0 71.714C0 73.6319 2.632 72.8783 4.49 70.4266C6.595 67.6488 15.897 60.3378 16.464 61.0162C16.678 61.2705 16.267 64.8269 15.552 68.9195C14.58 74.4869 13.349 77.5525 10.661 81.1053C3.368 90.7462 -0.635 105.046 3.96 105.046C7.288 105.046 10.756 99.1069 13.553 88.6169C15.769 80.3088 16.775 78.1735 19.366 76.2866C31.488 67.4554 36.534 77.2098 29.571 96.0115C27.09 102.711 16.667 122.176 12.862 127.215C10.725 130.046 10.348 133.93 12.297 133.038C13.927 132.291 27.462 107.913 31.141 99.0974C36.581 86.0625 36.882 73.534 31.833 70.3072C29.235 68.646 22.763 69.7614 19.307 72.4651L16.755 74.4619L17.499 70.3478C19.366 60.0202 20.357 57.9948 24.168 56.7158C29.277 55.0021 29.854 53.8831 26.985 51.251C23.229 47.8045 20.094 48.2392 18.886 52.376ZM158.809 51.952C157.102 53.0591 155.893 53.2597 155.5 52.5014C154.493 50.5548 153 51.1364 153 53.4747C153 54.946 151.096 56.7301 147.086 59.0194C143.068 61.3123 141.344 62.9305 141.709 64.065C142.004 64.9845 140.339 71.6531 138.009 78.8852C135.678 86.1174 134.055 92.3727 134.402 92.7883C135.42 94.0029 136.541 91.7971 138.995 83.7589C141.35 76.0406 143.309 73.608 148.361 72.1236C151.021 71.3414 151.171 71.4823 150.504 74.1323C150.109 75.6991 148.929 79.3486 147.881 82.2422C146.039 87.3284 146.07 89.9425 147.945 87.6496C148.447 87.037 149.789 83.6944 150.928 80.2216C154.539 69.2169 153.378 66.4618 146.564 69.8617C143.011 71.6339 142.779 71.6292 143.371 69.7877C143.722 68.6962 144.262 66.5991 144.571 65.1279C144.912 63.5037 146.809 61.4807 149.4 59.9772L153.667 57.5016L155.904 65.7978L158.142 74.094L155.571 79.3331C153.015 84.5423 152.27 88.3267 153.802 88.3267C154.242 88.3267 155.6 85.5084 156.819 82.0631L159.035 75.8006L161.352 79.271C164.762 84.3786 166.752 82.1801 163.429 76.9757L160.849 72.9368L163.425 67.6895C166.207 62.0193 166.491 60.8597 165.099 60.8597C164.603 60.8597 163.176 62.8756 161.927 65.338L159.657 69.8164L158.405 65.0395C156.378 57.3033 156.653 55.3496 160 53.6944C161.65 52.8788 163 51.7383 163 51.1615C163 49.7141 161.957 49.9111 158.809 51.952ZM180.001 53.7744C176.977 55.764 174.075 57.904 173.551 58.5298C172.249 60.0847 175.591 60.0106 178.066 58.4295C179.13 57.7488 180 57.3822 180 57.6126C180 57.8431 179.513 61.2216 178.917 65.1183C178.108 70.4182 177.162 72.8556 175.167 74.7843C170.317 79.4764 173.573 78.8852 181.047 73.7179C185.465 70.663 187.744 68.4812 186.753 68.2531C185.847 68.0441 184.149 68.4848 182.98 69.2324C180.912 70.5532 180.874 70.435 181.564 64.8293C182.518 57.0764 183.669 53.6944 185.353 53.6944C186.124 53.6944 187.315 52.8883 188 51.9031C190.144 48.8172 186.092 49.7654 180.001 53.7744ZM23 52.5002C23 53.157 22.55 53.6944 22 53.6944C21.45 53.6944 21 53.157 21 52.5002C21 51.8434 21.45 51.306 22 51.306C22.55 51.306 23 51.8434 23 52.5002ZM216.533 53.9177C216.283 54.78 216.174 59.2475 216.29 63.8453C216.49 71.8023 216.62 72.2203 219 72.5284C221.686 72.8747 229.286 67.982 227.318 67.1724C226.668 66.9048 224.742 67.5461 223.038 68.5983C221.335 69.6504 219.504 70.1889 218.971 69.7949C217.356 68.603 217.878 65.7477 220 64.1653C222.749 62.1148 222.653 59.2571 219.871 60.3116C217.95 61.04 217.787 60.7487 218.204 57.3535C218.667 53.5881 217.388 50.9585 216.533 53.9177ZM106.771 56.5271C105.869 57.6043 104.846 59.5568 104.498 60.8669C103.763 63.6351 101 64.1008 101 61.4568C101 60.4716 100.316 59.6655 99.481 59.6655C98.352 59.6655 98.126 60.4477 98.602 62.7119C99.067 64.9224 98.729 66.2074 97.373 67.3909C94.964 69.4951 96.469 71.3844 99.032 69.4724C101.363 67.7336 102 67.662 102 69.1392C102 69.7519 101.1 70.5938 100 71.0106C97.665 71.8955 97.313 73.9961 99.5 73.9961C102.26 73.9961 101.039 76.1839 97.5 77.5788C93.922 78.9891 92.749 81.1614 95.566 81.1614C96.427 81.1614 98.051 80.5739 99.175 79.8549C101.163 78.5855 101.199 78.7551 100.52 86.1246C100.133 90.3175 99.192 94.293 98.411 95.0263C96.571 96.7555 96.602 99.0747 98.465 99.0747C100.343 99.0747 101.99 95.3929 102.036 91.0925L102.072 87.7296L104.324 91.0137C106.431 94.0864 109.028 95.4204 108.978 93.4022C108.966 92.9101 108.106 91.1869 107.068 89.5723C105.213 86.6918 105.215 86.5856 107.162 83.6299C109.532 80.0317 107.86 78.6679 104.942 81.8206C103.067 83.8472 103 83.8138 103 80.8485C103 78.3072 103.778 77.4211 107.5 75.7241C109.975 74.5956 112 73.1446 112 72.501C112 71.3223 109.001 71.7414 105.75 73.3727C104.647 73.9268 104 73.7214 104 72.8174C104 72.0292 104.9 71.1025 106 70.7598C108.631 69.9382 108.573 68.025 105.917 68.025C102.602 68.025 104.275 65.0837 107.827 64.6657C111.403 64.2429 112.337 60.8597 108.878 60.8597C107.126 60.8597 106.968 60.554 107.972 59.109C109.829 56.4363 108.764 54.147 106.771 56.5271ZM283.338 57.5756C279.71 62.4241 276.769 68.1468 277.473 68.9876C277.853 69.4414 278.816 68.7392 279.613 67.4255C280.41 66.1131 282.313 63.4273 283.842 61.4568C287.673 56.5211 288.392 54.8886 286.733 54.8886C285.972 54.8886 284.444 56.0984 283.338 57.5756ZM87.667 62.8505C87.3 63.2876 87 65.1613 87 67.0123C87 69.6181 86.095 71.0954 83 73.5411C80.8 75.2799 79 77.4737 79 78.4159C79 79.7319 79.675 79.5564 81.904 77.66C87.27 73.0969 87.488 75.5689 82.5 84.4145C80.575 87.8276 79 91.1797 79 91.8628C79 94.0936 80.501 93.1693 82.315 89.8195L84.093 86.5354L83.453 92.8051C82.761 99.5739 84.399 101.809 85.421 95.492C85.739 93.5216 86.27 90.2482 86.599 88.2181C87.09 85.1967 87.577 84.6461 89.286 85.18C92.282 86.115 100.066 84.645 99.359 83.2764C99.031 82.6435 97.354 82.3736 95.632 82.6757C93.909 82.9778 91.516 82.69 90.314 82.0368C87.071 80.2729 88.009 74.3448 92.208 70.06L95.5 66.6994L92.379 67.4231C89.46 68.1003 89.289 67.9498 89.745 65.1004C90.205 62.2307 89.146 61.083 87.667 62.8505ZM57.513 64.4173C57.136 65.1458 57.34 66.4785 57.967 67.3801C58.864 68.6711 58.617 69.2001 56.803 69.8725C55.536 70.343 53.301 71.7355 51.836 72.9667C49.863 74.6255 49.053 74.8177 48.717 73.7059C48.447 72.8138 47.769 73.4551 47.047 75.2883C46.059 77.7961 46.12 79.1922 47.375 82.7808C48.224 85.2062 48.664 87.984 48.352 88.9537C47.528 91.5189 49.751 91.114 50.929 88.4844C51.637 86.9056 52.675 86.4231 54.482 86.8363C56.996 87.4096 56.95 87.5326 51.394 95.0908C45.533 103.062 44.693 106.88 50.143 100.779L53.265 97.2834L52.728 102.359C52.432 105.151 52.498 107.434 52.874 107.434C54.672 107.434 67.346 100.343 68.106 98.9111C68.581 98.0166 68.976 95.2687 68.985 92.8051C68.998 88.8008 68.731 88.3267 66.46 88.3267C65.063 88.3267 62.08 89.4481 59.83 90.8179L55.741 93.3102L57.938 89.6236C59.245 87.4323 61.122 85.8535 62.568 85.7293C63.906 85.6147 66.373 85.426 68.05 85.3113C69.727 85.1967 71.617 84.4849 72.25 83.729C73.117 82.6936 72.242 82.3556 68.7 82.3556C63.835 82.3556 62.919 81.331 65.5 78.773C66.325 77.9549 67 76.2771 67 75.0446C67 73.1888 66.237 72.8019 62.578 72.8019C58.638 72.8019 57.773 73.3357 54.646 77.6994C51.205 82.4989 48.98 83.0149 49.02 79.0011C49.04 77.0784 57.201 71.6578 60.209 71.5695C60.919 71.5492 62.374 70.7431 63.441 69.7781C64.509 68.8144 66.646 68.025 68.191 68.025C71.457 68.025 71.836 70.1686 69.365 74.672C68.465 76.3117 68.004 77.9812 68.34 78.3837C69.409 79.6591 71.857 76.3404 73.06 71.9862C74.011 68.5469 73.958 67.4625 72.771 66.0462C71.564 64.6036 70.53 64.5487 66.628 65.7226C62.554 66.9478 61.692 66.8678 60.068 65.1123C58.785 63.7258 57.984 63.5085 57.513 64.4173ZM64 76.3177C64 78.7264 59.341 83.3373 56.242 83.9965L52.985 84.688L54.636 81.6785C57.1 77.1871 64 73.2366 64 76.3177ZM121.243 79.4107C118.083 83.5224 117.002 88.6432 118.985 90.1061C119.826 90.7271 123.169 85.5454 124.371 81.7585C124.608 81.011 125.214 81.085 125.99 81.9556C126.974 83.0602 126.897 84.147 125.615 87.2149C123.445 92.411 123.58 93.9276 125.98 91.3338C128.947 88.1273 129.593 81.9735 127.348 78.2953C126.332 76.6294 125.272 75.2488 124.993 75.2273C124.714 75.207 123.027 77.0891 121.243 79.4107ZM9.997 92.2402C8.032 98.5146 5.551 102.52 4.448 101.202C4.171 100.871 4.387 99.2084 4.929 97.5067C6.284 93.2505 11.04 84.3942 11.607 85.0713C11.862 85.3758 11.138 88.6014 9.997 92.2402ZM93.972 90.5671C90.837 93.9515 90.018 95.4084 91.234 95.4431C93.513 95.5076 99.404 89.1782 98.865 87.246C98.597 86.287 96.818 87.4956 93.972 90.5671ZM66.075 92.2378C66.034 92.7143 66 94.2035 66 95.547C66 98.8108 55.702 104.931 55.167 101.986C54.662 99.2037 57.435 94.9272 61.164 92.7346C64.495 90.7761 66.217 90.6017 66.075 92.2378ZM324.247 101.733C322.814 103.835 319 118.976 319 122.566C319 128.917 322.359 132.133 325.01 128.319C326.075 126.787 325.904 126.561 323.882 126.826C321.619 127.123 321.505 126.812 321.607 120.571C321.67 116.627 322.624 111.483 323.993 107.697C326.214 101.552 326.337 98.6687 324.247 101.733ZM265.75 104.535C265.337 105.035 265 106.343 265 107.441C265 109.577 260.419 112.821 258.104 112.326C256.973 112.083 256.833 113.489 257.369 119.737C257.976 126.81 257.864 127.499 256.015 128.077C254.907 128.424 254 129.281 254 129.983C254 130.86 254.803 130.895 256.568 130.093C258.941 129.016 259.079 129.131 258.395 131.616C257.066 136.437 257.377 139.093 259.25 138.915C260.459 138.8 261 139.616 261 141.554C261 143.792 260.191 144.648 257 145.79C254.8 146.577 253 147.673 253 148.226C253 148.779 253.278 149.232 253.618 149.232C255.64 149.232 279 139.211 279 138.343C279 136.978 278.988 136.979 274 139.081C268.398 141.441 268 141.372 268 138.027C268 136.238 268.704 134.96 269.894 134.588C271.842 133.979 273.674 127.615 272.534 125.413C272.152 124.675 269.994 125.133 266.83 126.622C264.03 127.94 261.542 128.782 261.301 128.493C260.682 127.754 271.993 122.817 274.921 122.548C276.253 122.425 277.55 121.586 277.802 120.682C278.136 119.485 277.57 119.196 275.715 119.62L273.169 120.2L275.037 117.101C276.065 115.397 277.201 112.525 277.561 110.718C278.232 107.358 277.701 106.892 273.75 107.372C272.754 107.493 272 106.78 272 105.718C272 103.035 270.329 103.416 269.71 106.24C269.024 109.375 267.225 109.304 266.82 106.127C266.644 104.751 266.163 104.034 265.75 104.535ZM330.948 110.495C329.811 112.13 329.982 112.262 332.325 111.559C335.393 110.641 335.717 111.674 333.345 114.804C331.797 116.847 331.813 116.986 333.595 116.95C335.617 116.909 339 114.342 339 112.848C339 112.357 338.376 112.241 337.613 112.591C336.64 113.037 336.377 112.541 336.73 110.927C337.127 109.112 336.709 108.628 334.739 108.628C333.367 108.628 331.661 109.468 330.948 110.495ZM275.998 110.718C275.997 111.21 274.631 111.729 272.962 111.868C271.226 112.013 270.183 111.631 270.523 110.973C271.22 109.624 276.001 109.403 275.998 110.718ZM267.771 112.436C267.553 113.215 266.84 114.066 266.187 114.326C265.456 114.617 265.233 114.07 265.606 112.909C266.304 110.737 268.371 110.286 267.771 112.436ZM209.067 115.922C206.629 117.214 204.016 117.988 203.262 117.641C201.672 116.913 199 123.592 199 128.295C199 132.057 200.124 132.06 206.849 128.321C209.791 126.686 212.823 125.347 213.586 125.347C214.955 125.347 218 118.245 218 115.051C218 112.766 214.354 113.122 209.067 115.922ZM263.391 115.105C262.803 116.934 260.032 118.618 259.214 117.642C258.441 116.718 261.081 113.405 262.591 113.405C263.344 113.405 263.697 114.154 263.391 115.105ZM272.557 116.489C270.265 118.49 269 118.654 269 116.95C269 115.607 273.188 113.336 273.998 114.239C274.273 114.545 273.624 115.557 272.557 116.489ZM304 114.945C304 115.133 304.9 117.396 306 119.974C307.1 122.551 308 125.888 308 127.391C308 129.077 308.601 130.124 309.567 130.124C310.726 130.124 310.959 129.423 310.46 127.437C308.986 121.562 306.055 114.6 305.056 114.6C304.475 114.6 304 114.755 304 114.945ZM216 117.042C216 119.394 211.415 123.766 206.685 125.923C201.423 128.323 200.833 128.16 201.629 124.522C201.982 122.915 204.215 120.901 207.84 118.925C213.989 115.573 216 115.108 216 117.042ZM268 117.439C268 117.687 267.325 118.558 266.5 119.376C265.271 120.595 265 120.512 265 118.925C265 117.86 265.675 116.988 266.5 116.988C267.325 116.988 268 117.191 268 117.439ZM293.028 120.712C291.157 122.577 289.925 124.463 290.292 124.9C290.658 125.338 289.618 127.873 287.979 130.534C286.341 133.195 285 135.803 285 136.331C285 138.382 286.577 137.113 288.163 133.785C289.41 131.166 290.347 130.456 291.911 130.945C294.578 131.778 299 128.355 299 125.456C299 124.233 298.422 121.901 297.715 120.276L296.431 117.319L293.028 120.712ZM263 120.443C263 121.029 262.325 121.819 261.5 122.197C259.976 122.896 259.452 121.623 260.667 120.173C261.622 119.031 263 119.191 263 120.443ZM155 122.867C155 124.131 156.151 126.797 157.557 128.794L160.115 132.423L156.807 134.061C154.988 134.96 151.363 136.665 148.75 137.85C146.137 139.033 144 140.467 144 141.035C144 142.732 146.091 142.123 154.5 137.973C158.9 135.802 162.63 134.154 162.788 134.31C162.947 134.467 158.11 142.45 152.038 152.05C145.967 161.651 141 169.78 141 170.116C141 172.372 143.525 169.577 148 162.368C150.854 157.771 153.407 154.009 153.674 154.009C154.324 154.009 153.259 160.011 150.855 169.907C149.767 174.382 149.049 178.95 149.259 180.058C149.468 181.166 150.908 177.129 152.459 171.087L155.279 160.1L162.213 155.749C170.052 150.83 170.637 148.777 163.095 152.652C156.621 155.978 156.332 155.913 156.788 151.252C157.044 148.629 158.994 144.734 162.587 139.664C169.169 130.376 169.76 126.443 164.022 130.11C162.463 131.107 161.768 130.459 159.546 125.93C156.761 120.254 155 119.068 155 122.867ZM269.5 121.765C266.751 123.175 265.172 123.175 267 121.765C267.825 121.128 269.175 120.636 270 120.673C270.989 120.716 270.819 121.088 269.5 121.765ZM264 124.153C263.175 124.79 262.05 125.31 261.5 125.31C260.95 125.31 261.175 124.79 262 124.153C262.825 123.517 263.95 122.996 264.5 122.996C265.05 122.996 264.825 123.517 264 124.153ZM297.45 124.057C297.763 124.661 297.307 126.004 296.438 127.042C294.541 129.308 291.554 129.614 292.597 127.437C294.706 123.033 296.333 121.899 297.45 124.057ZM174.91 132.481C173.747 137.901 173.179 138.705 168.393 141.696C165.51 143.5 163.366 145.391 163.63 145.9C163.893 146.409 165.928 145.717 168.151 144.363C170.375 143.009 172.374 142.116 172.594 142.378C172.992 142.854 171.37 155.033 170.36 159.146C170.07 160.33 167.395 162.725 164.416 164.47C161.437 166.215 159 168.068 159 168.588C159 170.113 159.801 169.799 169.894 164.317C175.178 161.448 181.863 158.18 184.75 157.055C187.637 155.931 190 154.516 190 153.913C190 152.09 187.358 152.653 180.467 155.948C176.863 157.671 173.672 158.793 173.377 158.439C173.082 158.087 173.426 153.634 174.143 148.543L175.445 139.285L180.199 136.795C182.814 135.425 184.963 133.9 184.976 133.408C185.015 131.953 182.113 132.381 179.024 134.29L176.147 136.067L177.073 132.207C178.229 127.394 178.232 126.542 177.092 126.542C176.593 126.542 175.611 129.214 174.91 132.481ZM270.985 128.632C270.95 130.637 269.299 132.344 265.628 134.17C257.986 137.97 256.877 134.859 264.289 130.411C268.726 127.749 271.01 127.141 270.985 128.632ZM204.386 131.213C199.629 133.794 198 137.858 198 147.152C198 153.014 198.028 153.065 200.75 152.256L203.5 151.438L200.563 155.112C198.948 157.133 198.174 158.786 198.843 158.786C199.513 158.786 201.453 156.893 203.154 154.58C205.698 151.119 206.447 150.668 207.373 152.038C208.801 154.15 212.815 155.332 213.574 153.865C213.891 153.254 212.766 152.177 211.075 151.472C209.384 150.769 208 149.766 208 149.243C208 147.898 210.75 146.804 212.322 147.524C214.228 148.398 216 142.926 216 136.167C216 131.992 215.559 130.178 214.418 129.655C211.72 128.419 208.664 128.893 204.386 131.213ZM37.606 131.114C36.745 132.777 38.712 138.544 41.237 141.763C42.394 143.238 43.152 144.631 42.921 144.856C42.689 145.082 38.468 147.169 33.54 149.496C28.612 151.821 24.412 154.325 24.206 155.061C23.583 157.294 25.929 156.61 36.282 151.54C41.737 148.869 46.332 146.854 46.494 147.062C46.656 147.27 40.734 157.036 33.334 168.764C21.25 187.914 18.618 192.928 21.933 190.481C22.52 190.049 25.784 185.326 29.188 179.988C32.591 174.648 35.55 170.908 35.765 171.676C35.979 172.443 34.094 181.66 31.577 192.158C29.06 202.656 27 211.909 27 212.721C27 216.765 29.231 210.419 32.945 195.806C37.485 177.942 38.389 176.465 47.733 171.639C50.611 170.153 52.974 168.265 52.983 167.444C53.006 165.456 53.104 165.428 45.84 169.541L39.5 173.129L39.189 168.932C38.845 164.29 40.172 161.59 48.143 150.711C54.825 141.594 54.347 138.824 46.75 142.637C45.66 143.186 45 142.988 45 142.114C45 141.344 43.787 138.733 42.305 136.314C38.384 129.914 38.284 129.803 37.606 131.114ZM235 131.085C235 131.765 233.655 132.675 232.011 133.106C227.835 134.203 226.717 136.701 230.845 135.714C233.572 135.064 234 135.297 234 137.434C234 138.794 233.258 141.407 232.35 143.242C230.06 147.872 231.14 150.426 235.387 150.426C239.25 150.426 242 149.441 242 148.057C242 147.55 239.93 147.415 237.399 147.756C233.287 148.31 232.837 148.136 233.16 146.116C233.36 144.863 234.517 143.688 235.76 143.476C237.919 143.108 239.039 139.678 237 139.678C236.45 139.678 236 138.335 236 136.693C236 134.172 236.467 133.707 239 133.707C240.65 133.707 242 133.17 242 132.513C242 131.856 241.438 131.311 240.75 131.302C240.063 131.294 238.488 130.962 237.25 130.566C235.975 130.158 235 130.382 235 131.085ZM213.5 132.513C213.84 133.17 213.529 133.712 212.809 133.718C212.089 133.724 209.254 135.028 206.509 136.615C203.764 138.202 201.391 139.348 201.236 139.163C201.08 138.977 201.242 137.926 201.595 136.827C202.914 132.722 211.919 129.458 213.5 132.513ZM96.5 140.509C91.855 147.344 86.007 158.025 86.003 159.681C85.997 162.651 87.57 161.024 91.207 154.297C93.247 150.526 96.182 145.636 97.73 143.429L100.545 139.418L105.903 144.623C114.735 153.204 115 153.396 115 151.22C115 149.385 102.163 136.095 100.389 136.095C99.9 136.095 98.15 138.081 96.5 140.509ZM214 138.612C214 140.424 213.554 140.924 212.405 140.397C211.528 139.996 208.771 140.743 206.278 142.061C201.3 144.69 200 144.974 200 143.433C200 142.314 210.735 136.155 212.75 136.118C213.438 136.106 214 137.228 214 138.612ZM265.616 141.539C265.312 142.486 264.599 143.261 264.031 143.261C262.591 143.261 262.741 139.273 264.25 137.458C265.254 136.252 265.566 136.335 265.835 137.887C266.019 138.948 265.92 140.593 265.616 141.539ZM62.396 138.974C62.072 139.984 61.268 143.329 60.61 146.408C59.493 151.638 59.008 152.247 53.22 155.694C49.813 157.723 47.02 159.786 47.013 160.278C46.987 162.072 50.425 161.104 54.697 158.113L59.069 155.054L58.592 157.815C58.33 159.334 57.837 162.727 57.497 165.354C55.906 177.638 55.302 178.871 49.033 182.65C45.795 184.602 42.861 186.748 42.514 187.421C41.286 189.792 44.905 188.586 53.154 183.873C57.744 181.249 65.325 177.512 70 175.569C75.16 173.423 78.628 171.306 78.825 170.18C79.081 168.713 77.026 169.227 69.008 172.631C63.43 174.999 58.716 176.75 58.532 176.52C58.232 176.145 60.217 162.084 61.478 155.648C61.8 154.006 63.927 152.005 67.488 149.991C70.52 148.276 73 146.33 73 145.665C73 143.841 70.839 144.202 66.711 146.714C62.695 149.16 62.405 148.708 63.926 142.373C64.876 138.419 63.533 135.436 62.396 138.974ZM212.807 143.356C212.396 144.829 201.043 149.681 200.243 148.725C199.954 148.38 201.693 147.093 204.108 145.864C212.399 141.649 213.361 141.37 212.807 143.356ZM96.75 154.806C89.91 158.67 87.206 161.174 89.875 161.174C91.807 161.174 106 152.792 106 151.65C106 149.781 105.111 150.085 96.75 154.806ZM106.791 155.85C106.493 156.206 101.855 158.861 96.485 161.75C91.115 164.637 86.251 167.562 85.677 168.247C83.809 170.478 85.739 170.95 88.857 169.025C93.104 166.402 93.375 166.636 90.837 170.736C87.385 176.312 89.52 177.764 96.203 174.388C99.116 172.916 102.063 171.432 102.75 171.092C103.447 170.747 104 171.321 104 172.391C104 174.423 105.525 175.001 106.403 173.303C106.69 172.748 106.658 170.33 106.332 167.929C105.702 163.293 103 161.739 103 166.012C103 168.376 100.584 170.143 94.121 172.506C91.773 173.363 91.779 173.319 94.613 169.079C96.192 166.715 100.075 163.133 103.242 161.117C106.409 159.101 109 156.945 109 156.327C109 155.103 107.659 154.814 106.791 155.85ZM122 162.183C122 164.58 124.949 168.339 126.829 168.339C127.473 168.339 128 167.802 128 167.145C128 166.488 127.54 165.951 126.979 165.951C126.417 165.951 125.445 164.607 124.818 162.965C123.48 159.458 122 159.047 122 162.183Z" fill="white"/>
</svg>
