<svg width="294" height="61" viewBox="0 0 294 61" fill="none" xmlns="http://www.w3.org/2000/svg">
<path d="M3.97538 4.176C5.70338 4.368 7.91138 4.464 10.3354 4.464C12.6394 4.464 15.0634 4.32 16.7914 4.128V6.096C15.1594 6.216 12.5434 6.384 10.3354 6.384C7.93538 6.384 5.87138 6.288 3.97538 6.12V4.176ZM4.93538 13.848C4.64738 14.784 4.45538 15.672 4.45538 16.56C4.45538 18.408 6.32738 19.656 10.1674 19.656C13.4554 19.656 16.5514 19.296 18.3754 18.72L18.3994 20.784C16.6714 21.24 13.6234 21.6 10.2154 21.6C5.34338 21.6 2.51138 20.016 2.51138 16.992C2.51138 15.744 2.77538 14.616 2.99138 13.656L4.93538 13.848ZM27.9754 4.176C29.7034 4.368 31.9114 4.464 34.3354 4.464C36.6394 4.464 39.0634 4.32 40.7914 4.128V6.096C39.1594 6.216 36.5434 6.384 34.3354 6.384C31.9354 6.384 29.8714 6.288 27.9754 6.12V4.176ZM28.9354 13.848C28.6474 14.784 28.4554 15.672 28.4554 16.56C28.4554 18.408 30.3274 19.656 34.1674 19.656C37.4554 19.656 40.5514 19.296 42.3754 18.72L42.3994 20.784C40.6714 21.24 37.6234 21.6 34.2154 21.6C29.3434 21.6 26.5114 20.016 26.5114 16.992C26.5114 15.744 26.7754 14.616 26.9914 13.656L28.9354 13.848ZM51.7114 4.272C51.5914 4.824 51.5194 5.976 51.4954 6.6C51.4714 8.088 51.4954 10.296 51.6634 12.264C52.0714 16.272 53.2234 18.936 54.9514 18.936C56.1754 18.936 57.3034 16.464 57.9274 14.064L59.4394 15.768C57.9754 19.824 56.5354 21.216 54.9034 21.216C52.6234 21.216 50.4634 18.96 49.7914 12.744C49.5754 10.68 49.5274 7.752 49.5274 6.36C49.5274 5.808 49.5274 4.776 49.3834 4.224L51.7114 4.272ZM64.1914 4.92C66.3514 7.704 68.0794 12.816 68.4394 16.872L66.4954 17.64C66.0874 13.32 64.6234 8.376 62.3434 5.568L64.1914 4.92ZM80.5114 2.208C80.3194 2.856 80.1994 3.6 80.0554 4.224C79.7194 6.144 78.7594 10.776 77.9434 13.008C80.0314 11.544 82.1914 10.944 84.6874 10.944C88.5034 10.944 90.7354 12.888 90.7354 15.696C90.7354 20.712 85.6234 22.56 78.3274 21.792L77.8234 19.872C83.3914 20.64 88.7674 19.704 88.7674 15.744C88.7674 13.968 87.3034 12.576 84.4954 12.576C81.6394 12.576 78.9754 13.56 77.3914 15.456C77.1034 15.816 76.8874 16.152 76.6474 16.56L74.8714 15.936C76.6954 12.36 77.9674 6.408 78.2554 4.104C78.3514 3.336 78.3994 2.76 78.3514 2.112L80.5114 2.208ZM73.0474 5.28C74.3194 5.496 76.1434 5.664 77.5834 5.664C80.6554 5.664 85.3834 5.304 89.1514 4.464L89.1994 6.312C85.7914 6.912 80.8954 7.392 77.6074 7.392C75.9754 7.392 74.4394 7.272 73.0714 7.152L73.0474 5.28ZM103.335 7.08C104.703 7.224 105.999 7.296 107.415 7.296C110.295 7.296 113.247 7.056 115.671 6.576V8.424C113.127 8.856 110.223 9.048 107.367 9.048C105.999 9.048 104.751 8.976 103.359 8.88L103.335 7.08ZM111.735 2.784C111.663 3.264 111.615 3.768 111.591 4.224C111.543 5.112 111.519 6.816 111.519 8.232C111.519 11.928 111.879 15.648 111.879 18.144C111.879 20.112 110.967 22.032 107.727 22.032C104.535 22.032 102.759 20.736 102.759 18.576C102.759 16.56 104.535 14.976 107.679 14.976C111.735 14.976 114.543 17.016 116.559 18.84L115.527 20.424C112.983 18.072 110.583 16.44 107.535 16.44C105.735 16.44 104.487 17.232 104.487 18.384C104.487 19.632 105.687 20.28 107.391 20.28C109.431 20.28 110.007 19.248 110.007 17.664C110.007 15.936 109.695 11.424 109.695 8.256C109.695 6.624 109.671 5.088 109.695 4.248C109.695 3.84 109.647 3.216 109.575 2.784H111.735ZM99.9034 2.952C99.7594 3.36 99.5434 4.128 99.4714 4.56C98.9914 6.792 98.2714 11.544 98.2714 14.232C98.2714 15.408 98.3434 16.392 98.5354 17.568C98.8954 16.488 99.4714 15.024 99.9034 14.04L100.887 14.808C100.287 16.488 99.3994 18.936 99.1594 20.112C99.0874 20.448 99.0394 20.904 99.0634 21.192C99.0634 21.432 99.1114 21.768 99.1354 22.032L97.4314 22.176C96.9754 20.448 96.5434 17.808 96.5434 14.568C96.5434 11.04 97.3354 6.456 97.6234 4.464C97.7194 3.912 97.7914 3.288 97.7914 2.76L99.9034 2.952ZM113.823 1.992C114.255 2.88 114.903 4.368 115.239 5.352L114.015 5.784C113.655 4.728 113.103 3.288 112.623 2.376L113.823 1.992ZM116.223 1.272C116.679 2.16 117.303 3.624 117.663 4.584L116.439 5.016C116.079 3.936 115.527 2.544 115.047 1.656L116.223 1.272ZM131.487 3.192C131.271 3.48 130.983 3.912 130.719 4.368C129.639 6.024 127.431 10.008 126.207 12.336C127.359 11.304 128.607 10.848 129.759 10.848C131.367 10.848 132.519 11.88 132.591 13.776C132.639 15.192 132.591 17.016 132.687 18.192C132.759 19.392 133.575 19.92 134.607 19.92C137.295 19.92 138.879 16.608 139.479 14.04L141.087 15.336C139.815 19.2 137.799 21.888 134.319 21.888C131.751 21.888 130.911 20.28 130.839 18.864C130.767 17.448 130.791 15.6 130.719 14.28C130.671 13.248 130.047 12.6 128.967 12.6C127.047 12.6 125.223 14.568 124.311 16.464C123.567 17.88 122.559 20.736 122.223 21.912L120.159 21.192C121.911 16.344 127.167 6.504 128.487 4.2C128.751 3.624 129.063 3.048 129.351 2.328L131.487 3.192ZM143.036 5.208C143.948 5.184 144.716 5.136 145.196 5.088C146.732 4.92 151.268 4.488 155.684 4.104C158.324 3.888 160.556 3.744 162.164 3.696L162.188 5.616C160.796 5.592 158.708 5.64 157.484 5.976C154.052 7.08 151.964 10.752 151.964 13.584C151.964 18.264 156.356 19.776 160.244 19.92L159.548 21.888C155.108 21.72 150.068 19.368 150.068 13.992C150.068 10.272 152.348 7.2 154.532 5.904C151.964 6.168 145.844 6.768 143.252 7.32L143.036 5.208ZM158.708 8.544C159.26 9.336 160.172 10.824 160.7 11.904L159.452 12.456C158.9 11.304 158.228 10.08 157.508 9.072L158.708 8.544ZM161.324 7.536C161.924 8.328 162.86 9.792 163.412 10.848L162.188 11.448C161.612 10.296 160.892 9.096 160.148 8.088L161.324 7.536ZM166.388 3.624H176.276V5.256H166.388V3.624ZM170.588 0.887999H172.22V8.352H170.588V0.887999ZM168.236 8.832V12.168H174.596V8.832H168.236ZM166.844 7.392H176.06V13.608H166.844V7.392ZM170.54 12.672L171.716 13.248C170.612 16.056 168.572 19.416 166.628 21.168C166.46 20.688 166.052 19.968 165.788 19.56C167.564 18.072 169.58 15.12 170.54 12.672ZM172.124 13.656C172.892 14.256 175.652 16.8 176.3 17.424L175.196 18.816C174.452 17.76 172.148 15.36 171.212 14.472L172.124 13.656ZM170.684 8.28H172.124V13.008H172.22V22.944H170.588V13.008H170.684V8.28ZM176.468 1.992H188.06V3.576H176.468V1.992ZM179.156 10.968V13.296H185.444V10.968H179.156ZM179.156 14.64V16.992H185.444V14.64H179.156ZM179.156 7.32V9.624H185.444V7.32H179.156ZM177.524 5.904H187.172V18.408H177.524V5.904ZM181.316 2.76L183.26 3.024C182.9 4.416 182.468 5.952 182.108 6.96L180.572 6.648C180.86 5.568 181.172 3.912 181.316 2.76ZM179.636 18.84L181.172 19.752C179.924 21 177.836 22.272 176.036 22.944C175.748 22.632 175.22 22.08 174.836 21.768C176.612 21.096 178.676 19.896 179.636 18.84ZM183.14 19.824L184.484 18.96C185.9 19.848 187.7 21.144 188.588 22.056L187.172 23.016C186.332 22.128 184.556 20.76 183.14 19.824ZM197.276 2.064C196.772 3.84 196.316 7.08 196.172 8.76C197.156 6.288 199.652 3.288 202.7 3.288C205.868 3.288 208.172 6.504 208.172 11.544C208.172 18.192 203.972 21.144 198.044 22.224L196.892 20.496C202.124 19.704 206.18 17.592 206.18 11.568C206.18 7.776 204.908 5.04 202.388 5.04C199.388 5.04 196.604 9.408 196.316 12.552C196.196 13.464 196.196 14.304 196.364 15.504L194.492 15.648C194.372 14.736 194.252 13.392 194.252 11.832C194.252 9.552 194.708 6.024 194.996 4.056C195.092 3.336 195.14 2.664 195.188 1.992L197.276 2.064ZM224.084 4.8C226.7 5.256 231.572 5.16 233.948 4.8V6.744C231.38 7.032 226.724 7.032 224.108 6.744L224.084 4.8ZM225.02 14.592C224.804 15.456 224.684 16.128 224.684 16.776C224.684 17.88 225.452 18.96 228.74 18.96C230.876 18.96 232.748 18.768 234.668 18.312L234.716 20.328C233.228 20.64 231.212 20.832 228.716 20.832C224.708 20.832 222.908 19.488 222.908 17.232C222.908 16.44 223.028 15.576 223.292 14.424L225.02 14.592ZM219.524 2.952C219.38 3.36 219.188 4.128 219.092 4.56C218.636 6.792 217.892 11.064 217.892 13.776C217.892 14.928 217.964 15.936 218.108 17.112C218.516 16.032 219.068 14.592 219.476 13.608L220.484 14.4C219.884 16.104 218.996 18.624 218.78 19.776C218.708 20.112 218.66 20.568 218.66 20.856C218.684 21.096 218.708 21.432 218.732 21.696L217.028 21.816C216.548 20.112 216.14 17.352 216.14 14.088C216.14 10.56 216.932 6.456 217.22 4.464C217.292 3.912 217.364 3.312 217.388 2.784L219.524 2.952ZM239.468 5.88C240.356 5.976 241.388 6.024 242.42 6.024C245.012 6.024 248.036 5.712 250.796 4.8L250.844 6.576C248.492 7.224 245.348 7.752 242.42 7.728C241.532 7.728 240.5 7.704 239.612 7.68L239.468 5.88ZM247.988 1.968C247.676 3.144 247.172 5.4 246.596 7.104C245.444 10.56 243.236 14.928 241.244 17.616L239.396 16.656C241.532 14.16 243.764 9.888 244.748 7.056C245.276 5.544 245.804 3.432 245.876 1.752L247.988 1.968ZM253.652 9.384C253.58 10.368 253.58 11.088 253.604 11.952C253.652 13.512 253.868 17.16 253.868 18.744C253.868 20.664 252.644 22.224 249.668 22.224C247.028 22.224 244.892 21.168 244.892 18.768C244.892 16.56 246.98 15.168 249.668 15.168C253.7 15.168 256.796 17.184 258.764 18.888L257.756 20.52C255.908 18.84 253.148 16.704 249.62 16.704C247.844 16.704 246.644 17.52 246.644 18.624C246.644 19.728 247.58 20.496 249.452 20.496C251.444 20.496 252.116 19.44 252.116 18.144C252.116 16.32 251.852 12.024 251.756 9.384H253.652ZM258.452 10.008C257.156 8.904 254.54 7.44 252.956 6.696L253.916 5.256C255.668 6 258.38 7.56 259.532 8.424L258.452 10.008ZM266.876 3.336C267.404 3.384 268.076 3.408 268.556 3.408C269.828 3.408 275.516 3.24 276.788 3.12C277.508 3.048 277.844 3 278.108 2.904L279.212 4.32C278.78 4.608 278.3 4.92 277.844 5.28C276.668 6.192 273.404 9 271.532 10.536C272.636 10.176 273.788 10.056 274.868 10.056C278.852 10.056 281.708 12.432 281.708 15.672C281.708 19.536 278.516 22.056 273.428 22.056C270.164 22.056 268.172 20.64 268.172 18.624C268.172 16.992 269.66 15.504 271.868 15.504C275.06 15.504 276.668 17.76 276.836 20.184L275.108 20.472C274.964 18.432 273.788 16.968 271.868 16.968C270.764 16.968 269.924 17.64 269.924 18.48C269.924 19.656 271.244 20.352 273.14 20.352C277.22 20.352 279.788 18.672 279.788 15.672C279.788 13.296 277.532 11.544 274.388 11.544C270.404 11.544 268.244 13.224 265.22 16.32L263.828 14.928C265.82 13.296 268.916 10.704 270.284 9.528C271.628 8.424 274.652 5.904 275.852 4.824C274.58 4.896 269.78 5.088 268.532 5.16C267.98 5.208 267.452 5.232 266.924 5.304L266.876 3.336ZM291.716 22.344C290.156 20.448 288.092 18.408 286.388 17.016L287.948 15.648C289.676 17.04 291.836 19.2 293.348 20.952L291.716 22.344ZM1.83938 42.968C2.46338 43.04 3.35138 43.088 3.85538 43.088H17.0314C17.7754 43.088 18.5194 43.04 19.0954 42.968V45.056C18.4954 45.008 17.7274 44.96 17.0314 44.96H3.85538C3.37538 44.96 2.43938 45.008 1.83938 45.056V42.968ZM9.25538 57.056V44.168H11.2954V57.056H9.25538ZM0.375375 55.88C1.07138 55.976 1.81538 56.024 2.48738 56.024H18.3514C19.0714 56.024 19.7194 55.928 20.3194 55.88V58.04C19.6954 57.968 18.8074 57.968 18.3514 57.968H2.48738C1.83938 57.968 1.09538 57.992 0.375375 58.04V55.88ZM24.7834 48.608C25.5274 48.68 26.7754 48.752 28.1434 48.752C29.8954 48.752 39.5194 48.752 41.2954 48.752C42.4954 48.752 43.3354 48.656 43.8874 48.608V50.96C43.3834 50.936 42.3754 50.864 41.3194 50.864C39.4954 50.864 29.9194 50.864 28.1434 50.864C26.8234 50.864 25.5514 50.912 24.7834 50.96V48.608ZM64.3401 42.968C64.1961 43.16 63.8841 43.688 63.7641 44C62.8041 46.376 60.9801 49.736 58.9881 51.944C56.3001 54.944 52.8681 57.8 49.0761 59.528L47.5401 57.92C51.4281 56.432 54.9561 53.552 57.4281 50.816C59.0601 48.968 60.8121 46.112 61.4361 44.12C60.5721 44.12 52.8921 44.12 52.0761 44.12C51.2121 44.12 49.9161 44.216 49.6521 44.24V42.08C49.9641 42.128 51.3321 42.224 52.0761 42.224C53.0121 42.224 60.4281 42.224 61.3401 42.224C62.1081 42.224 62.7561 42.152 63.1401 42.032L64.3401 42.968ZM59.3001 50.696C61.8921 52.856 65.0841 56.216 66.7161 58.208L65.0601 59.672C63.3321 57.392 60.5241 54.32 57.9321 52.04L59.3001 50.696ZM82.6761 42.632C82.3641 45.128 81.8841 47.936 81.1401 50.504C79.6761 55.424 77.7561 57.968 75.5481 57.968C73.3881 57.968 71.2521 55.52 71.2521 51.536C71.2521 46.328 75.8841 41.792 81.7641 41.792C87.3801 41.792 90.9561 45.752 90.9561 50.624C90.9561 55.64 87.6441 59 81.9321 59.744L80.8281 57.968C81.5961 57.896 82.3161 57.8 82.8921 57.68C85.9641 56.984 88.9881 54.68 88.9881 50.528C88.9881 46.688 86.3241 43.52 81.7161 43.52C76.4361 43.52 73.1481 47.864 73.1481 51.392C73.1481 54.416 74.5161 55.76 75.5961 55.76C76.7241 55.76 78.0201 54.128 79.2441 50.072C79.9401 47.792 80.4441 45.08 80.6841 42.584L82.6761 42.632ZM94.4361 53.528H115.892V55.04H94.4361V53.528ZM98.4681 44.768H113.324V46.04H98.4681V44.768ZM98.4681 47.648H113.396V48.944H98.4681V47.648ZM98.1801 41.696H114.308V43.184H98.1801V41.696ZM104.66 42.536H106.412V51.152H104.66V42.536ZM104.204 51.608H106.004V60.92H104.204V51.608ZM103.82 54.08L105.212 54.8C102.836 57.296 98.5641 59.576 95.0361 60.68C94.7721 60.2 94.2441 59.528 93.8361 59.168C97.4121 58.256 101.636 56.24 103.82 54.08ZM106.412 54.08C108.572 56.192 112.772 58.112 116.372 59C115.988 59.36 115.484 60.032 115.22 60.488C111.644 59.432 107.396 57.224 105.02 54.8L106.412 54.08ZM105.788 38.84L107.804 39.128C107.132 40.4 106.388 41.744 105.764 42.656L104.18 42.32C104.756 41.36 105.452 39.872 105.788 38.84ZM99.5241 38.816L101.396 39.152C99.9801 41.792 97.9641 44.72 95.1081 47.12C94.7961 46.712 94.1961 46.16 93.7881 45.92C96.4761 43.808 98.4441 41 99.5241 38.816ZM97.3401 42.68H99.0681V50.6H115.244V52.04H97.3401V42.68ZM122.18 45.656H136.388V47.216H122.18V45.656ZM131.42 42.584H133.124V55.064C133.124 56.048 132.884 56.528 132.164 56.768C131.492 57.032 130.316 57.032 128.444 57.032C128.372 56.6 128.132 55.928 127.916 55.472C129.284 55.52 130.556 55.52 130.94 55.496C131.3 55.472 131.42 55.376 131.42 55.04V42.584ZM123.98 49.112L125.3 48.416C126.548 49.712 127.772 51.536 128.252 52.784L126.86 53.552C126.404 52.304 125.204 50.432 123.98 49.112ZM119.132 39.968H139.244V60.92H137.396V41.696H120.932V60.92H119.132V39.968ZM120.188 58.112H138.14V59.84H120.188V58.112ZM145.82 53.168C147.836 53.168 149.468 54.8 149.468 56.816C149.468 58.832 147.836 60.464 145.82 60.464C143.804 60.464 142.148 58.832 142.148 56.816C142.148 54.8 143.804 53.168 145.82 53.168ZM145.82 59.24C147.164 59.24 148.244 58.16 148.244 56.816C148.244 55.472 147.164 54.392 145.82 54.392C144.476 54.392 143.372 55.472 143.372 56.816C143.372 58.16 144.476 59.24 145.82 59.24Z" fill="white"/>
</svg>
