<svg width="110" height="129" viewBox="0 0 110 129" fill="none" xmlns="http://www.w3.org/2000/svg">
<path d="M35.4834 93.6702C35.4834 78.3191 47.928 65.8745 63.2791 65.8745C78.6303 65.8745 91.0748 78.3191 91.0748 93.6702V105.301C91.0748 109.656 87.5445 113.186 83.1895 113.186H38.5786C36.8692 113.186 35.4834 111.801 35.4834 110.091V93.6702Z" fill="#FF7B31"/>
<path d="M100.537 41.6272C100.537 62.2043 83.8562 75.3369 63.2791 75.3369C42.702 75.3369 26.021 62.2043 26.021 41.6272C26.021 21.0502 42.702 4.36914 63.2791 4.36914C83.8562 4.36914 100.537 21.0502 100.537 41.6272Z" fill="#FFDCDC"/>
<rect x="81.6128" y="4.36865" width="28.3871" height="28.3871" rx="14.1936" fill="#FF5C00"/>
<path d="M99.7486 46.223C100.023 46.2575 100.273 46.0635 100.304 45.7891C100.832 41.0956 100.462 36.343 99.2137 31.7847C97.9211 27.0656 95.7116 22.6473 92.7114 18.782C89.7111 14.9168 85.9789 11.6802 81.7277 9.25711C77.4765 6.83404 72.7897 5.27193 67.9348 4.65998C63.0799 4.04802 58.152 4.3982 53.4325 5.69052C48.713 6.98284 44.2943 9.19199 40.4287 12.1918C36.5631 15.1917 33.3263 18.9235 30.9031 23.1742C28.5624 27.28 27.0252 31.7923 26.3717 36.4699C26.3335 36.7434 26.5279 36.9936 26.8019 37.0281L63.2753 41.6256L99.7486 46.223Z" fill="#FF7B31"/>
<ellipse cx="99.3547" cy="52.2723" rx="4.73119" ry="5.32259" fill="#FFDCDC"/>
<circle cx="43.3975" cy="53.6812" r="2" fill="#4F5AA0"/>
<circle cx="57.3975" cy="53.6812" r="2" fill="#4F5AA0"/>
<path d="M25.8456 108.651C20.3037 102.446 20.8417 92.9224 27.0473 87.3805C33.2529 81.8385 42.7762 82.3766 48.3181 88.5822L50.1425 90.6251C55.6845 96.8307 55.1465 106.354 48.9409 111.896C42.7353 117.438 33.212 116.9 27.6701 110.694L25.8456 108.651Z" fill="#F3F8FF"/>
<path fill-rule="evenodd" clip-rule="evenodd" d="M48.9168 91.7198L47.0923 89.6768C42.155 84.1482 33.6706 83.6689 28.142 88.6063C22.6133 93.5436 22.134 102.028 27.0714 107.557L28.8958 109.6C33.8332 115.128 42.3176 115.608 47.8462 110.67C53.3748 105.733 53.8541 97.2484 48.9168 91.7198ZM27.0473 87.3805C20.8417 92.9224 20.3037 102.446 25.8456 108.651L27.6701 110.694C33.212 116.9 42.7353 117.438 48.9409 111.896C55.1465 106.354 55.6845 96.8307 50.1425 90.6251L48.3181 88.5822C42.7762 82.3766 33.2529 81.8385 27.0473 87.3805Z" fill="#B5D2FF"/>
<path d="M37.9109 73.6387C44.2589 80.747 41.0884 88.7953 33.9802 95.1433C26.8719 101.491 18.5177 103.735 12.1697 96.627C5.82163 89.5187 8.26237 80.6532 15.3706 74.3052C22.4788 67.9572 31.5628 66.5305 37.9109 73.6387Z" fill="#FFDCDC"/>
<path d="M14.899 96.3931C15.8059 97.4086 15.8093 98.8853 14.9067 99.6914C14.004 100.497 12.5372 100.328 11.6303 99.3123C10.7234 98.2968 10.72 96.8202 11.6226 96.0141C12.5253 95.208 13.9922 95.3777 14.899 96.3931Z" fill="#FFDCDC"/>
<path d="M40.6402 73.4049C41.5471 74.4203 41.5505 75.897 40.6479 76.7031C39.7453 77.5092 38.2784 77.3395 37.3715 76.324C36.4646 75.3085 36.4612 73.8319 37.3639 73.0258C38.2665 72.2197 39.7334 72.3894 40.6402 73.4049Z" fill="#FFDCDC"/>
<path d="M26.5901 88.6847C27.1056 89.262 27.0555 90.1478 26.4783 90.6633C25.9011 91.1788 25.0153 91.1287 24.4998 90.5515C23.9843 89.9743 24.0343 89.0885 24.6116 88.573C25.1888 88.0575 26.0746 88.1075 26.5901 88.6847Z" fill="#4F5AA0"/>
<path d="M31.8152 84.0178C32.3307 84.595 32.2806 85.4808 31.7034 85.9963C31.1262 86.5118 30.2404 86.4617 29.7249 85.8845C29.2094 85.3073 29.2594 84.4215 29.8367 83.906C30.4139 83.3905 31.2997 83.4405 31.8152 84.0178Z" fill="#4F5AA0"/>
<path fill-rule="evenodd" clip-rule="evenodd" d="M24.6111 75.1859C25.064 75.1571 25.4545 75.501 25.4832 75.9539C25.5764 77.4196 25.0857 79.483 23.0928 80.4744C22.7872 80.6265 22.4544 80.7487 22.0929 80.8381C22.1176 80.908 22.1332 80.9825 22.1381 81.0601C22.2313 82.5258 21.7406 84.5893 19.7477 85.5807C17.8077 86.5458 14.7726 86.3103 10.2305 84.0843C9.823 83.8846 9.65454 83.3924 9.85425 82.9849C10.054 82.5774 10.5462 82.4089 10.9537 82.6086C15.3855 84.7805 17.7952 84.7165 19.0157 84.1093C20.1833 83.5285 20.5686 82.2759 20.498 81.1644C20.4947 81.1129 20.4963 81.0623 20.5022 81.0129C18.7291 81.0005 16.4552 80.3893 13.5756 78.9781C13.1681 78.7784 12.9997 78.2861 13.1994 77.8786C13.3991 77.4711 13.8913 77.3026 14.2989 77.5023C18.7306 79.6742 21.1404 79.6102 22.3608 79.003C23.5284 78.4222 23.9138 77.1696 23.8431 76.0581C23.8143 75.6052 24.1582 75.2147 24.6111 75.1859Z" fill="#599BFE"/>
<rect x="86.0615" y="93.0781" width="17.7419" height="43.7635" rx="7.5" transform="rotate(65.8498 86.0615 93.0781)" fill="#FF7B31"/>
<circle cx="46.7198" cy="118.508" r="10.0538" fill="#FFDCDC"/>
<ellipse cx="24.245" cy="106.208" rx="6.50538" ry="10.0538" transform="rotate(-36.8448 24.245 106.208)" fill="#FFDCDC"/>
<path d="M100.26 46.2339C100.117 47.2842 99.0207 48.1944 97.0332 48.9125C95.0457 49.6307 92.206 50.1427 88.6763 50.4193C85.1466 50.6959 80.996 50.7318 76.4615 50.5248C71.9269 50.3179 67.0973 49.8721 62.2483 49.2131C57.3993 48.554 52.6258 47.6946 48.2006 46.6838C43.7753 45.673 39.7848 44.5306 36.457 43.3219C33.1292 42.1133 30.5291 40.8619 28.8054 39.6394C27.0816 38.4169 26.2679 37.2471 26.4106 36.1968L100.26 46.2339Z" fill="#FF7B31"/>
</svg>
