<svg width="193" height="49" viewBox="0 0 193 49" fill="none" xmlns="http://www.w3.org/2000/svg">
<mask id="path-1-outside-1_379_872" maskUnits="userSpaceOnUse" x="-1" y="-1" width="195" height="51" fill="black">
<rect fill="white" x="-1" y="-1" width="195" height="51"/>
<path d="M29.9708 16.448C29.9708 20.16 28.6908 23.2533 26.1308 25.728C23.6134 28.16 19.7521 29.376 14.5468 29.376H5.97075V48H0.14675V3.392H14.5468C19.5814 3.392 23.4001 4.608 26.0028 7.04C28.6481 9.472 29.9708 12.608 29.9708 16.448ZM14.5468 24.576C17.7894 24.576 20.1788 23.872 21.7148 22.464C23.2508 21.056 24.0188 19.0507 24.0188 16.448C24.0188 10.944 20.8614 8.192 14.5468 8.192H5.97075V24.576H14.5468ZM54.6173 12.288C57.2626 12.288 59.6519 12.864 61.7853 14.016C63.9186 15.1253 65.5826 16.8107 66.7773 19.072C68.0146 21.3333 68.6333 24.0853 68.6333 27.328V48H62.8733V28.16C62.8733 24.6613 61.9986 21.9947 60.2493 20.16C58.4999 18.2827 56.1106 17.344 53.0813 17.344C50.0093 17.344 47.5559 18.304 45.7213 20.224C43.9293 22.144 43.0333 24.9387 43.0333 28.608V48H37.2093V0.639999H43.0333V17.92C44.1853 16.128 45.7639 14.7413 47.7693 13.76C49.8173 12.7787 52.0999 12.288 54.6173 12.288ZM93.4428 48.576C90.1574 48.576 87.1708 47.8293 84.4828 46.336C81.8374 44.8427 79.7468 42.7307 78.2108 40C76.7174 37.2267 75.9708 34.0267 75.9708 30.4C75.9708 26.816 76.7388 23.6587 78.2748 20.928C79.8534 18.1547 81.9868 16.0427 84.6748 14.592C87.3628 13.0987 90.3708 12.352 93.6988 12.352C97.0268 12.352 100.035 13.0987 102.723 14.592C105.411 16.0427 107.523 18.1333 109.059 20.864C110.637 23.5947 111.427 26.7733 111.427 30.4C111.427 34.0267 110.616 37.2267 108.995 40C107.416 42.7307 105.261 44.8427 102.531 46.336C99.8001 47.8293 96.7708 48.576 93.4428 48.576ZM93.4428 43.456C95.5334 43.456 97.4961 42.9653 99.3308 41.984C101.165 41.0027 102.637 39.5307 103.747 37.568C104.899 35.6053 105.475 33.216 105.475 30.4C105.475 27.584 104.92 25.1947 103.811 23.232C102.701 21.2693 101.251 19.8187 99.4588 18.88C97.6668 17.8987 95.7254 17.408 93.6348 17.408C91.5014 17.408 89.5388 17.8987 87.7468 18.88C85.9974 19.8187 84.5894 21.2693 83.5228 23.232C82.4561 25.1947 81.9228 27.584 81.9228 30.4C81.9228 33.2587 82.4348 35.6693 83.4588 37.632C84.5254 39.5947 85.9334 41.0667 87.6828 42.048C89.4321 42.9867 91.3521 43.456 93.4428 43.456ZM136.172 12.288C140.439 12.288 143.895 13.5893 146.54 16.192C149.186 18.752 150.508 22.464 150.508 27.328V48H144.748V28.16C144.748 24.6613 143.874 21.9947 142.124 20.16C140.375 18.2827 137.986 17.344 134.956 17.344C131.884 17.344 129.431 18.304 127.596 20.224C125.804 22.144 124.908 24.9387 124.908 28.608V48H119.084V12.928H124.908V17.92C126.06 16.128 127.618 14.7413 129.58 13.76C131.586 12.7787 133.783 12.288 136.172 12.288ZM192.022 29.12C192.022 30.2293 191.958 31.4027 191.83 32.64H163.798C164.011 36.096 165.184 38.8053 167.318 40.768C169.494 42.688 172.118 43.648 175.19 43.648C177.707 43.648 179.798 43.072 181.462 41.92C183.168 40.7253 184.363 39.1467 185.046 37.184H191.318C190.379 40.5547 188.502 43.3067 185.686 45.44C182.87 47.5307 179.371 48.576 175.19 48.576C171.862 48.576 168.875 47.8293 166.23 46.336C163.627 44.8427 161.579 42.7307 160.086 40C158.592 37.2267 157.846 34.0267 157.846 30.4C157.846 26.7733 158.571 23.5947 160.022 20.864C161.472 18.1333 163.499 16.0427 166.102 14.592C168.747 13.0987 171.776 12.352 175.19 12.352C178.518 12.352 181.462 13.0773 184.022 14.528C186.582 15.9787 188.544 17.984 189.91 20.544C191.318 23.0613 192.022 25.92 192.022 29.12ZM186.006 27.904C186.006 25.6853 185.515 23.7867 184.534 22.208C183.552 20.5867 182.208 19.3707 180.502 18.56C178.838 17.7067 176.982 17.28 174.934 17.28C171.99 17.28 169.472 18.2187 167.382 20.096C165.334 21.9733 164.16 24.576 163.862 27.904H186.006Z"/>
</mask>
<path d="M29.9708 16.448C29.9708 20.16 28.6908 23.2533 26.1308 25.728C23.6134 28.16 19.7521 29.376 14.5468 29.376H5.97075V48H0.14675V3.392H14.5468C19.5814 3.392 23.4001 4.608 26.0028 7.04C28.6481 9.472 29.9708 12.608 29.9708 16.448ZM14.5468 24.576C17.7894 24.576 20.1788 23.872 21.7148 22.464C23.2508 21.056 24.0188 19.0507 24.0188 16.448C24.0188 10.944 20.8614 8.192 14.5468 8.192H5.97075V24.576H14.5468ZM54.6173 12.288C57.2626 12.288 59.6519 12.864 61.7853 14.016C63.9186 15.1253 65.5826 16.8107 66.7773 19.072C68.0146 21.3333 68.6333 24.0853 68.6333 27.328V48H62.8733V28.16C62.8733 24.6613 61.9986 21.9947 60.2493 20.16C58.4999 18.2827 56.1106 17.344 53.0813 17.344C50.0093 17.344 47.5559 18.304 45.7213 20.224C43.9293 22.144 43.0333 24.9387 43.0333 28.608V48H37.2093V0.639999H43.0333V17.92C44.1853 16.128 45.7639 14.7413 47.7693 13.76C49.8173 12.7787 52.0999 12.288 54.6173 12.288ZM93.4428 48.576C90.1574 48.576 87.1708 47.8293 84.4828 46.336C81.8374 44.8427 79.7468 42.7307 78.2108 40C76.7174 37.2267 75.9708 34.0267 75.9708 30.4C75.9708 26.816 76.7388 23.6587 78.2748 20.928C79.8534 18.1547 81.9868 16.0427 84.6748 14.592C87.3628 13.0987 90.3708 12.352 93.6988 12.352C97.0268 12.352 100.035 13.0987 102.723 14.592C105.411 16.0427 107.523 18.1333 109.059 20.864C110.637 23.5947 111.427 26.7733 111.427 30.4C111.427 34.0267 110.616 37.2267 108.995 40C107.416 42.7307 105.261 44.8427 102.531 46.336C99.8001 47.8293 96.7708 48.576 93.4428 48.576ZM93.4428 43.456C95.5334 43.456 97.4961 42.9653 99.3308 41.984C101.165 41.0027 102.637 39.5307 103.747 37.568C104.899 35.6053 105.475 33.216 105.475 30.4C105.475 27.584 104.92 25.1947 103.811 23.232C102.701 21.2693 101.251 19.8187 99.4588 18.88C97.6668 17.8987 95.7254 17.408 93.6348 17.408C91.5014 17.408 89.5388 17.8987 87.7468 18.88C85.9974 19.8187 84.5894 21.2693 83.5228 23.232C82.4561 25.1947 81.9228 27.584 81.9228 30.4C81.9228 33.2587 82.4348 35.6693 83.4588 37.632C84.5254 39.5947 85.9334 41.0667 87.6828 42.048C89.4321 42.9867 91.3521 43.456 93.4428 43.456ZM136.172 12.288C140.439 12.288 143.895 13.5893 146.54 16.192C149.186 18.752 150.508 22.464 150.508 27.328V48H144.748V28.16C144.748 24.6613 143.874 21.9947 142.124 20.16C140.375 18.2827 137.986 17.344 134.956 17.344C131.884 17.344 129.431 18.304 127.596 20.224C125.804 22.144 124.908 24.9387 124.908 28.608V48H119.084V12.928H124.908V17.92C126.06 16.128 127.618 14.7413 129.58 13.76C131.586 12.7787 133.783 12.288 136.172 12.288ZM192.022 29.12C192.022 30.2293 191.958 31.4027 191.83 32.64H163.798C164.011 36.096 165.184 38.8053 167.318 40.768C169.494 42.688 172.118 43.648 175.19 43.648C177.707 43.648 179.798 43.072 181.462 41.92C183.168 40.7253 184.363 39.1467 185.046 37.184H191.318C190.379 40.5547 188.502 43.3067 185.686 45.44C182.87 47.5307 179.371 48.576 175.19 48.576C171.862 48.576 168.875 47.8293 166.23 46.336C163.627 44.8427 161.579 42.7307 160.086 40C158.592 37.2267 157.846 34.0267 157.846 30.4C157.846 26.7733 158.571 23.5947 160.022 20.864C161.472 18.1333 163.499 16.0427 166.102 14.592C168.747 13.0987 171.776 12.352 175.19 12.352C178.518 12.352 181.462 13.0773 184.022 14.528C186.582 15.9787 188.544 17.984 189.91 20.544C191.318 23.0613 192.022 25.92 192.022 29.12ZM186.006 27.904C186.006 25.6853 185.515 23.7867 184.534 22.208C183.552 20.5867 182.208 19.3707 180.502 18.56C178.838 17.7067 176.982 17.28 174.934 17.28C171.99 17.28 169.472 18.2187 167.382 20.096C165.334 21.9733 164.16 24.576 163.862 27.904H186.006Z" fill="white"/>
<path d="M26.1308 25.728L26.8256 26.4472L26.8258 26.447L26.1308 25.728ZM5.97075 29.376V28.376H4.97075V29.376H5.97075ZM5.97075 48V49H6.97075V48H5.97075ZM0.146744 48H-0.853256V49H0.146744V48ZM0.146744 3.392V2.392H-0.853256V3.392H0.146744ZM26.0027 7.04L25.32 7.77068L25.326 7.77616L26.0027 7.04ZM21.7148 22.464L22.3905 23.2012L21.7148 22.464ZM5.97075 8.192V7.192H4.97075V8.192H5.97075ZM5.97075 24.576H4.97075V25.576H5.97075V24.576ZM28.9707 16.448C28.9707 19.9018 27.7917 22.7316 25.4357 25.009L26.8258 26.447C29.5898 23.7751 30.9707 20.4182 30.9707 16.448H28.9707ZM25.4359 25.0088C23.1787 27.1895 19.6174 28.376 14.5468 28.376V30.376C19.8867 30.376 24.0481 29.1305 26.8256 26.4472L25.4359 25.0088ZM14.5468 28.376H5.97075V30.376H14.5468V28.376ZM4.97075 29.376V48H6.97075V29.376H4.97075ZM5.97075 47H0.146744V49H5.97075V47ZM1.14674 48V3.392H-0.853256V48H1.14674ZM0.146744 4.392H14.5468V2.392H0.146744V4.392ZM14.5468 4.392C19.4328 4.392 22.9671 5.57206 25.32 7.77065L26.6855 6.30934C23.833 3.64393 19.73 2.392 14.5468 2.392V4.392ZM25.326 7.77616C27.75 10.0047 28.9707 12.8662 28.9707 16.448H30.9707C30.9707 12.3498 29.5462 8.93931 26.6796 6.30383L25.326 7.77616ZM14.5468 25.576C17.9059 25.576 20.5908 24.8509 22.3905 23.2012L21.039 21.7268C19.7667 22.8931 17.673 23.576 14.5468 23.576V25.576ZM22.3905 23.2012C24.1825 21.5585 25.0188 19.2562 25.0188 16.448H23.0188C23.0188 18.8452 22.319 20.5535 21.039 21.7268L22.3905 23.2012ZM25.0188 16.448C25.0188 13.5034 24.1678 11.1234 22.3078 9.50216C20.4741 7.90384 17.8271 7.192 14.5468 7.192V9.192C17.5811 9.192 19.6701 9.85616 20.9937 11.0098C22.291 12.1406 23.0188 13.8886 23.0188 16.448H25.0188ZM14.5468 7.192H5.97075V9.192H14.5468V7.192ZM4.97075 8.192V24.576H6.97075V8.192H4.97075ZM5.97075 25.576H14.5468V23.576H5.97075V25.576ZM61.7852 14.016L61.3101 14.8959L61.317 14.8996L61.3239 14.9032L61.7852 14.016ZM66.7773 19.072L65.8931 19.5391L65.8965 19.5456L65.9 19.552L66.7773 19.072ZM68.6333 48V49H69.6333V48H68.6333ZM62.8732 48H61.8732V49H62.8732V48ZM60.2493 20.16L59.5176 20.8418L59.5255 20.8501L60.2493 20.16ZM45.7213 20.224L44.9982 19.5331L44.9902 19.5417L45.7213 20.224ZM43.0332 48V49H44.0332V48H43.0332ZM37.2092 48H36.2092V49H37.2092V48ZM37.2092 0.639999V-0.360001H36.2092V0.639999H37.2092ZM43.0332 0.639999H44.0332V-0.360001H43.0332V0.639999ZM43.0332 17.92H42.0332V21.3248L43.8744 18.4608L43.0332 17.92ZM47.7693 13.76L47.3371 12.8582L47.3297 12.8618L47.7693 13.76ZM54.6172 13.288C57.1122 13.288 59.3358 13.8298 61.3101 14.8959L62.2604 13.1361C59.9681 11.8982 57.413 11.288 54.6172 11.288V13.288ZM61.3239 14.9032C63.2651 15.9126 64.787 17.4455 65.8931 19.5391L67.6614 18.6049C66.3782 16.1759 64.5721 14.338 62.2466 13.1288L61.3239 14.9032ZM65.9 19.552C67.0386 21.6329 67.6333 24.2106 67.6333 27.328H69.6333C69.6333 23.96 68.9906 21.0337 67.6545 18.592L65.9 19.552ZM67.6333 27.328V48H69.6333V27.328H67.6333ZM68.6333 47H62.8732V49H68.6333V47ZM63.8732 48V28.16H61.8732V48H63.8732ZM63.8732 28.16C63.8732 24.5033 62.9579 21.5516 60.973 19.4699L59.5255 20.8501C61.0393 22.4377 61.8732 24.8194 61.8732 28.16H63.8732ZM60.9809 19.4783C59.0082 17.3612 56.3335 16.344 53.0813 16.344V18.344C55.8876 18.344 57.9917 19.2041 59.5176 20.8417L60.9809 19.4783ZM53.0813 16.344C49.7828 16.344 47.0516 17.3843 44.9983 19.5331L46.4442 20.9149C48.0602 19.2237 50.2357 18.344 53.0813 18.344V16.344ZM44.9902 19.5417C42.9669 21.7095 42.0332 24.7865 42.0332 28.608H44.0332C44.0332 25.0908 44.8916 22.5785 46.4523 20.9063L44.9902 19.5417ZM42.0332 28.608V48H44.0332V28.608H42.0332ZM43.0332 47H37.2092V49H43.0332V47ZM38.2092 48V0.639999H36.2092V48H38.2092ZM37.2092 1.64H43.0332V-0.360001H37.2092V1.64ZM42.0332 0.639999V17.92H44.0332V0.639999H42.0332ZM43.8744 18.4608C44.9229 16.8299 46.3592 15.5633 48.2088 14.6582L47.3297 12.8618C45.1686 13.9193 43.4476 15.4261 42.1921 17.3792L43.8744 18.4608ZM48.2014 14.6618C50.1004 13.7518 52.2331 13.288 54.6172 13.288V11.288C51.9667 11.288 49.5341 11.8055 47.3371 12.8582L48.2014 14.6618ZM84.4828 46.336L83.9911 47.2068L83.9971 47.2102L84.4828 46.336ZM78.2108 40L77.3303 40.4741L77.3347 40.4822L77.3392 40.4903L78.2108 40ZM78.2747 20.928L77.4057 20.4333L77.4032 20.4377L78.2747 20.928ZM84.6747 14.592L85.1497 15.4721L85.1604 15.4662L84.6747 14.592ZM102.723 14.592L102.237 15.4662L102.248 15.472L102.723 14.592ZM109.059 20.864L108.187 21.3543L108.193 21.3645L109.059 20.864ZM108.995 40L108.131 39.4953L108.129 39.4995L108.995 40ZM102.531 46.336L103.011 47.2134L102.531 46.336ZM103.747 37.568L102.884 37.0618L102.88 37.0688L102.876 37.0759L103.747 37.568ZM99.4587 18.88L98.9784 19.7571L98.9865 19.7615L98.9948 19.7658L99.4587 18.88ZM87.7467 18.88L88.2196 19.7612L88.2271 19.7571L87.7467 18.88ZM83.5228 23.232L84.4014 23.7095V23.7095L83.5228 23.232ZM83.4588 37.632L82.5722 38.0946L82.5761 38.1021L82.5801 38.1095L83.4588 37.632ZM87.6828 42.048L87.1935 42.9201L87.2017 42.9247L87.2099 42.9292L87.6828 42.048ZM93.4427 47.576C90.3154 47.576 87.4977 46.867 84.9684 45.4618L83.9971 47.2102C86.8438 48.7917 89.9995 49.576 93.4427 49.576V47.576ZM84.9743 45.4652C82.4932 44.0645 80.5317 42.0865 79.0823 39.5097L77.3392 40.4903C78.9618 43.3749 81.1816 45.6208 83.9911 47.2068L84.9743 45.4652ZM79.0912 39.5259C77.6875 36.919 76.9707 33.8864 76.9707 30.4H74.9707C74.9707 34.1669 75.7473 37.5343 77.3303 40.4741L79.0912 39.5259ZM76.9707 30.4C76.9707 26.9627 77.706 23.9788 79.1463 21.4183L77.4032 20.4377C75.7715 23.3385 74.9707 26.6693 74.9707 30.4H76.9707ZM79.1438 21.4227C80.6342 18.8045 82.6341 16.8296 85.1497 15.472L84.1998 13.712C81.3394 15.2557 79.0727 17.5048 77.4057 20.4333L79.1438 21.4227ZM85.1604 15.4662C87.6877 14.0621 90.5263 13.352 93.6988 13.352V11.352C90.2152 11.352 87.0378 12.1353 84.1891 13.7178L85.1604 15.4662ZM93.6988 13.352C96.8712 13.352 99.7097 14.0621 102.237 15.4662L103.208 13.7178C100.36 12.1353 97.1823 11.352 93.6988 11.352V13.352ZM102.248 15.472C104.765 16.8305 106.741 18.7839 108.187 21.3543L109.93 20.3737C108.304 17.4827 106.057 15.2549 103.198 13.712L102.248 15.472ZM108.193 21.3645C109.671 23.9215 110.427 26.9224 110.427 30.4H112.427C112.427 26.6243 111.604 23.2679 109.924 20.3635L108.193 21.3645ZM110.427 30.4C110.427 33.8726 109.652 36.8941 108.131 39.4953L109.858 40.5047C111.58 37.5593 112.427 34.1807 112.427 30.4H110.427ZM108.129 39.4995C106.641 42.0738 104.619 44.0544 102.051 45.4586L103.011 47.2134C105.904 45.6309 108.191 43.3875 109.86 40.5005L108.129 39.4995ZM102.051 45.4586C99.4776 46.8659 96.6151 47.576 93.4427 47.576V49.576C96.9265 49.576 100.123 48.7927 103.011 47.2134L102.051 45.4586ZM93.4427 44.456C95.6971 44.456 97.8219 43.9251 99.8024 42.8658L98.8591 41.1022C97.1703 42.0055 95.3697 42.456 93.4427 42.456V44.456ZM99.8024 42.8658C101.818 41.7875 103.423 40.1735 104.617 38.0601L102.876 37.0759C101.852 38.8879 100.513 40.2178 98.8591 41.1022L99.8024 42.8658ZM104.609 38.0742C105.87 35.9255 106.475 33.352 106.475 30.4H104.475C104.475 33.08 103.927 35.2851 102.884 37.0618L104.609 38.0742ZM106.475 30.4C106.475 27.4539 105.894 24.8857 104.681 22.7399L102.94 23.7241C103.946 25.5036 104.475 27.7141 104.475 30.4H106.475ZM104.681 22.7399C103.488 20.6295 101.905 19.0322 99.9228 17.9942L98.9948 19.7658C100.597 20.6051 101.914 21.9092 102.94 23.7241L104.681 22.7399ZM99.9391 18.0029C97.9963 16.939 95.8892 16.408 93.6348 16.408V18.408C95.5616 18.408 97.3372 18.8583 98.9784 19.7571L99.9391 18.0029ZM93.6348 16.408C91.3412 16.408 89.2123 16.9373 87.2664 18.0029L88.2271 19.7571C89.8652 18.86 91.6616 18.408 93.6348 18.408V16.408ZM87.2739 17.9988C85.332 19.0409 83.7918 20.6427 82.6441 22.7545L84.4014 23.7095C85.387 21.8959 86.6629 20.5965 88.2196 19.7612L87.2739 17.9988ZM82.6441 22.7545C81.4797 24.8971 80.9227 27.4598 80.9227 30.4H82.9227C82.9227 27.7082 83.4325 25.4923 84.4014 23.7095L82.6441 22.7545ZM80.9227 30.4C80.9227 33.3742 81.4551 35.9536 82.5722 38.0946L84.3453 37.1694C83.4144 35.3851 82.9227 33.1431 82.9227 30.4H80.9227ZM82.5801 38.1095C83.7262 40.2184 85.2615 41.8363 87.1935 42.9201L88.172 41.1759C86.6053 40.297 85.3246 38.971 84.3374 37.1545L82.5801 38.1095ZM87.2099 42.9292C89.1124 43.95 91.1961 44.456 93.4427 44.456V42.456C91.508 42.456 89.7517 42.0233 88.1556 41.1668L87.2099 42.9292ZM146.54 16.192L145.839 16.9049L145.845 16.9106L146.54 16.192ZM150.508 48V49H151.508V48H150.508ZM144.748 48H143.748V49H144.748V48ZM142.124 20.16L141.393 20.8418L141.401 20.8501L142.124 20.16ZM127.596 20.224L126.873 19.5331L126.865 19.5417L127.596 20.224ZM124.908 48V49H125.908V48H124.908ZM119.084 48H118.084V49H119.084V48ZM119.084 12.928V11.928H118.084V12.928H119.084ZM124.908 12.928H125.908V11.928H124.908V12.928ZM124.908 17.92H123.908V21.3248L125.749 18.4608L124.908 17.92ZM129.58 13.76L129.141 12.8617L129.133 12.8656L129.58 13.76ZM136.172 13.288C140.219 13.288 143.409 14.514 145.839 16.9048L147.242 15.4792C144.381 12.6647 140.659 11.288 136.172 11.288V13.288ZM145.845 16.9106C148.239 19.2273 149.508 22.6442 149.508 27.328H151.508C151.508 22.2838 150.132 18.2767 147.236 15.4734L145.845 16.9106ZM149.508 27.328V48H151.508V27.328H149.508ZM150.508 47H144.748V49H150.508V47ZM145.748 48V28.16H143.748V48H145.748ZM145.748 28.16C145.748 24.5033 144.833 21.5516 142.848 19.4699L141.401 20.8501C142.914 22.4377 143.748 24.8194 143.748 28.16H145.748ZM142.856 19.4783C140.883 17.3612 138.209 16.344 134.956 16.344V18.344C137.763 18.344 139.867 19.2041 141.393 20.8417L142.856 19.4783ZM134.956 16.344C131.658 16.344 128.927 17.3843 126.873 19.5331L128.319 20.9149C129.935 19.2237 132.111 18.344 134.956 18.344V16.344ZM126.865 19.5417C124.842 21.7095 123.908 24.7865 123.908 28.608H125.908C125.908 25.0908 126.767 22.5785 128.327 20.9063L126.865 19.5417ZM123.908 28.608V48H125.908V28.608H123.908ZM124.908 47H119.084V49H124.908V47ZM120.084 48V12.928H118.084V48H120.084ZM119.084 13.928H124.908V11.928H119.084V13.928ZM123.908 12.928V17.92H125.908V12.928H123.908ZM125.749 18.4608C126.801 16.8246 128.22 15.5579 130.027 14.6544L129.133 12.8656C127.015 13.9247 125.319 15.4314 124.067 17.3792L125.749 18.4608ZM130.02 14.6582C131.879 13.7485 133.924 13.288 136.172 13.288V11.288C133.641 11.288 131.292 11.8088 129.141 12.8618L130.02 14.6582ZM191.83 32.64V33.64H192.732L192.824 32.7429L191.83 32.64ZM163.798 32.64V31.64H162.734L162.8 32.7016L163.798 32.64ZM167.318 40.768L166.641 41.5039L166.648 41.511L166.656 41.5178L167.318 40.768ZM181.462 41.92L182.031 42.7422L182.035 42.7392L181.462 41.92ZM185.046 37.184V36.184H184.335L184.101 36.8555L185.046 37.184ZM191.318 37.184L192.281 37.4523L192.634 36.184H191.318V37.184ZM185.686 45.44L186.282 46.2429L186.29 46.2371L185.686 45.44ZM166.23 46.336L165.732 47.2034L165.738 47.2068L166.23 46.336ZM160.086 40L159.205 40.4741L159.208 40.4798L160.086 40ZM160.022 20.864L160.905 21.3332L160.022 20.864ZM166.102 14.592L166.589 15.4655L166.593 15.4628L166.102 14.592ZM184.022 14.528L183.529 15.398L184.022 14.528ZM189.91 20.544L189.027 21.0146L189.032 21.0234L189.037 21.0322L189.91 20.544ZM186.006 27.904V28.904H187.006V27.904H186.006ZM184.534 22.208L183.678 22.7258L183.684 22.7359L184.534 22.208ZM180.502 18.56L180.045 19.4498L180.059 19.4568L180.073 19.4633L180.502 18.56ZM167.382 20.096L166.714 19.3519L166.706 19.3588L167.382 20.096ZM163.862 27.904L162.866 27.8146L162.768 28.904H163.862V27.904ZM191.022 29.12C191.022 30.1911 190.96 31.3299 190.835 32.5371L192.824 32.7429C192.956 31.4754 193.022 30.2675 193.022 29.12H191.022ZM191.83 31.64H163.798V33.64H191.83V31.64ZM162.8 32.7016C163.026 36.362 164.281 39.3332 166.641 41.5039L167.995 40.0321C166.088 38.2774 164.997 35.83 164.796 32.5784L162.8 32.7016ZM166.656 41.5178C169.026 43.609 171.89 44.648 175.19 44.648V42.648C172.346 42.648 169.961 41.767 167.979 40.0182L166.656 41.5178ZM175.19 44.648C177.861 44.648 180.163 44.0355 182.031 42.7422L180.893 41.0978C179.433 42.1085 177.554 42.648 175.19 42.648V44.648ZM182.035 42.7392C183.914 41.4244 185.238 39.6742 185.99 37.5125L184.101 36.8555C183.488 38.6191 182.423 40.0263 180.888 41.1008L182.035 42.7392ZM185.046 38.184H191.318V36.184H185.046V38.184ZM190.354 36.9157C189.475 40.0733 187.725 42.6404 185.082 44.6429L186.29 46.2371C189.278 43.973 191.283 41.036 192.281 37.4523L190.354 36.9157ZM185.09 44.6371C182.477 46.5766 179.199 47.576 175.19 47.576V49.576C179.543 49.576 183.262 48.4848 186.282 46.2429L185.09 44.6371ZM175.19 47.576C172.017 47.576 169.203 46.8659 166.721 45.4652L165.738 47.2068C168.548 48.7928 171.706 49.576 175.19 49.576V47.576ZM166.727 45.4686C164.291 44.0705 162.371 42.0955 160.963 39.5202L159.208 40.4798C160.787 43.3659 162.963 45.6148 165.732 47.2034L166.727 45.4686ZM160.966 39.5259C159.562 36.919 158.846 33.8864 158.846 30.4H156.846C156.846 34.1669 157.622 37.5343 159.205 40.4741L160.966 39.5259ZM158.846 30.4C158.846 26.9086 159.543 23.8963 160.905 21.3332L159.139 20.3948C157.599 23.2931 156.846 26.6381 156.846 30.4H158.846ZM160.905 21.3332C162.269 18.7658 164.161 16.8187 166.589 15.4655L165.615 13.7185C162.837 15.2666 160.676 17.5008 159.139 20.3948L160.905 21.3332ZM166.593 15.4628C169.071 14.0642 171.927 13.352 175.19 13.352V11.352C171.626 11.352 168.423 12.1331 165.61 13.7212L166.593 15.4628ZM175.19 13.352C178.368 13.352 181.138 14.0432 183.529 15.398L184.515 13.658C181.786 12.1114 178.668 11.352 175.19 11.352V13.352ZM183.529 15.398C185.926 16.7566 187.753 18.6245 189.027 21.0146L190.792 20.0734C189.336 17.3435 187.237 15.2008 184.515 13.658L183.529 15.398ZM189.037 21.0322C190.353 23.3845 191.022 26.0718 191.022 29.12H193.022C193.022 25.7682 192.283 22.7382 190.783 20.0558L189.037 21.0322ZM187.006 27.904C187.006 25.5352 186.48 23.4456 185.383 21.6801L183.684 22.7359C184.55 24.1278 185.006 25.8355 185.006 27.904H187.006ZM185.389 21.6902C184.307 19.9019 182.815 18.5516 180.931 17.6567L180.073 19.4633C181.602 20.1897 182.798 21.2714 183.678 22.7258L185.389 21.6902ZM180.958 17.6702C179.14 16.7377 177.125 16.28 174.934 16.28V18.28C176.838 18.28 178.536 18.6756 180.045 19.4498L180.958 17.6702ZM174.934 16.28C171.756 16.28 168.997 17.3014 166.714 19.3519L168.05 20.84C169.948 19.1359 172.224 18.28 174.934 18.28V16.28ZM166.706 19.3588C164.438 21.4375 163.182 24.2914 162.866 27.8146L164.858 27.9934C165.139 24.8606 166.229 22.5092 168.057 20.8332L166.706 19.3588ZM163.862 28.904H186.006V26.904H163.862V28.904Z" fill="#2B2C32" mask="url(#path-1-outside-1_379_872)"/>
</svg>
