<svg width="91" height="104" viewBox="0 0 91 104" fill="none" xmlns="http://www.w3.org/2000/svg">
<rect x="43" width="4" height="82" rx="1" fill="#58D073"/>
<rect x="89.9995" y="25.6118" width="4" height="89.9255" rx="1" transform="rotate(90 89.9995 25.6118)" fill="#58D073"/>
<path d="M8.12549 54.9399L18.3702 27.6208" stroke="#58D073" stroke-width="4" stroke-linecap="round"/>
<path d="M30.8716 54.9399L20.6269 27.6208" stroke="#58D073" stroke-width="4" stroke-linecap="round"/>
<path d="M61.0176 54.9399L71.2623 27.6208" stroke="#58D073" stroke-width="4" stroke-linecap="round"/>
<path d="M85.7457 54.6724C86.1335 55.7066 85.5606 56.6648 84.4659 56.8126C83.3713 56.9604 82.1695 56.2418 81.7817 55.2075L85.7457 54.6724ZM81.7817 55.2075L71.537 27.8884L75.501 27.3532L85.7457 54.6724L81.7817 55.2075Z" fill="#58D073"/>
<path d="M1.00025 56.4375C1.00025 58.0191 1.47134 59.5853 2.38661 61.0465C3.30189 62.5078 4.64343 63.8355 6.33464 64.9539C8.02586 66.0722 10.0336 66.9594 12.2433 67.5647C14.453 68.1699 16.8213 68.4814 19.213 68.4814C21.6047 68.4814 23.9731 68.1699 26.1827 67.5647C28.3924 66.9594 30.4002 66.0722 32.0914 64.9539C33.7826 63.8355 35.1241 62.5078 36.0394 61.0465C36.9547 59.5853 37.4258 58.0191 37.4258 56.4375L19.213 56.4375L1.00025 56.4375Z" fill="#FFD400"/>
<path d="M54.0002 57.044C54.0002 58.6256 54.4713 60.1917 55.3866 61.653C56.3019 63.1142 57.6434 64.4419 59.3346 65.5603C61.0259 66.6787 63.0336 67.5658 65.2433 68.1711C67.453 68.7764 69.8213 69.0879 72.213 69.0879C74.6047 69.0879 76.9731 68.7764 79.1827 68.1711C81.3924 67.5658 83.4002 66.6787 85.0914 65.5603C86.7826 64.4419 88.1241 63.1142 89.0394 61.653C89.9547 60.1917 90.4258 58.6256 90.4258 57.044L72.213 57.044L54.0002 57.044Z" fill="#FFD400"/>
<path d="M63.4255 91.0439C63.4255 89.4623 62.9544 87.8962 62.0392 86.4349C61.1239 84.9737 59.7823 83.646 58.0911 82.5276C56.3999 81.4092 54.3922 80.5221 52.1825 79.9168C49.9728 79.3115 47.6045 79 45.2128 79C42.821 79 40.4527 79.3115 38.243 79.9168C36.0334 80.5221 34.0256 81.4092 32.3344 82.5276C30.6432 83.646 29.3016 84.9737 28.3864 86.4349C27.4711 87.8962 27 89.4623 27 91.0439L45.2128 91.0439H63.4255Z" fill="#FFD400"/>
</svg>
