<svg width="318" height="160" viewBox="0 0 318 160" fill="none" xmlns="http://www.w3.org/2000/svg">
<mask id="path-1-inside-1_1125_148" fill="white">
<path d="M175.905 143.094C185.857 140.427 195.037 135.445 202.695 128.553C210.353 121.661 216.272 113.055 219.969 103.438C223.666 93.8219 225.036 83.4672 223.966 73.2201C222.897 62.973 219.419 53.1243 213.816 44.4782C208.213 35.8321 200.645 28.6339 191.729 23.4716C182.813 18.3093 172.802 15.3293 162.514 14.7749C152.226 14.2205 141.953 16.1076 132.534 20.2819C123.115 24.4562 114.817 30.7994 108.317 38.7933L158.999 80L175.905 143.094Z"/>
</mask>
<path d="M175.905 143.094C185.857 140.427 195.037 135.445 202.695 128.553C210.353 121.661 216.272 113.055 219.969 103.438C223.666 93.8219 225.036 83.4672 223.966 73.2201C222.897 62.973 219.419 53.1243 213.816 44.4782C208.213 35.8321 200.645 28.6339 191.729 23.4716C182.813 18.3093 172.802 15.3293 162.514 14.7749C152.226 14.2205 141.953 16.1076 132.534 20.2819C123.115 24.4562 114.817 30.7994 108.317 38.7933L158.999 80L175.905 143.094Z" fill="#FF5C00" stroke="white" stroke-width="8" mask="url(#path-1-inside-1_1125_148)"/>
<path d="M159 81V72L164 73L165.5 89L159 81Z" fill="#FF5C00"/>
<mask id="path-3-inside-2_1125_148" fill="white">
<path d="M159.001 14.6799C148.699 14.6799 138.542 17.1169 129.361 21.792C120.18 26.4671 112.235 33.2476 106.175 41.5797C100.116 49.9118 96.1126 59.5591 94.4934 69.7338C92.8742 79.9085 93.6847 90.3219 96.8588 100.123C100.033 109.925 105.48 118.837 112.757 126.131C120.033 133.425 128.931 138.894 138.725 142.093C148.519 145.291 158.93 146.127 169.109 144.533C179.287 142.938 188.944 138.959 197.291 132.92L159.001 79.9996L159.001 14.6799Z"/>
</mask>
<path d="M159.001 14.6799C148.699 14.6799 138.542 17.1169 129.361 21.792C120.18 26.4671 112.235 33.2476 106.175 41.5797C100.116 49.9118 96.1126 59.5591 94.4934 69.7338C92.8742 79.9085 93.6847 90.3219 96.8588 100.123C100.033 109.925 105.48 118.837 112.757 126.131C120.033 133.425 128.931 138.894 138.725 142.093C148.519 145.291 158.93 146.127 169.109 144.533C179.287 142.938 188.944 138.959 197.291 132.92L159.001 79.9996L159.001 14.6799Z" fill="#599BFE" stroke="white" stroke-width="8" mask="url(#path-3-inside-2_1125_148)"/>
<path d="M23.632 111.12V112.848H32.32V111.12H23.632ZM23.632 108.448V110.144H32.32V108.448H23.632ZM22.432 107.424H33.552V113.888H22.432V107.424ZM27.328 107.888H28.544V113.392H27.328V107.888ZM21.136 115.44H33.376V116.544H21.136V115.44ZM32.88 115.44H34.096C34.096 115.44 34.08 115.792 34.048 115.968C33.76 119.008 33.44 120.272 32.928 120.768C32.576 121.104 32.224 121.184 31.648 121.216C31.152 121.248 30.16 121.232 29.136 121.184C29.104 120.848 28.96 120.384 28.752 120.08C29.792 120.16 30.848 120.176 31.216 120.176C31.584 120.176 31.776 120.16 31.92 120.016C32.336 119.68 32.624 118.464 32.864 115.616L32.88 115.44ZM27.104 113.664H28.352C27.904 117.312 26.816 120.064 21.328 121.28C21.216 120.976 20.912 120.496 20.688 120.256C25.872 119.184 26.704 116.8 27.104 113.664ZM37.776 106.56H38.992V121.264H37.776V106.56ZM36.304 109.6L37.216 109.744C37.136 111.04 36.848 112.896 36.416 114.048L35.472 113.728C35.904 112.656 36.192 110.896 36.304 109.6ZM39.104 109.504L39.936 109.136C40.432 110 40.928 111.136 41.104 111.824L40.208 112.272C40.032 111.568 39.552 110.4 39.104 109.504ZM42.368 107.312L43.536 107.504C43.12 109.84 42.416 112.112 41.52 113.616C41.28 113.44 40.736 113.184 40.432 113.056C41.376 111.648 42.016 109.472 42.368 107.312ZM42.384 109.952H49.824V111.104H42.016L42.384 109.952ZM44.976 106.624H46.176V120.224H44.976V106.624ZM41.568 114.432H49.472V115.568H41.568V114.432ZM40.368 119.568H50.208V120.72H40.368V119.568Z" fill="black"/>
<path d="M67 70.5C67 87.897 52.897 99 35.5 99C18.103 99 4 87.897 4 70.5C4 53.103 18.103 39 35.5 39C52.897 39 67 53.103 67 70.5Z" fill="#FFDCDC"/>
<path d="M67 70.5C67 66.3634 66.1852 62.2672 64.6022 58.4455C63.0192 54.6237 60.6989 51.1512 57.7739 48.2261C54.8488 45.3011 51.3763 42.9808 47.5545 41.3978C43.7328 39.8148 39.6366 39 35.5 39C31.3634 39 27.2672 39.8148 23.4455 41.3978C19.6237 42.9808 16.1512 45.3011 13.2261 48.2261C10.3011 51.1512 7.98082 54.6237 6.39779 58.4455C4.81477 62.2672 4 66.3634 4 70.5L35.5 70.5H67Z" fill="#599BFE"/>
<ellipse cx="4" cy="77.5" rx="4" ry="4.5" fill="#FFDCDC"/>
<ellipse cx="67" cy="77.5" rx="4" ry="4.5" fill="#FFDCDC"/>
<circle cx="26" cy="77" r="2" fill="#4F5AA0"/>
<circle cx="46" cy="77" r="2" fill="#4F5AA0"/>
<ellipse cx="251" cy="74.5" rx="4" ry="4.5" fill="#FFDCDC"/>
<ellipse cx="314" cy="74.5" rx="4" ry="4.5" fill="#FFDCDC"/>
<path d="M267.8 110.4H282.248V111.6H267.8V110.4ZM273.784 106.576L275.08 106.8C273.848 110.064 272.008 114.448 270.76 117.072L269.576 116.64C270.824 114.096 272.648 109.712 273.784 106.576ZM278.504 110.928L279.784 111.248C278.584 117.424 275.816 120.256 268.568 121.328C268.44 120.96 268.168 120.48 267.928 120.176C274.904 119.248 277.4 116.672 278.504 110.928ZM270.392 116.032L271.176 115.104C274.84 116.32 279.496 118.48 281.864 120.256L280.952 121.36C278.728 119.6 274.136 117.328 270.392 116.032ZM284.776 106.56H285.992V121.264H284.776V106.56ZM283.304 109.6L284.216 109.744C284.136 111.04 283.848 112.896 283.416 114.048L282.472 113.728C282.904 112.656 283.192 110.896 283.304 109.6ZM286.104 109.504L286.936 109.136C287.432 110 287.928 111.136 288.104 111.824L287.208 112.272C287.032 111.568 286.552 110.4 286.104 109.504ZM289.368 107.312L290.536 107.504C290.12 109.84 289.416 112.112 288.52 113.616C288.28 113.44 287.736 113.184 287.432 113.056C288.376 111.648 289.016 109.472 289.368 107.312ZM289.384 109.952H296.824V111.104H289.016L289.384 109.952ZM291.976 106.624H293.176V120.224H291.976V106.624ZM288.568 114.432H296.472V115.568H288.568V114.432ZM287.368 119.568H297.208V120.72H287.368V119.568Z" fill="black"/>
<rect x="251" y="70" width="63" height="27" fill="#FF5C00"/>
<path d="M314 69.5C314 86.897 299.897 98 282.5 98C265.103 98 251 86.897 251 69.5C251 52.103 265.103 38 282.5 38C299.897 38 314 52.103 314 69.5Z" fill="#FFDCDC"/>
<path d="M314 69.5C314 65.3634 313.185 61.2672 311.602 57.4455C310.019 53.6237 307.699 50.1512 304.774 47.2261C301.849 44.3011 298.376 41.9808 294.555 40.3978C290.733 38.8148 286.637 38 282.5 38C278.363 38 274.267 38.8148 270.445 40.3978C266.624 41.9808 263.151 44.3011 260.226 47.2261C257.301 50.1512 254.981 53.6237 253.398 57.4455C251.815 61.2672 251 65.3634 251 69.5L282.5 69.5H314Z" fill="#FF7B31"/>
<circle cx="273" cy="76" r="2" fill="#4F5AA0"/>
<circle cx="293" cy="76" r="2" fill="#4F5AA0"/>
</svg>
