<svg width="164" height="46" viewBox="0 0 164 46" fill="none" xmlns="http://www.w3.org/2000/svg">
<mask id="path-1-outside-1_372_327" maskUnits="userSpaceOnUse" x="-1" y="-1" width="166" height="48" fill="black">
<rect fill="white" x="-1" y="-1" width="166" height="48"/>
<path d="M36 45H30.176L6.752 9.48V45H0.928V0.327999H6.752L30.176 35.784V0.327999H36V45ZM77.928 26.12C77.928 27.2293 77.864 28.4027 77.736 29.64H49.704C49.9173 33.096 51.0907 35.8053 53.224 37.768C55.4 39.688 58.024 40.648 61.096 40.648C63.6133 40.648 65.704 40.072 67.368 38.92C69.0747 37.7253 70.2693 36.1467 70.952 34.184H77.224C76.2853 37.5547 74.408 40.3067 71.592 42.44C68.776 44.5307 65.2773 45.576 61.096 45.576C57.768 45.576 54.7813 44.8293 52.136 43.336C49.5333 41.8427 47.4853 39.7307 45.992 37C44.4987 34.2267 43.752 31.0267 43.752 27.4C43.752 23.7733 44.4773 20.5947 45.928 17.864C47.3787 15.1333 49.4053 13.0427 52.008 11.592C54.6533 10.0987 57.6827 9.352 61.096 9.352C64.424 9.352 67.368 10.0773 69.928 11.528C72.488 12.9787 74.4507 14.984 75.816 17.544C77.224 20.0613 77.928 22.92 77.928 26.12ZM71.912 24.904C71.912 22.6853 71.4213 20.7867 70.44 19.208C69.4587 17.5867 68.1147 16.3707 66.408 15.56C64.744 14.7067 62.888 14.28 60.84 14.28C57.896 14.28 55.3787 15.2187 53.288 17.096C51.24 18.9733 50.0667 21.576 49.768 24.904H71.912ZM132.336 9.928L121.392 45H115.376L106.928 17.16L98.4795 45H92.4635L81.4555 9.928H87.4075L95.4715 39.368L104.176 9.928H110.128L118.64 39.432L126.576 9.928H132.336ZM150.532 45.576C147.844 45.576 145.433 45.128 143.3 44.232C141.166 43.2933 139.481 42.0133 138.244 40.392C137.006 38.728 136.324 36.8293 136.196 34.696H142.212C142.382 36.4453 143.193 37.8747 144.644 38.984C146.137 40.0933 148.078 40.648 150.468 40.648C152.686 40.648 154.436 40.1573 155.716 39.176C156.996 38.1947 157.636 36.9573 157.636 35.464C157.636 33.928 156.953 32.7973 155.588 32.072C154.222 31.304 152.11 30.5573 149.252 29.832C146.649 29.1493 144.516 28.4667 142.852 27.784C141.23 27.0587 139.822 26.0133 138.628 24.648C137.476 23.24 136.9 21.4053 136.9 19.144C136.9 17.352 137.433 15.7093 138.5 14.216C139.566 12.7227 141.081 11.5493 143.044 10.696C145.006 9.8 147.246 9.352 149.764 9.352C153.646 9.352 156.782 10.3333 159.172 12.296C161.561 14.2587 162.841 16.9467 163.012 20.36H157.188C157.06 18.5253 156.313 17.0533 154.948 15.944C153.625 14.8347 151.833 14.28 149.572 14.28C147.481 14.28 145.817 14.728 144.58 15.624C143.342 16.52 142.724 17.6933 142.724 19.144C142.724 20.296 143.086 21.256 143.812 22.024C144.58 22.7493 145.518 23.3467 146.628 23.816C147.78 24.2427 149.358 24.7333 151.364 25.288C153.881 25.9707 155.929 26.6533 157.508 27.336C159.086 27.976 160.43 28.9573 161.54 30.28C162.692 31.6027 163.289 33.3307 163.332 35.464C163.332 37.384 162.798 39.112 161.732 40.648C160.665 42.184 159.15 43.4 157.188 44.296C155.268 45.1493 153.049 45.576 150.532 45.576Z"/>
</mask>
<path d="M36 45H30.176L6.752 9.48V45H0.928V0.327999H6.752L30.176 35.784V0.327999H36V45ZM77.928 26.12C77.928 27.2293 77.864 28.4027 77.736 29.64H49.704C49.9173 33.096 51.0907 35.8053 53.224 37.768C55.4 39.688 58.024 40.648 61.096 40.648C63.6133 40.648 65.704 40.072 67.368 38.92C69.0747 37.7253 70.2693 36.1467 70.952 34.184H77.224C76.2853 37.5547 74.408 40.3067 71.592 42.44C68.776 44.5307 65.2773 45.576 61.096 45.576C57.768 45.576 54.7813 44.8293 52.136 43.336C49.5333 41.8427 47.4853 39.7307 45.992 37C44.4987 34.2267 43.752 31.0267 43.752 27.4C43.752 23.7733 44.4773 20.5947 45.928 17.864C47.3787 15.1333 49.4053 13.0427 52.008 11.592C54.6533 10.0987 57.6827 9.352 61.096 9.352C64.424 9.352 67.368 10.0773 69.928 11.528C72.488 12.9787 74.4507 14.984 75.816 17.544C77.224 20.0613 77.928 22.92 77.928 26.12ZM71.912 24.904C71.912 22.6853 71.4213 20.7867 70.44 19.208C69.4587 17.5867 68.1147 16.3707 66.408 15.56C64.744 14.7067 62.888 14.28 60.84 14.28C57.896 14.28 55.3787 15.2187 53.288 17.096C51.24 18.9733 50.0667 21.576 49.768 24.904H71.912ZM132.336 9.928L121.392 45H115.376L106.928 17.16L98.4795 45H92.4635L81.4555 9.928H87.4075L95.4715 39.368L104.176 9.928H110.128L118.64 39.432L126.576 9.928H132.336ZM150.532 45.576C147.844 45.576 145.433 45.128 143.3 44.232C141.166 43.2933 139.481 42.0133 138.244 40.392C137.006 38.728 136.324 36.8293 136.196 34.696H142.212C142.382 36.4453 143.193 37.8747 144.644 38.984C146.137 40.0933 148.078 40.648 150.468 40.648C152.686 40.648 154.436 40.1573 155.716 39.176C156.996 38.1947 157.636 36.9573 157.636 35.464C157.636 33.928 156.953 32.7973 155.588 32.072C154.222 31.304 152.11 30.5573 149.252 29.832C146.649 29.1493 144.516 28.4667 142.852 27.784C141.23 27.0587 139.822 26.0133 138.628 24.648C137.476 23.24 136.9 21.4053 136.9 19.144C136.9 17.352 137.433 15.7093 138.5 14.216C139.566 12.7227 141.081 11.5493 143.044 10.696C145.006 9.8 147.246 9.352 149.764 9.352C153.646 9.352 156.782 10.3333 159.172 12.296C161.561 14.2587 162.841 16.9467 163.012 20.36H157.188C157.06 18.5253 156.313 17.0533 154.948 15.944C153.625 14.8347 151.833 14.28 149.572 14.28C147.481 14.28 145.817 14.728 144.58 15.624C143.342 16.52 142.724 17.6933 142.724 19.144C142.724 20.296 143.086 21.256 143.812 22.024C144.58 22.7493 145.518 23.3467 146.628 23.816C147.78 24.2427 149.358 24.7333 151.364 25.288C153.881 25.9707 155.929 26.6533 157.508 27.336C159.086 27.976 160.43 28.9573 161.54 30.28C162.692 31.6027 163.289 33.3307 163.332 35.464C163.332 37.384 162.798 39.112 161.732 40.648C160.665 42.184 159.15 43.4 157.188 44.296C155.268 45.1493 153.049 45.576 150.532 45.576Z" fill="white"/>
<path d="M36 45V46H37V45H36ZM30.176 45L29.3412 45.5505L29.6376 46H30.176V45ZM6.752 9.48L7.58682 8.92947L5.752 6.14717V9.48H6.752ZM6.752 45V46H7.752V45H6.752ZM0.928 45H-0.0719995V46H0.928V45ZM0.928 0.327999V-0.672001H-0.0719995V0.327999H0.928ZM6.752 0.327999L7.58636 -0.223221L7.28987 -0.672001H6.752V0.327999ZM30.176 35.784L29.3416 36.3352L31.176 39.1118V35.784H30.176ZM30.176 0.327999V-0.672001H29.176V0.327999H30.176ZM36 0.327999H37V-0.672001H36V0.327999ZM36 44H30.176V46H36V44ZM31.0108 44.4495L7.58682 8.92947L5.91718 10.0305L29.3412 45.5505L31.0108 44.4495ZM5.752 9.48V45H7.752V9.48H5.752ZM6.752 44H0.928V46H6.752V44ZM1.928 45V0.327999H-0.0719995V45H1.928ZM0.928 1.328H6.752V-0.672001H0.928V1.328ZM5.91764 0.879219L29.3416 36.3352L31.0104 35.2328L7.58636 -0.223221L5.91764 0.879219ZM31.176 35.784V0.327999H29.176V35.784H31.176ZM30.176 1.328H36V-0.672001H30.176V1.328ZM35 0.327999V45H37V0.327999H35ZM77.736 29.64V30.64H78.6379L78.7307 29.7429L77.736 29.64ZM49.704 29.64V28.64H48.6404L48.7059 29.7016L49.704 29.64ZM53.224 37.768L52.5469 38.5039L52.5546 38.511L52.5624 38.5178L53.224 37.768ZM67.368 38.92L67.9372 39.7422L67.9415 39.7392L67.368 38.92ZM70.952 34.184V33.184H70.2411L70.0075 33.8555L70.952 34.184ZM77.224 34.184L78.1873 34.4523L78.5405 33.184H77.224V34.184ZM71.592 42.44L72.1881 43.2429L72.1959 43.2371L71.592 42.44ZM52.136 43.336L51.6383 44.2034L51.6444 44.2068L52.136 43.336ZM45.992 37L45.1115 37.4741L45.1146 37.4798L45.992 37ZM45.928 17.864L46.8111 18.3332L45.928 17.864ZM52.008 11.592L52.4949 12.4655L52.4996 12.4628L52.008 11.592ZM69.928 11.528L69.435 12.398L69.928 11.528ZM75.816 17.544L74.9336 18.0146L74.9384 18.0234L74.9432 18.0322L75.816 17.544ZM71.912 24.904V25.904H72.912V24.904H71.912ZM70.44 19.208L69.5844 19.7258L69.5907 19.7359L70.44 19.208ZM66.408 15.56L65.9517 16.4498L65.9652 16.4568L65.9789 16.4633L66.408 15.56ZM53.288 17.096L52.6198 16.3519L52.6123 16.3588L53.288 17.096ZM49.768 24.904L48.772 24.8146L48.6742 25.904H49.768V24.904ZM76.928 26.12C76.928 27.1911 76.8662 28.3299 76.7413 29.5371L78.7307 29.7429C78.8618 28.4754 78.928 27.2675 78.928 26.12H76.928ZM77.736 28.64H49.704V30.64H77.736V28.64ZM48.7059 29.7016C48.9319 33.362 50.1875 36.3332 52.5469 38.5039L53.9011 37.0321C51.9938 35.2774 50.9028 32.83 50.7021 29.5784L48.7059 29.7016ZM52.5624 38.5178C54.9324 40.609 57.7959 41.648 61.096 41.648V39.648C58.2521 39.648 55.8676 38.767 53.8856 37.0182L52.5624 38.5178ZM61.096 41.648C63.7668 41.648 66.0691 41.0355 67.9372 39.7422L66.7988 38.0978C65.3389 39.1085 63.4599 39.648 61.096 39.648V41.648ZM67.9415 39.7392C69.8198 38.4244 71.1446 36.6742 71.8965 34.5125L70.0075 33.8555C69.3941 35.6191 68.3295 37.0263 66.7945 38.1008L67.9415 39.7392ZM70.952 35.184H77.224V33.184H70.952V35.184ZM76.2607 33.9157C75.3813 37.0733 73.6315 39.6404 70.9881 41.6429L72.1959 43.2371C75.1845 40.973 77.1893 38.036 78.1873 34.4523L76.2607 33.9157ZM70.9959 41.6371C68.3835 43.5766 65.1051 44.576 61.096 44.576V46.576C65.4496 46.576 69.1685 45.4848 72.1881 43.2429L70.9959 41.6371ZM61.096 44.576C57.9234 44.576 55.1089 43.8659 52.6276 42.4652L51.6444 44.2068C54.4538 45.7928 57.6126 46.576 61.096 46.576V44.576ZM52.6337 42.4686C50.197 41.0705 48.2777 39.0955 46.8694 36.5202L45.1146 37.4798C46.6929 40.3659 48.8697 42.6148 51.6383 44.2034L52.6337 42.4686ZM46.8725 36.5259C45.4688 33.919 44.752 30.8864 44.752 27.4H42.752C42.752 31.1669 43.5286 34.5343 45.1115 37.4741L46.8725 36.5259ZM44.752 27.4C44.752 23.9086 45.4495 20.8963 46.8111 18.3332L45.0449 17.3948C43.5052 20.2931 42.752 23.6381 42.752 27.4H44.752ZM46.8111 18.3332C48.175 15.7658 50.067 13.8187 52.4949 12.4655L51.5211 10.7185C48.7436 12.2666 46.5823 14.5008 45.0449 17.3948L46.8111 18.3332ZM52.4996 12.4628C54.9771 11.0642 57.8332 10.352 61.096 10.352V8.352C57.5321 8.352 54.3296 9.13309 51.5164 10.7212L52.4996 12.4628ZM61.096 10.352C64.2742 10.352 67.0442 11.0432 69.435 12.398L70.421 10.658C67.6918 9.11143 64.5738 8.352 61.096 8.352V10.352ZM69.435 12.398C71.8324 13.7566 73.6589 15.6245 74.9336 18.0146L76.6984 17.0734C75.2424 14.3435 73.1436 12.2008 70.421 10.658L69.435 12.398ZM74.9432 18.0322C76.2589 20.3845 76.928 23.0718 76.928 26.12H78.928C78.928 22.7682 78.1891 19.7382 76.6888 17.0558L74.9432 18.0322ZM72.912 24.904C72.912 22.5352 72.3867 20.4456 71.2893 18.6801L69.5907 19.7359C70.4559 21.1278 70.912 22.8355 70.912 24.904H72.912ZM71.2955 18.6902C70.2131 16.9019 68.7211 15.5516 66.8371 14.6567L65.9789 16.4633C67.5082 17.1897 68.7042 18.2714 69.5845 19.7258L71.2955 18.6902ZM66.8643 14.6702C65.046 13.7377 63.0313 13.28 60.84 13.28V15.28C62.7447 15.28 64.442 15.6756 65.9517 16.4498L66.8643 14.6702ZM60.84 13.28C57.6623 13.28 54.9034 14.3014 52.6199 16.3519L53.9561 17.84C55.8539 16.1359 58.1298 15.28 60.84 15.28V13.28ZM52.6123 16.3588C50.3447 18.4375 49.0882 21.2914 48.772 24.8146L50.764 24.9934C51.0451 21.8606 52.1353 19.5092 53.9637 17.8332L52.6123 16.3588ZM49.768 25.904H71.912V23.904H49.768V25.904ZM132.336 9.928L133.29 10.2259L133.695 8.928H132.336V9.928ZM121.392 45V46H122.127L122.346 45.2979L121.392 45ZM115.376 45L114.419 45.2904L114.634 46H115.376V45ZM106.928 17.16L107.884 16.8696L106.927 13.7162L105.971 16.8696L106.928 17.16ZM98.4795 45V46H99.2211L99.4364 45.2904L98.4795 45ZM92.4635 45L91.5094 45.2995L91.7293 46H92.4635V45ZM81.4555 9.928V8.928H80.0935L80.5014 10.2275L81.4555 9.928ZM87.4075 9.928L88.372 9.66382L88.1704 8.928H87.4075V9.928ZM95.4715 39.368L94.507 39.6322L95.4348 43.0192L96.4305 39.6515L95.4715 39.368ZM104.175 9.928V8.928H103.428L103.217 9.64448L104.175 9.928ZM110.128 9.928L111.088 9.6508L110.88 8.928H110.128V9.928ZM118.64 39.432L117.679 39.7092L118.673 43.1565L119.605 39.6917L118.64 39.432ZM126.576 9.928V8.928H125.809L125.61 9.66825L126.576 9.928ZM131.381 9.63012L120.437 44.7021L122.346 45.2979L133.29 10.2259L131.381 9.63012ZM121.392 44H115.376V46H121.392V44ZM116.332 44.7096L107.884 16.8696L105.971 17.4504L114.419 45.2904L116.332 44.7096ZM105.971 16.8696L97.5226 44.7096L99.4364 45.2904L107.884 17.4504L105.971 16.8696ZM98.4795 44H92.4635V46H98.4795V44ZM93.4176 44.7005L82.4096 9.62853L80.5014 10.2275L91.5094 45.2995L93.4176 44.7005ZM81.4555 10.928H87.4075V8.928H81.4555V10.928ZM86.443 10.1922L94.507 39.6322L96.436 39.1038L88.372 9.66382L86.443 10.1922ZM96.4305 39.6515L105.134 10.2115L103.217 9.64448L94.5125 39.0845L96.4305 39.6515ZM104.175 10.928H110.128V8.928H104.175V10.928ZM109.167 10.2052L117.679 39.7092L119.6 39.1548L111.088 9.6508L109.167 10.2052ZM119.605 39.6917L127.541 10.1877L125.61 9.66825L117.674 39.1723L119.605 39.6917ZM126.576 10.928H132.336V8.928H126.576V10.928ZM143.299 44.232L142.897 45.1473L142.904 45.1507L142.912 45.154L143.299 44.232ZM138.243 40.392L137.441 40.9888L137.449 40.9987L138.243 40.392ZM136.195 34.696V33.696H135.134L135.197 34.7559L136.195 34.696ZM142.212 34.696L143.207 34.5989L143.119 33.696H142.212V34.696ZM144.643 38.984L144.036 39.7784L144.047 39.7867L144.643 38.984ZM155.587 32.072L155.097 32.9436L155.108 32.9495L155.118 32.9551L155.587 32.072ZM149.251 29.832L148.998 30.7993L149.006 30.8013L149.251 29.832ZM142.852 27.784L142.443 28.6968L142.457 28.7032L142.472 28.7092L142.852 27.784ZM138.628 24.648L137.854 25.2812L137.864 25.294L137.875 25.3065L138.628 24.648ZM138.499 14.216L137.686 13.6348L138.499 14.216ZM143.044 10.696L143.442 11.6131L143.451 11.6095L143.459 11.6057L143.044 10.696ZM159.172 12.296L158.537 13.0687L159.172 12.296ZM163.012 20.36V21.36H164.063L164.01 20.3101L163.012 20.36ZM157.188 20.36L156.19 20.4296L156.255 21.36H157.188V20.36ZM154.947 15.944L154.305 16.7102L154.311 16.7152L154.317 16.7201L154.947 15.944ZM144.579 15.624L143.993 14.8141L144.579 15.624ZM143.811 22.024L143.084 22.7106L143.104 22.7314L143.125 22.751L143.811 22.024ZM146.628 23.816L146.238 24.737L146.259 24.7458L146.28 24.7537L146.628 23.816ZM151.363 25.288L151.097 26.2518L151.102 26.2531L151.363 25.288ZM157.508 27.336L157.111 28.2539L157.121 28.2584L157.132 28.2627L157.508 27.336ZM161.54 30.28L160.773 30.9226L160.779 30.9298L160.785 30.9368L161.54 30.28ZM163.331 35.464H164.331V35.454L164.331 35.444L163.331 35.464ZM161.732 40.648L160.91 40.0776V40.0776L161.732 40.648ZM157.188 44.296L157.594 45.2099L157.603 45.2057L157.188 44.296ZM150.531 44.576C147.955 44.576 145.679 44.1469 143.687 43.31L142.912 45.154C145.186 46.1091 147.732 46.576 150.531 46.576V44.576ZM143.702 43.3167C141.701 42.4363 140.159 41.2541 139.038 39.7853L137.449 40.9987C138.802 42.7725 140.631 44.1504 142.897 45.1473L143.702 43.3167ZM139.046 39.7953C137.928 38.2924 137.31 36.5816 137.194 34.6361L135.197 34.7559C135.337 37.0771 136.084 39.1636 137.441 40.9887L139.046 39.7953ZM136.195 35.696H142.212V33.696H136.195V35.696ZM141.216 34.7931C141.415 36.8305 142.375 38.5079 144.036 39.7784L145.251 38.1896C144.011 37.2414 143.349 36.0601 143.207 34.5989L141.216 34.7931ZM144.047 39.7867C145.756 41.0565 147.925 41.648 150.467 41.648V39.648C148.232 39.648 146.517 39.1302 145.24 38.1813L144.047 39.7867ZM150.467 41.648C152.825 41.648 154.814 41.127 156.324 39.9696L155.107 38.3824C154.057 39.1876 152.548 39.648 150.467 39.648V41.648ZM156.324 39.9696C157.828 38.8165 158.635 37.2961 158.635 35.464H156.635C156.635 36.6186 156.163 37.5728 155.107 38.3824L156.324 39.9696ZM158.635 35.464C158.635 34.5439 158.43 33.6923 157.98 32.9471C157.53 32.2023 156.871 31.6218 156.057 31.1889L155.118 32.9551C155.669 33.2476 156.035 33.5951 156.267 33.9809C156.5 34.3663 156.635 34.8481 156.635 35.464H158.635ZM156.078 31.2004C154.595 30.3666 152.38 29.5942 149.497 28.8627L149.006 30.8013C151.84 31.5204 153.849 32.2414 155.097 32.9436L156.078 31.2004ZM149.505 28.8647C146.927 28.1884 144.839 27.5187 143.231 26.8588L142.472 28.7092C144.192 29.4147 146.371 30.1103 148.998 30.7993L149.505 28.8647ZM143.26 26.8712C141.773 26.2061 140.482 25.2486 139.38 23.9895L137.875 25.3065C139.163 26.7781 140.687 27.9113 142.443 28.6968L143.26 26.8712ZM139.401 24.0148C138.428 22.8255 137.9 21.2322 137.9 19.144H135.9C135.9 21.5785 136.523 23.6545 137.854 25.2812L139.401 24.0148ZM137.9 19.144C137.9 17.5657 138.365 16.1253 139.313 14.7972L137.686 13.6348C136.501 15.2933 135.9 17.1383 135.9 19.144H137.9ZM139.313 14.7972C140.258 13.4744 141.618 12.4063 143.442 11.6131L142.645 9.77893C140.544 10.6924 138.874 11.9709 137.686 13.6348L139.313 14.7972ZM143.459 11.6057C145.271 10.7783 147.366 10.352 149.764 10.352V8.352C147.127 8.352 144.741 8.82168 142.628 9.78631L143.459 11.6057ZM149.764 10.352C153.475 10.352 156.368 11.2874 158.537 13.0687L159.806 11.5233C157.196 9.37927 153.817 8.352 149.764 8.352V10.352ZM158.537 13.0687C160.684 14.8326 161.855 17.245 162.013 20.4099L164.01 20.3101C163.827 16.6483 162.438 13.6848 159.806 11.5233L158.537 13.0687ZM163.012 19.36H157.188V21.36H163.012V19.36ZM158.185 20.2904C158.039 18.1937 157.169 16.4605 155.578 15.1679L154.317 16.7201C155.457 17.6461 156.08 18.8569 156.19 20.4296L158.185 20.2904ZM155.59 15.1778C154.038 13.876 151.994 13.28 149.572 13.28V15.28C151.672 15.28 153.212 15.7934 154.305 16.7102L155.59 15.1778ZM149.572 13.28C147.346 13.28 145.454 13.7563 143.993 14.8141L145.166 16.4339C146.18 15.6997 147.615 15.28 149.572 15.28V13.28ZM143.993 14.8141C142.512 15.8864 141.723 17.3532 141.723 19.144H143.723C143.723 18.0335 144.172 17.1536 145.166 16.4339L143.993 14.8141ZM141.723 19.144C141.723 20.5261 142.167 21.7394 143.084 22.7106L144.539 21.3374C144.005 20.7726 143.723 20.0659 143.723 19.144H141.723ZM143.125 22.751C143.991 23.5688 145.034 24.2276 146.238 24.737L147.017 22.895C146.002 22.4657 145.168 21.9299 144.498 21.297L143.125 22.751ZM146.28 24.7537C147.471 25.1947 149.08 25.694 151.097 26.2518L151.63 24.3242C149.636 23.7727 148.088 23.2907 146.975 22.8783L146.28 24.7537ZM151.102 26.2531C153.594 26.929 155.592 27.5972 157.111 28.2539L157.904 26.4181C156.266 25.7095 154.168 25.0124 151.625 24.3229L151.102 26.2531ZM157.132 28.2627C158.557 28.8405 159.768 29.7234 160.773 30.9226L162.306 29.6374C161.093 28.1913 159.615 27.1115 157.883 26.4093L157.132 28.2627ZM160.785 30.9368C161.752 32.0465 162.293 33.5325 162.332 35.484L164.331 35.444C164.285 33.1289 163.631 31.1588 162.294 29.6232L160.785 30.9368ZM162.331 35.464C162.331 37.1859 161.857 38.7138 160.91 40.0776L162.553 41.2184C163.739 39.5102 164.331 37.5821 164.331 35.464H162.331ZM160.91 40.0776C159.961 41.4447 158.597 42.5532 156.772 43.3863L157.603 45.2057C159.703 44.2467 161.369 42.9233 162.553 41.2184L160.91 40.0776ZM156.781 43.3822C155.012 44.1686 152.936 44.576 150.531 44.576V46.576C153.162 46.576 155.523 46.1301 157.594 45.2098L156.781 43.3822Z" fill="#2B2C32" mask="url(#path-1-outside-1_372_327)"/>
</svg>
