<svg width="152" height="151" viewBox="0 0 152 151" fill="none" xmlns="http://www.w3.org/2000/svg">
<path d="M144.196 60.2993L79.9907 77.0093C79.4473 77.1508 79.1269 77.7117 79.281 78.2516L98.5904 145.902C98.7564 146.483 99.3965 146.786 99.951 146.544L128.32 134.198C128.894 133.948 129.1 133.239 128.749 132.721L100.05 90.253C99.5837 89.5632 100.115 88.6392 100.946 88.6954L146.839 91.7994C147.45 91.8407 147.954 91.3286 147.903 90.7187L145.445 61.1841C145.393 60.5657 144.797 60.143 144.196 60.2993Z" fill="#FFD400" stroke="#2B2C32" stroke-width="8"/>
<path d="M72.0216 77.6642L8.45583 60.3108C7.85979 60.1481 7.26028 60.5594 7.19762 61.1741L4.12019 91.3629C4.05737 91.9792 4.56438 92.5038 5.18252 92.462L51.0362 89.3607C51.87 89.3043 52.401 90.2349 51.9283 90.924L23.2622 132.718C22.9068 133.237 23.1117 133.95 23.6878 134.201L52.0516 146.545C52.6052 146.786 53.2444 146.486 53.4116 145.905L72.7192 78.9058C72.8736 78.3698 72.5597 77.8111 72.0216 77.6642Z" fill="#58D073" stroke="#2B2C32" stroke-width="8"/>
<path d="M26.8207 24.1892L75.8089 75.2759C76.192 75.6754 76.8268 75.6877 77.2251 75.3033L128.173 26.1316C128.61 25.7098 128.573 24.9991 128.095 24.6247L102.699 4.73926C102.207 4.35444 101.487 4.50896 101.197 5.06155L76.813 51.4786C76.4219 52.2232 75.3423 52.1817 75.0094 51.4094L55.0524 5.10936C54.8041 4.53342 54.0931 4.32551 53.5737 4.67696L26.9821 22.6688C26.4688 23.0161 26.3918 23.7419 26.8207 24.1892Z" fill="#FF5C00" stroke="#2B2C32" stroke-width="8"/>
</svg>
