<svg width="487" height="404" viewBox="0 0 487 404" fill="none" xmlns="http://www.w3.org/2000/svg">
<path d="M255 274.186C249.477 274.186 245 269.709 245 264.186V215.238C245 209.715 249.477 205.238 255 205.238H477C482.523 205.238 487 209.715 487 215.238V264.186C487 269.709 482.523 274.186 477 274.186H255Z" fill="#2B2C32"/>
<path d="M3.24073 390.068C1.28668 396.786 6.32621 403.5 13.3229 403.5H78.7857C83.5196 403.5 87.6681 400.332 88.9149 395.766L109.04 322.058C110.168 317.926 113.921 315.06 118.204 315.06H261.796C266.079 315.06 269.832 317.926 270.96 322.058L291.085 395.766C292.332 400.332 296.48 403.5 301.214 403.5H366.677C373.674 403.5 378.713 396.786 376.759 390.068L265.653 8.06756C264.349 3.58378 260.241 0.5 255.571 0.5H124.429C119.759 0.5 115.651 3.58378 114.347 8.06756L3.24073 390.068ZM143.399 243.997C137.124 243.997 132.573 238.021 134.241 231.971L183.242 54.3119C184.081 51.2717 186.846 49.1657 190 49.1657C193.154 49.1657 195.919 51.2717 196.758 54.3118L245.759 231.971C247.427 238.021 242.876 243.997 236.601 243.997H143.399Z" fill="#2B2C32" stroke="#2B2C32"/>
</svg>
