<svg width="241" height="47" viewBox="0 0 241 47" fill="none" xmlns="http://www.w3.org/2000/svg">
<path d="M29.296 36.08H9.84L6.256 46H0.112L16.24 1.648H22.96L39.024 46H32.88L29.296 36.08ZM27.632 31.344L19.568 8.816L11.504 31.344H27.632ZM71.269 1.392V6.128H51.877V21.168H67.621V25.904H51.877V46H46.053V1.392H71.269ZM98.527 46.448C94.3883 46.448 90.6123 45.488 87.199 43.568C83.7857 41.6053 81.0763 38.896 79.071 35.44C77.1083 31.9413 76.127 28.016 76.127 23.664C76.127 19.312 77.1083 15.408 79.071 11.952C81.0763 8.45333 83.7857 5.744 87.199 3.824C90.6123 1.86133 94.3883 0.879997 98.527 0.879997C102.708 0.879997 106.506 1.86133 109.919 3.824C113.332 5.744 116.02 8.432 117.983 11.888C119.946 15.344 120.927 19.2693 120.927 23.664C120.927 28.0587 119.946 31.984 117.983 35.44C116.02 38.896 113.332 41.6053 109.919 43.568C106.506 45.488 102.708 46.448 98.527 46.448ZM98.527 41.392C101.642 41.392 104.436 40.6667 106.911 39.216C109.428 37.7653 111.391 35.696 112.799 33.008C114.25 30.32 114.975 27.2053 114.975 23.664C114.975 20.08 114.25 16.9653 112.799 14.32C111.391 11.632 109.45 9.56267 106.975 8.112C104.5 6.66133 101.684 5.936 98.527 5.936C95.3697 5.936 92.5537 6.66133 90.079 8.112C87.6043 9.56267 85.6417 11.632 84.191 14.32C82.783 16.9653 82.079 20.08 82.079 23.664C82.079 27.2053 82.783 30.32 84.191 33.008C85.6417 35.696 87.6043 37.7653 90.079 39.216C92.5963 40.6667 95.4123 41.392 98.527 41.392ZM152.104 46L141.48 27.76H134.44V46H128.616V1.392H143.016C146.386 1.392 149.224 1.968 151.528 3.12C153.874 4.272 155.624 5.82933 156.776 7.792C157.928 9.75467 158.504 11.9947 158.504 14.512C158.504 17.584 157.608 20.2933 155.816 22.64C154.066 24.9867 151.421 26.544 147.88 27.312L159.08 46H152.104ZM134.44 23.088H143.016C146.173 23.088 148.541 22.32 150.12 20.784C151.698 19.2053 152.488 17.1147 152.488 14.512C152.488 11.8667 151.698 9.81867 150.12 8.368C148.584 6.91733 146.216 6.192 143.016 6.192H134.44V23.088ZM165.377 23.664C165.377 19.312 166.358 15.408 168.321 11.952C170.284 8.45333 172.95 5.72267 176.321 3.76C179.734 1.79733 183.51 0.815998 187.649 0.815998C192.513 0.815998 196.758 1.98933 200.385 4.336C204.012 6.68267 206.657 10.0107 208.321 14.32H201.345C200.108 11.632 198.316 9.56267 195.969 8.112C193.665 6.66133 190.892 5.936 187.649 5.936C184.534 5.936 181.74 6.66133 179.265 8.112C176.79 9.56267 174.849 11.632 173.441 14.32C172.033 16.9653 171.329 20.08 171.329 23.664C171.329 27.2053 172.033 30.32 173.441 33.008C174.849 35.6533 176.79 37.7013 179.265 39.152C181.74 40.6027 184.534 41.328 187.649 41.328C190.892 41.328 193.665 40.624 195.969 39.216C198.316 37.7653 200.108 35.696 201.345 33.008H208.321C206.657 37.2747 204.012 40.5813 200.385 42.928C196.758 45.232 192.513 46.384 187.649 46.384C183.51 46.384 179.734 45.424 176.321 43.504C172.95 41.5413 170.284 38.832 168.321 35.376C166.358 31.92 165.377 28.016 165.377 23.664ZM222.815 6.128V21.04H239.071V25.84H222.815V41.2H240.991V46H216.991V1.328H240.991V6.128H222.815Z" fill="white"/>
</svg>
