<svg width="256" height="47" viewBox="0 0 256 47" fill="none" xmlns="http://www.w3.org/2000/svg">
<mask id="path-1-outside-1_379_854" maskUnits="userSpaceOnUse" x="-1" y="-1" width="258" height="49" fill="black">
<rect fill="white" x="-1" y="-1" width="258" height="49"/>
<path d="M0.72075 23.664C0.72075 19.312 1.70208 15.408 3.66475 11.952C5.62742 8.45333 8.29408 5.72267 11.6648 3.76C15.0781 1.79733 18.8541 0.815998 22.9928 0.815998C27.8568 0.815998 32.1021 1.98933 35.7288 4.336C39.3554 6.68267 42.0008 10.0107 43.6648 14.32H36.6888C35.4514 11.632 33.6594 9.56267 31.3128 8.112C29.0088 6.66133 26.2354 5.936 22.9928 5.936C19.8781 5.936 17.0834 6.66133 14.6088 8.112C12.1341 9.56267 10.1928 11.632 8.78475 14.32C7.37675 16.9653 6.67275 20.08 6.67275 23.664C6.67275 27.2053 7.37675 30.32 8.78475 33.008C10.1928 35.6533 12.1341 37.7013 14.6088 39.152C17.0834 40.6027 19.8781 41.328 22.9928 41.328C26.2354 41.328 29.0088 40.624 31.3128 39.216C33.6594 37.7653 35.4514 35.696 36.6888 33.008H43.6648C42.0008 37.2747 39.3554 40.5813 35.7288 42.928C32.1021 45.232 27.8568 46.384 22.9928 46.384C18.8541 46.384 15.0781 45.424 11.6648 43.504C8.29408 41.5413 5.62742 38.832 3.66475 35.376C1.70208 31.92 0.72075 28.016 0.72075 23.664ZM67.6303 46.576C64.3449 46.576 61.3583 45.8293 58.6703 44.336C56.0249 42.8427 53.9343 40.7307 52.3983 38C50.9049 35.2267 50.1583 32.0267 50.1583 28.4C50.1583 24.816 50.9263 21.6587 52.4623 18.928C54.0409 16.1547 56.1743 14.0427 58.8623 12.592C61.5503 11.0987 64.5583 10.352 67.8863 10.352C71.2143 10.352 74.2223 11.0987 76.9103 12.592C79.5983 14.0427 81.7103 16.1333 83.2463 18.864C84.8249 21.5947 85.6143 24.7733 85.6143 28.4C85.6143 32.0267 84.8036 35.2267 83.1823 38C81.6036 40.7307 79.4489 42.8427 76.7183 44.336C73.9876 45.8293 70.9583 46.576 67.6303 46.576ZM67.6303 41.456C69.7209 41.456 71.6836 40.9653 73.5183 39.984C75.3529 39.0027 76.8249 37.5307 77.9343 35.568C79.0863 33.6053 79.6623 31.216 79.6623 28.4C79.6623 25.584 79.1076 23.1947 77.9983 21.232C76.8889 19.2693 75.4383 17.8187 73.6463 16.88C71.8543 15.8987 69.9129 15.408 67.8223 15.408C65.6889 15.408 63.7263 15.8987 61.9343 16.88C60.1849 17.8187 58.7769 19.2693 57.7103 21.232C56.6436 23.1947 56.1103 25.584 56.1103 28.4C56.1103 31.2587 56.6223 33.6693 57.6463 35.632C58.7129 37.5947 60.1209 39.0667 61.8703 40.048C63.6196 40.9867 65.5396 41.456 67.6303 41.456ZM110.36 10.288C114.626 10.288 118.082 11.5893 120.728 14.192C123.373 16.752 124.696 20.464 124.696 25.328V46H118.936V26.16C118.936 22.6613 118.061 19.9947 116.312 18.16C114.562 16.2827 112.173 15.344 109.144 15.344C106.072 15.344 103.618 16.304 101.784 18.224C99.9918 20.144 99.0958 22.9387 99.0958 26.608V46H93.2718V10.928H99.0958V15.92C100.248 14.128 101.805 12.7413 103.768 11.76C105.773 10.7787 107.97 10.288 110.36 10.288ZM141.313 15.728V36.4C141.313 38.1067 141.676 39.3227 142.401 40.048C143.127 40.7307 144.385 41.072 146.177 41.072H150.465V46H145.217C141.975 46 139.543 45.2533 137.921 43.76C136.3 42.2667 135.489 39.8133 135.489 36.4V15.728H130.945V10.928H135.489V2.096H141.313V10.928H150.465V15.728H141.313ZM155.346 28.336C155.346 24.752 156.071 21.616 157.522 18.928C158.972 16.1973 160.956 14.0853 163.474 12.592C166.034 11.0987 168.871 10.352 171.986 10.352C175.058 10.352 177.724 11.0133 179.986 12.336C182.247 13.6587 183.932 15.3227 185.042 17.328V10.928H190.93V46H185.042V39.472C183.89 41.52 182.162 43.2267 179.858 44.592C177.596 45.9147 174.951 46.576 171.922 46.576C168.807 46.576 165.991 45.808 163.474 44.272C160.956 42.736 158.972 40.5813 157.522 37.808C156.071 35.0347 155.346 31.8773 155.346 28.336ZM185.042 28.4C185.042 25.7547 184.508 23.4507 183.442 21.488C182.375 19.5253 180.924 18.032 179.09 17.008C177.298 15.9413 175.314 15.408 173.138 15.408C170.962 15.408 168.978 15.92 167.186 16.944C165.394 17.968 163.964 19.4613 162.898 21.424C161.831 23.3867 161.298 25.6907 161.298 28.336C161.298 31.024 161.831 33.3707 162.898 35.376C163.964 37.3387 165.394 38.8533 167.186 39.92C168.978 40.944 170.962 41.456 173.138 41.456C175.314 41.456 177.298 40.944 179.09 39.92C180.924 38.8533 182.375 37.3387 183.442 35.376C184.508 33.3707 185.042 31.0453 185.042 28.4ZM198.596 28.4C198.596 24.7733 199.321 21.616 200.772 18.928C202.222 16.1973 204.228 14.0853 206.788 12.592C209.39 11.0987 212.356 10.352 215.684 10.352C219.993 10.352 223.534 11.3973 226.308 13.488C229.124 15.5787 230.98 18.48 231.876 22.192H225.604C225.006 20.0587 223.833 18.3733 222.084 17.136C220.377 15.8987 218.244 15.28 215.684 15.28C212.356 15.28 209.668 16.432 207.62 18.736C205.572 20.9973 204.548 24.2187 204.548 28.4C204.548 32.624 205.572 35.888 207.62 38.192C209.668 40.496 212.356 41.648 215.684 41.648C218.244 41.648 220.377 41.0507 222.084 39.856C223.79 38.6613 224.964 36.9547 225.604 34.736H231.876C230.937 38.32 229.06 41.2 226.244 43.376C223.428 45.5093 219.908 46.576 215.684 46.576C212.356 46.576 209.39 45.8293 206.788 44.336C204.228 42.8427 202.222 40.7307 200.772 38C199.321 35.2693 198.596 32.0693 198.596 28.4ZM246.751 15.728V36.4C246.751 38.1067 247.113 39.3227 247.839 40.048C248.564 40.7307 249.823 41.072 251.615 41.072H255.903V46H250.655C247.412 46 244.98 45.2533 243.359 43.76C241.737 42.2667 240.927 39.8133 240.927 36.4V15.728H236.383V10.928H240.927V2.096H246.751V10.928H255.903V15.728H246.751Z"/>
</mask>
<path d="M0.72075 23.664C0.72075 19.312 1.70208 15.408 3.66475 11.952C5.62742 8.45333 8.29408 5.72267 11.6648 3.76C15.0781 1.79733 18.8541 0.815998 22.9928 0.815998C27.8568 0.815998 32.1021 1.98933 35.7288 4.336C39.3554 6.68267 42.0008 10.0107 43.6648 14.32H36.6888C35.4514 11.632 33.6594 9.56267 31.3128 8.112C29.0088 6.66133 26.2354 5.936 22.9928 5.936C19.8781 5.936 17.0834 6.66133 14.6088 8.112C12.1341 9.56267 10.1928 11.632 8.78475 14.32C7.37675 16.9653 6.67275 20.08 6.67275 23.664C6.67275 27.2053 7.37675 30.32 8.78475 33.008C10.1928 35.6533 12.1341 37.7013 14.6088 39.152C17.0834 40.6027 19.8781 41.328 22.9928 41.328C26.2354 41.328 29.0088 40.624 31.3128 39.216C33.6594 37.7653 35.4514 35.696 36.6888 33.008H43.6648C42.0008 37.2747 39.3554 40.5813 35.7288 42.928C32.1021 45.232 27.8568 46.384 22.9928 46.384C18.8541 46.384 15.0781 45.424 11.6648 43.504C8.29408 41.5413 5.62742 38.832 3.66475 35.376C1.70208 31.92 0.72075 28.016 0.72075 23.664ZM67.6303 46.576C64.3449 46.576 61.3583 45.8293 58.6703 44.336C56.0249 42.8427 53.9343 40.7307 52.3983 38C50.9049 35.2267 50.1583 32.0267 50.1583 28.4C50.1583 24.816 50.9263 21.6587 52.4623 18.928C54.0409 16.1547 56.1743 14.0427 58.8623 12.592C61.5503 11.0987 64.5583 10.352 67.8863 10.352C71.2143 10.352 74.2223 11.0987 76.9103 12.592C79.5983 14.0427 81.7103 16.1333 83.2463 18.864C84.8249 21.5947 85.6143 24.7733 85.6143 28.4C85.6143 32.0267 84.8036 35.2267 83.1823 38C81.6036 40.7307 79.4489 42.8427 76.7183 44.336C73.9876 45.8293 70.9583 46.576 67.6303 46.576ZM67.6303 41.456C69.7209 41.456 71.6836 40.9653 73.5183 39.984C75.3529 39.0027 76.8249 37.5307 77.9343 35.568C79.0863 33.6053 79.6623 31.216 79.6623 28.4C79.6623 25.584 79.1076 23.1947 77.9983 21.232C76.8889 19.2693 75.4383 17.8187 73.6463 16.88C71.8543 15.8987 69.9129 15.408 67.8223 15.408C65.6889 15.408 63.7263 15.8987 61.9343 16.88C60.1849 17.8187 58.7769 19.2693 57.7103 21.232C56.6436 23.1947 56.1103 25.584 56.1103 28.4C56.1103 31.2587 56.6223 33.6693 57.6463 35.632C58.7129 37.5947 60.1209 39.0667 61.8703 40.048C63.6196 40.9867 65.5396 41.456 67.6303 41.456ZM110.36 10.288C114.626 10.288 118.082 11.5893 120.728 14.192C123.373 16.752 124.696 20.464 124.696 25.328V46H118.936V26.16C118.936 22.6613 118.061 19.9947 116.312 18.16C114.562 16.2827 112.173 15.344 109.144 15.344C106.072 15.344 103.618 16.304 101.784 18.224C99.9918 20.144 99.0958 22.9387 99.0958 26.608V46H93.2718V10.928H99.0958V15.92C100.248 14.128 101.805 12.7413 103.768 11.76C105.773 10.7787 107.97 10.288 110.36 10.288ZM141.313 15.728V36.4C141.313 38.1067 141.676 39.3227 142.401 40.048C143.127 40.7307 144.385 41.072 146.177 41.072H150.465V46H145.217C141.975 46 139.543 45.2533 137.921 43.76C136.3 42.2667 135.489 39.8133 135.489 36.4V15.728H130.945V10.928H135.489V2.096H141.313V10.928H150.465V15.728H141.313ZM155.346 28.336C155.346 24.752 156.071 21.616 157.522 18.928C158.972 16.1973 160.956 14.0853 163.474 12.592C166.034 11.0987 168.871 10.352 171.986 10.352C175.058 10.352 177.724 11.0133 179.986 12.336C182.247 13.6587 183.932 15.3227 185.042 17.328V10.928H190.93V46H185.042V39.472C183.89 41.52 182.162 43.2267 179.858 44.592C177.596 45.9147 174.951 46.576 171.922 46.576C168.807 46.576 165.991 45.808 163.474 44.272C160.956 42.736 158.972 40.5813 157.522 37.808C156.071 35.0347 155.346 31.8773 155.346 28.336ZM185.042 28.4C185.042 25.7547 184.508 23.4507 183.442 21.488C182.375 19.5253 180.924 18.032 179.09 17.008C177.298 15.9413 175.314 15.408 173.138 15.408C170.962 15.408 168.978 15.92 167.186 16.944C165.394 17.968 163.964 19.4613 162.898 21.424C161.831 23.3867 161.298 25.6907 161.298 28.336C161.298 31.024 161.831 33.3707 162.898 35.376C163.964 37.3387 165.394 38.8533 167.186 39.92C168.978 40.944 170.962 41.456 173.138 41.456C175.314 41.456 177.298 40.944 179.09 39.92C180.924 38.8533 182.375 37.3387 183.442 35.376C184.508 33.3707 185.042 31.0453 185.042 28.4ZM198.596 28.4C198.596 24.7733 199.321 21.616 200.772 18.928C202.222 16.1973 204.228 14.0853 206.788 12.592C209.39 11.0987 212.356 10.352 215.684 10.352C219.993 10.352 223.534 11.3973 226.308 13.488C229.124 15.5787 230.98 18.48 231.876 22.192H225.604C225.006 20.0587 223.833 18.3733 222.084 17.136C220.377 15.8987 218.244 15.28 215.684 15.28C212.356 15.28 209.668 16.432 207.62 18.736C205.572 20.9973 204.548 24.2187 204.548 28.4C204.548 32.624 205.572 35.888 207.62 38.192C209.668 40.496 212.356 41.648 215.684 41.648C218.244 41.648 220.377 41.0507 222.084 39.856C223.79 38.6613 224.964 36.9547 225.604 34.736H231.876C230.937 38.32 229.06 41.2 226.244 43.376C223.428 45.5093 219.908 46.576 215.684 46.576C212.356 46.576 209.39 45.8293 206.788 44.336C204.228 42.8427 202.222 40.7307 200.772 38C199.321 35.2693 198.596 32.0693 198.596 28.4ZM246.751 15.728V36.4C246.751 38.1067 247.113 39.3227 247.839 40.048C248.564 40.7307 249.823 41.072 251.615 41.072H255.903V46H250.655C247.412 46 244.98 45.2533 243.359 43.76C241.737 42.2667 240.927 39.8133 240.927 36.4V15.728H236.383V10.928H240.927V2.096H246.751V10.928H255.903V15.728H246.751Z" fill="white"/>
<path d="M3.66475 11.952L4.53432 12.4458L4.5369 12.4412L3.66475 11.952ZM11.6647 3.76L11.1663 2.89308L11.1616 2.89582L11.6647 3.76ZM35.7288 4.336L36.272 3.49643L35.7288 4.336ZM43.6647 14.32V15.32H45.1228L44.5976 13.9598L43.6647 14.32ZM36.6888 14.32L35.7804 14.7381L36.0482 15.32H36.6888V14.32ZM31.3127 8.112L30.7799 8.95826L30.7869 8.96259L31.3127 8.112ZM14.6087 8.112L15.1145 8.9747L14.6087 8.112ZM8.78474 14.32L9.66751 14.7899L9.67058 14.784L8.78474 14.32ZM8.78474 33.008L7.8989 33.472L7.90201 33.4778L8.78474 33.008ZM14.6087 39.152L15.1145 38.2893L14.6087 39.152ZM31.3127 39.216L31.8342 40.0693L31.8386 40.0666L31.3127 39.216ZM36.6888 33.008V32.008H36.0482L35.7804 32.5899L36.6888 33.008ZM43.6647 33.008L44.5964 33.3713L45.1281 32.008H43.6647V33.008ZM35.7288 42.928L36.265 43.7721L36.272 43.7676L35.7288 42.928ZM11.6647 43.504L11.1616 44.3682L11.168 44.3719L11.1745 44.3756L11.6647 43.504ZM3.66475 35.376L4.53432 34.8822L3.66475 35.376ZM1.72075 23.664C1.72075 19.4682 2.66512 15.7372 4.53432 12.4458L2.79518 11.4582C0.739059 15.0788 -0.279251 19.1558 -0.279251 23.664H1.72075ZM4.5369 12.4412C6.41484 9.0936 8.95605 6.49439 12.1679 4.62417L11.1616 2.89582C7.63211 4.95094 4.84 7.81307 2.7926 11.4627L4.5369 12.4412ZM12.1632 4.6269C15.417 2.75596 19.0197 1.816 22.9928 1.816V-0.184002C18.6884 -0.184002 14.7391 0.838702 11.1663 2.89309L12.1632 4.6269ZM22.9928 1.816C27.689 1.816 31.7405 2.94645 35.1855 5.17557L36.272 3.49643C32.4637 1.03222 28.0245 -0.184002 22.9928 -0.184002V1.816ZM35.1855 5.17557C38.6224 7.39942 41.1383 10.5533 42.7319 14.6802L44.5976 13.9598C42.8632 9.46803 40.0885 5.96591 36.272 3.49643L35.1855 5.17557ZM43.6647 13.32H36.6888V15.32H43.6647V13.32ZM37.5971 13.9019C36.2838 11.0488 34.3648 8.82307 31.8386 7.2614L30.7869 8.96259C32.954 10.3023 34.619 12.2152 35.7804 14.7381L37.5971 13.9019ZM31.8456 7.26577C29.3538 5.69685 26.3875 4.936 22.9928 4.936V6.936C26.0833 6.936 28.6637 7.62581 30.7799 8.95823L31.8456 7.26577ZM22.9928 4.936C19.716 4.936 16.7441 5.70108 14.103 7.2493L15.1145 8.9747C17.4227 7.62158 20.0401 6.936 22.9928 6.936V4.936ZM14.103 7.2493C11.4573 8.80023 9.38855 11.0122 7.89893 13.856L9.67058 14.784C10.997 12.2518 12.8108 10.3251 15.1145 8.9747L14.103 7.2493ZM7.90201 13.8501C6.40327 16.6659 5.67274 19.9481 5.67274 23.664H7.67274C7.67274 20.2119 8.35022 17.2647 9.6675 14.7898L7.90201 13.8501ZM5.67274 23.664C5.67274 27.3399 6.40431 30.6187 7.89893 33.472L9.67058 32.544C8.3492 30.0213 7.67274 27.0708 7.67274 23.664H5.67274ZM7.90201 33.4778C9.39285 36.2788 11.4615 38.4662 14.103 40.0147L15.1145 38.2893C12.8067 36.9365 10.9926 35.0278 9.6675 32.5382L7.90201 33.4778ZM14.103 40.0147C16.7441 41.5629 19.716 42.328 22.9928 42.328V40.328C20.0401 40.328 17.4227 39.6424 15.1145 38.2893L14.103 40.0147ZM22.9928 42.328C26.3822 42.328 29.3442 41.5909 31.8342 40.0693L30.7913 38.3627C28.6733 39.6571 26.0886 40.328 22.9928 40.328V42.328ZM31.8386 40.0666C34.3648 38.5049 36.2838 36.2792 37.5971 33.4261L35.7804 32.5899C34.619 35.1128 32.954 37.0257 30.7869 38.3654L31.8386 40.0666ZM36.6888 34.008H43.6647V32.008H36.6888V34.008ZM42.7331 32.6447C41.1405 36.7282 38.625 39.8629 35.1855 42.0884L36.272 43.7676C40.0858 41.2998 42.861 37.8211 44.5964 33.3713L42.7331 32.6447ZM35.1925 42.0839C31.7466 44.2731 27.6926 45.384 22.9928 45.384V47.384C28.0209 47.384 32.4576 46.1909 36.265 43.7721L35.1925 42.0839ZM22.9928 45.384C19.0157 45.384 15.4101 44.4634 12.155 42.6324L11.1745 44.3756C14.7461 46.3846 18.6925 47.384 22.9928 47.384V45.384ZM12.1679 42.6398C8.95299 40.7678 6.41145 38.1876 4.53432 34.8822L2.79518 35.8698C4.84338 39.4764 7.63518 42.3148 11.1616 44.3682L12.1679 42.6398ZM4.53432 34.8822C2.66512 31.5908 1.72075 27.8598 1.72075 23.664H-0.279251C-0.279251 28.1722 0.739059 32.2492 2.79518 35.8698L4.53432 34.8822ZM58.6703 44.336L58.1786 45.2068L58.1846 45.2102L58.6703 44.336ZM52.3983 38L51.5178 38.4741L51.5222 38.4822L51.5267 38.4903L52.3983 38ZM52.4622 18.928L51.5932 18.4333L51.5907 18.4377L52.4622 18.928ZM58.8622 12.592L59.3372 13.4721L59.3479 13.4662L58.8622 12.592ZM76.9102 12.592L76.4246 13.4662L76.4353 13.472L76.9102 12.592ZM83.2462 18.864L82.3746 19.3543L82.3805 19.3645L83.2462 18.864ZM83.1823 38L82.3189 37.4953L82.3165 37.4995L83.1823 38ZM76.7182 44.336L77.1981 45.2134L76.7182 44.336ZM77.9342 35.568L77.0718 35.0618L77.0677 35.0688L77.0637 35.0759L77.9342 35.568ZM73.6463 16.88L73.1659 17.7571L73.1741 17.7615L73.1823 17.7658L73.6463 16.88ZM61.9342 16.88L62.4071 17.7612L62.4146 17.7571L61.9342 16.88ZM57.7103 21.232L58.5889 21.7095V21.7095L57.7103 21.232ZM57.6463 35.632L56.7597 36.0946L56.7636 36.1021L56.7676 36.1095L57.6463 35.632ZM61.8703 40.048L61.381 40.9201L61.3892 40.9247L61.3974 40.9292L61.8703 40.048ZM67.6302 45.576C64.5029 45.576 61.6852 44.867 59.1559 43.4618L58.1846 45.2102C61.0313 46.7917 64.187 47.576 67.6302 47.576V45.576ZM59.1618 43.4652C56.6807 42.0645 54.7192 40.0865 53.2698 37.5097L51.5267 38.4903C53.1493 41.3749 55.3691 43.6208 58.1786 45.2068L59.1618 43.4652ZM53.2787 37.5259C51.875 34.919 51.1582 31.8864 51.1582 28.4H49.1582C49.1582 32.1669 49.9348 35.5343 51.5178 38.4741L53.2787 37.5259ZM51.1582 28.4C51.1582 24.9627 51.8935 21.9788 53.3338 19.4183L51.5907 18.4377C49.959 21.3385 49.1582 24.6693 49.1582 28.4H51.1582ZM53.3313 19.4227C54.8217 16.8045 56.8216 14.8296 59.3372 13.472L58.3873 11.712C55.5269 13.2557 53.2602 15.5048 51.5932 18.4333L53.3313 19.4227ZM59.3479 13.4662C61.8752 12.0621 64.7138 11.352 67.8862 11.352V9.352C64.4027 9.352 61.2253 10.1353 58.3766 11.7178L59.3479 13.4662ZM67.8862 11.352C71.0587 11.352 73.8972 12.0621 76.4246 13.4662L77.3959 11.7178C74.5473 10.1353 71.3698 9.352 67.8862 9.352V11.352ZM76.4353 13.472C78.9525 14.8305 80.9289 16.7839 82.3747 19.3543L84.1178 18.3737C82.4916 15.4827 80.244 13.2549 77.3852 11.712L76.4353 13.472ZM82.3805 19.3645C83.8588 21.9215 84.6143 24.9224 84.6143 28.4H86.6143C86.6143 24.6243 85.7911 21.2679 84.112 18.3635L82.3805 19.3645ZM84.6143 28.4C84.6143 31.8726 83.8397 34.8941 82.319 37.4953L84.0455 38.5047C85.7675 35.5593 86.6143 32.1807 86.6143 28.4H84.6143ZM82.3165 37.4995C80.8282 40.0738 78.8061 42.0544 76.2384 43.4586L77.1981 45.2134C80.0917 43.6309 82.3789 41.3875 84.048 38.5005L82.3165 37.4995ZM76.2384 43.4586C73.6651 44.8659 70.8025 45.576 67.6302 45.576V47.576C71.114 47.576 74.3101 46.7927 77.1981 45.2134L76.2384 43.4586ZM67.6302 42.456C69.8846 42.456 72.0094 41.9251 73.9899 40.8658L73.0466 39.1022C71.3578 40.0055 69.5572 40.456 67.6302 40.456V42.456ZM73.9899 40.8658C76.0058 39.7875 77.6103 38.1735 78.8048 36.0601L77.0637 35.0759C76.0396 36.8879 74.7001 38.2178 73.0466 39.1022L73.9899 40.8658ZM78.7967 36.0742C80.0578 33.9255 80.6622 31.352 80.6622 28.4H78.6622C78.6622 31.08 78.1147 33.2851 77.0718 35.0618L78.7967 36.0742ZM80.6622 28.4C80.6622 25.4539 80.0816 22.8857 78.8688 20.7399L77.1277 21.7241C78.1335 23.5036 78.6622 25.7141 78.6622 28.4H80.6622ZM78.8688 20.7399C77.6759 18.6295 76.092 17.0322 74.1103 15.9942L73.1823 17.7658C74.7845 18.6051 76.1019 19.9092 77.1277 21.7241L78.8688 20.7399ZM74.1266 16.0029C72.1838 14.939 70.0767 14.408 67.8223 14.408V16.408C69.7491 16.408 71.5247 16.8583 73.1659 17.7571L74.1266 16.0029ZM67.8223 14.408C65.5287 14.408 63.3998 14.9373 61.4539 16.0029L62.4146 17.7571C64.0527 16.86 65.8491 16.408 67.8223 16.408V14.408ZM61.4614 15.9988C59.5195 17.0409 57.9793 18.6427 56.8316 20.7545L58.5889 21.7095C59.5745 19.8959 60.8504 18.5965 62.4071 17.7612L61.4614 15.9988ZM56.8316 20.7545C55.6672 22.8971 55.1102 25.4598 55.1102 28.4H57.1102C57.1102 25.7082 57.62 23.4923 58.5889 21.7095L56.8316 20.7545ZM55.1102 28.4C55.1102 31.3742 55.6426 33.9536 56.7597 36.0946L58.5328 35.1694C57.6019 33.3851 57.1102 31.1431 57.1102 28.4H55.1102ZM56.7676 36.1095C57.9137 38.2184 59.449 39.8363 61.381 40.9201L62.3595 39.1759C60.7928 38.297 59.5121 36.971 58.5249 35.1545L56.7676 36.1095ZM61.3974 40.9292C63.2999 41.95 65.3836 42.456 67.6302 42.456V40.456C65.6955 40.456 63.9392 40.0233 62.3431 39.1668L61.3974 40.9292ZM120.728 14.192L120.026 14.9049L120.032 14.9106L120.728 14.192ZM124.696 46V47H125.696V46H124.696ZM118.936 46H117.936V47H118.936V46ZM116.312 18.16L115.58 18.8418L115.588 18.8501L116.312 18.16ZM101.784 18.224L101.061 17.5331L101.053 17.5417L101.784 18.224ZM99.0957 46V47H100.096V46H99.0957ZM93.2717 46H92.2717V47H93.2717V46ZM93.2717 10.928V9.928H92.2717V10.928H93.2717ZM99.0957 10.928H100.096V9.928H99.0957V10.928ZM99.0957 15.92H98.0957V19.3248L99.9369 16.4608L99.0957 15.92ZM103.768 11.76L103.328 10.8617L103.321 10.8656L103.768 11.76ZM110.36 11.288C114.407 11.288 117.596 12.514 120.026 14.9048L121.429 13.4792C118.568 10.6647 114.846 9.288 110.36 9.288V11.288ZM120.032 14.9106C122.426 17.2273 123.696 20.6442 123.696 25.328H125.696C125.696 20.2838 124.32 16.2767 121.423 13.4734L120.032 14.9106ZM123.696 25.328V46H125.696V25.328H123.696ZM124.696 45H118.936V47H124.696V45ZM119.936 46V26.16H117.936V46H119.936ZM119.936 26.16C119.936 22.5033 119.02 19.5516 117.035 17.4699L115.588 18.8501C117.102 20.4377 117.936 22.8194 117.936 26.16H119.936ZM117.043 17.4783C115.071 15.3612 112.396 14.344 109.144 14.344V16.344C111.95 16.344 114.054 17.2041 115.58 18.8417L117.043 17.4783ZM109.144 14.344C105.845 14.344 103.114 15.3843 101.061 17.5331L102.507 18.9149C104.123 17.2237 106.298 16.344 109.144 16.344V14.344ZM101.053 17.5417C99.0294 19.7095 98.0957 22.7865 98.0957 26.608H100.096C100.096 23.0908 100.954 20.5785 102.515 18.9063L101.053 17.5417ZM98.0957 26.608V46H100.096V26.608H98.0957ZM99.0957 45H93.2717V47H99.0957V45ZM94.2717 46V10.928H92.2717V46H94.2717ZM93.2717 11.928H99.0957V9.928H93.2717V11.928ZM98.0957 10.928V15.92H100.096V10.928H98.0957ZM99.9369 16.4608C100.989 14.8246 102.408 13.5579 104.215 12.6544L103.321 10.8656C101.202 11.9247 99.5067 13.4314 98.2546 15.3792L99.9369 16.4608ZM104.207 12.6582C106.066 11.7485 108.112 11.288 110.36 11.288V9.288C107.829 9.288 105.48 9.80883 103.328 10.8618L104.207 12.6582ZM141.313 15.728V14.728H140.313V15.728H141.313ZM142.401 40.048L141.694 40.7551L141.705 40.7658L141.716 40.7762L142.401 40.048ZM150.465 41.072H151.465V40.072H150.465V41.072ZM150.465 46V47H151.465V46H150.465ZM137.921 43.76L137.244 44.4955L137.921 43.76ZM135.489 15.728H136.489V14.728H135.489V15.728ZM130.945 15.728H129.945V16.728H130.945V15.728ZM130.945 10.928V9.928H129.945V10.928H130.945ZM135.489 10.928V11.928H136.489V10.928H135.489ZM135.489 2.096V1.096H134.489V2.096H135.489ZM141.313 2.096H142.313V1.096H141.313V2.096ZM141.313 10.928H140.313V11.928H141.313V10.928ZM150.465 10.928H151.465V9.928H150.465V10.928ZM150.465 15.728V16.728H151.465V15.728H150.465ZM140.313 15.728V36.4H142.313V15.728H140.313ZM140.313 36.4C140.313 38.2053 140.69 39.7505 141.694 40.7551L143.108 39.3409C142.662 38.8949 142.313 38.008 142.313 36.4H140.313ZM141.716 40.7762C142.728 41.7283 144.315 42.072 146.177 42.072V40.072C144.456 40.072 143.526 39.733 143.087 39.3198L141.716 40.7762ZM146.177 42.072H150.465V40.072H146.177V42.072ZM149.465 41.072V46H151.465V41.072H149.465ZM150.465 45H145.217V47H150.465V45ZM145.217 45C142.109 45 139.965 44.2826 138.599 43.0245L137.244 44.4955C139.12 46.224 141.84 47 145.217 47V45ZM138.599 43.0245C137.273 41.8032 136.489 39.6853 136.489 36.4H134.489C134.489 39.9413 135.327 42.7302 137.244 44.4955L138.599 43.0245ZM136.489 36.4V15.728H134.489V36.4H136.489ZM135.489 14.728H130.945V16.728H135.489V14.728ZM131.945 15.728V10.928H129.945V15.728H131.945ZM130.945 11.928H135.489V9.928H130.945V11.928ZM136.489 10.928V2.096H134.489V10.928H136.489ZM135.489 3.096H141.313V1.096H135.489V3.096ZM140.313 2.096V10.928H142.313V2.096H140.313ZM141.313 11.928H150.465V9.928H141.313V11.928ZM149.465 10.928V15.728H151.465V10.928H149.465ZM150.465 14.728H141.313V16.728H150.465V14.728ZM157.522 18.928L158.402 19.4029L158.405 19.3972L157.522 18.928ZM163.474 12.592L162.97 11.7282L162.964 11.7319L163.474 12.592ZM179.986 12.336L179.481 13.1992L179.986 12.336ZM185.042 17.328L184.167 17.8121L186.042 17.328H185.042ZM185.042 10.928V9.928H184.042V10.928H185.042ZM190.93 10.928H191.93V9.928H190.93V10.928ZM190.93 46V47H191.93V46H190.93ZM185.042 46H184.042V47H185.042V46ZM185.042 39.472H186.042V35.6545L184.17 38.9817L185.042 39.472ZM179.858 44.592L180.363 45.4552L180.368 45.4523L179.858 44.592ZM163.474 44.272L162.953 45.1256L163.474 44.272ZM157.522 37.808L158.408 37.3445L157.522 37.808ZM179.09 17.008L178.578 17.8673L178.59 17.8744L178.602 17.8812L179.09 17.008ZM167.186 16.944L166.69 16.0758V16.0758L167.186 16.944ZM162.898 21.424L163.776 21.9015V21.9015L162.898 21.424ZM162.898 35.376L162.015 35.8456L162.019 35.8535L162.898 35.376ZM167.186 39.92L166.674 40.7793L166.682 40.7838L166.69 40.7882L167.186 39.92ZM179.09 39.92L179.586 40.7883L179.592 40.7845L179.09 39.92ZM183.442 35.376L184.32 35.8535L184.325 35.8456L183.442 35.376ZM156.346 28.336C156.346 24.889 157.042 21.9216 158.402 19.4029L156.642 18.4531C155.1 21.3104 154.346 24.615 154.346 28.336H156.346ZM158.405 19.3972C159.775 16.819 161.633 14.8464 163.984 13.4521L162.964 11.7319C160.279 13.3243 158.17 15.5757 156.639 18.4588L158.405 19.3972ZM163.978 13.4558C166.377 12.0563 169.039 11.352 171.986 11.352V9.352C168.703 9.352 165.691 10.1411 162.97 11.7282L163.978 13.4558ZM171.986 11.352C174.911 11.352 177.397 11.9805 179.481 13.1992L180.491 11.4728C178.051 10.0461 175.204 9.352 171.986 9.352V11.352ZM179.481 13.1992C181.61 14.4443 183.156 15.9855 184.167 17.8121L185.917 16.8439C184.709 14.6598 182.885 12.873 180.491 11.4728L179.481 13.1992ZM186.042 17.328V10.928H184.042V17.328H186.042ZM185.042 11.928H190.93V9.928H185.042V11.928ZM189.93 10.928V46H191.93V10.928H189.93ZM190.93 45H185.042V47H190.93V45ZM186.042 46V39.472H184.042V46H186.042ZM184.17 38.9817C183.116 40.8564 181.522 42.4431 179.348 43.7317L180.368 45.4523C182.801 44.0102 184.664 42.1836 185.913 39.9623L184.17 38.9817ZM179.353 43.7288C177.267 44.9487 174.802 45.576 171.922 45.576V47.576C175.1 47.576 177.926 46.8806 180.363 45.4552L179.353 43.7288ZM171.922 45.576C168.98 45.576 166.346 44.8532 163.995 43.4184L162.953 45.1256C165.636 46.7628 168.634 47.576 171.922 47.576V45.576ZM163.995 43.4184C161.642 41.9827 159.78 39.9673 158.408 37.3445L156.636 38.2715C158.165 41.1953 160.271 43.4893 162.953 45.1256L163.995 43.4184ZM158.408 37.3445C157.041 34.7321 156.346 31.7374 156.346 28.336H154.346C154.346 32.0173 155.101 35.3372 156.636 38.2715L158.408 37.3445ZM186.042 28.4C186.042 25.6186 185.48 23.1445 184.32 21.0105L182.563 21.9655C183.537 23.7568 184.042 25.8907 184.042 28.4H186.042ZM184.32 21.0105C183.169 18.8925 181.588 17.2569 179.577 16.1348L178.602 17.8812C180.261 18.8071 181.581 20.1581 182.563 21.9655L184.32 21.0105ZM179.601 16.1487C177.648 14.9859 175.486 14.408 173.138 14.408V16.408C175.142 16.408 176.948 16.8968 178.578 17.8673L179.601 16.1487ZM173.138 14.408C170.798 14.408 168.641 14.9607 166.69 16.0758L167.682 17.8122C169.314 16.8793 171.126 16.408 173.138 16.408V14.408ZM166.69 16.0758C164.723 17.1995 163.167 18.8345 162.019 20.9465L163.776 21.9015C164.762 20.0881 166.064 18.7365 167.682 17.8122L166.69 16.0758ZM162.019 20.9465C160.859 23.0805 160.298 25.5546 160.298 28.336H162.298C162.298 25.8267 162.803 23.6928 163.776 21.9015L162.019 20.9465ZM160.298 28.336C160.298 31.1578 160.858 33.6713 162.015 35.8456L163.781 34.9064C162.804 33.07 162.298 30.8902 162.298 28.336H160.298ZM162.019 35.8535C163.165 37.9625 164.717 39.6141 166.674 40.7793L167.697 39.0607C166.071 38.0925 164.764 36.7149 163.776 34.8985L162.019 35.8535ZM166.69 40.7882C168.641 41.9033 170.798 42.456 173.138 42.456V40.456C171.126 40.456 169.314 39.9847 167.682 39.0518L166.69 40.7882ZM173.138 42.456C175.478 42.456 177.634 41.9033 179.586 40.7882L178.594 39.0518C176.961 39.9847 175.15 40.456 173.138 40.456V42.456ZM179.592 40.7845C181.594 39.6208 183.171 37.9683 184.32 35.8535L182.563 34.8985C181.579 36.709 180.255 38.0859 178.587 39.0555L179.592 40.7845ZM184.325 35.8456C185.48 33.6736 186.042 31.182 186.042 28.4H184.042C184.042 30.9086 183.537 33.0678 182.559 34.9064L184.325 35.8456ZM200.772 18.928L201.652 19.4029L201.655 19.3972L200.772 18.928ZM206.788 12.592L206.29 11.7246L206.284 11.7282L206.788 12.592ZM226.308 13.488L225.706 14.2865L225.712 14.2909L226.308 13.488ZM231.876 22.192V23.192H233.146L232.848 21.9574L231.876 22.192ZM225.604 22.192L224.641 22.4616L224.845 23.192H225.604V22.192ZM222.084 17.136L221.497 17.9457L221.506 17.9524L222.084 17.136ZM207.62 18.736L208.361 19.4073L208.367 19.4004L207.62 18.736ZM207.62 38.192L208.367 37.5276V37.5276L207.62 38.192ZM222.084 39.856L222.657 40.6752L222.084 39.856ZM225.604 34.736V33.736H224.851L224.643 34.4588L225.604 34.736ZM231.876 34.736L232.843 34.9894L233.171 33.736H231.876V34.736ZM226.244 43.376L226.848 44.1731L226.855 44.1673L226.244 43.376ZM206.788 44.336L206.284 45.1998L206.29 45.2034L206.788 44.336ZM200.772 38L199.889 38.4692L200.772 38ZM199.596 28.4C199.596 24.9081 200.293 21.92 201.652 19.4029L199.892 18.4531C198.349 21.312 197.596 24.6385 197.596 28.4H199.596ZM201.655 19.3972C203.022 16.8233 204.899 14.8512 207.292 13.4558L206.284 11.7282C203.556 13.3194 201.423 15.5714 199.889 18.4588L201.655 19.3972ZM207.285 13.4594C209.721 12.0622 212.511 11.352 215.684 11.352V9.352C212.201 9.352 209.06 10.1352 206.29 11.7246L207.285 13.4594ZM215.684 11.352C219.829 11.352 223.144 12.3554 225.706 14.2865L226.91 12.6895C223.925 10.4393 220.157 9.352 215.684 9.352V11.352ZM225.712 14.2909C228.323 16.2293 230.057 18.9206 230.904 22.4266L232.848 21.9574C231.902 18.0394 229.925 14.9281 226.904 12.6851L225.712 14.2909ZM231.876 21.192H225.604V23.192H231.876V21.192ZM226.567 21.9224C225.91 19.5761 224.605 17.6943 222.661 16.3196L221.506 17.9524C223.061 19.0524 224.103 20.5413 224.641 22.4616L226.567 21.9224ZM222.671 16.3264C220.759 14.9407 218.408 14.28 215.684 14.28V16.28C218.079 16.28 219.995 16.8566 221.497 17.9456L222.671 16.3264ZM215.684 14.28C212.096 14.28 209.126 15.5357 206.872 18.0716L208.367 19.4004C210.209 17.3283 212.616 16.28 215.684 16.28V14.28ZM206.879 18.0647C204.611 20.5687 203.548 24.0632 203.548 28.4H205.548C205.548 24.3741 206.533 21.426 208.361 19.4073L206.879 18.0647ZM203.548 28.4C203.548 32.7777 204.61 36.311 206.872 38.8564L208.367 37.5276C206.534 35.465 205.548 32.4703 205.548 28.4H203.548ZM206.872 38.8564C209.126 41.3923 212.096 42.648 215.684 42.648V40.648C212.616 40.648 210.209 39.5997 208.367 37.5276L206.872 38.8564ZM215.684 42.648C218.401 42.648 220.747 42.0122 222.657 40.6752L221.51 39.0368C220.007 40.0892 218.086 40.648 215.684 40.648V42.648ZM222.657 40.6752C224.572 39.3351 225.869 37.4262 226.565 35.0132L224.643 34.4588C224.059 36.4832 223.009 37.9876 221.51 39.0368L222.657 40.6752ZM225.604 35.736H231.876V33.736H225.604V35.736ZM230.908 34.4826C230.023 37.8624 228.266 40.5496 225.632 42.5847L226.855 44.1673C229.854 41.8504 231.851 38.7776 232.843 34.9894L230.908 34.4826ZM225.64 42.5789C223.03 44.5563 219.734 45.576 215.684 45.576V47.576C220.082 47.576 223.826 46.4624 226.848 44.1731L225.64 42.5789ZM215.684 45.576C212.511 45.576 209.721 44.8658 207.285 43.4686L206.29 45.2034C209.06 46.7928 212.201 47.576 215.684 47.576V45.576ZM207.292 43.4722C204.899 42.0768 203.022 40.1047 201.655 37.5308L199.889 38.4692C201.423 41.3566 203.556 43.6086 206.284 45.1998L207.292 43.4722ZM201.655 37.5308C200.294 34.9694 199.596 31.9362 199.596 28.4H197.596C197.596 32.2025 198.348 35.5693 199.889 38.4692L201.655 37.5308ZM246.751 15.728V14.728H245.751V15.728H246.751ZM247.839 40.048L247.132 40.7551L247.142 40.7658L247.153 40.7762L247.839 40.048ZM255.903 41.072H256.903V40.072H255.903V41.072ZM255.903 46V47H256.903V46H255.903ZM243.359 43.76L242.681 44.4955L243.359 43.76ZM240.927 15.728H241.927V14.728H240.927V15.728ZM236.383 15.728H235.383V16.728H236.383V15.728ZM236.383 10.928V9.928H235.383V10.928H236.383ZM240.927 10.928V11.928H241.927V10.928H240.927ZM240.927 2.096V1.096H239.927V2.096H240.927ZM246.751 2.096H247.751V1.096H246.751V2.096ZM246.751 10.928H245.751V11.928H246.751V10.928ZM255.903 10.928H256.903V9.928H255.903V10.928ZM255.903 15.728V16.728H256.903V15.728H255.903ZM245.751 15.728V36.4H247.751V15.728H245.751ZM245.751 36.4C245.751 38.2053 246.127 39.7505 247.132 40.7551L248.546 39.3409C248.1 38.8949 247.751 38.008 247.751 36.4H245.751ZM247.153 40.7762C248.165 41.7283 249.752 42.072 251.615 42.072V40.072C249.893 40.072 248.963 39.733 248.524 39.3198L247.153 40.7762ZM251.615 42.072H255.903V40.072H251.615V42.072ZM254.903 41.072V46H256.903V41.072H254.903ZM255.903 45H250.655V47H255.903V45ZM250.655 45C247.547 45 245.402 44.2826 244.036 43.0245L242.681 44.4955C244.558 46.224 247.277 47 250.655 47V45ZM244.036 43.0245C242.71 41.8032 241.927 39.6853 241.927 36.4H239.927C239.927 39.9413 240.765 42.7302 242.681 44.4955L244.036 43.0245ZM241.927 36.4V15.728H239.927V36.4H241.927ZM240.927 14.728H236.383V16.728H240.927V14.728ZM237.383 15.728V10.928H235.383V15.728H237.383ZM236.383 11.928H240.927V9.928H236.383V11.928ZM241.927 10.928V2.096H239.927V10.928H241.927ZM240.927 3.096H246.751V1.096H240.927V3.096ZM245.751 2.096V10.928H247.751V2.096H245.751ZM246.751 11.928H255.903V9.928H246.751V11.928ZM254.903 10.928V15.728H256.903V10.928H254.903ZM255.903 14.728H246.751V16.728H255.903V14.728Z" fill="#2B2C32" mask="url(#path-1-outside-1_379_854)"/>
</svg>
