<svg width="331" height="17" viewBox="0 0 331 17" fill="none" xmlns="http://www.w3.org/2000/svg">
<path d="M6.032 13.224C3.104 13.224 0.928 10.952 0.928 7.144C0.928 3.368 3.152 1.064 6.128 1.064C7.552 1.064 8.656 1.752 9.344 2.504L8.528 3.464C7.92 2.808 7.136 2.36 6.144 2.36C3.92 2.36 2.448 4.184 2.448 7.112C2.448 10.072 3.856 11.912 6.096 11.912C7.2 11.912 8.064 11.432 8.816 10.6L9.616 11.528C8.688 12.616 7.552 13.224 6.032 13.224ZM15.0511 13.224C12.9071 13.224 11.0191 11.544 11.0191 8.68C11.0191 5.768 12.9071 4.104 15.0511 4.104C17.1791 4.104 19.0671 5.768 19.0671 8.68C19.0671 11.544 17.1791 13.224 15.0511 13.224ZM15.0511 12.008C16.5551 12.008 17.5631 10.664 17.5631 8.68C17.5631 6.664 16.5551 5.32 15.0511 5.32C13.5311 5.32 12.5231 6.664 12.5231 8.68C12.5231 10.664 13.5311 12.008 15.0511 12.008ZM21.3783 16.664V4.312H22.5623L22.7063 5.32H22.7543C23.5383 4.664 24.4983 4.104 25.5063 4.104C27.7623 4.104 28.9623 5.848 28.9623 8.536C28.9623 11.496 27.1863 13.224 25.1863 13.224C24.4023 13.224 23.5863 12.856 22.8023 12.216L22.8343 13.736V16.664H21.3783ZM24.9623 11.992C26.3863 11.992 27.4583 10.696 27.4583 8.552C27.4583 6.616 26.8023 5.32 25.1543 5.32C24.4183 5.32 23.6823 5.736 22.8343 6.52V11.096C23.6183 11.752 24.3863 11.992 24.9623 11.992ZM31.3188 16.76C30.9188 16.76 30.5828 16.696 30.3108 16.584L30.5988 15.416C30.7588 15.48 31.0148 15.544 31.2548 15.544C32.2308 15.544 32.8548 14.744 33.2228 13.672L33.4148 13.016L29.9268 4.312H31.4308L33.2068 9.144C33.4788 9.912 33.7668 10.792 34.0548 11.592H34.1348C34.3748 10.792 34.6308 9.928 34.8548 9.144L36.4228 4.312H37.8468L34.5668 13.736C33.9588 15.448 33.0628 16.76 31.3188 16.76ZM39.5345 13V4.312H40.7185L40.8625 5.896H40.9105C41.5025 4.792 42.3985 4.104 43.3745 4.104C43.7585 4.104 44.0145 4.152 44.3025 4.28L44.0305 5.56C43.7265 5.464 43.5345 5.416 43.1825 5.416C42.4625 5.416 41.5665 5.944 40.9905 7.432V13H39.5345ZM45.7376 13V4.312H47.1936V13H45.7376ZM46.4736 2.52C45.8976 2.52 45.4976 2.152 45.4976 1.544C45.4976 0.983999 45.8976 0.615999 46.4736 0.615999C47.0336 0.615999 47.4496 0.983999 47.4496 1.544C47.4496 2.152 47.0336 2.52 46.4736 2.52ZM53.0719 17C50.9439 17 49.4719 16.168 49.4719 14.68C49.4719 13.944 49.9519 13.224 50.7519 12.712V12.648C50.3039 12.36 49.9679 11.896 49.9679 11.208C49.9679 10.488 50.4799 9.928 50.9439 9.608V9.544C50.3679 9.08 49.7919 8.248 49.7919 7.208C49.7919 5.288 51.2959 4.104 53.0559 4.104C53.5519 4.104 53.9839 4.2 54.2879 4.312H57.3119V5.448H55.5359C55.9519 5.848 56.2399 6.488 56.2399 7.24C56.2399 9.096 54.8319 10.248 53.0559 10.248C52.6399 10.248 52.1599 10.152 51.7599 9.96C51.4559 10.216 51.1999 10.52 51.1999 10.984C51.1999 11.544 51.5679 11.944 52.7359 11.944H54.4319C56.4479 11.944 57.4559 12.568 57.4559 14.008C57.4559 15.624 55.7439 17 53.0719 17ZM53.0559 9.272C54.0639 9.272 54.9119 8.456 54.9119 7.208C54.9119 5.928 54.0799 5.16 53.0559 5.16C52.0319 5.16 51.1999 5.912 51.1999 7.208C51.1999 8.456 52.0479 9.272 53.0559 9.272ZM53.2639 16.008C54.9439 16.008 56.0319 15.128 56.0319 14.232C56.0319 13.416 55.4079 13.144 54.2719 13.144H52.7679C52.4319 13.144 52.0319 13.112 51.6319 13C51.0079 13.448 50.7519 13.976 50.7519 14.472C50.7519 15.416 51.6959 16.008 53.2639 16.008ZM59.1751 13V0.28H60.6311V3.752L60.5831 5.544C61.3831 4.76 62.2631 4.104 63.4631 4.104C65.2871 4.104 66.1191 5.288 66.1191 7.496V13H64.6471V7.688C64.6471 6.056 64.1511 5.368 62.9991 5.368C62.1191 5.368 61.4951 5.832 60.6311 6.696V13H59.1751ZM71.6139 13.224C69.7579 13.224 69.1499 12.056 69.1499 10.328V5.496H67.8539V4.408L69.2139 4.312L69.3739 1.864H70.6059V4.312H72.9579V5.496H70.6059V10.36C70.6059 11.416 70.9419 12.04 71.9499 12.04C72.2539 12.04 72.6539 11.912 72.9259 11.8L73.2139 12.888C72.7339 13.064 72.1579 13.224 71.6139 13.224ZM80.0931 13.192C76.9891 13.192 74.3331 10.872 74.3331 7.224C74.3331 3.592 76.9891 1.32 80.0931 1.32C83.2131 1.32 85.8851 3.608 85.8851 7.224C85.8851 10.872 83.2131 13.192 80.0931 13.192ZM80.0931 12.456C82.7971 12.456 85.0531 10.36 85.0531 7.224C85.0531 4.12 82.7971 2.056 80.0931 2.056C77.4051 2.056 75.1491 4.12 75.1491 7.224C75.1491 10.36 77.4051 12.456 80.0931 12.456ZM80.2371 10.776C78.4291 10.776 76.9891 9.448 76.9891 7.24C76.9891 5.16 78.5571 3.848 80.2851 3.848C81.3091 3.848 81.9491 4.28 82.5251 4.872L81.9011 5.576C81.4211 5.096 80.9731 4.84 80.3491 4.84C79.0371 4.84 78.1731 5.816 78.1731 7.24C78.1731 8.808 79.0051 9.8 80.2851 9.8C81.0531 9.8 81.5971 9.448 82.1251 9L82.6531 9.752C81.9971 10.328 81.3091 10.776 80.2371 10.776ZM91.0478 13V12.152C94.4878 8.728 96.4078 6.664 96.4078 4.792C96.4078 3.496 95.7198 2.568 94.2638 2.568C93.3038 2.568 92.4718 3.176 91.8158 3.944L90.9678 3.112C91.9278 2.072 92.9518 1.4 94.4398 1.4C96.5358 1.4 97.8478 2.712 97.8478 4.744C97.8478 6.888 95.8798 9.016 93.1758 11.864C93.7838 11.8 94.5038 11.752 95.0958 11.752H98.4078V13H91.0478ZM103.667 13.224C101.379 13.224 100.003 11.096 100.003 7.272C100.003 3.448 101.379 1.4 103.667 1.4C105.923 1.4 107.299 3.448 107.299 7.272C107.299 11.096 105.923 13.224 103.667 13.224ZM103.667 12.04C104.995 12.04 105.891 10.616 105.891 7.272C105.891 3.912 104.995 2.568 103.667 2.568C102.323 2.568 101.411 3.912 101.411 7.272C101.411 10.616 102.323 12.04 103.667 12.04ZM108.798 13V12.152C112.238 8.728 114.158 6.664 114.158 4.792C114.158 3.496 113.47 2.568 112.014 2.568C111.054 2.568 110.222 3.176 109.566 3.944L108.718 3.112C109.678 2.072 110.702 1.4 112.19 1.4C114.286 1.4 115.598 2.712 115.598 4.744C115.598 6.888 113.63 9.016 110.926 11.864C111.534 11.8 112.254 11.752 112.846 11.752H116.158V13H108.798ZM122.393 13V5.352C122.393 4.76 122.441 3.768 122.489 3.176H122.409C122.121 3.704 121.801 4.216 121.481 4.776L118.809 8.696H125.337V9.848H117.273V8.888L122.153 1.608H123.769V13H122.393ZM129.47 13L133.438 1.272H135.102L139.07 13H137.518L135.454 6.44C135.038 5.128 134.67 3.848 134.286 2.488H134.222C133.838 3.848 133.47 5.128 133.038 6.44L130.974 13H129.47ZM131.55 9.416V8.248H136.958V9.416H131.55ZM139.892 9.096V7.976H143.988V9.096H139.892ZM146.399 13V2.92C146.399 1.176 147.215 0.0559998 148.943 0.0559998C149.471 0.0559998 149.983 0.183999 150.383 0.344L150.079 1.464C149.743 1.32 149.407 1.24 149.087 1.24C148.255 1.24 147.855 1.816 147.855 2.952V13H146.399ZM145.215 5.496V4.408L146.479 4.312H149.711V5.496H145.215ZM154.536 13.224C152.392 13.224 150.504 11.544 150.504 8.68C150.504 5.768 152.392 4.104 154.536 4.104C156.664 4.104 158.552 5.768 158.552 8.68C158.552 11.544 156.664 13.224 154.536 13.224ZM154.536 12.008C156.04 12.008 157.048 10.664 157.048 8.68C157.048 6.664 156.04 5.32 154.536 5.32C153.016 5.32 152.008 6.664 152.008 8.68C152.008 10.664 153.016 12.008 154.536 12.008ZM160.863 13V4.312H162.047L162.191 5.896H162.239C162.831 4.792 163.727 4.104 164.703 4.104C165.087 4.104 165.343 4.152 165.631 4.28L165.359 5.56C165.055 5.464 164.863 5.416 164.511 5.416C163.791 5.416 162.895 5.944 162.319 7.432V13H160.863ZM170.255 13.224C167.951 13.224 166.191 11.544 166.191 8.68C166.191 5.768 168.143 4.104 170.367 4.104C171.503 4.104 172.303 4.568 172.911 5.128L172.175 6.088C171.663 5.624 171.119 5.32 170.447 5.32C168.847 5.32 167.695 6.664 167.695 8.68C167.695 10.664 168.799 12.008 170.399 12.008C171.183 12.008 171.903 11.624 172.447 11.144L173.071 12.12C172.303 12.808 171.295 13.224 170.255 13.224ZM178.085 13.224C175.765 13.224 173.925 11.528 173.925 8.68C173.925 5.848 175.829 4.104 177.829 4.104C180.037 4.104 181.285 5.688 181.285 8.184C181.285 8.488 181.269 8.792 181.221 9.016H175.365C175.477 10.856 176.597 12.056 178.261 12.056C179.093 12.056 179.781 11.784 180.421 11.352L180.949 12.328C180.181 12.824 179.269 13.224 178.085 13.224ZM175.349 7.96H180.005C180.005 6.216 179.221 5.272 177.845 5.272C176.629 5.272 175.541 6.248 175.349 7.96ZM185.595 13L189.563 1.272H191.227L195.195 13H193.643L191.579 6.44C191.163 5.128 190.795 3.848 190.411 2.488H190.347C189.963 3.848 189.595 5.128 189.163 6.44L187.099 13H185.595ZM187.675 9.416V8.248H193.083V9.416H187.675ZM198.289 13.224C197.185 13.224 196.753 12.52 196.753 11.272V0.28H198.209V11.368C198.209 11.832 198.401 12.008 198.625 12.008C198.689 12.008 198.753 12.008 198.929 11.976L199.121 13.096C198.913 13.16 198.689 13.224 198.289 13.224ZM202.836 13.224C201.732 13.224 201.3 12.52 201.3 11.272V0.28H202.756V11.368C202.756 11.832 202.948 12.008 203.172 12.008C203.236 12.008 203.3 12.008 203.476 11.976L203.668 13.096C203.46 13.16 203.236 13.224 202.836 13.224ZM209.553 13V1.272H213.217C215.601 1.272 217.313 2.136 217.313 4.568C217.313 6.92 215.601 8.04 213.217 8.04H211.041V13H209.553ZM211.041 6.84H213.009C214.833 6.84 215.841 6.088 215.841 4.568C215.841 3.032 214.833 2.488 213.009 2.488H211.041V6.84ZM216.001 13L212.929 7.64L214.081 6.872L217.665 13H216.001ZM219.581 13V4.312H221.037V13H219.581ZM220.317 2.52C219.741 2.52 219.341 2.152 219.341 1.544C219.341 0.983999 219.741 0.615999 220.317 0.615999C220.877 0.615999 221.293 0.983999 221.293 1.544C221.293 2.152 220.877 2.52 220.317 2.52ZM226.916 17C224.788 17 223.316 16.168 223.316 14.68C223.316 13.944 223.796 13.224 224.596 12.712V12.648C224.148 12.36 223.812 11.896 223.812 11.208C223.812 10.488 224.324 9.928 224.788 9.608V9.544C224.212 9.08 223.636 8.248 223.636 7.208C223.636 5.288 225.14 4.104 226.9 4.104C227.396 4.104 227.828 4.2 228.132 4.312H231.156V5.448H229.38C229.796 5.848 230.084 6.488 230.084 7.24C230.084 9.096 228.676 10.248 226.9 10.248C226.484 10.248 226.004 10.152 225.604 9.96C225.3 10.216 225.044 10.52 225.044 10.984C225.044 11.544 225.412 11.944 226.58 11.944H228.276C230.292 11.944 231.3 12.568 231.3 14.008C231.3 15.624 229.588 17 226.916 17ZM226.9 9.272C227.908 9.272 228.756 8.456 228.756 7.208C228.756 5.928 227.924 5.16 226.9 5.16C225.876 5.16 225.044 5.912 225.044 7.208C225.044 8.456 225.892 9.272 226.9 9.272ZM227.108 16.008C228.788 16.008 229.876 15.128 229.876 14.232C229.876 13.416 229.252 13.144 228.116 13.144H226.612C226.276 13.144 225.876 13.112 225.476 13C224.852 13.448 224.596 13.976 224.596 14.472C224.596 15.416 225.54 16.008 227.108 16.008ZM233.019 13V0.28H234.475V3.752L234.427 5.544C235.227 4.76 236.107 4.104 237.307 4.104C239.131 4.104 239.963 5.288 239.963 7.496V13H238.491V7.688C238.491 6.056 237.995 5.368 236.843 5.368C235.963 5.368 235.339 5.832 234.475 6.696V13H233.019ZM245.458 13.224C243.602 13.224 242.994 12.056 242.994 10.328V5.496H241.698V4.408L243.058 4.312L243.218 1.864H244.45V4.312H246.802V5.496H244.45V10.36C244.45 11.416 244.786 12.04 245.794 12.04C246.098 12.04 246.498 11.912 246.77 11.8L247.058 12.888C246.578 13.064 246.002 13.224 245.458 13.224ZM250.822 13.224C249.59 13.224 248.39 12.696 247.574 12.024L248.294 11.048C249.046 11.656 249.814 12.088 250.854 12.088C252.006 12.088 252.582 11.48 252.582 10.712C252.582 9.832 251.542 9.432 250.582 9.08C249.382 8.616 248.054 8.04 248.054 6.552C248.054 5.176 249.158 4.104 251.046 4.104C252.118 4.104 253.078 4.536 253.75 5.08L253.046 6.008C252.454 5.576 251.83 5.24 251.062 5.24C249.958 5.24 249.462 5.816 249.462 6.488C249.462 7.32 250.342 7.64 251.334 7.992C252.598 8.472 253.974 8.984 253.974 10.632C253.974 12.056 252.87 13.224 250.822 13.224ZM259.741 13V1.272H263.405C265.789 1.272 267.501 2.136 267.501 4.568C267.501 6.92 265.789 8.04 263.405 8.04H261.229V13H259.741ZM261.229 6.84H263.197C265.021 6.84 266.029 6.088 266.029 4.568C266.029 3.032 265.021 2.488 263.197 2.488H261.229V6.84ZM266.189 13L263.117 7.64L264.269 6.872L267.853 13H266.189ZM273.054 13.224C270.734 13.224 268.894 11.528 268.894 8.68C268.894 5.848 270.798 4.104 272.798 4.104C275.006 4.104 276.254 5.688 276.254 8.184C276.254 8.488 276.238 8.792 276.19 9.016H270.334C270.446 10.856 271.566 12.056 273.23 12.056C274.062 12.056 274.75 11.784 275.39 11.352L275.918 12.328C275.15 12.824 274.238 13.224 273.054 13.224ZM270.318 7.96H274.974C274.974 6.216 274.19 5.272 272.814 5.272C271.598 5.272 270.51 6.248 270.318 7.96ZM280.682 13.224C279.45 13.224 278.25 12.696 277.434 12.024L278.154 11.048C278.906 11.656 279.674 12.088 280.714 12.088C281.866 12.088 282.442 11.48 282.442 10.712C282.442 9.832 281.402 9.432 280.442 9.08C279.242 8.616 277.914 8.04 277.914 6.552C277.914 5.176 279.018 4.104 280.906 4.104C281.978 4.104 282.938 4.536 283.61 5.08L282.906 6.008C282.314 5.576 281.69 5.24 280.922 5.24C279.818 5.24 279.322 5.816 279.322 6.488C279.322 7.32 280.202 7.64 281.194 7.992C282.458 8.472 283.834 8.984 283.834 10.632C283.834 12.056 282.73 13.224 280.682 13.224ZM289.398 13.224C287.078 13.224 285.238 11.528 285.238 8.68C285.238 5.848 287.142 4.104 289.142 4.104C291.35 4.104 292.598 5.688 292.598 8.184C292.598 8.488 292.582 8.792 292.534 9.016H286.678C286.79 10.856 287.91 12.056 289.574 12.056C290.406 12.056 291.094 11.784 291.734 11.352L292.262 12.328C291.494 12.824 290.582 13.224 289.398 13.224ZM286.662 7.96H291.318C291.318 6.216 290.534 5.272 289.158 5.272C287.942 5.272 286.854 6.248 286.662 7.96ZM294.753 13V4.312H295.937L296.081 5.896H296.129C296.721 4.792 297.617 4.104 298.593 4.104C298.977 4.104 299.233 4.152 299.521 4.28L299.249 5.56C298.945 5.464 298.753 5.416 298.401 5.416C297.681 5.416 296.785 5.944 296.209 7.432V13H294.753ZM303.235 13L300.099 4.312H301.603L303.251 9.272C303.507 10.12 303.779 11 304.051 11.816H304.115C304.387 11 304.659 10.12 304.915 9.272L306.579 4.312H308.003L304.931 13H303.235ZM313.101 13.224C310.781 13.224 308.941 11.528 308.941 8.68C308.941 5.848 310.845 4.104 312.845 4.104C315.053 4.104 316.301 5.688 316.301 8.184C316.301 8.488 316.285 8.792 316.237 9.016H310.381C310.493 10.856 311.613 12.056 313.277 12.056C314.109 12.056 314.797 11.784 315.437 11.352L315.965 12.328C315.197 12.824 314.285 13.224 313.101 13.224ZM310.365 7.96H315.021C315.021 6.216 314.237 5.272 312.861 5.272C311.645 5.272 310.557 6.248 310.365 7.96ZM321.4 13.224C319.224 13.224 317.816 11.576 317.816 8.68C317.816 5.848 319.608 4.104 321.592 4.104C322.6 4.104 323.272 4.472 324.024 5.112L323.96 3.608V0.28H325.416V13H324.216L324.088 11.976H324.056C323.368 12.664 322.456 13.224 321.4 13.224ZM321.72 11.992C322.536 11.992 323.24 11.592 323.96 10.808V6.248C323.224 5.576 322.552 5.32 321.832 5.32C320.44 5.32 319.336 6.68 319.336 8.664C319.336 10.744 320.2 11.992 321.72 11.992ZM329.114 13.224C328.538 13.224 328.074 12.76 328.074 12.104C328.074 11.432 328.538 10.984 329.114 10.984C329.706 10.984 330.186 11.432 330.186 12.104C330.186 12.76 329.706 13.224 329.114 13.224Z" fill="white"/>
</svg>
