<svg width="111" height="98" viewBox="0 0 111 98" fill="none" xmlns="http://www.w3.org/2000/svg">
<path fill-rule="evenodd" clip-rule="evenodd" d="M100.612 51.6643C100.676 51.5577 100.754 51.4597 100.849 51.3786C101.531 50.7926 102.193 50.1677 102.831 49.5039C113.723 38.1792 113.723 19.8182 102.831 8.49352C91.9393 -2.83117 74.2802 -2.83117 63.3884 8.49352C62.75 9.15729 62.149 9.84524 61.5855 10.5545C61.5071 10.6532 61.4107 10.7356 61.3052 10.8045C61.0603 10.9644 60.8287 11.1552 60.6155 11.3768L56.2209 15.9461C55.8275 16.3552 55.1728 16.3552 54.7794 15.9461L50.3844 11.3764C50.1711 11.1547 49.9393 10.9638 49.6943 10.8038C49.5888 10.7349 49.4923 10.6525 49.4139 10.5538C48.8505 9.84479 48.2498 9.1571 47.6116 8.49357C36.7198 -2.83112 19.0607 -2.83112 8.16886 8.49357C-2.72295 19.8183 -2.72295 38.1792 8.16886 49.5039C8.80741 50.1678 9.46921 50.7928 10.1515 51.3789C10.2459 51.4599 10.3238 51.5579 10.388 51.6644C10.5425 51.921 10.727 52.1636 10.9417 52.3868L18.7834 60.5402C18.7987 60.5567 18.8142 60.573 18.8298 60.5892L52.727 95.8336C54.2583 97.4258 56.7412 97.4258 58.2725 95.8336L58.2729 95.8332L92.1701 60.5888L100.058 52.3872C100.273 52.1638 100.458 51.9211 100.612 51.6643Z" fill="#58D073"/>
</svg>
