<svg width="1179" height="220" viewBox="0 0 1179 220" fill="none" xmlns="http://www.w3.org/2000/svg">
<path d="M1169.7 106.611L1169.7 106.607C1175.34 96.2353 1178.16 84.8487 1178.16 72.4565C1178.16 59.0593 1175.24 47.1642 1169.4 36.7856C1163.54 26.3961 1154.76 18.2559 1143.09 12.3621C1131.4 6.4643 1117.12 3.52783 1100.26 3.52783H1017.16H1016.66V4.02783V216.581V217.081H1017.16H1068.46H1068.96V216.581V140.78H1100.26C1117.52 140.78 1132.01 137.64 1143.7 131.333C1155.37 125.037 1164.04 116.798 1169.7 106.611ZM1117.91 91.7779C1113.24 96.2958 1106.09 98.6013 1096.36 98.6013H1068.96V46.3117H1096.36C1106.09 46.3117 1113.24 48.6172 1117.91 53.1351C1122.59 57.6597 1124.96 64.0755 1124.96 72.4565C1124.96 80.8374 1122.59 87.2533 1117.91 91.7779Z" fill="#2B2C32" stroke="#2B2C32"/>
<path d="M859.538 4.02783V3.52783H859.038H807.738H807.238V4.02783V130.893C807.238 149.934 811.052 166.172 818.704 179.586L818.706 179.589C826.352 192.789 836.721 202.749 849.81 209.456L849.819 209.46C863.095 215.957 878.072 219.2 894.738 219.2C911.406 219.2 926.483 215.855 939.959 209.157C953.646 202.453 964.517 192.496 972.565 179.296C980.623 166.08 984.638 149.938 984.638 130.893V4.02783V3.52783H984.138H932.838H932.338V4.02783V131.196C932.338 143.832 929.159 153.483 922.873 160.225C916.592 166.96 907.541 170.361 895.638 170.361C883.735 170.361 874.788 166.96 868.709 160.231C862.619 153.489 859.538 143.836 859.538 131.196V4.02783Z" fill="#2B2C32" stroke="#2B2C32"/>
<path d="M774.451 217.081H774.951V216.581V4.02783V3.52783H774.451H723.151H722.651V4.02783V134.054L637.77 3.75492L637.622 3.52783H637.351H586.051H585.551V4.02783V216.581V217.081H586.051H637.351H637.851V216.581V87.1532L722.732 216.854L722.88 217.081H723.151H774.451Z" fill="#2B2C32" stroke="#2B2C32"/>
<path d="M547.246 88.5039V88.0039H546.746H478.546V46.0089H555.746H556.246V45.5089V4.02783V3.52783H555.746H426.746H426.246V4.02783V216.581V217.081H426.746H555.746H556.246V216.581V175.099V174.599H555.746H478.546V128.971H546.746H547.246V128.471V88.5039Z" fill="#2B2C32" stroke="#2B2C32"/>
<path d="M395.076 106.611L395.078 106.607C400.72 96.2353 403.539 84.8487 403.539 72.4565C403.539 59.0593 400.622 47.1642 394.775 36.7856C388.921 26.3961 380.144 18.2559 368.464 12.3621C356.777 6.4643 342.495 3.52783 325.639 3.52783H242.539H242.039V4.02783V216.581V217.081H242.539H293.839H294.339V216.581V140.78H325.639C342.897 140.78 357.385 137.64 369.076 131.333C380.748 125.037 389.424 116.798 395.076 106.611ZM343.291 91.7779C338.62 96.2958 331.469 98.6013 321.739 98.6013H294.339V46.3117H321.739C331.469 46.3117 338.62 48.6172 343.291 53.1351C347.969 57.6597 350.339 64.0755 350.339 72.4565C350.339 80.8375 347.969 87.2533 343.291 91.7779Z" fill="#2B2C32" stroke="#2B2C32"/>
<path d="M54.4537 205.207L54.4559 205.208C71.1336 214.537 89.4182 219.2 109.3 219.2C129.182 219.2 147.367 214.537 163.846 205.207C180.325 195.877 193.389 182.895 203.033 166.267L203.034 166.265C212.681 149.429 217.5 130.57 217.5 109.699C217.5 88.8286 212.681 70.0702 203.034 53.4361C193.589 36.8052 180.524 23.8213 163.844 14.4916C147.366 5.16241 129.181 0.5 109.3 0.5C89.4182 0.5 71.1336 5.16282 54.4559 14.4916L54.4537 14.4929C37.976 23.8221 24.8133 36.8037 14.9697 53.4293L14.9675 53.4331C5.31949 70.068 0.5 88.8274 0.5 109.699C0.5 130.57 5.3195 149.429 14.9661 166.265L14.9698 166.271C24.8133 182.896 37.976 195.878 54.4537 205.207ZM149.129 154.175L149.126 154.179C139.232 165.363 125.975 170.966 109.3 170.966C92.4221 170.966 78.9639 165.461 68.8715 154.478C58.9728 143.287 54 128.378 54 109.699C54 90.8144 58.9742 75.9078 68.8699 64.9205C78.9625 53.9366 92.4212 48.4312 109.3 48.4312C125.975 48.4312 139.232 54.0345 149.125 65.2183L149.132 65.2252C159.228 76.2138 164.3 91.0194 164.3 109.699C164.3 128.174 159.229 142.983 149.129 154.175Z" fill="#2B2C32" stroke="#2B2C32"/>
</svg>
