<svg width="112" height="120" viewBox="0 0 112 120" fill="none" xmlns="http://www.w3.org/2000/svg">
<path d="M49.9409 35.6271C50.3478 35.3921 50.8682 35.5316 51.1032 35.9385L58.761 49.2023C58.996 49.6093 58.8566 50.1297 58.4496 50.3647L13.5 76.3163C13.0931 76.5513 12.5727 76.4118 12.3377 76.0049L4.67986 62.741C4.4449 62.3341 4.58434 61.8137 4.9913 61.5787L49.9409 35.6271Z" fill="#FFD400"/>
<path d="M74.1263 30.415C74.7475 30.4426 75.1303 31.1056 74.8435 31.6574L59.5943 61.0045C59.2845 61.6007 58.4384 61.6195 58.1024 61.0376L40.3117 30.2232C39.9758 29.6413 40.4151 28.9179 41.0863 28.9477L74.1263 30.415Z" fill="#FFD400"/>
<path d="M18.7197 98.5547C18.7197 97.4501 19.6152 96.5547 20.7197 96.5547H49.7766V119.954H20.7197C19.6152 119.954 18.7197 119.058 18.7197 117.954V98.5547Z" fill="#58D073"/>
<path d="M49.7764 96.5547H80.8332V119.954H49.7764V96.5547Z" fill="#58D073"/>
<path d="M49.7764 75.1558C49.7764 74.0512 50.6718 73.1558 51.7764 73.1558H80.8332V96.5548H49.7764V75.1558Z" fill="#58D073"/>
<path d="M80.8335 96.5547H111.89V117.954C111.89 119.058 110.995 119.954 109.89 119.954H80.8335V96.5547Z" fill="#58D073"/>
<path d="M80.8335 73.1558H111.89V94.5548C111.89 95.6594 110.995 96.5548 109.89 96.5548H80.8335V73.1558Z" fill="#58D073"/>
<path d="M80.8335 51.7563C80.8335 50.6518 81.7289 49.7563 82.8335 49.7563H109.89C110.995 49.7563 111.89 50.6518 111.89 51.7563V73.1554H80.8335V51.7563Z" fill="#58D073"/>
</svg>
