<svg width="240" height="240" viewBox="0 0 240 240" fill="none" xmlns="http://www.w3.org/2000/svg">
<path d="M5.57292 95.2993L114.009 123.521C114.553 123.662 114.873 124.223 114.719 124.763L82.1404 238.902C81.9744 239.483 81.3342 239.786 80.7797 239.544L32.0646 218.343C31.4911 218.093 31.2849 217.384 31.6352 216.866L80.6809 144.291C81.1471 143.601 80.6155 142.677 79.7849 142.734L1.16054 148.051C0.549876 148.093 0.0457237 147.581 0.0965018 146.971L4.3245 96.1841C4.37599 95.5657 4.97239 95.143 5.57292 95.2993Z" fill="#FFD400"/>
<path d="M125.978 124.618L233.333 95.3108C233.929 95.1481 234.528 95.5594 234.591 96.1741L239.88 148.058C239.943 148.674 239.436 149.198 238.817 149.157L160.233 143.842C159.399 143.785 158.868 144.716 159.341 145.405L208.353 216.864C208.709 217.382 208.504 218.095 207.928 218.346L159.218 239.545C158.664 239.786 158.025 239.486 157.858 238.905L125.281 125.86C125.126 125.324 125.44 124.765 125.978 124.618Z" fill="#FFD400"/>
<path d="M204.179 33.0781L121.522 119.276C121.139 119.675 120.504 119.688 120.106 119.303L34.1601 36.3538C33.7231 35.932 33.7599 35.2213 34.238 34.8469L77.7975 0.739262C78.289 0.354435 79.009 0.508953 79.2993 1.06155L120.961 80.3675C121.352 81.1121 122.432 81.0706 122.764 80.2983L156.898 1.10936C157.146 0.53342 157.857 0.325508 158.377 0.676961L204.018 31.5577C204.531 31.905 204.608 32.6308 204.179 33.0781Z" fill="#FFD400"/>
</svg>
