<svg width="152" height="151" viewBox="0 0 152 151" fill="none" xmlns="http://www.w3.org/2000/svg">
<path d="M7.80369 60.2993L72.0093 77.0093C72.5527 77.1508 72.8731 77.7117 72.719 78.2516L53.4096 145.902C53.2436 146.483 52.6035 146.786 52.049 146.544L23.68 134.198C23.1065 133.948 22.9003 133.239 23.2505 132.721L51.9502 90.253C52.4163 89.5632 51.8848 88.6392 51.0541 88.6954L5.16054 91.7994C4.54988 91.8407 4.04572 91.3286 4.0965 90.7187L6.55527 61.1841C6.60675 60.5657 7.20316 60.143 7.80369 60.2993Z" fill="#FFD400" stroke="#2B2C32" stroke-width="8"/>
<path d="M79.9784 77.6642L143.544 60.3108C144.14 60.1481 144.74 60.5594 144.802 61.1741L147.88 91.3629C147.943 91.9792 147.436 92.5038 146.817 92.462L100.964 89.3607C100.13 89.3043 99.599 90.2349 100.072 90.924L128.738 132.718C129.093 133.237 128.888 133.95 128.312 134.201L99.9484 146.545C99.3948 146.786 98.7556 146.486 98.5884 145.905L79.2808 78.9058C79.1264 78.3698 79.4403 77.8111 79.9784 77.6642Z" fill="#58D073" stroke="#2B2C32" stroke-width="8"/>
<path d="M125.179 24.1892L76.1911 75.2759C75.808 75.6754 75.1732 75.6877 74.7749 75.3033L23.8271 26.1316C23.3901 25.7098 23.4268 24.9991 23.905 24.6247L49.301 4.73926C49.7925 4.35444 50.5125 4.50896 50.8028 5.06155L75.187 51.4786C75.5781 52.2232 76.6577 52.1817 76.9906 51.4094L96.9476 5.10936C97.1959 4.53342 97.9069 4.32551 98.4263 4.67696L125.018 22.6688C125.531 23.0161 125.608 23.7419 125.179 24.1892Z" fill="#FF5C00" stroke="#2B2C32" stroke-width="8"/>
</svg>
