<svg width="275" height="49" viewBox="0 0 275 49" fill="none" xmlns="http://www.w3.org/2000/svg">
<mask id="path-1-outside-1_372_152" maskUnits="userSpaceOnUse" x="-1" y="-1" width="277" height="51" fill="black">
<rect fill="white" x="-1" y="-1" width="277" height="51"/>
<path d="M30.752 16.448C30.752 20.16 29.472 23.2533 26.912 25.728C24.3947 28.16 20.5333 29.376 15.328 29.376H6.752V48H0.928V3.392H15.328C20.3627 3.392 24.1813 4.608 26.784 7.04C29.4293 9.472 30.752 12.608 30.752 16.448ZM15.328 24.576C18.5707 24.576 20.96 23.872 22.496 22.464C24.032 21.056 24.8 19.0507 24.8 16.448C24.8 10.944 21.6427 8.192 15.328 8.192H6.752V24.576H15.328ZM43.8145 18.624C44.8385 16.6187 46.2892 15.0613 48.1665 13.952C50.0865 12.8427 52.4118 12.288 55.1425 12.288V18.304H53.6065C47.0785 18.304 43.8145 21.8453 43.8145 28.928V48H37.9905V12.928H43.8145V18.624ZM77.1615 48.576C73.8762 48.576 70.8895 47.8293 68.2015 46.336C65.5562 44.8427 63.4655 42.7307 61.9295 40C60.4362 37.2267 59.6895 34.0267 59.6895 30.4C59.6895 26.816 60.4575 23.6587 61.9935 20.928C63.5722 18.1547 65.7055 16.0427 68.3935 14.592C71.0815 13.0987 74.0895 12.352 77.4175 12.352C80.7455 12.352 83.7535 13.0987 86.4415 14.592C89.1295 16.0427 91.2415 18.1333 92.7775 20.864C94.3562 23.5947 95.1455 26.7733 95.1455 30.4C95.1455 34.0267 94.3348 37.2267 92.7135 40C91.1348 42.7307 88.9802 44.8427 86.2495 46.336C83.5188 47.8293 80.4895 48.576 77.1615 48.576ZM77.1615 43.456C79.2522 43.456 81.2148 42.9653 83.0495 41.984C84.8842 41.0027 86.3562 39.5307 87.4655 37.568C88.6175 35.6053 89.1935 33.216 89.1935 30.4C89.1935 27.584 88.6388 25.1947 87.5295 23.232C86.4202 21.2693 84.9695 19.8187 83.1775 18.88C81.3855 17.8987 79.4442 17.408 77.3535 17.408C75.2202 17.408 73.2575 17.8987 71.4655 18.88C69.7162 19.8187 68.3082 21.2693 67.2415 23.232C66.1748 25.1947 65.6415 27.584 65.6415 30.4C65.6415 33.2587 66.1535 35.6693 67.1775 37.632C68.2442 39.5947 69.6522 41.0667 71.4015 42.048C73.1508 42.9867 75.0708 43.456 77.1615 43.456ZM100.627 30.336C100.627 26.752 101.352 23.616 102.803 20.928C104.254 18.1973 106.238 16.0853 108.755 14.592C111.315 13.0987 114.174 12.352 117.331 12.352C120.062 12.352 122.6 12.992 124.947 14.272C127.294 15.5093 129.086 17.152 130.323 19.2V0.639999H136.211V48H130.323V41.408C129.171 43.4987 127.464 45.2267 125.203 46.592C122.942 47.9147 120.296 48.576 117.267 48.576C114.152 48.576 111.315 47.808 108.755 46.272C106.238 44.736 104.254 42.5813 102.803 39.808C101.352 37.0347 100.627 33.8773 100.627 30.336ZM130.323 30.4C130.323 27.7547 129.79 25.4507 128.723 23.488C127.656 21.5253 126.206 20.032 124.371 19.008C122.579 17.9413 120.595 17.408 118.419 17.408C116.243 17.408 114.259 17.92 112.467 18.944C110.675 19.968 109.246 21.4613 108.179 23.424C107.112 25.3867 106.579 27.6907 106.579 30.336C106.579 33.024 107.112 35.3707 108.179 37.376C109.246 39.3387 110.675 40.8533 112.467 41.92C114.259 42.944 116.243 43.456 118.419 43.456C120.595 43.456 122.579 42.944 124.371 41.92C126.206 40.8533 127.656 39.3387 128.723 37.376C129.79 35.3707 130.323 33.0453 130.323 30.4ZM177.157 12.928V48H171.333V42.816C170.224 44.608 168.666 46.016 166.661 47.04C164.698 48.0213 162.522 48.512 160.133 48.512C157.402 48.512 154.949 47.9573 152.773 46.848C150.597 45.696 148.869 43.9893 147.589 41.728C146.352 39.4667 145.733 36.7147 145.733 33.472V12.928H151.493V32.704C151.493 36.16 152.368 38.8267 154.117 40.704C155.866 42.5387 158.256 43.456 161.285 43.456C164.4 43.456 166.853 42.496 168.645 40.576C170.437 38.656 171.333 35.8613 171.333 32.192V12.928H177.157ZM184.815 30.4C184.815 26.7733 185.54 23.616 186.991 20.928C188.441 18.1973 190.447 16.0853 193.007 14.592C195.609 13.0987 198.575 12.352 201.903 12.352C206.212 12.352 209.753 13.3973 212.527 15.488C215.343 17.5787 217.199 20.48 218.095 24.192H211.823C211.225 22.0587 210.052 20.3733 208.303 19.136C206.596 17.8987 204.463 17.28 201.903 17.28C198.575 17.28 195.887 18.432 193.839 20.736C191.791 22.9973 190.767 26.2187 190.767 30.4C190.767 34.624 191.791 37.888 193.839 40.192C195.887 42.496 198.575 43.648 201.903 43.648C204.463 43.648 206.596 43.0507 208.303 41.856C210.009 40.6613 211.183 38.9547 211.823 36.736H218.095C217.156 40.32 215.279 43.2 212.463 45.376C209.647 47.5093 206.127 48.576 201.903 48.576C198.575 48.576 195.609 47.8293 193.007 46.336C190.447 44.8427 188.441 42.7307 186.991 40C185.54 37.2693 184.815 34.0693 184.815 30.4ZM232.97 17.728V38.4C232.97 40.1067 233.332 41.3227 234.058 42.048C234.783 42.7307 236.042 43.072 237.833 43.072H242.122V48H236.874C233.631 48 231.199 47.2533 229.578 45.76C227.956 44.2667 227.146 41.8133 227.146 38.4V17.728H222.602V12.928H227.146V4.096H232.97V12.928H242.122V17.728H232.97ZM261.594 48.576C258.906 48.576 256.495 48.128 254.362 47.232C252.229 46.2933 250.543 45.0133 249.306 43.392C248.069 41.728 247.386 39.8293 247.258 37.696H253.274C253.445 39.4453 254.255 40.8747 255.706 41.984C257.199 43.0933 259.141 43.648 261.53 43.648C263.749 43.648 265.498 43.1573 266.778 42.176C268.058 41.1947 268.698 39.9573 268.698 38.464C268.698 36.928 268.015 35.7973 266.65 35.072C265.285 34.304 263.173 33.5573 260.314 32.832C257.711 32.1493 255.578 31.4667 253.914 30.784C252.293 30.0587 250.885 29.0133 249.69 27.648C248.538 26.24 247.962 24.4053 247.962 22.144C247.962 20.352 248.495 18.7093 249.562 17.216C250.629 15.7227 252.143 14.5493 254.106 13.696C256.069 12.8 258.309 12.352 260.826 12.352C264.709 12.352 267.845 13.3333 270.234 15.296C272.623 17.2587 273.903 19.9467 274.074 23.36H268.25C268.122 21.5253 267.375 20.0533 266.01 18.944C264.687 17.8347 262.895 17.28 260.634 17.28C258.543 17.28 256.879 17.728 255.642 18.624C254.405 19.52 253.786 20.6933 253.786 22.144C253.786 23.296 254.149 24.256 254.874 25.024C255.642 25.7493 256.581 26.3467 257.69 26.816C258.842 27.2427 260.421 27.7333 262.426 28.288C264.943 28.9707 266.991 29.6533 268.57 30.336C270.149 30.976 271.493 31.9573 272.602 33.28C273.754 34.6027 274.351 36.3307 274.394 38.464C274.394 40.384 273.861 42.112 272.794 43.648C271.727 45.184 270.213 46.4 268.25 47.296C266.33 48.1493 264.111 48.576 261.594 48.576Z"/>
</mask>
<path d="M30.752 16.448C30.752 20.16 29.472 23.2533 26.912 25.728C24.3947 28.16 20.5333 29.376 15.328 29.376H6.752V48H0.928V3.392H15.328C20.3627 3.392 24.1813 4.608 26.784 7.04C29.4293 9.472 30.752 12.608 30.752 16.448ZM15.328 24.576C18.5707 24.576 20.96 23.872 22.496 22.464C24.032 21.056 24.8 19.0507 24.8 16.448C24.8 10.944 21.6427 8.192 15.328 8.192H6.752V24.576H15.328ZM43.8145 18.624C44.8385 16.6187 46.2892 15.0613 48.1665 13.952C50.0865 12.8427 52.4118 12.288 55.1425 12.288V18.304H53.6065C47.0785 18.304 43.8145 21.8453 43.8145 28.928V48H37.9905V12.928H43.8145V18.624ZM77.1615 48.576C73.8762 48.576 70.8895 47.8293 68.2015 46.336C65.5562 44.8427 63.4655 42.7307 61.9295 40C60.4362 37.2267 59.6895 34.0267 59.6895 30.4C59.6895 26.816 60.4575 23.6587 61.9935 20.928C63.5722 18.1547 65.7055 16.0427 68.3935 14.592C71.0815 13.0987 74.0895 12.352 77.4175 12.352C80.7455 12.352 83.7535 13.0987 86.4415 14.592C89.1295 16.0427 91.2415 18.1333 92.7775 20.864C94.3562 23.5947 95.1455 26.7733 95.1455 30.4C95.1455 34.0267 94.3348 37.2267 92.7135 40C91.1348 42.7307 88.9802 44.8427 86.2495 46.336C83.5188 47.8293 80.4895 48.576 77.1615 48.576ZM77.1615 43.456C79.2522 43.456 81.2148 42.9653 83.0495 41.984C84.8842 41.0027 86.3562 39.5307 87.4655 37.568C88.6175 35.6053 89.1935 33.216 89.1935 30.4C89.1935 27.584 88.6388 25.1947 87.5295 23.232C86.4202 21.2693 84.9695 19.8187 83.1775 18.88C81.3855 17.8987 79.4442 17.408 77.3535 17.408C75.2202 17.408 73.2575 17.8987 71.4655 18.88C69.7162 19.8187 68.3082 21.2693 67.2415 23.232C66.1748 25.1947 65.6415 27.584 65.6415 30.4C65.6415 33.2587 66.1535 35.6693 67.1775 37.632C68.2442 39.5947 69.6522 41.0667 71.4015 42.048C73.1508 42.9867 75.0708 43.456 77.1615 43.456ZM100.627 30.336C100.627 26.752 101.352 23.616 102.803 20.928C104.254 18.1973 106.238 16.0853 108.755 14.592C111.315 13.0987 114.174 12.352 117.331 12.352C120.062 12.352 122.6 12.992 124.947 14.272C127.294 15.5093 129.086 17.152 130.323 19.2V0.639999H136.211V48H130.323V41.408C129.171 43.4987 127.464 45.2267 125.203 46.592C122.942 47.9147 120.296 48.576 117.267 48.576C114.152 48.576 111.315 47.808 108.755 46.272C106.238 44.736 104.254 42.5813 102.803 39.808C101.352 37.0347 100.627 33.8773 100.627 30.336ZM130.323 30.4C130.323 27.7547 129.79 25.4507 128.723 23.488C127.656 21.5253 126.206 20.032 124.371 19.008C122.579 17.9413 120.595 17.408 118.419 17.408C116.243 17.408 114.259 17.92 112.467 18.944C110.675 19.968 109.246 21.4613 108.179 23.424C107.112 25.3867 106.579 27.6907 106.579 30.336C106.579 33.024 107.112 35.3707 108.179 37.376C109.246 39.3387 110.675 40.8533 112.467 41.92C114.259 42.944 116.243 43.456 118.419 43.456C120.595 43.456 122.579 42.944 124.371 41.92C126.206 40.8533 127.656 39.3387 128.723 37.376C129.79 35.3707 130.323 33.0453 130.323 30.4ZM177.157 12.928V48H171.333V42.816C170.224 44.608 168.666 46.016 166.661 47.04C164.698 48.0213 162.522 48.512 160.133 48.512C157.402 48.512 154.949 47.9573 152.773 46.848C150.597 45.696 148.869 43.9893 147.589 41.728C146.352 39.4667 145.733 36.7147 145.733 33.472V12.928H151.493V32.704C151.493 36.16 152.368 38.8267 154.117 40.704C155.866 42.5387 158.256 43.456 161.285 43.456C164.4 43.456 166.853 42.496 168.645 40.576C170.437 38.656 171.333 35.8613 171.333 32.192V12.928H177.157ZM184.815 30.4C184.815 26.7733 185.54 23.616 186.991 20.928C188.441 18.1973 190.447 16.0853 193.007 14.592C195.609 13.0987 198.575 12.352 201.903 12.352C206.212 12.352 209.753 13.3973 212.527 15.488C215.343 17.5787 217.199 20.48 218.095 24.192H211.823C211.225 22.0587 210.052 20.3733 208.303 19.136C206.596 17.8987 204.463 17.28 201.903 17.28C198.575 17.28 195.887 18.432 193.839 20.736C191.791 22.9973 190.767 26.2187 190.767 30.4C190.767 34.624 191.791 37.888 193.839 40.192C195.887 42.496 198.575 43.648 201.903 43.648C204.463 43.648 206.596 43.0507 208.303 41.856C210.009 40.6613 211.183 38.9547 211.823 36.736H218.095C217.156 40.32 215.279 43.2 212.463 45.376C209.647 47.5093 206.127 48.576 201.903 48.576C198.575 48.576 195.609 47.8293 193.007 46.336C190.447 44.8427 188.441 42.7307 186.991 40C185.54 37.2693 184.815 34.0693 184.815 30.4ZM232.97 17.728V38.4C232.97 40.1067 233.332 41.3227 234.058 42.048C234.783 42.7307 236.042 43.072 237.833 43.072H242.122V48H236.874C233.631 48 231.199 47.2533 229.578 45.76C227.956 44.2667 227.146 41.8133 227.146 38.4V17.728H222.602V12.928H227.146V4.096H232.97V12.928H242.122V17.728H232.97ZM261.594 48.576C258.906 48.576 256.495 48.128 254.362 47.232C252.229 46.2933 250.543 45.0133 249.306 43.392C248.069 41.728 247.386 39.8293 247.258 37.696H253.274C253.445 39.4453 254.255 40.8747 255.706 41.984C257.199 43.0933 259.141 43.648 261.53 43.648C263.749 43.648 265.498 43.1573 266.778 42.176C268.058 41.1947 268.698 39.9573 268.698 38.464C268.698 36.928 268.015 35.7973 266.65 35.072C265.285 34.304 263.173 33.5573 260.314 32.832C257.711 32.1493 255.578 31.4667 253.914 30.784C252.293 30.0587 250.885 29.0133 249.69 27.648C248.538 26.24 247.962 24.4053 247.962 22.144C247.962 20.352 248.495 18.7093 249.562 17.216C250.629 15.7227 252.143 14.5493 254.106 13.696C256.069 12.8 258.309 12.352 260.826 12.352C264.709 12.352 267.845 13.3333 270.234 15.296C272.623 17.2587 273.903 19.9467 274.074 23.36H268.25C268.122 21.5253 267.375 20.0533 266.01 18.944C264.687 17.8347 262.895 17.28 260.634 17.28C258.543 17.28 256.879 17.728 255.642 18.624C254.405 19.52 253.786 20.6933 253.786 22.144C253.786 23.296 254.149 24.256 254.874 25.024C255.642 25.7493 256.581 26.3467 257.69 26.816C258.842 27.2427 260.421 27.7333 262.426 28.288C264.943 28.9707 266.991 29.6533 268.57 30.336C270.149 30.976 271.493 31.9573 272.602 33.28C273.754 34.6027 274.351 36.3307 274.394 38.464C274.394 40.384 273.861 42.112 272.794 43.648C271.727 45.184 270.213 46.4 268.25 47.296C266.33 48.1493 264.111 48.576 261.594 48.576Z" fill="white"/>
<path d="M26.912 25.728L27.6068 26.4472L27.607 26.447L26.912 25.728ZM6.752 29.376V28.376H5.752V29.376H6.752ZM6.752 48V49H7.752V48H6.752ZM0.928 48H-0.0719995V49H0.928V48ZM0.928 3.392V2.392H-0.0719995V3.392H0.928ZM26.784 7.04L26.1012 7.77068L26.1072 7.77616L26.784 7.04ZM22.496 22.464L23.1717 23.2012L22.496 22.464ZM6.752 8.192V7.192H5.752V8.192H6.752ZM6.752 24.576H5.752V25.576H6.752V24.576ZM29.752 16.448C29.752 19.9018 28.573 22.7316 26.217 25.009L27.607 26.447C30.371 23.7751 31.752 20.4182 31.752 16.448H29.752ZM26.2172 25.0088C23.9599 27.1895 20.3987 28.376 15.328 28.376V30.376C20.668 30.376 24.8294 29.1305 27.6068 26.4472L26.2172 25.0088ZM15.328 28.376H6.752V30.376H15.328V28.376ZM5.752 29.376V48H7.752V29.376H5.752ZM6.752 47H0.928V49H6.752V47ZM1.928 48V3.392H-0.0719995V48H1.928ZM0.928 4.392H15.328V2.392H0.928V4.392ZM15.328 4.392C20.2141 4.392 23.7484 5.57206 26.1013 7.77065L27.4667 6.30934C24.6143 3.64393 20.5113 2.392 15.328 2.392V4.392ZM26.1072 7.77616C28.5312 10.0047 29.752 12.8662 29.752 16.448H31.752C31.752 12.3498 30.3275 8.93931 27.4608 6.30383L26.1072 7.77616ZM15.328 25.576C18.6871 25.576 21.372 24.8509 23.1717 23.2012L21.8203 21.7268C20.548 22.8931 18.4542 23.576 15.328 23.576V25.576ZM23.1717 23.2012C24.9637 21.5585 25.8 19.2562 25.8 16.448H23.8C23.8 18.8452 23.1003 20.5535 21.8203 21.7268L23.1717 23.2012ZM25.8 16.448C25.8 13.5034 24.9491 11.1234 23.0891 9.50216C21.2553 7.90384 18.6083 7.192 15.328 7.192V9.192C18.3623 9.192 20.4513 9.85616 21.7749 11.0098C23.0723 12.1406 23.8 13.8886 23.8 16.448H25.8ZM15.328 7.192H6.752V9.192H15.328V7.192ZM5.752 8.192V24.576H7.752V8.192H5.752ZM6.752 25.576H15.328V23.576H6.752V25.576ZM43.8145 18.624H42.8145L44.7051 19.0788L43.8145 18.624ZM48.1665 13.952L47.6662 13.0861L47.6578 13.0911L48.1665 13.952ZM55.1425 12.288H56.1425V11.288H55.1425V12.288ZM55.1425 18.304V19.304H56.1425V18.304H55.1425ZM43.8145 48V49H44.8145V48H43.8145ZM37.9905 48H36.9905V49H37.9905V48ZM37.9905 12.928V11.928H36.9905V12.928H37.9905ZM43.8145 12.928H44.8145V11.928H43.8145V12.928ZM44.7051 19.0788C45.6458 17.2365 46.9666 15.8226 48.6752 14.8129L47.6578 13.0911C45.6117 14.3001 44.0312 16.0008 42.9239 18.1692L44.7051 19.0788ZM48.6668 14.8179C50.4032 13.8146 52.5471 13.288 55.1425 13.288V11.288C52.2766 11.288 49.7698 11.8707 47.6662 13.0861L48.6668 14.8179ZM54.1425 12.288V18.304H56.1425V12.288H54.1425ZM55.1425 17.304H53.6065V19.304H55.1425V17.304ZM53.6065 17.304C50.1665 17.304 47.4087 18.2409 45.5272 20.2823C43.6599 22.3083 42.8145 25.2518 42.8145 28.928H44.8145C44.8145 25.5215 45.6011 23.1531 46.9978 21.6377C48.3803 20.1378 50.5185 19.304 53.6065 19.304V17.304ZM42.8145 28.928V48H44.8145V28.928H42.8145ZM43.8145 47H37.9905V49H43.8145V47ZM38.9905 48V12.928H36.9905V48H38.9905ZM37.9905 13.928H43.8145V11.928H37.9905V13.928ZM42.8145 12.928V18.624H44.8145V12.928H42.8145ZM68.2015 46.336L67.7099 47.2068L67.7159 47.2102L68.2015 46.336ZM61.9295 40L61.049 40.4741L61.0534 40.4822L61.0579 40.4903L61.9295 40ZM61.9935 20.928L61.1244 20.4333L61.1219 20.4377L61.9935 20.928ZM68.3935 14.592L68.8685 15.4721L68.8791 15.4662L68.3935 14.592ZM86.4415 14.592L85.9558 15.4662L85.9666 15.472L86.4415 14.592ZM92.7775 20.864L91.9059 21.3543L91.9118 21.3645L92.7775 20.864ZM92.7135 40L91.8502 39.4953L91.8478 39.4995L92.7135 40ZM86.2495 46.336L86.7293 47.2134L86.2495 46.336ZM87.4655 37.568L86.6031 37.0618L86.599 37.0688L86.5949 37.0759L87.4655 37.568ZM83.1775 18.88L82.6972 19.7571L82.7053 19.7615L82.7135 19.7658L83.1775 18.88ZM71.4655 18.88L71.9383 19.7612L71.9458 19.7571L71.4655 18.88ZM67.2415 23.232L68.1201 23.7095V23.7095L67.2415 23.232ZM67.1775 37.632L66.2909 38.0946L66.2948 38.1021L66.2989 38.1095L67.1775 37.632ZM71.4015 42.048L70.9122 42.9201L70.9204 42.9247L70.9287 42.9292L71.4015 42.048ZM77.1615 47.576C74.0341 47.576 71.2164 46.867 68.6871 45.4618L67.7159 47.2102C70.5626 48.7917 73.7182 49.576 77.1615 49.576V47.576ZM68.6931 45.4652C66.212 44.0645 64.2505 42.0865 62.8011 39.5097L61.0579 40.4903C62.6805 43.3749 64.9004 45.6208 67.7099 47.2068L68.6931 45.4652ZM62.81 39.5259C61.4062 36.919 60.6895 33.8864 60.6895 30.4H58.6895C58.6895 34.1669 59.4661 37.5343 61.049 40.4741L62.81 39.5259ZM60.6895 30.4C60.6895 26.9627 61.4248 23.9788 62.8651 21.4183L61.1219 20.4377C59.4902 23.3385 58.6895 26.6693 58.6895 30.4H60.6895ZM62.8626 21.4227C64.3529 18.8045 66.3529 16.8296 68.8684 15.472L67.9186 13.712C65.0581 15.2557 62.7914 17.5048 61.1244 20.4333L62.8626 21.4227ZM68.8791 15.4662C71.4065 14.0621 74.2451 13.352 77.4175 13.352V11.352C73.9339 11.352 70.7565 12.1353 67.9079 13.7178L68.8791 15.4662ZM77.4175 13.352C80.5899 13.352 83.4285 14.0621 85.9559 15.4662L86.9271 13.7178C84.0785 12.1353 80.9011 11.352 77.4175 11.352V13.352ZM85.9666 15.472C88.4837 16.8305 90.4601 18.7839 91.9059 21.3543L93.6491 20.3737C92.0229 17.4827 89.7753 15.2549 86.9164 13.712L85.9666 15.472ZM91.9118 21.3645C93.39 23.9215 94.1455 26.9224 94.1455 30.4H96.1455C96.1455 26.6243 95.3223 23.2679 93.6432 20.3635L91.9118 21.3645ZM94.1455 30.4C94.1455 33.8726 93.3709 36.8941 91.8502 39.4953L93.5768 40.5047C95.2987 37.5593 96.1455 34.1807 96.1455 30.4H94.1455ZM91.8478 39.4995C90.3595 42.0738 88.3374 44.0544 85.7697 45.4586L86.7293 47.2134C89.623 45.6309 91.9102 43.3875 93.5792 40.5005L91.8478 39.4995ZM85.7697 45.4586C83.1963 46.8659 80.3338 47.576 77.1615 47.576V49.576C80.6452 49.576 83.8414 48.7927 86.7293 47.2134L85.7697 45.4586ZM77.1615 44.456C79.4159 44.456 81.5407 43.9251 83.5212 42.8658L82.5779 41.1022C80.889 42.0055 79.0884 42.456 77.1615 42.456V44.456ZM83.5212 42.8658C85.537 41.7875 87.1415 40.1735 88.3361 38.0601L86.5949 37.0759C85.5708 38.8879 84.2313 40.2178 82.5779 41.1022L83.5212 42.8658ZM88.3279 38.0742C89.5891 35.9255 90.1935 33.352 90.1935 30.4H88.1935C88.1935 33.08 87.6459 35.2851 86.6031 37.0618L88.3279 38.0742ZM90.1935 30.4C90.1935 27.4539 89.6129 24.8857 88.4001 22.7399L86.6589 23.7241C87.6648 25.5036 88.1935 27.7141 88.1935 30.4H90.1935ZM88.4001 22.7399C87.2072 20.6295 85.6233 19.0322 83.6415 17.9942L82.7135 19.7658C84.3158 20.6051 85.6332 21.9092 86.6589 23.7241L88.4001 22.7399ZM83.6578 18.0029C81.715 16.939 79.608 16.408 77.3535 16.408V18.408C79.2804 18.408 81.056 18.8583 82.6972 19.7571L83.6578 18.0029ZM77.3535 16.408C75.06 16.408 72.931 16.9373 70.9852 18.0029L71.9458 19.7571C73.584 18.86 75.3804 18.408 77.3535 18.408V16.408ZM70.9927 17.9988C69.0507 19.0409 67.5106 20.6427 66.3629 22.7545L68.1201 23.7095C69.1058 21.8959 70.3816 20.5965 71.9383 19.7612L70.9927 17.9988ZM66.3629 22.7545C65.1984 24.8971 64.6415 27.4598 64.6415 30.4H66.6415C66.6415 27.7082 67.1512 25.4923 68.1201 23.7095L66.3629 22.7545ZM64.6415 30.4C64.6415 33.3742 65.1739 35.9536 66.2909 38.0946L68.0641 37.1694C67.1331 35.3851 66.6415 33.1431 66.6415 30.4H64.6415ZM66.2989 38.1095C67.445 40.2184 68.9803 41.8363 70.9122 42.9201L71.8908 41.1759C70.3241 40.297 69.0433 38.971 68.0561 37.1545L66.2989 38.1095ZM70.9287 42.9292C72.8312 43.95 74.9149 44.456 77.1615 44.456V42.456C75.2268 42.456 73.4705 42.0233 71.8743 41.1668L70.9287 42.9292ZM102.803 20.928L103.683 21.4029L103.686 21.3972L102.803 20.928ZM108.755 14.592L108.251 13.7282L108.245 13.7319L108.755 14.592ZM124.947 14.272L124.468 15.15L124.481 15.1566L124.947 14.272ZM130.323 19.2L129.467 19.7171L131.323 22.789V19.2H130.323ZM130.323 0.639999V-0.360001H129.323V0.639999H130.323ZM136.211 0.639999H137.211V-0.360001H136.211V0.639999ZM136.211 48V49H137.211V48H136.211ZM130.323 48H129.323V49H130.323V48ZM130.323 41.408H131.323L129.447 40.9254L130.323 41.408ZM125.203 46.592L125.708 47.4553L125.72 47.4481L125.203 46.592ZM108.755 46.272L108.234 47.1257L108.241 47.1295L108.755 46.272ZM102.803 39.808L103.689 39.3445L102.803 39.808ZM124.371 19.008L123.86 19.8673L123.871 19.8744L123.884 19.8812L124.371 19.008ZM112.467 18.944L111.971 18.0758V18.0758L112.467 18.944ZM108.179 23.424L109.058 23.9015V23.9015L108.179 23.424ZM108.179 37.376L107.296 37.8456L107.3 37.8535L108.179 37.376ZM112.467 41.92L111.956 42.7793L111.963 42.7838L111.971 42.7882L112.467 41.92ZM124.371 41.92L124.867 42.7883L124.874 42.7845L124.371 41.92ZM128.723 37.376L129.602 37.8535L129.606 37.8456L128.723 37.376ZM101.627 30.336C101.627 26.889 102.324 23.9216 103.683 21.4029L101.923 20.4531C100.381 23.3104 99.627 26.615 99.627 30.336H101.627ZM103.686 21.3972C105.056 18.819 106.915 16.8464 109.265 15.4521L108.245 13.7319C105.561 15.3243 103.452 17.5757 101.92 20.4588L103.686 21.3972ZM109.259 15.4558C111.656 14.0575 114.339 13.352 117.331 13.352V11.352C114.009 11.352 110.974 12.1398 108.251 13.7282L109.259 15.4558ZM117.331 13.352C119.898 13.352 122.272 13.9518 124.468 15.1499L125.426 13.3941C122.929 12.0322 120.225 11.352 117.331 11.352V13.352ZM124.481 15.1566C126.684 16.3186 128.334 17.8413 129.467 19.7171L131.179 18.6829C129.838 16.4627 127.903 14.7001 125.413 13.3874L124.481 15.1566ZM131.323 19.2V0.639999H129.323V19.2H131.323ZM130.323 1.64H136.211V-0.360001H130.323V1.64ZM135.211 0.639999V48H137.211V0.639999H135.211ZM136.211 47H130.323V49H136.211V47ZM131.323 48V41.408H129.323V48H131.323ZM129.447 40.9254C128.389 42.8462 126.814 44.4515 124.686 45.7359L125.72 47.4481C128.115 46.0019 129.953 44.1511 131.199 41.8906L129.447 40.9254ZM124.698 45.7288C122.613 46.9487 120.147 47.576 117.267 47.576V49.576C120.446 49.576 123.271 48.8806 125.708 47.4552L124.698 45.7288ZM117.267 47.576C114.325 47.576 111.667 46.8531 109.269 45.4145L108.241 47.1295C110.963 48.7629 113.979 49.576 117.267 49.576V47.576ZM109.276 45.4184C106.923 43.9827 105.061 41.9673 103.689 39.3445L101.917 40.2715C103.446 43.1953 105.552 45.4893 108.234 47.1256L109.276 45.4184ZM103.689 39.3445C102.323 36.7321 101.627 33.7374 101.627 30.336H99.627C99.627 34.0173 100.382 37.3372 101.917 40.2715L103.689 39.3445ZM131.323 30.4C131.323 27.6186 130.761 25.1445 129.602 23.0105L127.844 23.9655C128.818 25.7568 129.323 27.8907 129.323 30.4H131.323ZM129.602 23.0105C128.451 20.8925 126.869 19.2569 124.858 18.1348L123.884 19.8812C125.542 20.8071 126.862 22.1581 127.844 23.9655L129.602 23.0105ZM124.882 18.1487C122.929 16.9859 120.767 16.408 118.419 16.408V18.408C120.423 18.408 122.229 18.8968 123.86 19.8673L124.882 18.1487ZM118.419 16.408C116.079 16.408 113.922 16.9607 111.971 18.0758L112.963 19.8122C114.596 18.8793 116.407 18.408 118.419 18.408V16.408ZM111.971 18.0758C110.004 19.1995 108.448 20.8345 107.3 22.9465L109.058 23.9015C110.043 22.0881 111.346 20.7365 112.963 19.8122L111.971 18.0758ZM107.3 22.9465C106.141 25.0805 105.579 27.5546 105.579 30.336H107.579C107.579 27.8267 108.084 25.6928 109.058 23.9015L107.3 22.9465ZM105.579 30.336C105.579 33.1578 106.14 35.6713 107.296 37.8456L109.062 36.9064C108.085 35.07 107.579 32.8902 107.579 30.336H105.579ZM107.3 37.8535C108.447 39.9625 109.998 41.6141 111.956 42.7793L112.978 41.0607C111.352 40.0925 110.045 38.7149 109.058 36.8985L107.3 37.8535ZM111.971 42.7882C113.922 43.9033 116.079 44.456 118.419 44.456V42.456C116.407 42.456 114.596 41.9847 112.963 41.0518L111.971 42.7882ZM118.419 44.456C120.759 44.456 122.916 43.9033 124.867 42.7882L123.875 41.0518C122.242 41.9847 120.431 42.456 118.419 42.456V44.456ZM124.874 42.7845C126.875 41.6208 128.452 39.9683 129.602 37.8535L127.844 36.8985C126.86 38.709 125.536 40.0859 123.868 41.0555L124.874 42.7845ZM129.606 37.8456C130.761 35.6736 131.323 33.182 131.323 30.4H129.323C129.323 32.9086 128.818 35.0678 127.84 36.9064L129.606 37.8456ZM177.157 12.928H178.157V11.928H177.157V12.928ZM177.157 48V49H178.157V48H177.157ZM171.333 48H170.333V49H171.333V48ZM171.333 42.816H172.333V39.3008L170.483 42.2896L171.333 42.816ZM166.661 47.04L167.108 47.9345L167.116 47.9306L166.661 47.04ZM152.773 46.848L152.305 47.7318L152.312 47.7354L152.319 47.7389L152.773 46.848ZM147.589 41.728L146.712 42.208L146.715 42.2143L146.719 42.2206L147.589 41.728ZM145.733 12.928V11.928H144.733V12.928H145.733ZM151.493 12.928H152.493V11.928H151.493V12.928ZM154.117 40.704L153.385 41.3858L153.393 41.3941L154.117 40.704ZM168.645 40.576L167.914 39.8937L168.645 40.576ZM171.333 12.928V11.928H170.333V12.928H171.333ZM176.157 12.928V48H178.157V12.928H176.157ZM177.157 47H171.333V49H177.157V47ZM172.333 48V42.816H170.333V48H172.333ZM170.483 42.2896C169.476 43.9157 168.061 45.2025 166.206 46.1494L167.116 47.9306C169.272 46.8295 170.971 45.3003 172.183 43.3424L170.483 42.2896ZM166.214 46.1456C164.402 47.0515 162.381 47.512 160.133 47.512V49.512C162.664 49.512 164.995 48.9912 167.108 47.9344L166.214 46.1456ZM160.133 47.512C157.541 47.512 155.247 46.9866 153.227 45.9571L152.319 47.7389C154.651 48.9281 157.263 49.512 160.133 49.512V47.512ZM153.241 45.9642C151.243 44.9066 149.651 43.3403 148.459 41.2354L146.719 42.2206C148.087 44.6384 149.951 46.4854 152.305 47.7318L153.241 45.9642ZM148.466 41.248C147.328 39.1671 146.733 36.5894 146.733 33.472H144.733C144.733 36.84 145.376 39.7663 146.712 42.208L148.466 41.248ZM146.733 33.472V12.928H144.733V33.472H146.733ZM145.733 13.928H151.493V11.928H145.733V13.928ZM150.493 12.928V32.704H152.493V12.928H150.493ZM150.493 32.704C150.493 36.3236 151.411 39.2669 153.385 41.3857L154.849 40.0223C153.324 38.3864 152.493 35.9964 152.493 32.704H150.493ZM153.393 41.3941C155.368 43.4648 158.04 44.456 161.285 44.456V42.456C158.472 42.456 156.365 41.6125 154.841 40.0139L153.393 41.3941ZM161.285 44.456C164.621 44.456 167.36 43.4185 169.376 41.2583L167.914 39.8937C166.346 41.5735 164.178 42.456 161.285 42.456V44.456ZM169.376 41.2583C171.399 39.0905 172.333 36.0135 172.333 32.192H170.333C170.333 35.7092 169.475 38.2215 167.914 39.8937L169.376 41.2583ZM172.333 32.192V12.928H170.333V32.192H172.333ZM171.333 13.928H177.157V11.928H171.333V13.928ZM186.99 20.928L187.871 21.4029L187.874 21.3972L186.99 20.928ZM193.007 14.592L192.509 13.7246L192.503 13.7282L193.007 14.592ZM212.527 15.488L211.925 16.2865L211.93 16.2909L212.527 15.488ZM218.094 24.192V25.192H219.365L219.067 23.9574L218.094 24.192ZM211.823 24.192L210.86 24.4616L211.064 25.192H211.823V24.192ZM208.303 19.136L207.715 19.9457L207.725 19.9524L208.303 19.136ZM193.839 20.736L194.58 21.4073L194.586 21.4004L193.839 20.736ZM193.839 40.192L194.586 39.5276V39.5276L193.839 40.192ZM208.303 41.856L208.876 42.6752L208.303 41.856ZM211.823 36.736V35.736H211.07L210.862 36.4588L211.823 36.736ZM218.094 36.736L219.062 36.9894L219.39 35.736H218.094V36.736ZM212.462 45.376L213.066 46.1731L213.074 46.1673L212.462 45.376ZM193.007 46.336L192.503 47.1998L192.509 47.2034L193.007 46.336ZM186.99 40L186.107 40.4692L186.99 40ZM185.814 30.4C185.814 26.9081 186.512 23.92 187.871 21.4029L186.11 20.4531C184.568 23.312 183.814 26.6385 183.814 30.4H185.814ZM187.874 21.3972C189.241 18.8233 191.118 16.8512 193.51 15.4558L192.503 13.7282C189.775 15.3194 187.641 17.5714 186.107 20.4588L187.874 21.3972ZM193.504 15.4594C195.939 14.0622 198.73 13.352 201.902 13.352V11.352C198.419 11.352 195.279 12.1352 192.509 13.7246L193.504 15.4594ZM201.902 13.352C206.048 13.352 209.363 14.3554 211.925 16.2865L213.128 14.6895C210.143 12.4393 206.376 11.352 201.902 11.352V13.352ZM211.93 16.2909C214.541 18.2293 216.276 20.9206 217.122 24.4266L219.067 23.9574C218.121 20.0394 216.144 16.9281 213.123 14.6851L211.93 16.2909ZM218.094 23.192H211.823V25.192H218.094V23.192ZM212.785 23.9224C212.128 21.5761 210.824 19.6943 208.88 18.3196L207.725 19.9524C209.28 21.0524 210.322 22.5413 210.86 24.4616L212.785 23.9224ZM208.889 18.3264C206.978 16.9407 204.627 16.28 201.902 16.28V18.28C204.298 18.28 206.213 18.8566 207.716 19.9456L208.889 18.3264ZM201.902 16.28C198.314 16.28 195.345 17.5357 193.091 20.0716L194.586 21.4004C196.428 19.3283 198.835 18.28 201.902 18.28V16.28ZM193.097 20.0647C190.83 22.5687 189.766 26.0632 189.766 30.4H191.766C191.766 26.3741 192.751 23.426 194.58 21.4073L193.097 20.0647ZM189.766 30.4C189.766 34.7777 190.829 38.311 193.091 40.8564L194.586 39.5276C192.752 37.465 191.766 34.4703 191.766 30.4H189.766ZM193.091 40.8564C195.345 43.3923 198.314 44.648 201.902 44.648V42.648C198.835 42.648 196.428 41.5997 194.586 39.5276L193.091 40.8564ZM201.902 44.648C204.62 44.648 206.966 44.0122 208.876 42.6752L207.729 41.0368C206.226 42.0892 204.305 42.648 201.902 42.648V44.648ZM208.876 42.6752C210.79 41.3351 212.087 39.4262 212.783 37.0132L210.862 36.4588C210.278 38.4832 209.228 39.9876 207.729 41.0368L208.876 42.6752ZM211.823 37.736H218.094V35.736H211.823V37.736ZM217.127 36.4826C216.242 39.8624 214.485 42.5496 211.851 44.5847L213.074 46.1673C216.072 43.8504 218.07 40.7776 219.062 36.9894L217.127 36.4826ZM211.859 44.5789C209.248 46.5563 205.952 47.576 201.902 47.576V49.576C206.301 49.576 210.045 48.4624 213.066 46.1731L211.859 44.5789ZM201.902 47.576C198.73 47.576 195.939 46.8658 193.504 45.4686L192.509 47.2034C195.279 48.7928 198.419 49.576 201.902 49.576V47.576ZM193.51 45.4722C191.118 44.0768 189.241 42.1047 187.874 39.5308L186.107 40.4692C187.641 43.3566 189.775 45.6086 192.503 47.1998L193.51 45.4722ZM187.874 39.5308C186.513 36.9694 185.814 33.9362 185.814 30.4H183.814C183.814 34.2025 184.567 37.5693 186.107 40.4692L187.874 39.5308ZM232.969 17.728V16.728H231.969V17.728H232.969ZM234.057 42.048L233.35 42.7551L233.361 42.7658L233.372 42.7762L234.057 42.048ZM242.122 43.072H243.122V42.072H242.122V43.072ZM242.122 48V49H243.122V48H242.122ZM229.577 45.76L228.9 46.4955L229.577 45.76ZM227.146 17.728H228.146V16.728H227.146V17.728ZM222.602 17.728H221.602V18.728H222.602V17.728ZM222.602 12.928V11.928H221.602V12.928H222.602ZM227.146 12.928V13.928H228.146V12.928H227.146ZM227.146 4.096V3.096H226.146V4.096H227.146ZM232.969 4.096H233.969V3.096H232.969V4.096ZM232.969 12.928H231.969V13.928H232.969V12.928ZM242.122 12.928H243.122V11.928H242.122V12.928ZM242.122 17.728V18.728H243.122V17.728H242.122ZM231.969 17.728V38.4H233.969V17.728H231.969ZM231.969 38.4C231.969 40.2053 232.346 41.7505 233.35 42.7551L234.765 41.3409C234.319 40.8949 233.969 40.008 233.969 38.4H231.969ZM233.372 42.7762C234.384 43.7283 235.971 44.072 237.833 44.072V42.072C236.112 42.072 235.182 41.733 234.743 41.3198L233.372 42.7762ZM237.833 44.072H242.122V42.072H237.833V44.072ZM241.122 43.072V48H243.122V43.072H241.122ZM242.122 47H236.874V49H242.122V47ZM236.874 47C233.766 47 231.621 46.2826 230.255 45.0245L228.9 46.4955C230.777 48.224 233.496 49 236.874 49V47ZM230.255 45.0245C228.929 43.8032 228.146 41.6853 228.146 38.4H226.146C226.146 41.9413 226.983 44.7302 228.9 46.4955L230.255 45.0245ZM228.146 38.4V17.728H226.146V38.4H228.146ZM227.146 16.728H222.602V18.728H227.146V16.728ZM223.602 17.728V12.928H221.602V17.728H223.602ZM222.602 13.928H227.146V11.928H222.602V13.928ZM228.146 12.928V4.096H226.146V12.928H228.146ZM227.146 5.096H232.969V3.096H227.146V5.096ZM231.969 4.096V12.928H233.969V4.096H231.969ZM232.969 13.928H242.122V11.928H232.969V13.928ZM241.122 12.928V17.728H243.122V12.928H241.122ZM242.122 16.728H232.969V18.728H242.122V16.728ZM254.362 47.232L253.959 48.1473L253.967 48.1507L253.975 48.154L254.362 47.232ZM249.306 43.392L248.503 43.9888L248.511 43.9987L249.306 43.392ZM247.258 37.696V36.696H246.196L246.26 37.7559L247.258 37.696ZM253.274 37.696L254.269 37.5989L254.181 36.696H253.274V37.696ZM255.706 41.984L255.098 42.7784L255.11 42.7867L255.706 41.984ZM266.65 35.072L266.16 35.9436L266.17 35.9495L266.181 35.9551L266.65 35.072ZM260.314 32.832L260.06 33.7993L260.068 33.8013L260.314 32.832ZM253.914 30.784L253.506 31.6968L253.52 31.7032L253.534 31.7092L253.914 30.784ZM249.69 27.648L248.916 28.2812L248.927 28.294L248.937 28.3065L249.69 27.648ZM249.562 17.216L248.748 16.6348L249.562 17.216ZM254.106 13.696L254.505 14.6131L254.513 14.6095L254.521 14.6057L254.106 13.696ZM270.234 15.296L269.599 16.0687L270.234 15.296ZM274.074 23.36V24.36H275.125L275.073 23.3101L274.074 23.36ZM268.25 23.36L267.252 23.4296L267.317 24.36H268.25V23.36ZM266.01 18.944L265.367 19.7102L265.373 19.7152L265.379 19.7201L266.01 18.944ZM255.642 18.624L255.055 17.8141L255.642 18.624ZM254.874 25.024L254.147 25.7106L254.167 25.7314L254.187 25.751L254.874 25.024ZM257.69 26.816L257.3 27.737L257.321 27.7458L257.343 27.7537L257.69 26.816ZM262.426 28.288L262.159 29.2518L262.164 29.2531L262.426 28.288ZM268.57 30.336L268.173 31.2539L268.184 31.2584L268.194 31.2627L268.57 30.336ZM272.602 33.28L271.836 33.9226L271.842 33.9298L271.848 33.9368L272.602 33.28ZM274.394 38.464H275.394V38.454L275.394 38.444L274.394 38.464ZM272.794 43.648L271.973 43.0776V43.0776L272.794 43.648ZM268.25 47.296L268.656 48.2099L268.665 48.2057L268.25 47.296ZM261.594 47.576C259.018 47.576 256.742 47.1469 254.749 46.31L253.975 48.154C256.249 49.1091 258.794 49.576 261.594 49.576V47.576ZM254.765 46.3167C252.764 45.4363 251.222 44.2541 250.101 42.7853L248.511 43.9987C249.865 45.7725 251.694 47.1504 253.959 48.1473L254.765 46.3167ZM250.108 42.7953C248.991 41.2924 248.373 39.5816 248.256 37.6361L246.26 37.7559C246.399 40.0771 247.146 42.1636 248.504 43.9887L250.108 42.7953ZM247.258 38.696H253.274V36.696H247.258V38.696ZM252.279 37.7931C252.478 39.8305 253.437 41.5079 255.099 42.7784L256.313 41.1896C255.073 40.2414 254.412 39.0601 254.269 37.5989L252.279 37.7931ZM255.11 42.7867C256.819 44.0565 258.987 44.648 261.53 44.648V42.648C259.294 42.648 257.58 42.1302 256.302 41.1813L255.11 42.7867ZM261.53 44.648C263.887 44.648 265.877 44.127 267.386 42.9696L266.17 41.3824C265.119 42.1876 263.61 42.648 261.53 42.648V44.648ZM267.386 42.9696C268.89 41.8165 269.698 40.2961 269.698 38.464H267.698C267.698 39.6186 267.226 40.5728 266.17 41.3824L267.386 42.9696ZM269.698 38.464C269.698 37.5439 269.492 36.6923 269.042 35.9471C268.592 35.2023 267.934 34.6218 267.119 34.1889L266.181 35.9551C266.731 36.2476 267.097 36.5951 267.33 36.9809C267.563 37.3663 267.698 37.8481 267.698 38.464H269.698ZM267.14 34.2004C265.658 33.3666 263.443 32.5942 260.56 31.8627L260.068 33.8013C262.902 34.5204 264.911 35.2414 266.16 35.9436L267.14 34.2004ZM260.568 31.8647C257.989 31.1884 255.902 30.5187 254.294 29.8588L253.534 31.7092C255.254 32.4147 257.434 33.1103 260.06 33.7993L260.568 31.8647ZM254.322 29.8712C252.836 29.2061 251.544 28.2486 250.443 26.9895L248.937 28.3065C250.225 29.7781 251.75 30.9113 253.506 31.6968L254.322 29.8712ZM250.464 27.0148C249.491 25.8255 248.962 24.2322 248.962 22.144H246.962C246.962 24.5785 247.585 26.6545 248.916 28.2812L250.464 27.0148ZM248.962 22.144C248.962 20.5657 249.427 19.1253 250.376 17.7972L248.748 16.6348C247.564 18.2933 246.962 20.1383 246.962 22.144H248.962ZM250.376 17.7972C251.321 16.4744 252.68 15.4063 254.505 14.6131L253.707 12.7789C251.606 13.6924 249.937 14.9709 248.748 16.6348L250.376 17.7972ZM254.521 14.6057C256.334 13.7783 258.428 13.352 260.826 13.352V11.352C258.189 11.352 255.804 11.8217 253.691 12.7863L254.521 14.6057ZM260.826 13.352C264.538 13.352 267.431 14.2874 269.599 16.0687L270.869 14.5233C268.259 12.3793 264.879 11.352 260.826 11.352V13.352ZM269.599 16.0687C271.747 17.8326 272.917 20.245 273.075 23.4099L275.073 23.3101C274.89 19.6483 273.5 16.6848 270.869 14.5233L269.599 16.0687ZM274.074 22.36H268.25V24.36H274.074V22.36ZM269.248 23.2904C269.101 21.1937 268.232 19.4605 266.641 18.1679L265.379 19.7201C266.519 20.6461 267.143 21.8569 267.252 23.4296L269.248 23.2904ZM266.653 18.1778C265.1 16.876 263.057 16.28 260.634 16.28V18.28C262.734 18.28 264.274 18.7934 265.367 19.7102L266.653 18.1778ZM260.634 16.28C258.409 16.28 256.516 16.7563 255.055 17.8141L256.229 19.4339C257.243 18.6997 258.678 18.28 260.634 18.28V16.28ZM255.055 17.8141C253.575 18.8864 252.786 20.3532 252.786 22.144H254.786C254.786 21.0335 255.235 20.1536 256.229 19.4339L255.055 17.8141ZM252.786 22.144C252.786 23.5261 253.23 24.7394 254.147 25.7106L255.601 24.3374C255.068 23.7726 254.786 23.0659 254.786 22.144H252.786ZM254.187 25.751C255.053 26.5688 256.096 27.2276 257.3 27.737L258.08 25.895C257.065 25.4657 256.231 24.9299 255.561 24.297L254.187 25.751ZM257.343 27.7537C258.533 28.1947 260.143 28.694 262.159 29.2518L262.693 27.3242C260.699 26.7727 259.151 26.2907 258.037 25.8783L257.343 27.7537ZM262.164 29.2531C264.656 29.929 266.655 30.5972 268.173 31.2539L268.967 29.4181C267.328 28.7095 265.23 28.0124 262.688 27.3229L262.164 29.2531ZM268.194 31.2627C269.619 31.8405 270.83 32.7234 271.836 33.9226L273.368 32.6374C272.155 31.1913 270.678 30.1115 268.946 29.4093L268.194 31.2627ZM271.848 33.9368C272.814 35.0465 273.355 36.5325 273.394 38.484L275.394 38.444C275.348 36.1289 274.694 34.1588 273.356 32.6232L271.848 33.9368ZM273.394 38.464C273.394 40.1859 272.92 41.7138 271.973 43.0776L273.615 44.2184C274.802 42.5102 275.394 40.5821 275.394 38.464H273.394ZM271.973 43.0776C271.023 44.4447 269.66 45.5532 267.835 46.3863L268.665 48.2057C270.766 47.2467 272.431 45.9233 273.615 44.2184L271.973 43.0776ZM267.844 46.3822C266.074 47.1686 263.999 47.576 261.594 47.576V49.576C264.224 49.576 266.586 49.1301 268.656 48.2098L267.844 46.3822Z" fill="#2B2C32" mask="url(#path-1-outside-1_372_152)"/>
</svg>
