<svg width="489" height="412" viewBox="0 0 489 412" fill="none" xmlns="http://www.w3.org/2000/svg">
<path d="M257 274.186C251.477 274.186 247 269.709 247 264.186V215.238C247 209.715 251.477 205.238 257 205.238H479C484.523 205.238 489 209.715 489 215.238V264.186C489 269.709 484.523 274.186 479 274.186H257Z" fill="#2B2C32"/>
<g filter="url(#filter0_d_372_158)">
<path d="M15.3229 403C8.65939 403 3.85983 396.606 5.72083 390.207L116.827 8.2072C118.069 3.93694 121.982 1 126.429 1H257.571C262.018 1 265.931 3.93693 267.173 8.2072L378.279 390.207C380.14 396.606 375.341 403 368.677 403H303.214C298.706 403 294.755 399.983 293.567 395.634L273.443 321.926C272.255 317.577 268.304 314.56 263.796 314.56H120.204C115.696 314.56 111.745 317.577 110.557 321.926L90.4326 395.634C89.2451 399.983 85.2942 403 80.7857 403H15.3229ZM135.759 231.838C134.003 238.206 138.793 244.497 145.399 244.497H238.601C245.207 244.497 249.997 238.206 248.241 231.838L199.24 54.1789C198.341 50.9219 195.379 48.6657 192 48.6657C188.621 48.6657 185.659 50.9219 184.76 54.1789L135.759 231.838Z" fill="#2B2C32"/>
<path d="M5.24073 390.068C3.28668 396.786 8.32621 403.5 15.3229 403.5H80.7857C85.5196 403.5 89.6681 400.332 90.9149 395.766L111.04 322.058C112.168 317.926 115.921 315.06 120.204 315.06H263.796C268.079 315.06 271.832 317.926 272.96 322.058L293.085 395.766C294.332 400.332 298.48 403.5 303.214 403.5H368.677C375.674 403.5 380.713 396.786 378.759 390.068L267.653 8.06756C266.349 3.58378 262.241 0.5 257.571 0.5H126.429C121.759 0.5 117.651 3.58378 116.347 8.06756L5.24073 390.068ZM145.399 243.997C139.124 243.997 134.573 238.021 136.241 231.971L185.242 54.3119C186.081 51.2717 188.846 49.1657 192 49.1657C195.154 49.1657 197.919 51.2717 198.758 54.3118L247.759 231.971C249.427 238.021 244.876 243.997 238.601 243.997H145.399Z" stroke="#2B2C32"/>
</g>
<defs>
<filter id="filter0_d_372_158" x="0.316406" y="0" width="383.367" height="412" filterUnits="userSpaceOnUse" color-interpolation-filters="sRGB">
<feFlood flood-opacity="0" result="BackgroundImageFix"/>
<feColorMatrix in="SourceAlpha" type="matrix" values="0 0 0 0 0 0 0 0 0 0 0 0 0 0 0 0 0 0 127 0" result="hardAlpha"/>
<feOffset dy="4"/>
<feGaussianBlur stdDeviation="2"/>
<feComposite in2="hardAlpha" operator="out"/>
<feColorMatrix type="matrix" values="0 0 0 0 0 0 0 0 0 0 0 0 0 0 0 0 0 0 0.25 0"/>
<feBlend mode="normal" in2="BackgroundImageFix" result="effect1_dropShadow_372_158"/>
<feBlend mode="normal" in="SourceGraphic" in2="effect1_dropShadow_372_158" result="shape"/>
</filter>
</defs>
</svg>
