<svg width="240" height="240" viewBox="0 0 240 240" fill="none" xmlns="http://www.w3.org/2000/svg">
<path d="M120.248 157.267C99.3789 157.267 82.7329 140.621 82.7329 119.752C82.7329 99.3789 99.3789 82.7329 120.248 82.7329C140.621 82.7329 157.267 99.3789 157.267 119.752C157.267 140.621 140.621 157.267 120.248 157.267ZM37.5155 157.267C16.646 157.267 0 140.621 0 119.752C0 99.3789 16.646 82.7329 37.5155 82.7329C57.8882 82.7329 74.5342 99.3789 74.5342 119.752C74.5342 140.621 57.8882 157.267 37.5155 157.267ZM202.981 157.267C182.112 157.267 165.466 140.621 165.466 119.752C165.466 99.3789 182.112 82.7329 202.981 82.7329C223.354 82.7329 240 99.3789 240 119.752C240 140.621 223.354 157.267 202.981 157.267ZM120.248 74.5342C99.3789 74.5342 82.7329 57.8882 82.7329 37.0186C82.7329 16.646 99.3789 0 120.248 0C140.621 0 157.267 16.646 157.267 37.0186C157.267 57.8882 140.621 74.5342 120.248 74.5342ZM37.5155 74.5342C16.646 74.5342 0 57.8882 0 37.0186C0 16.646 16.646 0 37.5155 0C57.8882 0 74.5342 16.646 74.5342 37.0186C74.5342 57.8882 57.8882 74.5342 37.5155 74.5342ZM202.981 74.5342C182.112 74.5342 165.466 57.8882 165.466 37.0186C165.466 16.646 182.112 0 202.981 0C223.354 0 240 16.646 240 37.0186C240 57.8882 223.354 74.5342 202.981 74.5342ZM120.248 240C99.3789 240 82.7329 223.354 82.7329 202.484C82.7329 182.112 99.3789 165.466 120.248 165.466C140.621 165.466 157.267 182.112 157.267 202.484C157.267 223.354 140.621 240 120.248 240ZM37.5155 240C16.646 240 0 223.354 0 202.484C0 182.112 16.646 165.466 37.5155 165.466C57.8882 165.466 74.5342 182.112 74.5342 202.484C74.5342 223.354 57.8882 240 37.5155 240ZM202.981 240C182.112 240 165.466 223.354 165.466 202.484C165.466 182.112 182.112 165.466 202.981 165.466C223.354 165.466 240 182.112 240 202.484C240 223.354 223.354 240 202.981 240Z" fill="#58D073"/>
</svg>
