<svg width="448" height="425" viewBox="0 0 448 425" fill="none" xmlns="http://www.w3.org/2000/svg">
<circle cx="318.275" cy="294.845" r="128.775" fill="#FFD400" stroke="#2B2C32"/>
<circle cx="129.275" cy="294.845" r="128.775" fill="#58D073" stroke="#2B2C32"/>
<circle cx="224.275" cy="129.275" r="128.775" fill="#FF5C00" stroke="#2B2C32"/>
<circle cx="318.275" cy="294.845" r="128.775" stroke="#2B2C32"/>
<path d="M74.104 272.56C74.92 272.632 75.952 272.704 76.744 272.704H88.552C89.152 272.704 89.848 272.68 90.328 272.656C90.304 273.184 90.28 273.952 90.28 274.504V286.912C90.28 287.776 90.352 288.856 90.376 289.216H88.216C88.216 288.856 88.264 287.968 88.264 287.104V274.6H76.744C75.856 274.6 74.68 274.648 74.104 274.696V272.56ZM73.816 285.808C74.416 285.856 75.472 285.928 76.456 285.928H89.344V287.896H76.528C75.544 287.896 74.464 287.92 73.816 287.992V285.808ZM99.448 271.432C101.128 272.56 104.224 275.056 105.544 276.376L104.056 277.912C102.832 276.664 99.856 274.072 98.056 272.896L99.448 271.432ZM97.384 287.512C101.56 286.888 104.68 285.424 106.96 284.008C110.68 281.68 113.584 278.128 114.976 275.152L116.128 277.216C114.496 280.192 111.712 283.456 108.088 285.736C105.664 287.248 102.64 288.736 98.632 289.48L97.384 287.512ZM135.28 277.984C135.28 284.368 133.888 287.656 128.416 290.128L126.808 288.592C131.176 286.936 133.336 284.872 133.336 278.128V272.296C133.336 271.36 133.264 270.568 133.216 270.352H135.4C135.376 270.592 135.28 271.36 135.28 272.296V277.984ZM126.616 270.496C126.592 270.712 126.52 271.408 126.52 272.224V281.032C126.52 281.92 126.592 282.976 126.616 283.192H124.48C124.504 282.976 124.6 281.944 124.6 281.032V272.224C124.6 271.72 124.552 271.048 124.48 270.496H126.616ZM119.608 275.152C119.824 275.176 121 275.32 122.008 275.32H137.896C138.976 275.32 139.768 275.224 140.104 275.176V277.216C139.84 277.192 138.976 277.144 137.92 277.144H122.008C120.952 277.144 119.872 277.216 119.608 277.216V275.152ZM154.552 288.496C154.648 288.136 154.72 287.632 154.72 287.152C154.72 286.048 154.72 274.288 154.72 272.776C154.72 271.864 154.6 271.192 154.6 271H156.808C156.784 271.192 156.688 271.888 156.688 272.8C156.688 274.288 156.688 285.904 156.688 286.624C158.92 285.616 161.872 283.432 163.696 280.72L164.848 282.376C162.76 285.184 159.448 287.632 156.664 289.024C156.256 289.216 156.016 289.432 155.824 289.552L154.552 288.496ZM143.56 288.4C145.6 286.96 147.016 284.824 147.736 282.496C148.456 280.288 148.456 275.512 148.456 272.824C148.456 272.128 148.408 271.6 148.288 271.096H150.496C150.472 271.36 150.376 272.104 150.376 272.8C150.376 275.464 150.304 280.624 149.656 283.024C148.936 285.592 147.4 287.92 145.384 289.6L143.56 288.4ZM75.8508 295.264C76.5468 295.336 77.2428 295.384 78.0348 295.384C79.4268 295.384 86.4108 295.384 87.7548 295.384C88.4268 295.384 89.2908 295.336 89.9868 295.264V297.256C89.2668 297.208 88.4268 297.16 87.7548 297.16C86.4108 297.16 79.4268 297.16 78.0588 297.16C77.2668 297.16 76.4748 297.208 75.8508 297.256V295.264ZM72.9948 301.288C73.6428 301.36 74.3388 301.384 75.0828 301.384C76.4748 301.384 89.5068 301.384 90.7788 301.384C91.2828 301.384 92.0748 301.36 92.6748 301.288V303.256C92.1228 303.232 91.3788 303.208 90.7788 303.208C89.5068 303.208 76.4748 303.208 75.0828 303.208C74.3628 303.208 73.6428 303.232 72.9948 303.28V301.288ZM84.2988 302.248C84.2988 305.272 83.9148 307.768 82.8348 309.784C81.9708 311.392 80.1468 313.096 78.1308 314.152L76.3548 312.856C78.2028 312.064 79.9308 310.696 80.8668 309.16C82.0668 307.264 82.2588 304.912 82.2828 302.272L84.2988 302.248ZM96.1892 306.832C99.3572 306.064 102.885 304.384 104.853 303.184C107.109 301.816 109.317 299.824 110.565 298.312L112.053 299.752C110.661 301.24 108.165 303.328 105.669 304.84C103.653 306.04 100.317 307.624 97.1252 308.608L96.1892 306.832ZM104.637 304.288L106.629 303.784V312.784C106.629 313.504 106.653 314.512 106.749 314.872H104.517C104.565 314.512 104.637 313.504 104.637 312.784V304.288ZM122.733 295.432C124.413 296.56 127.509 299.056 128.829 300.376L127.341 301.912C126.117 300.664 123.141 298.072 121.341 296.896L122.733 295.432ZM120.669 311.512C124.845 310.888 127.965 309.424 130.245 308.008C133.965 305.68 136.869 302.128 138.261 299.152L139.413 301.216C137.781 304.192 134.997 307.456 131.373 309.736C128.949 311.248 125.925 312.736 121.917 313.48L120.669 311.512ZM159.645 293.8C160.245 294.664 161.109 296.128 161.589 297.088L160.293 297.688C159.813 296.704 158.997 295.264 158.349 294.352L159.645 293.8ZM162.261 292.84C162.909 293.728 163.821 295.216 164.277 296.104L162.981 296.68C162.453 295.648 161.685 294.28 161.013 293.392L162.261 292.84ZM161.229 298.576C161.037 298.936 160.797 299.488 160.677 299.872C160.029 302.272 158.541 305.536 156.429 308.128C154.245 310.792 151.365 313 146.853 314.656L145.125 313.096C149.541 311.8 152.517 309.616 154.701 307.072C156.573 304.864 158.037 301.768 158.541 299.584H149.637L150.405 297.856C151.389 297.856 157.317 297.856 158.061 297.856C158.709 297.856 159.237 297.784 159.645 297.616L161.229 298.576ZM153.189 294.952C152.805 295.576 152.373 296.392 152.133 296.848C150.717 299.488 148.197 302.92 144.357 305.488L142.677 304.24C146.829 301.768 149.181 298.288 150.237 296.128C150.477 295.72 150.837 294.832 150.981 294.232L153.189 294.952ZM104.992 316.84H106.816V336.904C106.816 338.032 106.504 338.464 105.76 338.728C104.992 338.968 103.744 338.992 101.728 338.992C101.632 338.56 101.344 337.888 101.104 337.48C102.544 337.528 103.984 337.504 104.416 337.504C104.848 337.48 104.992 337.336 104.992 336.904V316.84ZM95.608 318.76H116.44V320.248H95.608V318.76ZM99.832 322.936V324.664H112.216V322.936H99.832ZM98.128 321.688H114.04V325.936H98.128V321.688ZM97.432 327.616H114.4V336.352H112.6V328.96H97.432V327.616ZM95.152 330.616H116.896V332.056H95.152V330.616ZM97.192 333.88H113.536V335.272H97.192V333.88ZM119.512 331.672H140.536V333.184H119.512V331.672ZM119.608 321.136H140.44V322.672H119.608V321.136ZM120.568 325.24H139.576V326.728H120.568V325.24ZM121.792 328.48H138.4V329.872H121.792V328.48ZM129.064 325.936H130.84V338.944H129.064V325.936ZM126.856 316.84H128.56V321.856H126.856V316.84ZM131.392 316.84H133.12V321.784H131.392V316.84ZM128.488 332.272L129.928 332.944C127.696 335.44 123.64 337.528 120.064 338.536C119.8 338.08 119.272 337.384 118.888 337C122.44 336.208 126.448 334.36 128.488 332.272ZM131.416 332.224C133.456 334.384 137.488 336.232 141.136 337C140.728 337.384 140.176 338.104 139.912 338.608C136.264 337.6 132.256 335.416 130 332.824L131.416 332.224ZM136.96 317.128L138.808 317.632C138.112 318.952 137.248 320.368 136.576 321.304L135.112 320.824C135.76 319.816 136.552 318.232 136.96 317.128ZM133.744 322.216L135.616 322.672C135.016 323.752 134.392 324.856 133.864 325.624L132.352 325.168C132.832 324.328 133.456 323.08 133.744 322.216ZM121.552 317.632L123.088 317.08C123.904 318.16 124.792 319.672 125.128 320.656L123.52 321.256C123.184 320.296 122.32 318.76 121.552 317.632ZM124.672 322.84L126.376 322.504C126.928 323.296 127.48 324.376 127.696 325.096L125.92 325.48C125.728 324.76 125.2 323.632 124.672 322.84Z" fill="#2B2C32"/>
<circle cx="129.275" cy="294.845" r="128.775" stroke="#2B2C32"/>
<circle cx="224.275" cy="129.275" r="128.775" stroke="#2B2C32"/>
<path d="M280.928 296.68H288.176V298.144H280.928V296.68ZM279.944 289.36H287.792V290.944H279.944V289.36ZM278.984 293.296H290.624V294.88H278.984V293.296ZM283.112 286.84H284.816V294.136H283.112V286.84ZM289.496 287.392L291.176 287.896C288.752 293.848 284.792 298.36 279.776 301.216C279.512 300.856 278.864 300.16 278.48 299.848C283.496 297.28 287.336 292.936 289.496 287.392ZM284.072 299.896H285.776V307C285.776 307.936 285.584 308.392 284.936 308.656C284.264 308.896 283.232 308.92 281.696 308.92C281.6 308.464 281.36 307.792 281.12 307.336C282.32 307.36 283.328 307.36 283.664 307.36C284 307.336 284.072 307.264 284.072 307V299.896ZM287.816 296.68H288.176L288.512 296.584L289.568 297.352C288.44 298.744 286.784 300.232 285.368 301.168C285.152 300.856 284.72 300.448 284.432 300.208C285.656 299.392 287.096 298 287.816 296.968V296.68ZM278.864 302.56C281.792 302.296 286.352 301.84 290.72 301.36V302.944C286.544 303.4 282.128 303.88 279.08 304.216L278.864 302.56ZM292.496 291.328H301.04V293.008H292.496V291.328ZM293.144 286.84L294.944 287.128C294.128 291.64 292.688 295.912 290.696 298.648C290.384 298.336 289.616 297.712 289.208 297.424C291.152 294.928 292.424 290.968 293.144 286.84ZM297.752 292.24L299.576 292.432C298.424 300.736 295.88 305.872 289.832 308.992C289.64 308.584 289.112 307.768 288.752 307.384C294.464 304.696 296.768 299.872 297.752 292.24ZM293.408 292.744C294.464 299.368 296.744 305.056 301.232 307.408C300.8 307.768 300.224 308.464 299.96 308.944C295.256 306.184 292.976 300.304 291.776 293.008L293.408 292.744ZM306.872 297.016H320.048V298.552H308.672V308.944H306.872V297.016ZM319.448 297.016H321.248V307C321.248 307.984 321.008 308.44 320.24 308.68C319.496 308.92 318.248 308.92 316.304 308.92C316.208 308.488 315.944 307.864 315.728 307.432C317.12 307.48 318.536 307.48 318.92 307.456C319.328 307.432 319.448 307.336 319.448 307V297.016ZM307.952 300.376H320.192V301.72H307.952V300.376ZM303.44 289.192H324.56V290.8H303.44V289.192ZM310.112 290.176L312.08 290.752C311.024 292.216 309.68 293.872 308.648 294.952L307.208 294.4C308.192 293.272 309.416 291.448 310.112 290.176ZM316.808 291.688L318.224 290.776C320.36 292.144 323.024 294.16 324.344 295.6L322.832 296.68C321.584 295.24 318.992 293.128 316.808 291.688ZM304.4 293.872C308.672 293.848 315.512 293.704 321.92 293.56L321.824 295.048C315.56 295.264 308.84 295.456 304.472 295.552L304.4 293.872ZM307.952 303.592H320.12V304.912H307.952V303.592ZM313.016 286.84H314.864V289.984H313.016V286.84ZM336.992 286.84H338.816V306.904C338.816 308.032 338.504 308.464 337.76 308.728C336.992 308.968 335.744 308.992 333.728 308.992C333.632 308.56 333.344 307.888 333.104 307.48C334.544 307.528 335.984 307.504 336.416 307.504C336.848 307.48 336.992 307.336 336.992 306.904V286.84ZM327.608 288.76H348.44V290.248H327.608V288.76ZM331.832 292.936V294.664H344.216V292.936H331.832ZM330.128 291.688H346.04V295.936H330.128V291.688ZM329.432 297.616H346.4V306.352H344.6V298.96H329.432V297.616ZM327.152 300.616H348.896V302.056H327.152V300.616ZM329.192 303.88H345.536V305.272H329.192V303.88ZM351.512 301.672H372.536V303.184H351.512V301.672ZM351.608 291.136H372.44V292.672H351.608V291.136ZM352.568 295.24H371.576V296.728H352.568V295.24ZM353.792 298.48H370.4V299.872H353.792V298.48ZM361.064 295.936H362.84V308.944H361.064V295.936ZM358.856 286.84H360.56V291.856H358.856V286.84ZM363.392 286.84H365.12V291.784H363.392V286.84ZM360.488 302.272L361.928 302.944C359.696 305.44 355.64 307.528 352.064 308.536C351.8 308.08 351.272 307.384 350.888 307C354.44 306.208 358.448 304.36 360.488 302.272ZM363.416 302.224C365.456 304.384 369.488 306.232 373.136 307C372.728 307.384 372.176 308.104 371.912 308.608C368.264 307.6 364.256 305.416 362 302.824L363.416 302.224ZM368.96 287.128L370.808 287.632C370.112 288.952 369.248 290.368 368.576 291.304L367.112 290.824C367.76 289.816 368.552 288.232 368.96 287.128ZM365.744 292.216L367.616 292.672C367.016 293.752 366.392 294.856 365.864 295.624L364.352 295.168C364.832 294.328 365.456 293.08 365.744 292.216ZM353.552 287.632L355.088 287.08C355.904 288.16 356.792 289.672 357.128 290.656L355.52 291.256C355.184 290.296 354.32 288.76 353.552 287.632ZM356.672 292.84L358.376 292.504C358.928 293.296 359.48 294.376 359.696 295.096L357.92 295.48C357.728 294.76 357.2 293.632 356.672 292.84Z" fill="black"/>
<path d="M196.272 131.336C193.8 131.336 191.664 130.328 190.128 128.72L191.448 127.184C192.72 128.528 194.496 129.368 196.32 129.368C198.624 129.368 199.992 128.216 199.992 126.512C199.992 124.688 198.72 124.112 197.064 123.392L194.544 122.288C192.888 121.592 190.968 120.344 190.968 117.776C190.968 115.064 193.296 113.096 196.512 113.096C198.6 113.096 200.448 113.984 201.672 115.28L200.496 116.696C199.416 115.688 198.12 115.04 196.512 115.04C194.52 115.04 193.224 116.048 193.224 117.608C193.224 119.336 194.76 119.96 196.128 120.536L198.624 121.616C200.688 122.504 202.248 123.728 202.248 126.344C202.248 129.128 199.968 131.336 196.272 131.336ZM205.697 131V113.408H207.929V131H205.697ZM221.32 110.84H223.144V130.904C223.144 132.032 222.832 132.464 222.088 132.728C221.32 132.968 220.072 132.992 218.056 132.992C217.96 132.56 217.672 131.888 217.432 131.48C218.872 131.528 220.312 131.504 220.744 131.504C221.176 131.48 221.32 131.336 221.32 130.904V110.84ZM211.936 112.76H232.768V114.248H211.936V112.76ZM216.16 116.936V118.664H228.544V116.936H216.16ZM214.456 115.688H230.368V119.936H214.456V115.688ZM213.76 121.616H230.728V130.352H228.928V122.96H213.76V121.616ZM211.48 124.616H233.224V126.056H211.48V124.616ZM213.52 127.88H229.864V129.272H213.52V127.88ZM235.84 125.672H256.864V127.184H235.84V125.672ZM235.936 115.136H256.768V116.672H235.936V115.136ZM236.896 119.24H255.904V120.728H236.896V119.24ZM238.12 122.48H254.728V123.872H238.12V122.48ZM245.392 119.936H247.168V132.944H245.392V119.936ZM243.184 110.84H244.888V115.856H243.184V110.84ZM247.72 110.84H249.448V115.784H247.72V110.84ZM244.816 126.272L246.256 126.944C244.024 129.44 239.968 131.528 236.392 132.536C236.128 132.08 235.6 131.384 235.216 131C238.768 130.208 242.776 128.36 244.816 126.272ZM247.744 126.224C249.784 128.384 253.816 130.232 257.464 131C257.056 131.384 256.504 132.104 256.24 132.608C252.592 131.6 248.584 129.416 246.328 126.824L247.744 126.224ZM253.288 111.128L255.136 111.632C254.44 112.952 253.576 114.368 252.904 115.304L251.44 114.824C252.088 113.816 252.88 112.232 253.288 111.128ZM250.072 116.216L251.944 116.672C251.344 117.752 250.72 118.856 250.192 119.624L248.68 119.168C249.16 118.328 249.784 117.08 250.072 116.216ZM237.88 111.632L239.416 111.08C240.232 112.16 241.12 113.672 241.456 114.656L239.848 115.256C239.512 114.296 238.648 112.76 237.88 111.632ZM241 116.84L242.704 116.504C243.256 117.296 243.808 118.376 244.024 119.096L242.248 119.48C242.056 118.76 241.528 117.632 241 116.84Z" fill="black"/>
<mask id="path-10-inside-1_1026_91" fill="white">
<path fill-rule="evenodd" clip-rule="evenodd" d="M101 169.078C110.068 167.063 119.495 166 129.17 166C186.837 166 235.685 203.759 252.339 255.902C243.271 257.917 233.845 258.98 224.17 258.98C166.502 258.98 117.654 221.221 101 169.078Z"/>
</mask>
<path fill-rule="evenodd" clip-rule="evenodd" d="M101 169.078C110.068 167.063 119.495 166 129.17 166C186.837 166 235.685 203.759 252.339 255.902C243.271 257.917 233.845 258.98 224.17 258.98C166.502 258.98 117.654 221.221 101 169.078Z" fill="#FFE481"/>
<path d="M101 169.078L100.783 168.102L99.7143 168.339L100.047 169.382L101 169.078ZM252.339 255.902L252.556 256.878L253.625 256.641L253.292 255.598L252.339 255.902ZM101.217 170.054C110.214 168.055 119.568 167 129.17 167V165C119.421 165 109.922 166.071 100.783 168.102L101.217 170.054ZM129.17 167C186.389 167 234.861 204.466 251.387 256.206L253.292 255.598C236.509 203.052 187.284 165 129.17 165V167ZM252.122 254.926C243.125 256.925 233.771 257.98 224.17 257.98V259.98C233.918 259.98 243.417 258.909 252.556 256.878L252.122 254.926ZM224.17 257.98C166.95 257.98 118.478 220.514 101.953 168.774L100.047 169.382C116.83 221.928 166.055 259.98 224.17 259.98V257.98Z" fill="#2B2C32" mask="url(#path-10-inside-1_1026_91)"/>
<mask id="path-12-inside-2_1026_91" fill="white">
<path fill-rule="evenodd" clip-rule="evenodd" d="M347.204 169.289C330.486 221.323 281.692 258.98 224.102 258.98C214.095 258.98 204.354 257.843 195 255.691C211.718 203.657 260.513 166 318.102 166C328.109 166 337.851 167.137 347.204 169.289Z"/>
</mask>
<path fill-rule="evenodd" clip-rule="evenodd" d="M347.204 169.289C330.486 221.323 281.692 258.98 224.102 258.98C214.095 258.98 204.354 257.843 195 255.691C211.718 203.657 260.513 166 318.102 166C328.109 166 337.851 167.137 347.204 169.289Z" fill="#FFE71B"/>
<path d="M347.204 169.289L348.156 169.595L348.489 168.558L347.428 168.314L347.204 169.289ZM195 255.691L194.048 255.385L193.715 256.422L194.776 256.666L195 255.691ZM346.252 168.983C329.663 220.615 281.245 257.98 224.102 257.98V259.98C282.139 259.98 331.309 222.03 348.156 169.595L346.252 168.983ZM224.102 257.98C214.171 257.98 204.505 256.852 195.224 254.717L194.776 256.666C204.203 258.834 214.019 259.98 224.102 259.98V257.98ZM195.952 255.997C212.542 204.365 260.96 167 318.102 167V165C260.066 165 210.895 202.95 194.048 255.385L195.952 255.997ZM318.102 167C328.033 167 337.699 168.128 346.98 170.263L347.428 168.314C338.002 166.146 328.185 165 318.102 165V167Z" fill="#2B2C32" mask="url(#path-12-inside-2_1026_91)"/>
<mask id="path-14-inside-3_1026_91" fill="white">
<path fill-rule="evenodd" clip-rule="evenodd" d="M223.775 383.43C245.347 360.33 258.55 329.315 258.55 295.215C258.55 261.115 245.347 230.099 223.775 207C202.203 230.099 189 261.115 189 295.215C189 329.315 202.203 360.33 223.775 383.43Z"/>
</mask>
<path fill-rule="evenodd" clip-rule="evenodd" d="M223.775 383.43C245.347 360.33 258.55 329.315 258.55 295.215C258.55 261.115 245.347 230.099 223.775 207C202.203 230.099 189 261.115 189 295.215C189 329.315 202.203 360.33 223.775 383.43Z" fill="#FFF882"/>
<path d="M223.775 383.43L223.044 384.112L223.775 384.895L224.506 384.112L223.775 383.43ZM223.775 207L224.506 206.317L223.775 205.535L223.044 206.317L223.775 207ZM257.55 295.215C257.55 329.051 244.45 359.826 223.044 382.747L224.506 384.112C246.244 360.835 259.55 329.578 259.55 295.215H257.55ZM223.044 207.683C244.45 230.604 257.55 261.379 257.55 295.215H259.55C259.55 260.852 246.244 229.595 224.506 206.317L223.044 207.683ZM190 295.215C190 261.379 203.1 230.604 224.506 207.683L223.044 206.317C201.306 229.595 188 260.852 188 295.215H190ZM224.506 382.747C203.1 359.826 190 329.051 190 295.215H188C188 329.578 201.306 360.835 223.044 384.112L224.506 382.747Z" fill="#2B2C32" mask="url(#path-14-inside-3_1026_91)"/>
<mask id="path-16-inside-4_1026_91" fill="white">
<path fill-rule="evenodd" clip-rule="evenodd" d="M195 255.631C200.891 237.296 210.765 220.746 223.602 207C236.489 220.799 246.389 237.423 252.272 255.842C243.204 257.857 233.777 258.92 224.102 258.92C214.095 258.92 204.354 257.783 195 255.631Z"/>
</mask>
<path fill-rule="evenodd" clip-rule="evenodd" d="M195 255.631C200.891 237.296 210.765 220.746 223.602 207C236.489 220.799 246.389 237.423 252.272 255.842C243.204 257.857 233.777 258.92 224.102 258.92C214.095 258.92 204.354 257.783 195 255.631Z" fill="white"/>
<path d="M223.602 207L224.333 206.317L223.602 205.535L222.871 206.317L223.602 207ZM195 255.631L194.048 255.325L193.715 256.362L194.776 256.606L195 255.631ZM252.272 255.842L252.489 256.818L253.557 256.581L253.224 255.538L252.272 255.842ZM222.871 206.317C209.935 220.169 199.985 236.847 194.048 255.325L195.952 255.937C201.797 237.745 211.594 221.323 224.333 207.683L222.871 206.317ZM253.224 255.538C247.295 236.975 237.319 220.222 224.333 206.317L222.871 207.683C235.659 221.376 245.482 237.871 251.319 256.146L253.224 255.538ZM252.055 254.866C243.057 256.865 233.704 257.92 224.102 257.92V259.92C233.85 259.92 243.35 258.849 252.489 256.818L252.055 254.866ZM224.102 257.92C214.171 257.92 204.505 256.792 195.224 254.657L194.776 256.606C204.202 258.774 214.019 259.92 224.102 259.92V257.92Z" fill="#2B2C32" mask="url(#path-16-inside-4_1026_91)"/>
</svg>
