<svg width="1395" height="64" viewBox="0 0 1395 64" fill="none" xmlns="http://www.w3.org/2000/svg">
<path d="M318.296 44.08H298.84L295.256 54H289.112L305.24 9.648H311.96L328.024 54H321.88L318.296 44.08ZM316.632 39.344L308.568 16.816L300.504 39.344H316.632ZM360.269 9.392V14.128H340.877V29.168H356.621V33.904H340.877V54H335.053V9.392H360.269ZM387.527 54.448C383.388 54.448 379.612 53.488 376.199 51.568C372.786 49.6053 370.076 46.896 368.071 43.44C366.108 39.9413 365.127 36.016 365.127 31.664C365.127 27.312 366.108 23.408 368.071 19.952C370.076 16.4533 372.786 13.744 376.199 11.824C379.612 9.86133 383.388 8.88 387.527 8.88C391.708 8.88 395.506 9.86133 398.919 11.824C402.332 13.744 405.02 16.432 406.983 19.888C408.946 23.344 409.927 27.2693 409.927 31.664C409.927 36.0587 408.946 39.984 406.983 43.44C405.02 46.896 402.332 49.6053 398.919 51.568C395.506 53.488 391.708 54.448 387.527 54.448ZM387.527 49.392C390.642 49.392 393.436 48.6667 395.911 47.216C398.428 45.7653 400.391 43.696 401.799 41.008C403.25 38.32 403.975 35.2053 403.975 31.664C403.975 28.08 403.25 24.9653 401.799 22.32C400.391 19.632 398.45 17.5627 395.975 16.112C393.5 14.6613 390.684 13.936 387.527 13.936C384.37 13.936 381.554 14.6613 379.079 16.112C376.604 17.5627 374.642 19.632 373.191 22.32C371.783 24.9653 371.079 28.08 371.079 31.664C371.079 35.2053 371.783 38.32 373.191 41.008C374.642 43.696 376.604 45.7653 379.079 47.216C381.596 48.6667 384.412 49.392 387.527 49.392ZM441.104 54L430.48 35.76H423.44V54H417.616V9.392H432.016C435.386 9.392 438.224 9.968 440.528 11.12C442.874 12.272 444.624 13.8293 445.776 15.792C446.928 17.7547 447.504 19.9947 447.504 22.512C447.504 25.584 446.608 28.2933 444.816 30.64C443.066 32.9867 440.421 34.544 436.88 35.312L448.08 54H441.104ZM423.44 31.088H432.016C435.173 31.088 437.541 30.32 439.12 28.784C440.698 27.2053 441.488 25.1147 441.488 22.512C441.488 19.8667 440.698 17.8187 439.12 16.368C437.584 14.9173 435.216 14.192 432.016 14.192H423.44V31.088ZM454.377 31.664C454.377 27.312 455.358 23.408 457.321 19.952C459.284 16.4533 461.95 13.7227 465.321 11.76C468.734 9.79733 472.51 8.816 476.649 8.816C481.513 8.816 485.758 9.98933 489.385 12.336C493.012 14.6827 495.657 18.0107 497.321 22.32H490.345C489.108 19.632 487.316 17.5627 484.969 16.112C482.665 14.6613 479.892 13.936 476.649 13.936C473.534 13.936 470.74 14.6613 468.265 16.112C465.79 17.5627 463.849 19.632 462.441 22.32C461.033 24.9653 460.329 28.08 460.329 31.664C460.329 35.2053 461.033 38.32 462.441 41.008C463.849 43.6533 465.79 45.7013 468.265 47.152C470.74 48.6027 473.534 49.328 476.649 49.328C479.892 49.328 482.665 48.624 484.969 47.216C487.316 45.7653 489.108 43.696 490.345 41.008H497.321C495.657 45.2747 493.012 48.5813 489.385 50.928C485.758 53.232 481.513 54.384 476.649 54.384C472.51 54.384 468.734 53.424 465.321 51.504C461.95 49.5413 459.284 46.832 457.321 43.376C455.358 39.92 454.377 36.016 454.377 31.664ZM511.815 14.128V29.04H528.071V33.84H511.815V49.2H529.991V54H505.991V9.328H529.991V14.128H511.815Z" fill="white"/>
<path d="M31.296 44.08H11.84L8.256 54H2.112L18.24 9.648H24.96L41.024 54H34.88L31.296 44.08ZM29.632 39.344L21.568 16.816L13.504 39.344H29.632ZM73.269 9.392V14.128H53.877V29.168H69.621V33.904H53.877V54H48.053V9.392H73.269ZM100.527 54.448C96.3883 54.448 92.6123 53.488 89.199 51.568C85.7857 49.6053 83.0763 46.896 81.071 43.44C79.1083 39.9413 78.127 36.016 78.127 31.664C78.127 27.312 79.1083 23.408 81.071 19.952C83.0763 16.4533 85.7857 13.744 89.199 11.824C92.6123 9.86133 96.3883 8.88 100.527 8.88C104.708 8.88 108.506 9.86133 111.919 11.824C115.332 13.744 118.02 16.432 119.983 19.888C121.946 23.344 122.927 27.2693 122.927 31.664C122.927 36.0587 121.946 39.984 119.983 43.44C118.02 46.896 115.332 49.6053 111.919 51.568C108.506 53.488 104.708 54.448 100.527 54.448ZM100.527 49.392C103.642 49.392 106.436 48.6667 108.911 47.216C111.428 45.7653 113.391 43.696 114.799 41.008C116.25 38.32 116.975 35.2053 116.975 31.664C116.975 28.08 116.25 24.9653 114.799 22.32C113.391 19.632 111.45 17.5627 108.975 16.112C106.5 14.6613 103.684 13.936 100.527 13.936C97.3697 13.936 94.5537 14.6613 92.079 16.112C89.6043 17.5627 87.6417 19.632 86.191 22.32C84.783 24.9653 84.079 28.08 84.079 31.664C84.079 35.2053 84.783 38.32 86.191 41.008C87.6417 43.696 89.6043 45.7653 92.079 47.216C94.5963 48.6667 97.4123 49.392 100.527 49.392ZM154.104 54L143.48 35.76H136.44V54H130.616V9.392H145.016C148.386 9.392 151.224 9.968 153.528 11.12C155.874 12.272 157.624 13.8293 158.776 15.792C159.928 17.7547 160.504 19.9947 160.504 22.512C160.504 25.584 159.608 28.2933 157.816 30.64C156.066 32.9867 153.421 34.544 149.88 35.312L161.08 54H154.104ZM136.44 31.088H145.016C148.173 31.088 150.541 30.32 152.12 28.784C153.698 27.2053 154.488 25.1147 154.488 22.512C154.488 19.8667 153.698 17.8187 152.12 16.368C150.584 14.9173 148.216 14.192 145.016 14.192H136.44V31.088ZM167.377 31.664C167.377 27.312 168.358 23.408 170.321 19.952C172.284 16.4533 174.95 13.7227 178.321 11.76C181.734 9.79733 185.51 8.816 189.649 8.816C194.513 8.816 198.758 9.98933 202.385 12.336C206.012 14.6827 208.657 18.0107 210.321 22.32H203.345C202.108 19.632 200.316 17.5627 197.969 16.112C195.665 14.6613 192.892 13.936 189.649 13.936C186.534 13.936 183.74 14.6613 181.265 16.112C178.79 17.5627 176.849 19.632 175.441 22.32C174.033 24.9653 173.329 28.08 173.329 31.664C173.329 35.2053 174.033 38.32 175.441 41.008C176.849 43.6533 178.79 45.7013 181.265 47.152C183.74 48.6027 186.534 49.328 189.649 49.328C192.892 49.328 195.665 48.624 197.969 47.216C200.316 45.7653 202.108 43.696 203.345 41.008H210.321C208.657 45.2747 206.012 48.5813 202.385 50.928C198.758 53.232 194.513 54.384 189.649 54.384C185.51 54.384 181.734 53.424 178.321 51.504C174.95 49.5413 172.284 46.832 170.321 43.376C168.358 39.92 167.377 36.016 167.377 31.664ZM224.815 14.128V29.04H241.071V33.84H224.815V49.2H242.991V54H218.991V9.328H242.991V14.128H224.815Z" fill="white"/>
<path d="M605.296 44.08H585.84L582.256 54H576.112L592.24 9.648H598.96L615.024 54H608.88L605.296 44.08ZM603.632 39.344L595.568 16.816L587.504 39.344H603.632ZM647.269 9.392V14.128H627.877V29.168H643.621V33.904H627.877V54H622.053V9.392H647.269ZM674.527 54.448C670.388 54.448 666.612 53.488 663.199 51.568C659.786 49.6053 657.076 46.896 655.071 43.44C653.108 39.9413 652.127 36.016 652.127 31.664C652.127 27.312 653.108 23.408 655.071 19.952C657.076 16.4533 659.786 13.744 663.199 11.824C666.612 9.86133 670.388 8.88 674.527 8.88C678.708 8.88 682.506 9.86133 685.919 11.824C689.332 13.744 692.02 16.432 693.983 19.888C695.946 23.344 696.927 27.2693 696.927 31.664C696.927 36.0587 695.946 39.984 693.983 43.44C692.02 46.896 689.332 49.6053 685.919 51.568C682.506 53.488 678.708 54.448 674.527 54.448ZM674.527 49.392C677.642 49.392 680.436 48.6667 682.911 47.216C685.428 45.7653 687.391 43.696 688.799 41.008C690.25 38.32 690.975 35.2053 690.975 31.664C690.975 28.08 690.25 24.9653 688.799 22.32C687.391 19.632 685.45 17.5627 682.975 16.112C680.5 14.6613 677.684 13.936 674.527 13.936C671.37 13.936 668.554 14.6613 666.079 16.112C663.604 17.5627 661.642 19.632 660.191 22.32C658.783 24.9653 658.079 28.08 658.079 31.664C658.079 35.2053 658.783 38.32 660.191 41.008C661.642 43.696 663.604 45.7653 666.079 47.216C668.596 48.6667 671.412 49.392 674.527 49.392ZM728.104 54L717.48 35.76H710.44V54H704.616V9.392H719.016C722.386 9.392 725.224 9.968 727.528 11.12C729.874 12.272 731.624 13.8293 732.776 15.792C733.928 17.7547 734.504 19.9947 734.504 22.512C734.504 25.584 733.608 28.2933 731.816 30.64C730.066 32.9867 727.421 34.544 723.88 35.312L735.08 54H728.104ZM710.44 31.088H719.016C722.173 31.088 724.541 30.32 726.12 28.784C727.698 27.2053 728.488 25.1147 728.488 22.512C728.488 19.8667 727.698 17.8187 726.12 16.368C724.584 14.9173 722.216 14.192 719.016 14.192H710.44V31.088ZM741.377 31.664C741.377 27.312 742.358 23.408 744.321 19.952C746.284 16.4533 748.95 13.7227 752.321 11.76C755.734 9.79733 759.51 8.816 763.649 8.816C768.513 8.816 772.758 9.98933 776.385 12.336C780.012 14.6827 782.657 18.0107 784.321 22.32H777.345C776.108 19.632 774.316 17.5627 771.969 16.112C769.665 14.6613 766.892 13.936 763.649 13.936C760.534 13.936 757.74 14.6613 755.265 16.112C752.79 17.5627 750.849 19.632 749.441 22.32C748.033 24.9653 747.329 28.08 747.329 31.664C747.329 35.2053 748.033 38.32 749.441 41.008C750.849 43.6533 752.79 45.7013 755.265 47.152C757.74 48.6027 760.534 49.328 763.649 49.328C766.892 49.328 769.665 48.624 771.969 47.216C774.316 45.7653 776.108 43.696 777.345 41.008H784.321C782.657 45.2747 780.012 48.5813 776.385 50.928C772.758 53.232 768.513 54.384 763.649 54.384C759.51 54.384 755.734 53.424 752.321 51.504C748.95 49.5413 746.284 46.832 744.321 43.376C742.358 39.92 741.377 36.016 741.377 31.664ZM798.815 14.128V29.04H815.071V33.84H798.815V49.2H816.991V54H792.991V9.328H816.991V14.128H798.815Z" fill="white"/>
<path d="M892.296 44.08H872.84L869.256 54H863.112L879.24 9.648H885.96L902.024 54H895.88L892.296 44.08ZM890.632 39.344L882.568 16.816L874.504 39.344H890.632ZM934.269 9.392V14.128H914.877V29.168H930.621V33.904H914.877V54H909.053V9.392H934.269ZM961.527 54.448C957.388 54.448 953.612 53.488 950.199 51.568C946.786 49.6053 944.076 46.896 942.071 43.44C940.108 39.9413 939.127 36.016 939.127 31.664C939.127 27.312 940.108 23.408 942.071 19.952C944.076 16.4533 946.786 13.744 950.199 11.824C953.612 9.86133 957.388 8.88 961.527 8.88C965.708 8.88 969.506 9.86133 972.919 11.824C976.332 13.744 979.02 16.432 980.983 19.888C982.946 23.344 983.927 27.2693 983.927 31.664C983.927 36.0587 982.946 39.984 980.983 43.44C979.02 46.896 976.332 49.6053 972.919 51.568C969.506 53.488 965.708 54.448 961.527 54.448ZM961.527 49.392C964.642 49.392 967.436 48.6667 969.911 47.216C972.428 45.7653 974.391 43.696 975.799 41.008C977.25 38.32 977.975 35.2053 977.975 31.664C977.975 28.08 977.25 24.9653 975.799 22.32C974.391 19.632 972.45 17.5627 969.975 16.112C967.5 14.6613 964.684 13.936 961.527 13.936C958.37 13.936 955.554 14.6613 953.079 16.112C950.604 17.5627 948.642 19.632 947.191 22.32C945.783 24.9653 945.079 28.08 945.079 31.664C945.079 35.2053 945.783 38.32 947.191 41.008C948.642 43.696 950.604 45.7653 953.079 47.216C955.596 48.6667 958.412 49.392 961.527 49.392ZM1015.1 54L1004.48 35.76H997.44V54H991.616V9.392H1006.02C1009.39 9.392 1012.22 9.968 1014.53 11.12C1016.87 12.272 1018.62 13.8293 1019.78 15.792C1020.93 17.7547 1021.5 19.9947 1021.5 22.512C1021.5 25.584 1020.61 28.2933 1018.82 30.64C1017.07 32.9867 1014.42 34.544 1010.88 35.312L1022.08 54H1015.1ZM997.44 31.088H1006.02C1009.17 31.088 1011.54 30.32 1013.12 28.784C1014.7 27.2053 1015.49 25.1147 1015.49 22.512C1015.49 19.8667 1014.7 17.8187 1013.12 16.368C1011.58 14.9173 1009.22 14.192 1006.02 14.192H997.44V31.088ZM1028.38 31.664C1028.38 27.312 1029.36 23.408 1031.32 19.952C1033.28 16.4533 1035.95 13.7227 1039.32 11.76C1042.73 9.79733 1046.51 8.816 1050.65 8.816C1055.51 8.816 1059.76 9.98933 1063.39 12.336C1067.01 14.6827 1069.66 18.0107 1071.32 22.32H1064.35C1063.11 19.632 1061.32 17.5627 1058.97 16.112C1056.67 14.6613 1053.89 13.936 1050.65 13.936C1047.53 13.936 1044.74 14.6613 1042.27 16.112C1039.79 17.5627 1037.85 19.632 1036.44 22.32C1035.03 24.9653 1034.33 28.08 1034.33 31.664C1034.33 35.2053 1035.03 38.32 1036.44 41.008C1037.85 43.6533 1039.79 45.7013 1042.27 47.152C1044.74 48.6027 1047.53 49.328 1050.65 49.328C1053.89 49.328 1056.67 48.624 1058.97 47.216C1061.32 45.7653 1063.11 43.696 1064.35 41.008H1071.32C1069.66 45.2747 1067.01 48.5813 1063.39 50.928C1059.76 53.232 1055.51 54.384 1050.65 54.384C1046.51 54.384 1042.73 53.424 1039.32 51.504C1035.95 49.5413 1033.28 46.832 1031.32 43.376C1029.36 39.92 1028.38 36.016 1028.38 31.664ZM1085.81 14.128V29.04H1102.07V33.84H1085.81V49.2H1103.99V54H1079.99V9.328H1103.99V14.128H1085.81Z" fill="white"/>
<path d="M1179.3 44.08H1159.84L1156.26 54H1150.11L1166.24 9.648H1172.96L1189.02 54H1182.88L1179.3 44.08ZM1177.63 39.344L1169.57 16.816L1161.5 39.344H1177.63ZM1221.27 9.392V14.128H1201.88V29.168H1217.62V33.904H1201.88V54H1196.05V9.392H1221.27ZM1248.53 54.448C1244.39 54.448 1240.61 53.488 1237.2 51.568C1233.79 49.6053 1231.08 46.896 1229.07 43.44C1227.11 39.9413 1226.13 36.016 1226.13 31.664C1226.13 27.312 1227.11 23.408 1229.07 19.952C1231.08 16.4533 1233.79 13.744 1237.2 11.824C1240.61 9.86133 1244.39 8.88 1248.53 8.88C1252.71 8.88 1256.51 9.86133 1259.92 11.824C1263.33 13.744 1266.02 16.432 1267.98 19.888C1269.95 23.344 1270.93 27.2693 1270.93 31.664C1270.93 36.0587 1269.95 39.984 1267.98 43.44C1266.02 46.896 1263.33 49.6053 1259.92 51.568C1256.51 53.488 1252.71 54.448 1248.53 54.448ZM1248.53 49.392C1251.64 49.392 1254.44 48.6667 1256.91 47.216C1259.43 45.7653 1261.39 43.696 1262.8 41.008C1264.25 38.32 1264.98 35.2053 1264.98 31.664C1264.98 28.08 1264.25 24.9653 1262.8 22.32C1261.39 19.632 1259.45 17.5627 1256.98 16.112C1254.5 14.6613 1251.68 13.936 1248.53 13.936C1245.37 13.936 1242.55 14.6613 1240.08 16.112C1237.6 17.5627 1235.64 19.632 1234.19 22.32C1232.78 24.9653 1232.08 28.08 1232.08 31.664C1232.08 35.2053 1232.78 38.32 1234.19 41.008C1235.64 43.696 1237.6 45.7653 1240.08 47.216C1242.6 48.6667 1245.41 49.392 1248.53 49.392ZM1302.1 54L1291.48 35.76H1284.44V54H1278.62V9.392H1293.02C1296.39 9.392 1299.22 9.968 1301.53 11.12C1303.87 12.272 1305.62 13.8293 1306.78 15.792C1307.93 17.7547 1308.5 19.9947 1308.5 22.512C1308.5 25.584 1307.61 28.2933 1305.82 30.64C1304.07 32.9867 1301.42 34.544 1297.88 35.312L1309.08 54H1302.1ZM1284.44 31.088H1293.02C1296.17 31.088 1298.54 30.32 1300.12 28.784C1301.7 27.2053 1302.49 25.1147 1302.49 22.512C1302.49 19.8667 1301.7 17.8187 1300.12 16.368C1298.58 14.9173 1296.22 14.192 1293.02 14.192H1284.44V31.088ZM1315.38 31.664C1315.38 27.312 1316.36 23.408 1318.32 19.952C1320.28 16.4533 1322.95 13.7227 1326.32 11.76C1329.73 9.79733 1333.51 8.816 1337.65 8.816C1342.51 8.816 1346.76 9.98933 1350.39 12.336C1354.01 14.6827 1356.66 18.0107 1358.32 22.32H1351.35C1350.11 19.632 1348.32 17.5627 1345.97 16.112C1343.67 14.6613 1340.89 13.936 1337.65 13.936C1334.53 13.936 1331.74 14.6613 1329.27 16.112C1326.79 17.5627 1324.85 19.632 1323.44 22.32C1322.03 24.9653 1321.33 28.08 1321.33 31.664C1321.33 35.2053 1322.03 38.32 1323.44 41.008C1324.85 43.6533 1326.79 45.7013 1329.27 47.152C1331.74 48.6027 1334.53 49.328 1337.65 49.328C1340.89 49.328 1343.67 48.624 1345.97 47.216C1348.32 45.7653 1350.11 43.696 1351.35 41.008H1358.32C1356.66 45.2747 1354.01 48.5813 1350.39 50.928C1346.76 53.232 1342.51 54.384 1337.65 54.384C1333.51 54.384 1329.73 53.424 1326.32 51.504C1322.95 49.5413 1320.28 46.832 1318.32 43.376C1316.36 39.92 1315.38 36.016 1315.38 31.664ZM1372.81 14.128V29.04H1389.07V33.84H1372.81V49.2H1390.99V54H1366.99V9.328H1390.99V14.128H1372.81Z" fill="white"/>
</svg>
