<svg width="263" height="50" viewBox="0 0 263 50" fill="none" xmlns="http://www.w3.org/2000/svg">
<mask id="path-1-outside-1_372_332" maskUnits="userSpaceOnUse" x="-1" y="-1" width="265" height="52" fill="black">
<rect fill="white" x="-1" y="-1" width="265" height="52"/>
<path d="M16.072 49.448C13.128 49.448 10.4827 48.936 8.136 47.912C5.832 46.8453 4.01867 45.3947 2.696 43.56C1.37333 41.6827 0.690667 39.528 0.648 37.096H6.856C7.06933 39.1867 7.92267 40.9573 9.416 42.408C10.952 43.816 13.1707 44.52 16.072 44.52C18.8453 44.52 21.0213 43.8373 22.6 42.472C24.2213 41.064 25.032 39.272 25.032 37.096C25.032 35.3893 24.5627 34.0027 23.624 32.936C22.6853 31.8693 21.512 31.0587 20.104 30.504C18.696 29.9493 16.7973 29.352 14.408 28.712C11.464 27.944 9.096 27.176 7.304 26.408C5.55467 25.64 4.04 24.4453 2.76 22.824C1.52267 21.16 0.904 18.9413 0.904 16.168C0.904 13.736 1.52267 11.5813 2.76 9.704C3.99733 7.82666 5.72533 6.376 7.944 5.352C10.2053 4.328 12.7867 3.816 15.688 3.816C19.8693 3.816 23.2827 4.86133 25.928 6.952C28.616 9.04266 30.1307 11.816 30.472 15.272H24.072C23.8587 13.5653 22.9627 12.072 21.384 10.792C19.8053 9.46933 17.7147 8.808 15.112 8.808C12.68 8.808 10.696 9.448 9.16 10.728C7.624 11.9653 6.856 13.7147 6.856 15.976C6.856 17.5973 7.304 18.92 8.2 19.944C9.13867 20.968 10.2693 21.7573 11.592 22.312C12.9573 22.824 14.856 23.4213 17.288 24.104C20.232 24.9147 22.6 25.7253 24.392 26.536C26.184 27.304 27.72 28.52 29 30.184C30.28 31.8053 30.92 34.024 30.92 36.84C30.92 39.016 30.344 41.064 29.192 42.984C28.04 44.904 26.3333 46.4613 24.072 47.656C21.8107 48.8507 19.144 49.448 16.072 49.448ZM71.4905 30.12C71.4905 31.2293 71.4265 32.4027 71.2985 33.64H43.2665C43.4798 37.096 44.6532 39.8053 46.7865 41.768C48.9625 43.688 51.5865 44.648 54.6585 44.648C57.1758 44.648 59.2665 44.072 60.9305 42.92C62.6372 41.7253 63.8318 40.1467 64.5145 38.184H70.7865C69.8478 41.5547 67.9705 44.3067 65.1545 46.44C62.3385 48.5307 58.8398 49.576 54.6585 49.576C51.3305 49.576 48.3438 48.8293 45.6985 47.336C43.0958 45.8427 41.0478 43.7307 39.5545 41C38.0612 38.2267 37.3145 35.0267 37.3145 31.4C37.3145 27.7733 38.0398 24.5947 39.4905 21.864C40.9412 19.1333 42.9678 17.0427 45.5705 15.592C48.2158 14.0987 51.2452 13.352 54.6585 13.352C57.9865 13.352 60.9305 14.0773 63.4905 15.528C66.0505 16.9787 68.0132 18.984 69.3785 21.544C70.7865 24.0613 71.4905 26.92 71.4905 30.12ZM65.4745 28.904C65.4745 26.6853 64.9838 24.7867 64.0025 23.208C63.0212 21.5867 61.6772 20.3707 59.9705 19.56C58.3065 18.7067 56.4505 18.28 54.4025 18.28C51.4585 18.28 48.9412 19.2187 46.8505 21.096C44.8025 22.9733 43.6292 25.576 43.3305 28.904H65.4745ZM121.354 13.288C124.085 13.288 126.517 13.864 128.65 15.016C130.783 16.1253 132.469 17.8107 133.706 20.072C134.943 22.3333 135.562 25.0853 135.562 28.328V49H129.802V29.16C129.802 25.6613 128.927 22.9947 127.178 21.16C125.471 19.2827 123.146 18.344 120.202 18.344C117.173 18.344 114.762 19.3253 112.97 21.288C111.178 23.208 110.282 26.0027 110.282 29.672V49H104.522V29.16C104.522 25.6613 103.647 22.9947 101.898 21.16C100.191 19.2827 97.866 18.344 94.922 18.344C91.8927 18.344 89.482 19.3253 87.69 21.288C85.898 23.208 85.002 26.0027 85.002 29.672V49H79.178V13.928H85.002V18.984C86.154 17.1493 87.69 15.7413 89.61 14.76C91.5727 13.7787 93.7273 13.288 96.074 13.288C99.018 13.288 101.621 13.9493 103.882 15.272C106.143 16.5947 107.829 18.536 108.938 21.096C109.919 18.6213 111.541 16.7013 113.802 15.336C116.063 13.9707 118.581 13.288 121.354 13.288ZM148.124 8.232C147.014 8.232 146.076 7.848 145.308 7.08C144.54 6.312 144.156 5.37333 144.156 4.264C144.156 3.15466 144.54 2.216 145.308 1.448C146.076 0.679998 147.014 0.295998 148.124 0.295998C149.19 0.295998 150.086 0.679998 150.812 1.448C151.58 2.216 151.964 3.15466 151.964 4.264C151.964 5.37333 151.58 6.312 150.812 7.08C150.086 7.848 149.19 8.232 148.124 8.232ZM150.94 13.928V49H145.116V13.928H150.94ZM177.954 13.288C182.22 13.288 185.676 14.5893 188.322 17.192C190.967 19.752 192.29 23.464 192.29 28.328V49H186.53V29.16C186.53 25.6613 185.655 22.9947 183.906 21.16C182.156 19.2827 179.767 18.344 176.738 18.344C173.666 18.344 171.212 19.304 169.378 21.224C167.586 23.144 166.69 25.9387 166.69 29.608V49H160.866V13.928H166.69V18.92C167.842 17.128 169.399 15.7413 171.362 14.76C173.367 13.7787 175.564 13.288 177.954 13.288ZM199.627 31.336C199.627 27.752 200.352 24.616 201.803 21.928C203.254 19.1973 205.238 17.0853 207.755 15.592C210.315 14.0987 213.152 13.352 216.267 13.352C219.339 13.352 222.006 14.0133 224.267 15.336C226.528 16.6587 228.214 18.3227 229.323 20.328V13.928H235.211V49H229.323V42.472C228.171 44.52 226.443 46.2267 224.139 47.592C221.878 48.9147 219.232 49.576 216.203 49.576C213.088 49.576 210.272 48.808 207.755 47.272C205.238 45.736 203.254 43.5813 201.803 40.808C200.352 38.0347 199.627 34.8773 199.627 31.336ZM229.323 31.4C229.323 28.7547 228.79 26.4507 227.723 24.488C226.656 22.5253 225.206 21.032 223.371 20.008C221.579 18.9413 219.595 18.408 217.419 18.408C215.243 18.408 213.259 18.92 211.467 19.944C209.675 20.968 208.246 22.4613 207.179 24.424C206.112 26.3867 205.579 28.6907 205.579 31.336C205.579 34.024 206.112 36.3707 207.179 38.376C208.246 40.3387 209.675 41.8533 211.467 42.92C213.259 43.944 215.243 44.456 217.419 44.456C219.595 44.456 221.579 43.944 223.371 42.92C225.206 41.8533 226.656 40.3387 227.723 38.376C228.79 36.3707 229.323 34.0453 229.323 31.4ZM250.877 19.624C251.901 17.6187 253.352 16.0613 255.229 14.952C257.149 13.8427 259.474 13.288 262.205 13.288V19.304H260.669C254.141 19.304 250.877 22.8453 250.877 29.928V49H245.053V13.928H250.877V19.624Z"/>
</mask>
<path d="M16.072 49.448C13.128 49.448 10.4827 48.936 8.136 47.912C5.832 46.8453 4.01867 45.3947 2.696 43.56C1.37333 41.6827 0.690667 39.528 0.648 37.096H6.856C7.06933 39.1867 7.92267 40.9573 9.416 42.408C10.952 43.816 13.1707 44.52 16.072 44.52C18.8453 44.52 21.0213 43.8373 22.6 42.472C24.2213 41.064 25.032 39.272 25.032 37.096C25.032 35.3893 24.5627 34.0027 23.624 32.936C22.6853 31.8693 21.512 31.0587 20.104 30.504C18.696 29.9493 16.7973 29.352 14.408 28.712C11.464 27.944 9.096 27.176 7.304 26.408C5.55467 25.64 4.04 24.4453 2.76 22.824C1.52267 21.16 0.904 18.9413 0.904 16.168C0.904 13.736 1.52267 11.5813 2.76 9.704C3.99733 7.82666 5.72533 6.376 7.944 5.352C10.2053 4.328 12.7867 3.816 15.688 3.816C19.8693 3.816 23.2827 4.86133 25.928 6.952C28.616 9.04266 30.1307 11.816 30.472 15.272H24.072C23.8587 13.5653 22.9627 12.072 21.384 10.792C19.8053 9.46933 17.7147 8.808 15.112 8.808C12.68 8.808 10.696 9.448 9.16 10.728C7.624 11.9653 6.856 13.7147 6.856 15.976C6.856 17.5973 7.304 18.92 8.2 19.944C9.13867 20.968 10.2693 21.7573 11.592 22.312C12.9573 22.824 14.856 23.4213 17.288 24.104C20.232 24.9147 22.6 25.7253 24.392 26.536C26.184 27.304 27.72 28.52 29 30.184C30.28 31.8053 30.92 34.024 30.92 36.84C30.92 39.016 30.344 41.064 29.192 42.984C28.04 44.904 26.3333 46.4613 24.072 47.656C21.8107 48.8507 19.144 49.448 16.072 49.448ZM71.4905 30.12C71.4905 31.2293 71.4265 32.4027 71.2985 33.64H43.2665C43.4798 37.096 44.6532 39.8053 46.7865 41.768C48.9625 43.688 51.5865 44.648 54.6585 44.648C57.1758 44.648 59.2665 44.072 60.9305 42.92C62.6372 41.7253 63.8318 40.1467 64.5145 38.184H70.7865C69.8478 41.5547 67.9705 44.3067 65.1545 46.44C62.3385 48.5307 58.8398 49.576 54.6585 49.576C51.3305 49.576 48.3438 48.8293 45.6985 47.336C43.0958 45.8427 41.0478 43.7307 39.5545 41C38.0612 38.2267 37.3145 35.0267 37.3145 31.4C37.3145 27.7733 38.0398 24.5947 39.4905 21.864C40.9412 19.1333 42.9678 17.0427 45.5705 15.592C48.2158 14.0987 51.2452 13.352 54.6585 13.352C57.9865 13.352 60.9305 14.0773 63.4905 15.528C66.0505 16.9787 68.0132 18.984 69.3785 21.544C70.7865 24.0613 71.4905 26.92 71.4905 30.12ZM65.4745 28.904C65.4745 26.6853 64.9838 24.7867 64.0025 23.208C63.0212 21.5867 61.6772 20.3707 59.9705 19.56C58.3065 18.7067 56.4505 18.28 54.4025 18.28C51.4585 18.28 48.9412 19.2187 46.8505 21.096C44.8025 22.9733 43.6292 25.576 43.3305 28.904H65.4745ZM121.354 13.288C124.085 13.288 126.517 13.864 128.65 15.016C130.783 16.1253 132.469 17.8107 133.706 20.072C134.943 22.3333 135.562 25.0853 135.562 28.328V49H129.802V29.16C129.802 25.6613 128.927 22.9947 127.178 21.16C125.471 19.2827 123.146 18.344 120.202 18.344C117.173 18.344 114.762 19.3253 112.97 21.288C111.178 23.208 110.282 26.0027 110.282 29.672V49H104.522V29.16C104.522 25.6613 103.647 22.9947 101.898 21.16C100.191 19.2827 97.866 18.344 94.922 18.344C91.8927 18.344 89.482 19.3253 87.69 21.288C85.898 23.208 85.002 26.0027 85.002 29.672V49H79.178V13.928H85.002V18.984C86.154 17.1493 87.69 15.7413 89.61 14.76C91.5727 13.7787 93.7273 13.288 96.074 13.288C99.018 13.288 101.621 13.9493 103.882 15.272C106.143 16.5947 107.829 18.536 108.938 21.096C109.919 18.6213 111.541 16.7013 113.802 15.336C116.063 13.9707 118.581 13.288 121.354 13.288ZM148.124 8.232C147.014 8.232 146.076 7.848 145.308 7.08C144.54 6.312 144.156 5.37333 144.156 4.264C144.156 3.15466 144.54 2.216 145.308 1.448C146.076 0.679998 147.014 0.295998 148.124 0.295998C149.19 0.295998 150.086 0.679998 150.812 1.448C151.58 2.216 151.964 3.15466 151.964 4.264C151.964 5.37333 151.58 6.312 150.812 7.08C150.086 7.848 149.19 8.232 148.124 8.232ZM150.94 13.928V49H145.116V13.928H150.94ZM177.954 13.288C182.22 13.288 185.676 14.5893 188.322 17.192C190.967 19.752 192.29 23.464 192.29 28.328V49H186.53V29.16C186.53 25.6613 185.655 22.9947 183.906 21.16C182.156 19.2827 179.767 18.344 176.738 18.344C173.666 18.344 171.212 19.304 169.378 21.224C167.586 23.144 166.69 25.9387 166.69 29.608V49H160.866V13.928H166.69V18.92C167.842 17.128 169.399 15.7413 171.362 14.76C173.367 13.7787 175.564 13.288 177.954 13.288ZM199.627 31.336C199.627 27.752 200.352 24.616 201.803 21.928C203.254 19.1973 205.238 17.0853 207.755 15.592C210.315 14.0987 213.152 13.352 216.267 13.352C219.339 13.352 222.006 14.0133 224.267 15.336C226.528 16.6587 228.214 18.3227 229.323 20.328V13.928H235.211V49H229.323V42.472C228.171 44.52 226.443 46.2267 224.139 47.592C221.878 48.9147 219.232 49.576 216.203 49.576C213.088 49.576 210.272 48.808 207.755 47.272C205.238 45.736 203.254 43.5813 201.803 40.808C200.352 38.0347 199.627 34.8773 199.627 31.336ZM229.323 31.4C229.323 28.7547 228.79 26.4507 227.723 24.488C226.656 22.5253 225.206 21.032 223.371 20.008C221.579 18.9413 219.595 18.408 217.419 18.408C215.243 18.408 213.259 18.92 211.467 19.944C209.675 20.968 208.246 22.4613 207.179 24.424C206.112 26.3867 205.579 28.6907 205.579 31.336C205.579 34.024 206.112 36.3707 207.179 38.376C208.246 40.3387 209.675 41.8533 211.467 42.92C213.259 43.944 215.243 44.456 217.419 44.456C219.595 44.456 221.579 43.944 223.371 42.92C225.206 41.8533 226.656 40.3387 227.723 38.376C228.79 36.3707 229.323 34.0453 229.323 31.4ZM250.877 19.624C251.901 17.6187 253.352 16.0613 255.229 14.952C257.149 13.8427 259.474 13.288 262.205 13.288V19.304H260.669C254.141 19.304 250.877 22.8453 250.877 29.928V49H245.053V13.928H250.877V19.624Z" fill="white"/>
<path d="M8.136 47.912L7.71588 48.8195L7.72592 48.8241L7.73606 48.8285L8.136 47.912ZM2.696 43.56L1.87847 44.136L1.88482 44.1448L2.696 43.56ZM0.648 37.096V36.096H-0.369697L-0.351846 37.1135L0.648 37.096ZM6.856 37.096L7.85084 36.9945L7.75915 36.096H6.856V37.096ZM9.416 42.408L8.71921 43.1253L8.7296 43.1354L8.74028 43.1452L9.416 42.408ZM22.6 42.472L23.2542 43.2284L23.2557 43.227L22.6 42.472ZM23.624 32.936L22.8733 33.5966L22.8733 33.5966L23.624 32.936ZM20.104 30.504L19.7375 31.4344L19.7375 31.4344L20.104 30.504ZM14.408 28.712L14.6667 27.746L14.6604 27.7444L14.408 28.712ZM7.304 26.408L6.902 27.3237L6.91008 27.3271L7.304 26.408ZM2.76 22.824L1.95754 23.4207L1.96616 23.4323L1.97512 23.4436L2.76 22.824ZM2.76 9.704L3.59496 10.2543L3.59496 10.2543L2.76 9.704ZM7.944 5.352L7.53148 4.44102L7.52494 4.44404L7.944 5.352ZM25.928 6.952L25.3079 7.73658L25.3141 7.74135L25.928 6.952ZM30.472 15.272V16.272H31.5756L31.4672 15.1737L30.472 15.272ZM24.072 15.272L23.0797 15.396L23.1892 16.272H24.072V15.272ZM21.384 10.792L20.7418 11.5585L20.7479 11.5637L20.7542 11.5688L21.384 10.792ZM9.16 10.728L9.78733 11.5068L9.7938 11.5015L9.80018 11.4962L9.16 10.728ZM8.2 19.944L7.44742 20.6025L7.45504 20.6112L7.46285 20.6197L8.2 19.944ZM11.592 22.312L11.2053 23.2342L11.2229 23.2416L11.2409 23.2483L11.592 22.312ZM17.288 24.104L17.0177 25.0668L17.0225 25.0681L17.288 24.104ZM24.392 26.536L23.9798 27.4471L23.9889 27.4512L23.9981 27.4551L24.392 26.536ZM29 30.184L28.2073 30.7938L28.2151 30.8036L29 30.184ZM29.192 42.984L30.0495 43.4985L30.0495 43.4985L29.192 42.984ZM24.072 47.656L23.6049 46.7718L24.072 47.656ZM16.072 48.448C13.2451 48.448 10.7389 47.9568 8.53595 46.9955L7.73606 48.8285C10.2264 49.9152 13.0109 50.448 16.072 50.448V48.448ZM8.55612 47.0045C6.38856 46.001 4.71753 44.6541 3.50718 42.9752L1.88482 44.1448C3.3198 46.1353 5.27544 47.6896 7.71588 48.8195L8.55612 47.0045ZM3.51348 42.984C2.31313 41.2803 1.68722 39.3228 1.64785 37.0785L-0.351846 37.1135C-0.305886 39.7332 0.433538 42.085 1.87852 44.136L3.51348 42.984ZM0.648 38.096H6.856V36.096H0.648V38.096ZM5.86117 37.1975C6.09812 39.5197 7.0555 41.5091 8.71921 43.1253L10.1128 41.6907C8.78983 40.4056 8.04055 38.8537 7.85084 36.9945L5.86117 37.1975ZM8.74028 43.1452C10.5224 44.7787 13.019 45.52 16.072 45.52V43.52C13.3223 43.52 11.3816 42.8533 10.0917 41.6708L8.74028 43.1452ZM16.072 45.52C19.0056 45.52 21.4413 44.7963 23.2542 43.2284L21.9458 41.7156C20.6014 42.8784 18.6851 43.52 16.072 43.52V45.52ZM23.2557 43.227C25.0991 41.6262 26.032 39.5572 26.032 37.096H24.032C24.032 38.9868 23.3436 40.5018 21.9443 41.717L23.2557 43.227ZM26.032 37.096C26.032 35.1975 25.505 33.5598 24.3747 32.2754L22.8733 33.5966C23.6203 34.4455 24.032 35.5812 24.032 37.096H26.032ZM24.3747 32.2754C23.3244 31.0819 22.0163 30.1825 20.4705 29.5736L19.7375 31.4344C21.0077 31.9348 22.0462 32.6568 22.8733 33.5966L24.3747 32.2754ZM20.4705 29.5736C19.0123 28.9992 17.0729 28.3905 14.6667 27.7461L14.1493 29.6779C16.5218 30.3135 18.3797 30.8995 19.7375 31.4344L20.4705 29.5736ZM14.6604 27.7444C11.7412 26.9828 9.42606 26.2295 7.69792 25.4889L6.91008 27.3271C8.76594 28.1225 11.1868 28.9052 14.1556 29.6796L14.6604 27.7444ZM7.70599 25.4924C6.11861 24.7955 4.73186 23.7079 3.54488 22.2044L1.97512 23.4436C3.34814 25.1828 4.99073 26.4845 6.90201 27.3236L7.70599 25.4924ZM3.56246 22.2273C2.49052 20.7857 1.904 18.7983 1.904 16.168H-0.0959997C-0.0959997 19.0844 0.554816 21.5343 1.95754 23.4207L3.56246 22.2273ZM1.904 16.168C1.904 13.9149 2.47412 11.9549 3.59496 10.2543L1.92504 9.15368C0.571216 11.2078 -0.0959997 13.5571 -0.0959997 16.168H1.904ZM3.59496 10.2543C4.72084 8.54607 6.29841 7.21287 8.36306 6.25996L7.52494 4.44404C5.15226 5.53912 3.27383 7.10725 1.92504 9.15369L3.59496 10.2543ZM8.35651 6.26295C10.4682 5.30672 12.9051 4.816 15.688 4.816V2.816C12.6682 2.816 9.94249 3.34927 7.53149 4.44104L8.35651 6.26295ZM15.688 4.816C19.6996 4.816 22.8782 5.81625 25.3079 7.73656L26.5481 6.16744C23.6872 3.90641 20.039 2.816 15.688 2.816V4.816ZM25.3141 7.74135C27.7808 9.65993 29.1619 12.181 29.4768 15.3703L31.4672 15.1737C31.0995 11.4509 29.4512 8.42539 26.5419 6.16265L25.3141 7.74135ZM30.472 14.272H24.072V16.272H30.472V14.272ZM25.0643 15.148C24.8132 13.1393 23.7541 11.4263 22.0138 10.0152L20.7542 11.5688C22.1712 12.7177 22.9041 13.9913 23.0797 15.396L25.0643 15.148ZM22.0262 10.0255C20.2242 8.51568 17.886 7.808 15.112 7.808V9.808C17.5433 9.808 19.3865 10.423 20.7418 11.5585L22.0262 10.0255ZM15.112 7.808C12.4986 7.808 10.2721 8.49952 8.51982 9.95978L9.80018 11.4962C11.1199 10.3965 12.8614 9.808 15.112 9.808V7.808ZM8.53267 9.94924C6.72473 11.4056 5.856 13.462 5.856 15.976H7.856C7.856 13.9674 8.52328 12.525 9.78733 11.5068L8.53267 9.94924ZM5.856 15.976C5.856 17.7908 6.36247 19.3626 7.44742 20.6025L8.95258 19.2855C8.24553 18.4774 7.856 17.4039 7.856 15.976H5.856ZM7.46285 20.6197C8.50235 21.7537 9.75381 22.6255 11.2053 23.2342L11.9787 21.3898C10.7849 20.8891 9.77498 20.1823 8.93716 19.2683L7.46285 20.6197ZM11.2409 23.2483C12.6451 23.7749 14.5751 24.3811 17.0177 25.0668L17.5583 23.1412C15.1369 22.4615 13.2695 21.8731 11.9431 21.3757L11.2409 23.2483ZM17.0225 25.0681C19.9405 25.8716 22.2537 26.6662 23.9798 27.4471L24.8042 25.6249C22.9463 24.7844 20.5235 23.9577 17.5535 23.1399L17.0225 25.0681ZM23.9981 27.4551C25.6209 28.1506 27.0234 29.2545 28.2074 30.7937L29.7926 29.5743C28.4166 27.7855 26.7471 26.4574 24.7859 25.6169L23.9981 27.4551ZM28.2151 30.8036C29.3128 32.194 29.92 34.1679 29.92 36.84H31.92C31.92 33.8801 31.2472 31.4167 29.7849 29.5644L28.2151 30.8036ZM29.92 36.84C29.92 38.8293 29.3961 40.7002 28.3345 42.4695L30.0495 43.4985C31.2919 41.4278 31.92 39.2027 31.92 36.84H29.92ZM28.3345 42.4695C27.2892 44.2117 25.7282 45.65 23.6049 46.7718L24.5391 48.5402C26.9385 47.2726 28.7908 45.5963 30.0495 43.4985L28.3345 42.4695ZM23.6049 46.7718C21.5138 47.8765 19.0137 48.448 16.072 48.448V50.448C19.2743 50.448 22.1076 49.8248 24.5391 48.5402L23.6049 46.7718ZM71.2985 33.64V34.64H72.2004L72.2932 33.7429L71.2985 33.64ZM43.2665 33.64V32.64H42.2029L42.2684 33.7016L43.2665 33.64ZM46.7865 41.768L46.1094 42.5039L46.1171 42.511L46.1249 42.5178L46.7865 41.768ZM60.9305 42.92L61.4997 43.7422L61.504 43.7392L60.9305 42.92ZM64.5145 38.184V37.184H63.8036L63.57 37.8555L64.5145 38.184ZM70.7865 38.184L71.7498 38.4523L72.103 37.184H70.7865V38.184ZM65.1545 46.44L65.7506 47.2429L65.7584 47.2371L65.1545 46.44ZM45.6985 47.336L45.2008 48.2034L45.2069 48.2068L45.6985 47.336ZM39.5545 41L38.674 41.4741L38.6771 41.4798L39.5545 41ZM39.4905 21.864L40.3736 22.3332L40.3736 22.3332L39.4905 21.864ZM45.5705 15.592L46.0574 16.4655L46.0621 16.4628L45.5705 15.592ZM63.4905 15.528L62.9975 16.398L62.9975 16.398L63.4905 15.528ZM69.3785 21.544L68.4961 22.0146L68.5009 22.0234L68.5057 22.0322L69.3785 21.544ZM65.4745 28.904V29.904H66.4745V28.904H65.4745ZM64.0025 23.208L63.1469 23.7258L63.1532 23.7359L64.0025 23.208ZM59.9705 19.56L59.5142 20.4498L59.5277 20.4568L59.5414 20.4633L59.9705 19.56ZM46.8505 21.096L46.1823 20.3519L46.1748 20.3588L46.8505 21.096ZM43.3305 28.904L42.3345 28.8146L42.2367 29.904H43.3305V28.904ZM70.4905 30.12C70.4905 31.1911 70.4287 32.3299 70.3038 33.5371L72.2932 33.7429C72.4243 32.4754 72.4905 31.2675 72.4905 30.12H70.4905ZM71.2985 32.64H43.2665V34.64H71.2985V32.64ZM42.2684 33.7016C42.4944 37.362 43.75 40.3332 46.1094 42.5039L47.4636 41.0321C45.5563 39.2774 44.4653 36.83 44.2646 33.5784L42.2684 33.7016ZM46.1249 42.5178C48.4949 44.609 51.3584 45.648 54.6585 45.648V43.648C51.8146 43.648 49.4301 42.767 47.4481 41.0182L46.1249 42.5178ZM54.6585 45.648C57.3293 45.648 59.6316 45.0355 61.4997 43.7422L60.3613 42.0978C58.9014 43.1085 57.0224 43.648 54.6585 43.648V45.648ZM61.504 43.7392C63.3823 42.4244 64.7071 40.6742 65.459 38.5125L63.57 37.8555C62.9566 39.6191 61.892 41.0263 60.357 42.1008L61.504 43.7392ZM64.5145 39.184H70.7865V37.184H64.5145V39.184ZM69.8232 37.9157C68.9438 41.0733 67.194 43.6404 64.5506 45.6429L65.7584 47.2371C68.747 44.973 70.7518 42.036 71.7498 38.4523L69.8232 37.9157ZM64.5584 45.6371C61.946 47.5766 58.6676 48.576 54.6585 48.576V50.576C59.0121 50.576 62.731 49.4848 65.7506 47.2429L64.5584 45.6371ZM54.6585 48.576C51.4859 48.576 48.6714 47.8659 46.1901 46.4652L45.2069 48.2068C48.0163 49.7928 51.1751 50.576 54.6585 50.576V48.576ZM46.1962 46.4686C43.7595 45.0705 41.8402 43.0955 40.4319 40.5202L38.6771 41.4798C40.2554 44.3659 42.4322 46.6148 45.2008 48.2034L46.1962 46.4686ZM40.435 40.5259C39.0313 37.919 38.3145 34.8864 38.3145 31.4H36.3145C36.3145 35.1669 37.0911 38.5343 38.674 41.4741L40.435 40.5259ZM38.3145 31.4C38.3145 27.9086 39.012 24.8963 40.3736 22.3332L38.6074 21.3948C37.0677 24.2931 36.3145 27.6381 36.3145 31.4H38.3145ZM40.3736 22.3332C41.7375 19.7658 43.6295 17.8187 46.0574 16.4655L45.0836 14.7185C42.3061 16.2666 40.1448 18.5008 38.6074 21.3948L40.3736 22.3332ZM46.0621 16.4628C48.5396 15.0642 51.3957 14.352 54.6585 14.352V12.352C51.0946 12.352 47.8921 13.1331 45.0789 14.7212L46.0621 16.4628ZM54.6585 14.352C57.8367 14.352 60.6067 15.0432 62.9975 16.398L63.9835 14.658C61.2543 13.1114 58.1363 12.352 54.6585 12.352V14.352ZM62.9975 16.398C65.3949 17.7566 67.2214 19.6245 68.4961 22.0146L70.2609 21.0734C68.8049 18.3435 66.7061 16.2008 63.9835 14.658L62.9975 16.398ZM68.5057 22.0322C69.8215 24.3845 70.4905 27.0718 70.4905 30.12H72.4905C72.4905 26.7682 71.7516 23.7382 70.2513 21.0558L68.5057 22.0322ZM66.4745 28.904C66.4745 26.5352 65.9493 24.4456 64.8518 22.6801L63.1532 23.7359C64.0184 25.1278 64.4745 26.8355 64.4745 28.904H66.4745ZM64.858 22.6902C63.7756 20.9019 62.2836 19.5516 60.3996 18.6567L59.5414 20.4633C61.0707 21.1897 62.2667 22.2714 63.147 23.7258L64.858 22.6902ZM60.4268 18.6702C58.6085 17.7377 56.5938 17.28 54.4025 17.28V19.28C56.3072 19.28 58.0045 19.6756 59.5142 20.4498L60.4268 18.6702ZM54.4025 17.28C51.2247 17.28 48.4659 18.3014 46.1824 20.3519L47.5186 21.84C49.4164 20.1359 51.6923 19.28 54.4025 19.28V17.28ZM46.1748 20.3588C43.9072 22.4375 42.6507 25.2914 42.3345 28.8146L44.3265 28.9934C44.6076 25.8606 45.6978 23.5092 47.5262 21.8332L46.1748 20.3588ZM43.3305 29.904H65.4745V27.904H43.3305V29.904ZM128.65 15.016L128.175 15.8959L128.182 15.8996L128.189 15.9032L128.65 15.016ZM133.706 20.072L132.829 20.552L132.829 20.552L133.706 20.072ZM135.562 49V50H136.562V49H135.562ZM129.802 49H128.802V50H129.802V49ZM127.178 21.16L126.438 21.8327L126.446 21.8415L126.454 21.8501L127.178 21.16ZM112.97 21.288L113.701 21.9704L113.708 21.9623L112.97 21.288ZM110.282 49V50H111.282V49H110.282ZM104.522 49H103.522V50H104.522V49ZM101.898 21.16L101.158 21.8327L101.166 21.8415L101.174 21.8501L101.898 21.16ZM87.69 21.288L88.4211 21.9704L88.4285 21.9623L87.69 21.288ZM85.002 49V50H86.002V49H85.002ZM79.178 49H78.178V50H79.178V49ZM79.178 13.928V12.928H78.178V13.928H79.178ZM85.002 13.928H86.002V12.928H85.002V13.928ZM85.002 18.984H84.002V22.4571L85.8489 19.5158L85.002 18.984ZM89.61 14.76L89.1628 13.8655L89.1549 13.8696L89.61 14.76ZM103.882 15.272L103.377 16.1352L103.377 16.1352L103.882 15.272ZM108.938 21.096L108.02 21.4936L108.979 23.7055L109.868 21.4646L108.938 21.096ZM113.802 15.336L114.319 16.1921L114.319 16.1921L113.802 15.336ZM121.354 14.288C123.94 14.288 126.205 14.8322 128.175 15.8959L129.125 14.1361C126.828 12.8958 124.229 12.288 121.354 12.288V14.288ZM128.189 15.9032C130.133 16.9144 131.679 18.4515 132.829 20.552L134.583 19.592C133.258 17.1698 131.433 15.3363 129.111 14.1288L128.189 15.9032ZM132.829 20.552C133.967 22.6329 134.562 25.2106 134.562 28.328H136.562C136.562 24.96 135.919 22.0337 134.583 19.592L132.829 20.552ZM134.562 28.328V49H136.562V28.328H134.562ZM135.562 48H129.802V50H135.562V48ZM130.802 49V29.16H128.802V49H130.802ZM130.802 29.16C130.802 25.5033 129.887 22.5516 127.902 20.4699L126.454 21.8501C127.968 23.4377 128.802 25.8194 128.802 29.16H130.802ZM127.918 20.4873C125.991 18.3674 123.378 17.344 120.202 17.344V19.344C122.914 19.344 124.952 20.1979 126.438 21.8327L127.918 20.4873ZM120.202 17.344C116.935 17.344 114.24 18.4136 112.232 20.6137L113.708 21.9623C115.284 20.2371 117.41 19.344 120.202 19.344V17.344ZM112.239 20.6057C110.216 22.7735 109.282 25.8505 109.282 29.672H111.282C111.282 26.1548 112.14 23.6425 113.701 21.9703L112.239 20.6057ZM109.282 29.672V49H111.282V29.672H109.282ZM110.282 48H104.522V50H110.282V48ZM105.522 49V29.16H103.522V49H105.522ZM105.522 29.16C105.522 25.5033 104.607 22.5516 102.622 20.4699L101.174 21.8501C102.688 23.4377 103.522 25.8194 103.522 29.16H105.522ZM102.638 20.4873C100.711 18.3674 98.0981 17.344 94.922 17.344V19.344C97.6339 19.344 99.6719 20.1979 101.158 21.8327L102.638 20.4873ZM94.922 17.344C91.655 17.344 88.9604 18.4136 86.9515 20.6137L88.4285 21.9623C90.0036 20.2371 92.1303 19.344 94.922 19.344V17.344ZM86.9589 20.6057C84.9357 22.7735 84.002 25.8505 84.002 29.672H86.002C86.002 26.1548 86.8603 23.6425 88.4211 21.9703L86.9589 20.6057ZM84.002 29.672V49H86.002V29.672H84.002ZM85.002 48H79.178V50H85.002V48ZM80.178 49V13.928H78.178V49H80.178ZM79.178 14.928H85.002V12.928H79.178V14.928ZM84.002 13.928V18.984H86.002V13.928H84.002ZM85.8489 19.5158C86.9055 17.833 88.3064 16.5493 90.0651 15.6504L89.1549 13.8696C87.0736 14.9334 85.4025 16.4656 84.1551 18.4522L85.8489 19.5158ZM90.0572 15.6544C91.8715 14.7473 93.8715 14.288 96.074 14.288V12.288C93.5831 12.288 91.2739 12.81 89.1628 13.8656L90.0572 15.6544ZM96.074 14.288C98.863 14.288 101.287 14.9128 103.377 16.1352L104.387 14.4088C101.954 12.9859 99.173 12.288 96.074 12.288V14.288ZM103.377 16.1352C105.443 17.3433 106.99 19.1153 108.02 21.4936L109.856 20.6984C108.668 17.9567 106.844 15.846 104.387 14.4088L103.377 16.1352ZM109.868 21.4646C110.769 19.1915 112.246 17.4434 114.319 16.1921L113.285 14.4799C110.835 15.9592 109.07 18.0512 108.008 20.7274L109.868 21.4646ZM114.319 16.1921C116.416 14.9257 118.753 14.288 121.354 14.288V12.288C118.408 12.288 115.71 13.0156 113.285 14.4799L114.319 16.1921ZM145.308 7.08L146.015 6.37289L146.015 6.37289L145.308 7.08ZM145.308 1.448L146.015 2.1551L146.015 2.1551L145.308 1.448ZM150.812 1.448L150.084 2.13462L150.094 2.14501L150.104 2.1551L150.812 1.448ZM150.812 7.08L150.104 6.37289L150.094 6.38299L150.084 6.39337L150.812 7.08ZM150.94 13.928H151.94V12.928H150.94V13.928ZM150.94 49V50H151.94V49H150.94ZM145.116 49H144.116V50H145.116V49ZM145.116 13.928V12.928H144.116V13.928H145.116ZM148.124 7.232C147.273 7.232 146.591 6.94891 146.015 6.37289L144.6 7.7871C145.56 8.74709 146.755 9.232 148.124 9.232V7.232ZM146.015 6.37289C145.439 5.79687 145.156 5.11447 145.156 4.264H143.156C143.156 5.63219 143.64 6.82712 144.6 7.7871L146.015 6.37289ZM145.156 4.264C145.156 3.41353 145.439 2.73112 146.015 2.1551L144.6 0.740891C143.64 1.70087 143.156 2.8958 143.156 4.264H145.156ZM146.015 2.1551C146.591 1.57909 147.273 1.296 148.124 1.296V-0.704002C146.755 -0.704002 145.56 -0.219092 144.6 0.740891L146.015 2.1551ZM148.124 1.296C148.918 1.296 149.55 1.56884 150.084 2.13462L151.539 0.761375C150.622 -0.208848 149.462 -0.704002 148.124 -0.704002V1.296ZM150.104 2.1551C150.68 2.73112 150.964 3.41353 150.964 4.264H152.964C152.964 2.8958 152.479 1.70087 151.519 0.740891L150.104 2.1551ZM150.964 4.264C150.964 5.11447 150.68 5.79687 150.104 6.37289L151.519 7.7871C152.479 6.82712 152.964 5.63219 152.964 4.264H150.964ZM150.084 6.39337C149.55 6.95915 148.918 7.232 148.124 7.232V9.232C149.462 9.232 150.622 8.73684 151.539 7.76662L150.084 6.39337ZM149.94 13.928V49H151.94V13.928H149.94ZM150.94 48H145.116V50H150.94V48ZM146.116 49V13.928H144.116V49H146.116ZM145.116 14.928H150.94V12.928H145.116V14.928ZM188.322 17.192L187.62 17.9049L187.626 17.9106L188.322 17.192ZM192.29 49V50H193.29V49H192.29ZM186.53 49H185.53V50H186.53V49ZM183.906 21.16L183.174 21.8418L183.182 21.8501L183.906 21.16ZM169.378 21.224L168.654 20.5331L168.646 20.5417L169.378 21.224ZM166.69 49V50H167.69V49H166.69ZM160.866 49H159.866V50H160.866V49ZM160.866 13.928V12.928H159.866V13.928H160.866ZM166.69 13.928H167.69V12.928H166.69V13.928ZM166.69 18.92H165.69V22.3248L167.531 19.4608L166.69 18.92ZM171.362 14.76L170.922 13.8617L170.914 13.8656L171.362 14.76ZM177.954 14.288C182 14.288 185.19 15.514 187.62 17.9048L189.023 16.4792C186.162 13.6647 182.44 12.288 177.954 12.288V14.288ZM187.626 17.9106C190.02 20.2273 191.29 23.6442 191.29 28.328H193.29C193.29 23.2838 191.914 19.2767 189.017 16.4734L187.626 17.9106ZM191.29 28.328V49H193.29V28.328H191.29ZM192.29 48H186.53V50H192.29V48ZM187.53 49V29.16H185.53V49H187.53ZM187.53 29.16C187.53 25.5033 186.614 22.5516 184.629 20.4699L183.182 21.8501C184.696 23.4377 185.53 25.8194 185.53 29.16H187.53ZM184.637 20.4783C182.664 18.3612 179.99 17.344 176.738 17.344V19.344C179.544 19.344 181.648 20.2041 183.174 21.8417L184.637 20.4783ZM176.738 17.344C173.439 17.344 170.708 18.3843 168.655 20.5331L170.1 21.9149C171.716 20.2237 173.892 19.344 176.738 19.344V17.344ZM168.646 20.5417C166.623 22.7095 165.69 25.7865 165.69 29.608H167.69C167.69 26.0908 168.548 23.5785 170.109 21.9063L168.646 20.5417ZM165.69 29.608V49H167.69V29.608H165.69ZM166.69 48H160.866V50H166.69V48ZM161.866 49V13.928H159.866V49H161.866ZM160.866 14.928H166.69V12.928H160.866V14.928ZM165.69 13.928V18.92H167.69V13.928H165.69ZM167.531 19.4608C168.583 17.8246 170.002 16.5579 171.809 15.6544L170.914 13.8656C168.796 14.9247 167.1 16.4314 165.848 18.3792L167.531 19.4608ZM171.801 15.6582C173.66 14.7485 175.706 14.288 177.954 14.288V12.288C175.423 12.288 173.074 12.8088 170.922 13.8618L171.801 15.6582ZM201.803 21.928L202.683 22.4029L202.686 22.3972L201.803 21.928ZM207.755 15.592L207.251 14.7282L207.245 14.7319L207.755 15.592ZM224.267 15.336L223.762 16.1992L223.762 16.1992L224.267 15.336ZM229.323 20.328L228.448 20.8121L230.323 20.328H229.323ZM229.323 13.928V12.928H228.323V13.928H229.323ZM235.211 13.928H236.211V12.928H235.211V13.928ZM235.211 49V50H236.211V49H235.211ZM229.323 49H228.323V50H229.323V49ZM229.323 42.472H230.323V38.6545L228.451 41.9817L229.323 42.472ZM224.139 47.592L224.644 48.4552L224.649 48.4523L224.139 47.592ZM207.755 47.272L207.234 48.1256L207.234 48.1256L207.755 47.272ZM201.803 40.808L202.689 40.3445L202.689 40.3445L201.803 40.808ZM223.371 20.008L222.86 20.8673L222.871 20.8744L222.884 20.8812L223.371 20.008ZM211.467 19.944L210.971 19.0758L210.971 19.0758L211.467 19.944ZM207.179 24.424L208.058 24.9015L208.058 24.9015L207.179 24.424ZM207.179 38.376L206.296 38.8456L206.3 38.8535L207.179 38.376ZM211.467 42.92L210.956 43.7793L210.963 43.7838L210.971 43.7882L211.467 42.92ZM223.371 42.92L223.867 43.7883L223.874 43.7845L223.371 42.92ZM227.723 38.376L228.602 38.8535L228.606 38.8456L227.723 38.376ZM200.627 31.336C200.627 27.889 201.324 24.9216 202.683 22.4029L200.923 21.4531C199.381 24.3104 198.627 27.615 198.627 31.336H200.627ZM202.686 22.3972C204.056 19.819 205.915 17.8464 208.265 16.4521L207.245 14.7319C204.561 16.3243 202.452 18.5757 200.92 21.4588L202.686 22.3972ZM208.259 16.4558C210.658 15.0563 213.32 14.352 216.267 14.352V12.352C212.985 12.352 209.972 13.1411 207.251 14.7282L208.259 16.4558ZM216.267 14.352C219.192 14.352 221.679 14.9805 223.762 16.1992L224.772 14.4728C222.333 13.0461 219.486 12.352 216.267 12.352V14.352ZM223.762 16.1992C225.891 17.4443 227.438 18.9855 228.448 20.8121L230.198 19.8439C228.99 17.6598 227.166 15.873 224.772 14.4728L223.762 16.1992ZM230.323 20.328V13.928H228.323V20.328H230.323ZM229.323 14.928H235.211V12.928H229.323V14.928ZM234.211 13.928V49H236.211V13.928H234.211ZM235.211 48H229.323V50H235.211V48ZM230.323 49V42.472H228.323V49H230.323ZM228.451 41.9817C227.397 43.8564 225.804 45.4431 223.629 46.7317L224.649 48.4523C227.082 47.0102 228.945 45.1836 230.195 42.9623L228.451 41.9817ZM223.634 46.7288C221.549 47.9487 219.083 48.576 216.203 48.576V50.576C219.382 50.576 222.207 49.8807 224.644 48.4552L223.634 46.7288ZM216.203 48.576C213.261 48.576 210.627 47.8532 208.276 46.4184L207.234 48.1256C209.917 49.7628 212.915 50.576 216.203 50.576V48.576ZM208.276 46.4184C205.923 44.9827 204.061 42.9673 202.689 40.3445L200.917 41.2715C202.446 44.1953 204.552 46.4893 207.234 48.1256L208.276 46.4184ZM202.689 40.3445C201.323 37.7321 200.627 34.7374 200.627 31.336H198.627C198.627 35.0173 199.382 38.3373 200.917 41.2715L202.689 40.3445ZM230.323 31.4C230.323 28.6186 229.761 26.1445 228.602 24.0105L226.844 24.9655C227.818 26.7568 228.323 28.8907 228.323 31.4H230.323ZM228.602 24.0105C227.451 21.8925 225.869 20.2569 223.858 19.1348L222.884 20.8812C224.542 21.8071 225.862 23.1581 226.844 24.9655L228.602 24.0105ZM223.882 19.1487C221.929 17.9859 219.767 17.408 217.419 17.408V19.408C219.423 19.408 221.229 19.8968 222.86 20.8673L223.882 19.1487ZM217.419 17.408C215.079 17.408 212.922 17.9607 210.971 19.0758L211.963 20.8122C213.596 19.8793 215.407 19.408 217.419 19.408V17.408ZM210.971 19.0758C209.004 20.1995 207.448 21.8345 206.3 23.9465L208.058 24.9015C209.043 23.0881 210.346 21.7365 211.963 20.8122L210.971 19.0758ZM206.3 23.9465C205.141 26.0805 204.579 28.5546 204.579 31.336H206.579C206.579 28.8267 207.084 26.6928 208.058 24.9015L206.3 23.9465ZM204.579 31.336C204.579 34.1578 205.14 36.6713 206.296 38.8456L208.062 37.9064C207.085 36.07 206.579 33.8902 206.579 31.336H204.579ZM206.3 38.8535C207.447 40.9625 208.998 42.6141 210.956 43.7793L211.978 42.0607C210.352 41.0925 209.045 39.7149 208.058 37.8985L206.3 38.8535ZM210.971 43.7882C212.922 44.9033 215.079 45.456 217.419 45.456V43.456C215.407 43.456 213.596 42.9847 211.963 42.0518L210.971 43.7882ZM217.419 45.456C219.759 45.456 221.916 44.9033 223.867 43.7882L222.875 42.0518C221.242 42.9847 219.431 43.456 217.419 43.456V45.456ZM223.874 43.7845C225.875 42.6208 227.452 40.9683 228.602 38.8535L226.844 37.8985C225.86 39.709 224.536 41.0859 222.868 42.0555L223.874 43.7845ZM228.606 38.8456C229.761 36.6736 230.323 34.182 230.323 31.4H228.323C228.323 33.9086 227.818 36.0678 226.84 37.9064L228.606 38.8456ZM250.877 19.624H249.877L251.768 20.0788L250.877 19.624ZM255.229 14.952L254.729 14.0861L254.72 14.0911L255.229 14.952ZM262.205 13.288H263.205V12.288H262.205V13.288ZM262.205 19.304V20.304H263.205V19.304H262.205ZM250.877 49V50H251.877V49H250.877ZM245.053 49H244.053V50H245.053V49ZM245.053 13.928V12.928H244.053V13.928H245.053ZM250.877 13.928H251.877V12.928H250.877V13.928ZM251.768 20.0788C252.708 18.2365 254.029 16.8226 255.738 15.8129L254.72 14.0911C252.674 15.3001 251.094 17.0008 249.986 19.1692L251.768 20.0788ZM255.729 15.8179C257.466 14.8146 259.61 14.288 262.205 14.288V12.288C259.339 12.288 256.832 12.8707 254.729 14.0861L255.729 15.8179ZM261.205 13.288V19.304H263.205V13.288H261.205ZM262.205 18.304H260.669V20.304H262.205V18.304ZM260.669 18.304C257.229 18.304 254.471 19.2409 252.59 21.2823C250.722 23.3083 249.877 26.2518 249.877 29.928H251.877C251.877 26.5215 252.664 24.1531 254.06 22.6377C255.443 21.1378 257.581 20.304 260.669 20.304V18.304ZM249.877 29.928V49H251.877V29.928H249.877ZM250.877 48H245.053V50H250.877V48ZM246.053 49V13.928H244.053V49H246.053ZM245.053 14.928H250.877V12.928H245.053V14.928ZM249.877 13.928V19.624H251.877V13.928H249.877Z" fill="#2B2C32" mask="url(#path-1-outside-1_372_332)"/>
</svg>
