<svg width="585" height="80" viewBox="0 0 585 80" fill="none" xmlns="http://www.w3.org/2000/svg">
<path d="M0.5 39.92C0.5 17.92 18.34 -9.53674e-07 40.5 -9.53674e-07C58.42 -9.53674e-07 73.62 11.76 78.66 28H40.58C33.86 28 28.5 33.36 28.5 39.92C28.5 46.64 33.86 52 40.58 52H78.66C73.54 68.24 58.42 80 40.5 80C18.34 80 0.5 62.08 0.5 39.92Z" fill="#58D073"/>
<path d="M95.62 26.32C96.9533 24.08 98.7133 22.3467 100.9 21.12C103.14 19.84 105.78 19.2 108.82 19.2V28.64H106.5C102.927 28.64 100.207 29.5467 98.34 31.36C96.5267 33.1733 95.62 36.32 95.62 40.8V64H86.5V19.92H95.62V26.32ZM121.843 14.08C120.19 14.08 118.803 13.52 117.683 12.4C116.563 11.28 116.003 9.89333 116.003 8.24C116.003 6.58666 116.563 5.2 117.683 4.08C118.803 2.96 120.19 2.4 121.843 2.4C123.443 2.4 124.803 2.96 125.923 4.08C127.043 5.2 127.603 6.58666 127.603 8.24C127.603 9.89333 127.043 11.28 125.923 12.4C124.803 13.52 123.443 14.08 121.843 14.08ZM126.323 19.92V64H117.203V19.92H126.323ZM148.937 27.36V51.76C148.937 53.4133 149.31 54.6133 150.057 55.36C150.857 56.0533 152.19 56.4 154.057 56.4H159.657V64H152.457C148.35 64 145.204 63.04 143.017 61.12C140.83 59.2 139.737 56.08 139.737 51.76V27.36H134.537V19.92H139.737V8.96H148.937V19.92H159.657V27.36H148.937ZM172.703 14.08C171.049 14.08 169.663 13.52 168.543 12.4C167.423 11.28 166.863 9.89333 166.863 8.24C166.863 6.58666 167.423 5.2 168.543 4.08C169.663 2.96 171.049 2.4 172.703 2.4C174.303 2.4 175.663 2.96 176.783 4.08C177.903 5.2 178.463 6.58666 178.463 8.24C178.463 9.89333 177.903 11.28 176.783 12.4C175.663 13.52 174.303 14.08 172.703 14.08ZM177.183 19.92V64H168.063V19.92H177.183ZM186.116 41.92C186.116 37.3867 187.023 33.4133 188.836 30C190.703 26.5333 193.263 23.8667 196.516 22C199.77 20.1333 203.503 19.2 207.716 19.2C213.05 19.2 217.45 20.48 220.916 23.04C224.436 25.5467 226.81 29.1467 228.036 33.84H218.196C217.396 31.6533 216.116 29.9467 214.356 28.72C212.596 27.4933 210.383 26.88 207.716 26.88C203.983 26.88 200.996 28.2133 198.756 30.88C196.57 33.4933 195.476 37.1733 195.476 41.92C195.476 46.6667 196.57 50.3733 198.756 53.04C200.996 55.7067 203.983 57.04 207.716 57.04C212.996 57.04 216.49 54.72 218.196 50.08H228.036C226.756 54.56 224.356 58.1333 220.836 60.8C217.316 63.4133 212.943 64.72 207.716 64.72C203.503 64.72 199.77 63.7867 196.516 61.92C193.263 60 190.703 57.3333 188.836 53.92C187.023 50.4533 186.116 46.4533 186.116 41.92ZM234.085 41.76C234.085 37.3333 234.992 33.4133 236.805 30C238.672 26.5867 241.178 23.9467 244.325 22.08C247.525 20.16 251.045 19.2 254.885 19.2C258.352 19.2 261.365 19.8933 263.925 21.28C266.538 22.6133 268.618 24.2933 270.165 26.32V19.92H279.365V64H270.165V57.44C268.618 59.52 266.512 61.2533 263.845 62.64C261.178 64.0267 258.138 64.72 254.725 64.72C250.938 64.72 247.472 63.76 244.325 61.84C241.178 59.8667 238.672 57.1467 236.805 53.68C234.992 50.16 234.085 46.1867 234.085 41.76ZM270.165 41.92C270.165 38.88 269.525 36.24 268.245 34C267.018 31.76 265.392 30.0533 263.365 28.88C261.338 27.7067 259.152 27.12 256.805 27.12C254.458 27.12 252.272 27.7067 250.245 28.88C248.218 30 246.565 31.68 245.285 33.92C244.058 36.1067 243.445 38.72 243.445 41.76C243.445 44.8 244.058 47.4667 245.285 49.76C246.565 52.0533 248.218 53.8133 250.245 55.04C252.325 56.2133 254.512 56.8 256.805 56.8C259.152 56.8 261.338 56.2133 263.365 55.04C265.392 53.8667 267.018 52.16 268.245 49.92C269.525 47.6267 270.165 44.96 270.165 41.92ZM300.464 4.8V64H291.344V4.8H300.464ZM369.139 8.4V15.84H354.339V64H345.219V15.84H330.339V8.4H369.139ZM383.015 14.08C381.362 14.08 379.975 13.52 378.855 12.4C377.735 11.28 377.175 9.89333 377.175 8.24C377.175 6.58666 377.735 5.2 378.855 4.08C379.975 2.96 381.362 2.4 383.015 2.4C384.615 2.4 385.975 2.96 387.095 4.08C388.215 5.2 388.775 6.58666 388.775 8.24C388.775 9.89333 388.215 11.28 387.095 12.4C385.975 13.52 384.615 14.08 383.015 14.08ZM387.495 19.92V64H378.375V19.92H387.495ZM452.829 19.2C456.295 19.2 459.389 19.92 462.109 21.36C464.882 22.8 467.042 24.9333 468.589 27.76C470.189 30.5867 470.989 34 470.989 38V64H461.949V39.36C461.949 35.4133 460.962 32.4 458.989 30.32C457.015 28.1867 454.322 27.12 450.909 27.12C447.495 27.12 444.775 28.1867 442.749 30.32C440.775 32.4 439.789 35.4133 439.789 39.36V64H430.749V39.36C430.749 35.4133 429.762 32.4 427.789 30.32C425.815 28.1867 423.122 27.12 419.709 27.12C416.295 27.12 413.575 28.1867 411.549 30.32C409.575 32.4 408.589 35.4133 408.589 39.36V64H399.469V19.92H408.589V24.96C410.082 23.1467 411.975 21.7333 414.269 20.72C416.562 19.7067 419.015 19.2 421.629 19.2C425.149 19.2 428.295 19.9467 431.069 21.44C433.842 22.9333 435.975 25.0933 437.469 27.92C438.802 25.2533 440.882 23.1467 443.709 21.6C446.535 20 449.575 19.2 452.829 19.2ZM522.994 40.88C522.994 42.5333 522.887 44.0267 522.674 45.36H488.994C489.26 48.88 490.567 51.7067 492.914 53.84C495.26 55.9733 498.14 57.04 501.554 57.04C506.46 57.04 509.927 54.9867 511.954 50.88H521.794C520.46 54.9333 518.034 58.2667 514.514 60.88C511.047 63.44 506.727 64.72 501.554 64.72C497.34 64.72 493.554 63.7867 490.194 61.92C486.887 60 484.274 57.3333 482.354 53.92C480.487 50.4533 479.554 46.4533 479.554 41.92C479.554 37.3867 480.46 33.4133 482.274 30C484.14 26.5333 486.727 23.8667 490.034 22C493.394 20.1333 497.234 19.2 501.554 19.2C505.714 19.2 509.42 20.1067 512.674 21.92C515.927 23.7333 518.46 26.2933 520.274 29.6C522.087 32.8533 522.994 36.6133 522.994 40.88ZM513.474 38C513.42 34.64 512.22 31.9467 509.874 29.92C507.527 27.8933 504.62 26.88 501.154 26.88C498.007 26.88 495.314 27.8933 493.074 29.92C490.834 31.8933 489.5 34.5867 489.074 38H513.474ZM547.969 64.72C544.502 64.72 541.382 64.1067 538.609 62.88C535.889 61.6 533.729 59.8933 532.129 57.76C530.529 55.5733 529.675 53.1467 529.569 50.48H539.009C539.169 52.3467 540.049 53.92 541.649 55.2C543.302 56.4267 545.355 57.04 547.809 57.04C550.369 57.04 552.342 56.56 553.729 55.6C555.169 54.5867 555.889 53.3067 555.889 51.76C555.889 50.1067 555.089 48.88 553.489 48.08C551.942 47.28 549.462 46.4 546.049 45.44C542.742 44.5333 540.049 43.6533 537.969 42.8C535.889 41.9467 534.075 40.64 532.529 38.88C531.035 37.12 530.289 34.8 530.289 31.92C530.289 29.5733 530.982 27.44 532.369 25.52C533.755 23.5467 535.729 22 538.289 20.88C540.902 19.76 543.889 19.2 547.249 19.2C552.262 19.2 556.289 20.48 559.329 23.04C562.422 25.5467 564.075 28.9867 564.289 33.36H555.169C555.009 31.3867 554.209 29.8133 552.769 28.64C551.329 27.4667 549.382 26.88 546.929 26.88C544.529 26.88 542.689 27.3333 541.409 28.24C540.129 29.1467 539.489 30.3467 539.489 31.84C539.489 33.0133 539.915 34 540.769 34.8C541.622 35.6 542.662 36.24 543.889 36.72C545.115 37.1467 546.929 37.7067 549.329 38.4C552.529 39.2533 555.142 40.1333 557.169 41.04C559.249 41.8933 561.035 43.1733 562.529 44.88C564.022 46.5867 564.795 48.8533 564.849 51.68C564.849 54.1867 564.155 56.4267 562.769 58.4C561.382 60.3733 559.409 61.92 556.849 63.04C554.342 64.16 551.382 64.72 547.969 64.72Z" fill="#2B2C32"/>
<path d="M578.383 64.56C576.73 64.56 575.343 64 574.223 62.88C573.103 61.76 572.543 60.3733 572.543 58.72C572.543 57.0667 573.103 55.68 574.223 54.56C575.343 53.44 576.73 52.88 578.383 52.88C579.983 52.88 581.343 53.44 582.463 54.56C583.583 55.68 584.143 57.0667 584.143 58.72C584.143 60.3733 583.583 61.76 582.463 62.88C581.343 64 579.983 64.56 578.383 64.56Z" fill="#0057FF"/>
</svg>
