<svg width="374" height="52" viewBox="0 0 374 52" fill="none" xmlns="http://www.w3.org/2000/svg">
<mask id="path-1-outside-1_372_154" maskUnits="userSpaceOnUse" x="-1" y="-1" width="376" height="54" fill="black">
<rect fill="white" x="-1" y="-1" width="376" height="54"/>
<path d="M23.152 51.448C18.9707 51.448 15.1307 50.4667 11.632 48.504C8.13333 46.5413 5.36 43.832 3.312 40.376C1.264 36.8773 0.24 32.9307 0.24 28.536C0.24 24.184 1.264 20.28 3.312 16.824C5.36 13.3253 8.13333 10.5947 11.632 8.632C15.1307 6.66933 18.9707 5.688 23.152 5.688C27.376 5.688 31.216 6.66933 34.672 8.632C38.1707 10.5947 40.9227 13.3253 42.928 16.824C44.976 20.28 46 24.184 46 28.536C46 32.9307 44.976 36.8773 42.928 40.376C40.9227 43.832 38.1707 46.5413 34.672 48.504C31.1733 50.4667 27.3333 51.448 23.152 51.448ZM23.152 43.448C25.84 43.448 28.208 42.8507 30.256 41.656C32.304 40.4187 33.904 38.6693 35.056 36.408C36.208 34.1467 36.784 31.5227 36.784 28.536C36.784 25.5493 36.208 22.9467 35.056 20.728C33.904 18.4667 32.304 16.7387 30.256 15.544C28.208 14.3493 25.84 13.752 23.152 13.752C20.464 13.752 18.0747 14.3493 15.984 15.544C13.936 16.7387 12.336 18.4667 11.184 20.728C10.032 22.9467 9.456 25.5493 9.456 28.536C9.456 31.5227 10.032 34.1467 11.184 36.408C12.336 38.6693 13.936 40.4187 15.984 41.656C18.0747 42.8507 20.464 43.448 23.152 43.448ZM86.138 15.544V51H77.114V46.52C75.962 48.056 74.4473 49.272 72.57 50.168C70.7353 51.0213 68.73 51.448 66.554 51.448C63.7807 51.448 61.3273 50.872 59.194 49.72C57.0607 48.5253 55.3753 46.7973 54.138 44.536C52.9433 42.232 52.346 39.5013 52.346 36.344V15.544H61.306V35.064C61.306 37.88 62.01 40.056 63.418 41.592C64.826 43.0853 66.746 43.832 69.178 43.832C71.6527 43.832 73.594 43.0853 75.002 41.592C76.41 40.056 77.114 37.88 77.114 35.064V15.544H86.138ZM103.939 21.048C105.091 19.1707 106.584 17.6987 108.419 16.632C110.296 15.5653 112.429 15.032 114.819 15.032V24.44H112.451C109.635 24.44 107.501 25.1013 106.051 26.424C104.643 27.7467 103.939 30.0507 103.939 33.336V51H94.9785V15.544H103.939V21.048ZM184.808 6.328V51H175.848V21.944L163.88 51H157.096L145.064 21.944V51H136.104V6.328H146.28L160.488 39.544L174.696 6.328H184.808ZM198.21 11.32C196.631 11.32 195.309 10.8293 194.242 9.848C193.218 8.824 192.706 7.56533 192.706 6.072C192.706 4.57866 193.218 3.34133 194.242 2.36C195.309 1.336 196.631 0.823997 198.21 0.823997C199.789 0.823997 201.09 1.336 202.114 2.36C203.181 3.34133 203.714 4.57866 203.714 6.072C203.714 7.56533 203.181 8.824 202.114 9.848C201.09 10.8293 199.789 11.32 198.21 11.32ZM202.626 15.544V51H193.666V15.544H202.626ZM225.047 51.576C222.145 51.576 219.543 51.064 217.239 50.04C214.935 48.9733 213.1 47.544 211.735 45.752C210.412 43.96 209.687 41.976 209.559 39.8H218.583C218.753 41.1653 219.415 42.296 220.567 43.192C221.761 44.088 223.233 44.536 224.983 44.536C226.689 44.536 228.012 44.1947 228.951 43.512C229.932 42.8293 230.423 41.9547 230.423 40.888C230.423 39.736 229.825 38.8827 228.631 38.328C227.479 37.7307 225.623 37.0907 223.062 36.408C220.417 35.768 218.241 35.1067 216.535 34.424C214.871 33.7413 213.42 32.696 212.183 31.288C210.988 29.88 210.391 27.9813 210.391 25.592C210.391 23.6293 210.945 21.8373 212.055 20.216C213.207 18.5947 214.828 17.3147 216.919 16.376C219.052 15.4373 221.548 14.968 224.407 14.968C228.631 14.968 232.001 16.0347 234.519 18.168C237.036 20.2587 238.423 23.096 238.679 26.68H230.103C229.975 25.272 229.377 24.1627 228.311 23.352C227.287 22.4987 225.9 22.072 224.151 22.072C222.529 22.072 221.271 22.3707 220.375 22.968C219.521 23.5653 219.095 24.3973 219.095 25.464C219.095 26.6587 219.692 27.576 220.887 28.216C222.081 28.8133 223.937 29.432 226.455 30.072C229.015 30.712 231.127 31.3733 232.791 32.056C234.455 32.7387 235.884 33.8053 237.079 35.256C238.316 36.664 238.956 38.5413 238.999 40.888C238.999 42.936 238.423 44.7707 237.271 46.392C236.161 48.0133 234.54 49.2933 232.407 50.232C230.316 51.128 227.863 51.576 225.047 51.576ZM259.922 51.576C257.02 51.576 254.418 51.064 252.114 50.04C249.81 48.9733 247.975 47.544 246.61 45.752C245.287 43.96 244.562 41.976 244.434 39.8H253.458C253.628 41.1653 254.29 42.296 255.442 43.192C256.636 44.088 258.108 44.536 259.858 44.536C261.564 44.536 262.887 44.1947 263.826 43.512C264.807 42.8293 265.298 41.9547 265.298 40.888C265.298 39.736 264.7 38.8827 263.506 38.328C262.354 37.7307 260.498 37.0907 257.938 36.408C255.292 35.768 253.116 35.1067 251.41 34.424C249.746 33.7413 248.295 32.696 247.058 31.288C245.863 29.88 245.266 27.9813 245.266 25.592C245.266 23.6293 245.82 21.8373 246.93 20.216C248.082 18.5947 249.703 17.3147 251.794 16.376C253.927 15.4373 256.423 14.968 259.282 14.968C263.506 14.968 266.876 16.0347 269.394 18.168C271.911 20.2587 273.298 23.096 273.554 26.68H264.978C264.85 25.272 264.252 24.1627 263.186 23.352C262.162 22.4987 260.775 22.072 259.026 22.072C257.404 22.072 256.146 22.3707 255.25 22.968C254.396 23.5653 253.97 24.3973 253.97 25.464C253.97 26.6587 254.567 27.576 255.762 28.216C256.956 28.8133 258.812 29.432 261.33 30.072C263.89 30.712 266.002 31.3733 267.666 32.056C269.33 32.7387 270.759 33.8053 271.954 35.256C273.191 36.664 273.831 38.5413 273.874 40.888C273.874 42.936 273.298 44.7707 272.146 46.392C271.036 48.0133 269.415 49.2933 267.282 50.232C265.191 51.128 262.738 51.576 259.922 51.576ZM285.773 11.32C284.194 11.32 282.871 10.8293 281.805 9.848C280.781 8.824 280.269 7.56533 280.269 6.072C280.269 4.57866 280.781 3.34133 281.805 2.36C282.871 1.336 284.194 0.823997 285.773 0.823997C287.351 0.823997 288.653 1.336 289.677 2.36C290.743 3.34133 291.277 4.57866 291.277 6.072C291.277 7.56533 290.743 8.824 289.677 9.848C288.653 10.8293 287.351 11.32 285.773 11.32ZM290.189 15.544V51H281.229V15.544H290.189ZM314.785 51.576C311.372 51.576 308.3 50.8293 305.569 49.336C302.838 47.8 300.684 45.6453 299.105 42.872C297.569 40.0987 296.801 36.8987 296.801 33.272C296.801 29.6453 297.59 26.4453 299.169 23.672C300.79 20.8987 302.988 18.7653 305.761 17.272C308.534 15.736 311.628 14.968 315.041 14.968C318.454 14.968 321.548 15.736 324.321 17.272C327.094 18.7653 329.27 20.8987 330.849 23.672C332.47 26.4453 333.281 29.6453 333.281 33.272C333.281 36.8987 332.449 40.0987 330.785 42.872C329.164 45.6453 326.945 47.8 324.129 49.336C321.356 50.8293 318.241 51.576 314.785 51.576ZM314.785 43.768C316.406 43.768 317.921 43.384 319.329 42.616C320.78 41.8053 321.932 40.6107 322.785 39.032C323.638 37.4533 324.065 35.5333 324.065 33.272C324.065 29.9013 323.169 27.32 321.377 25.528C319.628 23.6933 317.473 22.776 314.913 22.776C312.353 22.776 310.198 23.6933 308.449 25.528C306.742 27.32 305.889 29.9013 305.889 33.272C305.889 36.6427 306.721 39.2453 308.385 41.08C310.092 42.872 312.225 43.768 314.785 43.768ZM359.502 15.032C363.726 15.032 367.139 16.376 369.742 19.064C372.344 21.7093 373.646 25.4213 373.646 30.2V51H364.686V31.416C364.686 28.6 363.982 26.4453 362.574 24.952C361.166 23.416 359.246 22.648 356.814 22.648C354.339 22.648 352.376 23.416 350.926 24.952C349.518 26.4453 348.814 28.6 348.814 31.416V51H339.854V15.544H348.814V19.96C350.008 18.424 351.523 17.2293 353.358 16.376C355.235 15.48 357.283 15.032 359.502 15.032Z"/>
</mask>
<path d="M23.152 51.448C18.9707 51.448 15.1307 50.4667 11.632 48.504C8.13333 46.5413 5.36 43.832 3.312 40.376C1.264 36.8773 0.24 32.9307 0.24 28.536C0.24 24.184 1.264 20.28 3.312 16.824C5.36 13.3253 8.13333 10.5947 11.632 8.632C15.1307 6.66933 18.9707 5.688 23.152 5.688C27.376 5.688 31.216 6.66933 34.672 8.632C38.1707 10.5947 40.9227 13.3253 42.928 16.824C44.976 20.28 46 24.184 46 28.536C46 32.9307 44.976 36.8773 42.928 40.376C40.9227 43.832 38.1707 46.5413 34.672 48.504C31.1733 50.4667 27.3333 51.448 23.152 51.448ZM23.152 43.448C25.84 43.448 28.208 42.8507 30.256 41.656C32.304 40.4187 33.904 38.6693 35.056 36.408C36.208 34.1467 36.784 31.5227 36.784 28.536C36.784 25.5493 36.208 22.9467 35.056 20.728C33.904 18.4667 32.304 16.7387 30.256 15.544C28.208 14.3493 25.84 13.752 23.152 13.752C20.464 13.752 18.0747 14.3493 15.984 15.544C13.936 16.7387 12.336 18.4667 11.184 20.728C10.032 22.9467 9.456 25.5493 9.456 28.536C9.456 31.5227 10.032 34.1467 11.184 36.408C12.336 38.6693 13.936 40.4187 15.984 41.656C18.0747 42.8507 20.464 43.448 23.152 43.448ZM86.138 15.544V51H77.114V46.52C75.962 48.056 74.4473 49.272 72.57 50.168C70.7353 51.0213 68.73 51.448 66.554 51.448C63.7807 51.448 61.3273 50.872 59.194 49.72C57.0607 48.5253 55.3753 46.7973 54.138 44.536C52.9433 42.232 52.346 39.5013 52.346 36.344V15.544H61.306V35.064C61.306 37.88 62.01 40.056 63.418 41.592C64.826 43.0853 66.746 43.832 69.178 43.832C71.6527 43.832 73.594 43.0853 75.002 41.592C76.41 40.056 77.114 37.88 77.114 35.064V15.544H86.138ZM103.939 21.048C105.091 19.1707 106.584 17.6987 108.419 16.632C110.296 15.5653 112.429 15.032 114.819 15.032V24.44H112.451C109.635 24.44 107.501 25.1013 106.051 26.424C104.643 27.7467 103.939 30.0507 103.939 33.336V51H94.9785V15.544H103.939V21.048ZM184.808 6.328V51H175.848V21.944L163.88 51H157.096L145.064 21.944V51H136.104V6.328H146.28L160.488 39.544L174.696 6.328H184.808ZM198.21 11.32C196.631 11.32 195.309 10.8293 194.242 9.848C193.218 8.824 192.706 7.56533 192.706 6.072C192.706 4.57866 193.218 3.34133 194.242 2.36C195.309 1.336 196.631 0.823997 198.21 0.823997C199.789 0.823997 201.09 1.336 202.114 2.36C203.181 3.34133 203.714 4.57866 203.714 6.072C203.714 7.56533 203.181 8.824 202.114 9.848C201.09 10.8293 199.789 11.32 198.21 11.32ZM202.626 15.544V51H193.666V15.544H202.626ZM225.047 51.576C222.145 51.576 219.543 51.064 217.239 50.04C214.935 48.9733 213.1 47.544 211.735 45.752C210.412 43.96 209.687 41.976 209.559 39.8H218.583C218.753 41.1653 219.415 42.296 220.567 43.192C221.761 44.088 223.233 44.536 224.983 44.536C226.689 44.536 228.012 44.1947 228.951 43.512C229.932 42.8293 230.423 41.9547 230.423 40.888C230.423 39.736 229.825 38.8827 228.631 38.328C227.479 37.7307 225.623 37.0907 223.062 36.408C220.417 35.768 218.241 35.1067 216.535 34.424C214.871 33.7413 213.42 32.696 212.183 31.288C210.988 29.88 210.391 27.9813 210.391 25.592C210.391 23.6293 210.945 21.8373 212.055 20.216C213.207 18.5947 214.828 17.3147 216.919 16.376C219.052 15.4373 221.548 14.968 224.407 14.968C228.631 14.968 232.001 16.0347 234.519 18.168C237.036 20.2587 238.423 23.096 238.679 26.68H230.103C229.975 25.272 229.377 24.1627 228.311 23.352C227.287 22.4987 225.9 22.072 224.151 22.072C222.529 22.072 221.271 22.3707 220.375 22.968C219.521 23.5653 219.095 24.3973 219.095 25.464C219.095 26.6587 219.692 27.576 220.887 28.216C222.081 28.8133 223.937 29.432 226.455 30.072C229.015 30.712 231.127 31.3733 232.791 32.056C234.455 32.7387 235.884 33.8053 237.079 35.256C238.316 36.664 238.956 38.5413 238.999 40.888C238.999 42.936 238.423 44.7707 237.271 46.392C236.161 48.0133 234.54 49.2933 232.407 50.232C230.316 51.128 227.863 51.576 225.047 51.576ZM259.922 51.576C257.02 51.576 254.418 51.064 252.114 50.04C249.81 48.9733 247.975 47.544 246.61 45.752C245.287 43.96 244.562 41.976 244.434 39.8H253.458C253.628 41.1653 254.29 42.296 255.442 43.192C256.636 44.088 258.108 44.536 259.858 44.536C261.564 44.536 262.887 44.1947 263.826 43.512C264.807 42.8293 265.298 41.9547 265.298 40.888C265.298 39.736 264.7 38.8827 263.506 38.328C262.354 37.7307 260.498 37.0907 257.938 36.408C255.292 35.768 253.116 35.1067 251.41 34.424C249.746 33.7413 248.295 32.696 247.058 31.288C245.863 29.88 245.266 27.9813 245.266 25.592C245.266 23.6293 245.82 21.8373 246.93 20.216C248.082 18.5947 249.703 17.3147 251.794 16.376C253.927 15.4373 256.423 14.968 259.282 14.968C263.506 14.968 266.876 16.0347 269.394 18.168C271.911 20.2587 273.298 23.096 273.554 26.68H264.978C264.85 25.272 264.252 24.1627 263.186 23.352C262.162 22.4987 260.775 22.072 259.026 22.072C257.404 22.072 256.146 22.3707 255.25 22.968C254.396 23.5653 253.97 24.3973 253.97 25.464C253.97 26.6587 254.567 27.576 255.762 28.216C256.956 28.8133 258.812 29.432 261.33 30.072C263.89 30.712 266.002 31.3733 267.666 32.056C269.33 32.7387 270.759 33.8053 271.954 35.256C273.191 36.664 273.831 38.5413 273.874 40.888C273.874 42.936 273.298 44.7707 272.146 46.392C271.036 48.0133 269.415 49.2933 267.282 50.232C265.191 51.128 262.738 51.576 259.922 51.576ZM285.773 11.32C284.194 11.32 282.871 10.8293 281.805 9.848C280.781 8.824 280.269 7.56533 280.269 6.072C280.269 4.57866 280.781 3.34133 281.805 2.36C282.871 1.336 284.194 0.823997 285.773 0.823997C287.351 0.823997 288.653 1.336 289.677 2.36C290.743 3.34133 291.277 4.57866 291.277 6.072C291.277 7.56533 290.743 8.824 289.677 9.848C288.653 10.8293 287.351 11.32 285.773 11.32ZM290.189 15.544V51H281.229V15.544H290.189ZM314.785 51.576C311.372 51.576 308.3 50.8293 305.569 49.336C302.838 47.8 300.684 45.6453 299.105 42.872C297.569 40.0987 296.801 36.8987 296.801 33.272C296.801 29.6453 297.59 26.4453 299.169 23.672C300.79 20.8987 302.988 18.7653 305.761 17.272C308.534 15.736 311.628 14.968 315.041 14.968C318.454 14.968 321.548 15.736 324.321 17.272C327.094 18.7653 329.27 20.8987 330.849 23.672C332.47 26.4453 333.281 29.6453 333.281 33.272C333.281 36.8987 332.449 40.0987 330.785 42.872C329.164 45.6453 326.945 47.8 324.129 49.336C321.356 50.8293 318.241 51.576 314.785 51.576ZM314.785 43.768C316.406 43.768 317.921 43.384 319.329 42.616C320.78 41.8053 321.932 40.6107 322.785 39.032C323.638 37.4533 324.065 35.5333 324.065 33.272C324.065 29.9013 323.169 27.32 321.377 25.528C319.628 23.6933 317.473 22.776 314.913 22.776C312.353 22.776 310.198 23.6933 308.449 25.528C306.742 27.32 305.889 29.9013 305.889 33.272C305.889 36.6427 306.721 39.2453 308.385 41.08C310.092 42.872 312.225 43.768 314.785 43.768ZM359.502 15.032C363.726 15.032 367.139 16.376 369.742 19.064C372.344 21.7093 373.646 25.4213 373.646 30.2V51H364.686V31.416C364.686 28.6 363.982 26.4453 362.574 24.952C361.166 23.416 359.246 22.648 356.814 22.648C354.339 22.648 352.376 23.416 350.926 24.952C349.518 26.4453 348.814 28.6 348.814 31.416V51H339.854V15.544H348.814V19.96C350.008 18.424 351.523 17.2293 353.358 16.376C355.235 15.48 357.283 15.032 359.502 15.032Z" fill="white"/>
<path d="M11.632 48.504L12.1213 47.6319L11.632 48.504ZM3.312 40.376L2.44897 40.8812L2.45171 40.8858L3.312 40.376ZM3.312 16.824L4.1723 17.3338L4.17501 17.3292L3.312 16.824ZM11.632 8.632L11.1428 7.75985H11.1427L11.632 8.632ZM34.672 8.632L34.1782 9.50157L34.1828 9.50414L34.672 8.632ZM42.928 16.824L42.0604 17.3213L42.064 17.3276L42.0677 17.3338L42.928 16.824ZM42.928 40.376L42.065 39.8708L42.0631 39.8741L42.928 40.376ZM34.672 48.504L34.1828 47.6319L34.672 48.504ZM30.256 41.656L30.7599 42.5198L30.7665 42.5159L30.7731 42.5119L30.256 41.656ZM35.056 36.408L35.947 36.8619L35.056 36.408ZM35.056 20.728L34.1649 21.1819L34.1685 21.1888L35.056 20.728ZM30.256 15.544L29.7521 16.4078L29.7521 16.4078L30.256 15.544ZM15.984 15.544L15.4878 14.6757L15.4801 14.6802L15.984 15.544ZM11.184 20.728L12.0715 21.1888L12.075 21.1819L11.184 20.728ZM11.184 36.408L12.075 35.9541L11.184 36.408ZM15.984 41.656L15.4669 42.5119L15.4773 42.5182L15.4879 42.5242L15.984 41.656ZM23.152 50.448C19.1345 50.448 15.464 49.5071 12.1213 47.6319L11.1427 49.3761C14.7973 51.4263 18.8069 52.448 23.152 52.448V50.448ZM12.1213 47.6319C8.77621 45.7554 6.13076 43.1711 4.17229 39.8662L2.45171 40.8858C4.58924 44.4929 7.49046 47.3273 11.1427 49.3761L12.1213 47.6319ZM4.17501 39.8708C2.22419 36.5382 1.24 32.7685 1.24 28.536H-0.76C-0.76 33.0928 0.303805 37.2165 2.44899 40.8812L4.17501 39.8708ZM1.24 28.536C1.24 24.3479 2.22332 20.6227 4.17229 17.3338L2.45171 16.3142C0.304685 19.9373 -0.76 24.0201 -0.76 28.536H1.24ZM4.17501 17.3292C6.13424 13.9822 8.77928 11.3789 12.1213 9.50414L11.1427 7.75985C7.48739 9.81042 4.58576 12.6685 2.44899 16.3188L4.17501 17.3292ZM12.1213 9.50414C15.464 7.62892 19.1345 6.688 23.152 6.688V4.688C18.8069 4.688 14.7973 5.70975 11.1428 7.75985L12.1213 9.50414ZM23.152 6.688C27.2141 6.688 30.8822 7.62978 34.1782 9.50156L35.1658 7.76243C31.5498 5.70889 27.5379 4.688 23.152 4.688V6.688ZM34.1828 9.50414C37.5229 11.3779 40.1445 13.9786 42.0604 17.3213L43.7956 16.3267C41.7009 12.6721 38.8185 9.81146 35.1613 7.75985L34.1828 9.50414ZM42.0677 17.3338C44.0167 20.6227 45 24.3479 45 28.536H47C47 24.0201 45.9353 19.9373 43.7883 16.3142L42.0677 17.3338ZM45 28.536C45 32.7685 44.0158 36.5382 42.065 39.8708L43.791 40.8812C45.9362 37.2165 47 33.0928 47 28.536H45ZM42.0631 39.8741C40.1479 43.1747 37.526 45.7564 34.1828 47.6319L35.1613 49.3761C38.8154 47.3263 41.6974 44.4893 43.7929 40.8779L42.0631 39.8741ZM34.1828 47.6319C30.84 49.5071 27.1695 50.448 23.152 50.448V52.448C27.4971 52.448 31.5067 51.4263 35.1613 49.3761L34.1828 47.6319ZM23.152 44.448C25.9929 44.448 28.5394 43.8151 30.7599 42.5198L29.7521 40.7922C27.8766 41.8863 25.6871 42.448 23.152 42.448V44.448ZM30.7731 42.5119C32.9906 41.1722 34.7157 39.279 35.947 36.8619L34.165 35.9541C33.0923 38.0597 31.6174 39.6652 29.7389 40.8001L30.7731 42.5119ZM35.947 36.8619C37.1823 34.4371 37.784 31.6526 37.784 28.536H35.784C35.784 31.3927 35.2337 33.8562 34.165 35.9541L35.947 36.8619ZM37.784 28.536C37.784 25.42 37.1825 22.6534 35.9435 20.2672L34.1685 21.1888C35.2335 23.2399 35.784 25.6787 35.784 28.536H37.784ZM35.947 20.2741C34.7144 17.8544 32.9854 15.9784 30.7599 14.6802L29.7521 16.4078C31.6227 17.4989 33.0936 19.0789 34.165 21.1819L35.947 20.2741ZM30.7599 14.6802C28.5394 13.3849 25.9929 12.752 23.152 12.752V14.752C25.6871 14.752 27.8766 15.3137 29.7521 16.4078L30.7599 14.6802ZM23.152 12.752C20.3107 12.752 17.7466 13.385 15.4879 14.6758L16.4801 16.4122C18.4027 15.3136 20.6173 14.752 23.152 14.752V12.752ZM15.4801 14.6802C13.2546 15.9784 11.5256 17.8544 10.293 20.2741L12.075 21.1819C13.1464 19.0789 14.6174 17.4989 16.4879 16.4078L15.4801 14.6802ZM10.2965 20.2672C9.0575 22.6534 8.456 25.42 8.456 28.536H10.456C10.456 25.6787 11.0065 23.2399 12.0715 21.1888L10.2965 20.2672ZM8.456 28.536C8.456 31.6526 9.0577 34.4371 10.293 36.8619L12.075 35.9541C11.0063 33.8562 10.456 31.3927 10.456 28.536H8.456ZM10.293 36.8619C11.5243 39.279 13.2494 41.1722 15.4669 42.5119L16.5011 40.8001C14.6226 39.6652 13.1477 38.0597 12.075 35.9541L10.293 36.8619ZM15.4879 42.5242C17.7466 43.815 20.3107 44.448 23.152 44.448V42.448C20.6173 42.448 18.4027 41.8864 16.4801 40.7878L15.4879 42.5242ZM86.138 15.544H87.138V14.544H86.138V15.544ZM86.138 51V52H87.138V51H86.138ZM77.114 51H76.114V52H77.114V51ZM77.114 46.52H78.114V43.52L76.314 45.92L77.114 46.52ZM72.57 50.168L72.9918 51.0748L73.0007 51.0705L72.57 50.168ZM59.194 49.72L58.7054 50.5925L58.7121 50.5963L58.7189 50.5999L59.194 49.72ZM54.138 44.536L53.2502 44.9963L53.2554 45.0062L53.2607 45.016L54.138 44.536ZM52.346 15.544V14.544H51.346V15.544H52.346ZM61.306 15.544H62.306V14.544H61.306V15.544ZM63.418 41.592L62.6808 42.2678L62.6904 42.278L63.418 41.592ZM75.002 41.592L75.7297 42.2781L75.7392 42.2677L75.002 41.592ZM77.114 15.544V14.544H76.114V15.544H77.114ZM85.138 15.544V51H87.138V15.544H85.138ZM86.138 50H77.114V52H86.138V50ZM78.114 51V46.52H76.114V51H78.114ZM76.314 45.92C75.2668 47.3162 73.8833 48.4331 72.1393 49.2655L73.0007 51.0705C75.0113 50.1109 76.6572 48.7958 77.914 47.12L76.314 45.92ZM72.1483 49.2613C70.4555 50.0486 68.5955 50.448 66.554 50.448V52.448C68.8645 52.448 71.0152 51.994 72.9917 51.0747L72.1483 49.2613ZM66.554 50.448C63.9225 50.448 61.6367 49.9026 59.6691 48.8401L58.7189 50.5999C61.018 51.8414 63.6389 52.448 66.554 52.448V50.448ZM59.6826 48.8475C57.7222 47.7496 56.1676 46.162 55.0153 44.056L53.2607 45.016C54.5831 47.4327 56.3992 49.301 58.7054 50.5925L59.6826 48.8475ZM55.0258 44.0757C53.9191 41.9415 53.346 39.3754 53.346 36.344H51.346C51.346 39.6273 51.9675 42.5225 53.2502 44.9963L55.0258 44.0757ZM53.346 36.344V15.544H51.346V36.344H53.346ZM52.346 16.544H61.306V14.544H52.346V16.544ZM60.306 15.544V35.064H62.306V15.544H60.306ZM60.306 35.064C60.306 38.041 61.0519 40.4907 62.6808 42.2677L64.1552 40.9163C62.9681 39.6213 62.306 37.719 62.306 35.064H60.306ZM62.6904 42.278C64.3222 44.0087 66.5258 44.832 69.178 44.832V42.832C66.9662 42.832 65.3298 42.162 64.1456 40.906L62.6904 42.278ZM69.178 44.832C71.867 44.832 74.0945 44.0122 75.7296 42.278L74.2744 40.906C73.0936 42.1584 71.4384 42.832 69.178 42.832V44.832ZM75.7392 42.2677C77.3681 40.4907 78.114 38.041 78.114 35.064H76.114C76.114 37.719 75.4519 39.6213 74.2648 40.9163L75.7392 42.2677ZM78.114 35.064V15.544H76.114V35.064H78.114ZM77.114 16.544H86.138V14.544H77.114V16.544ZM103.938 21.048H102.938V24.5896L104.791 21.571L103.938 21.048ZM108.419 16.632L107.924 15.7625L107.916 15.7675L108.419 16.632ZM114.818 15.032H115.818V14.032H114.818V15.032ZM114.818 24.44V25.44H115.818V24.44H114.818ZM106.05 26.424L105.377 25.685L105.371 25.6901L105.366 25.6952L106.05 26.424ZM103.938 51V52H104.938V51H103.938ZM94.9785 51H93.9785V52H94.9785V51ZM94.9785 15.544V14.544H93.9785V15.544H94.9785ZM103.938 15.544H104.938V14.544H103.938V15.544ZM104.791 21.571C105.86 19.8291 107.235 18.4768 108.921 17.4965L107.916 15.7675C105.933 16.9205 104.321 18.5122 103.086 20.525L104.791 21.571ZM108.913 17.5015C110.624 16.5292 112.583 16.032 114.818 16.032V14.032C112.275 14.032 109.968 14.6014 107.924 15.7625L108.913 17.5015ZM113.818 15.032V24.44H115.818V15.032H113.818ZM114.818 23.44H112.451V25.44H114.818V23.44ZM112.451 23.44C109.493 23.44 107.078 24.1339 105.377 25.685L106.724 27.163C107.924 26.0688 109.776 25.44 112.451 25.44V23.44ZM105.366 25.6952C103.654 27.3034 102.938 29.9576 102.938 33.336H104.938C104.938 30.1437 105.631 28.1899 106.735 27.1528L105.366 25.6952ZM102.938 33.336V51H104.938V33.336H102.938ZM103.938 50H94.9785V52H103.938V50ZM95.9785 51V15.544H93.9785V51H95.9785ZM94.9785 16.544H103.938V14.544H94.9785V16.544ZM102.938 15.544V21.048H104.938V15.544H102.938ZM184.807 6.328H185.807V5.328H184.807V6.328ZM184.807 51V52H185.807V51H184.807ZM175.848 51H174.848V52H175.848V51ZM175.848 21.944H176.848L174.923 21.5631L175.848 21.944ZM163.88 51V52H164.549L164.804 51.3809L163.88 51ZM157.096 51L156.172 51.3826L156.427 52H157.096V51ZM145.064 21.944L145.987 21.5614L144.064 21.944H145.064ZM145.064 51V52H146.064V51H145.064ZM136.104 51H135.104V52H136.104V51ZM136.104 6.328V5.328H135.104V6.328H136.104ZM146.279 6.328L147.199 5.93472L146.939 5.328H146.279V6.328ZM160.488 39.544L159.568 39.9373L160.488 42.0867L161.407 39.9373L160.488 39.544ZM174.695 6.328V5.328H174.036L173.776 5.93472L174.695 6.328ZM183.807 6.328V51H185.807V6.328H183.807ZM184.807 50H175.848V52H184.807V50ZM176.848 51V21.944H174.848V51H176.848ZM174.923 21.5631L162.955 50.6191L164.804 51.3809L176.772 22.3249L174.923 21.5631ZM163.88 50H157.096V52H163.88V50ZM158.019 50.6174L145.987 21.5614L144.14 22.3266L156.172 51.3826L158.019 50.6174ZM144.064 21.944V51H146.064V21.944H144.064ZM145.064 50H136.104V52H145.064V50ZM137.104 51V6.328H135.104V51H137.104ZM136.104 7.328H146.279V5.328H136.104V7.328ZM145.36 6.72128L159.568 39.9373L161.407 39.1507L147.199 5.93472L145.36 6.72128ZM161.407 39.9373L175.615 6.72128L173.776 5.93472L159.568 39.1507L161.407 39.9373ZM174.695 7.328H184.807V5.328H174.695V7.328ZM194.242 9.848L193.535 10.5551L193.55 10.5698L193.565 10.5839L194.242 9.848ZM194.242 2.36L194.934 3.08199L194.935 3.08138L194.242 2.36ZM202.114 2.36L201.407 3.0671L201.422 3.08183L201.437 3.09593L202.114 2.36ZM202.114 9.848L202.806 10.57L202.807 10.5694L202.114 9.848ZM202.626 15.544H203.626V14.544H202.626V15.544ZM202.626 51V52H203.626V51H202.626ZM193.666 51H192.666V52H193.666V51ZM193.666 15.544V14.544H192.666V15.544H193.666ZM198.21 10.32C196.858 10.32 195.784 9.9078 194.919 9.11207L193.565 10.5839C194.833 11.7509 196.405 12.32 198.21 12.32V10.32ZM194.949 9.14089C194.119 8.31087 193.706 7.30937 193.706 6.072H191.706C191.706 7.82129 192.317 9.33713 193.535 10.5551L194.949 9.14089ZM193.706 6.072C193.706 4.83512 194.118 3.86382 194.934 3.08199L193.55 1.63801C192.318 2.81884 191.706 4.32221 191.706 6.072H193.706ZM194.935 3.08138C195.802 2.24905 196.87 1.824 198.21 1.824V-0.176003C196.392 -0.176003 194.816 0.422945 193.549 1.63861L194.935 3.08138ZM198.21 1.824C199.55 1.824 200.588 2.24847 201.407 3.0671L202.821 1.65289C201.592 0.423523 200.028 -0.176003 198.21 -0.176003V1.824ZM201.437 3.09593C202.291 3.88149 202.714 4.84873 202.714 6.072H204.714C204.714 4.3086 204.071 2.80116 202.791 1.62407L201.437 3.09593ZM202.714 6.072C202.714 7.2961 202.29 8.29329 201.421 9.12661L202.807 10.5694C204.072 9.3547 204.714 7.83456 204.714 6.072H202.714ZM201.422 9.12601C200.606 9.90814 199.563 10.32 198.21 10.32V12.32C200.015 12.32 201.574 11.7505 202.806 10.57L201.422 9.12601ZM201.626 15.544V51H203.626V15.544H201.626ZM202.626 50H193.666V52H202.626V50ZM194.666 51V15.544H192.666V51H194.666ZM193.666 16.544H202.626V14.544H193.666V16.544ZM217.238 50.04L216.818 50.9475L216.825 50.9507L216.832 50.9538L217.238 50.04ZM211.734 45.752L210.93 46.3459L210.934 46.352L210.939 46.358L211.734 45.752ZM209.559 39.8V38.8H208.498L208.56 39.8587L209.559 39.8ZM218.583 39.8L219.575 39.676L219.465 38.8H218.583V39.8ZM220.566 43.192L219.953 43.9813L219.959 43.9867L219.967 43.992L220.566 43.192ZM228.951 43.512L228.379 42.6911L228.371 42.6971L228.362 42.7033L228.951 43.512ZM228.63 38.328L228.17 39.2158L228.19 39.2258L228.209 39.235L228.63 38.328ZM223.062 36.408L223.32 35.4418L223.309 35.4388L223.298 35.436L223.062 36.408ZM216.535 34.424L216.155 35.3492L216.163 35.3525L216.535 34.424ZM212.182 31.288L211.42 31.935L211.426 31.9416L211.431 31.9481L212.182 31.288ZM212.055 20.216L211.239 19.6368L211.234 19.644L211.229 19.6513L212.055 20.216ZM216.919 16.376L216.516 15.4607L216.509 15.4637L216.919 16.376ZM234.518 18.168L233.872 18.9309L233.88 18.9373L234.518 18.168ZM238.678 26.68V27.68H239.752L239.676 26.6088L238.678 26.68ZM230.103 26.68L229.107 26.7705L229.189 27.68H230.103V26.68ZM228.311 23.352L227.67 24.1202L227.688 24.1346L227.705 24.1482L228.311 23.352ZM220.374 22.968L219.82 22.1359L219.81 22.1423L219.801 22.1488L220.374 22.968ZM220.887 28.216L220.414 29.0975L220.427 29.1041L220.439 29.1104L220.887 28.216ZM226.454 30.072L226.208 31.0412L226.212 31.0421L226.454 30.072ZM237.079 35.256L236.307 35.8917L236.317 35.9041L236.327 35.9161L237.079 35.256ZM238.999 40.888H239.999V40.8789L239.998 40.8698L238.999 40.888ZM237.271 46.392L236.455 45.8128L236.45 45.82L236.445 45.8273L237.271 46.392ZM232.406 50.232L232.8 51.1512L232.809 51.1473L232.406 50.232ZM225.047 50.576C222.264 50.576 219.803 50.0854 217.645 49.1262L216.832 50.9538C219.282 52.0426 222.026 52.576 225.047 52.576V50.576ZM217.659 49.1325C215.483 48.1255 213.785 46.7927 212.53 45.146L210.939 46.358C212.415 48.2953 214.386 49.8212 216.818 50.9475L217.659 49.1325ZM212.539 45.1581C211.329 43.5184 210.673 41.7195 210.557 39.7413L208.56 39.8587C208.7 42.2325 209.495 44.4016 210.93 46.3459L212.539 45.1581ZM209.559 40.8H218.583V38.8H209.559V40.8ZM217.59 39.924C217.796 41.5697 218.605 42.9335 219.953 43.9813L221.18 42.4026C220.224 41.6585 219.71 40.7609 219.575 39.676L217.59 39.924ZM219.967 43.992C221.363 45.0391 223.055 45.536 224.982 45.536V43.536C223.411 43.536 222.16 43.1369 221.167 42.392L219.967 43.992ZM224.982 45.536C226.806 45.536 228.366 45.1738 229.539 44.3207L228.362 42.7033C227.658 43.2155 226.573 43.536 224.982 43.536V45.536ZM229.522 44.3329C230.734 43.4896 231.423 42.3255 231.423 40.888H229.423C229.423 41.5839 229.13 42.1691 228.379 42.6911L229.522 44.3329ZM231.423 40.888C231.423 40.1296 231.222 39.423 230.794 38.8105C230.371 38.2061 229.767 37.7532 229.052 37.421L228.209 39.235C228.689 39.4575 228.981 39.7085 229.155 39.9575C229.324 40.1983 229.423 40.4944 229.423 40.888H231.423ZM229.091 37.4402C227.837 36.7903 225.894 36.128 223.32 35.4418L222.805 37.3742C225.351 38.0533 227.12 38.671 228.17 39.2158L229.091 37.4402ZM223.298 35.436C220.679 34.8025 218.553 34.1542 216.906 33.4955L216.163 35.3525C217.93 36.0591 220.155 36.7335 222.827 37.38L223.298 35.436ZM216.914 33.4988C215.399 32.8772 214.074 31.9251 212.934 30.6279L211.431 31.9481C212.766 33.4669 214.342 34.6055 216.155 35.3492L216.914 33.4988ZM212.945 30.641C211.944 29.4614 211.391 27.8154 211.391 25.592H209.391C209.391 28.1473 210.032 30.2986 211.42 31.935L212.945 30.641ZM211.391 25.592C211.391 23.8311 211.884 22.2359 212.88 20.7807L211.229 19.6513C210.006 21.4388 209.391 23.4276 209.391 25.592H211.391ZM212.87 20.7952C213.904 19.3399 215.375 18.1653 217.328 17.2883L216.509 15.4637C214.281 16.4641 212.509 17.8494 211.239 19.6368L212.87 20.7952ZM217.321 17.2913C219.302 16.4196 221.656 15.968 224.406 15.968V13.968C221.44 13.968 218.801 14.455 216.516 15.4607L217.321 17.2913ZM224.406 15.968C228.462 15.968 231.581 16.9894 233.872 18.9309L235.165 17.4051C232.421 15.0799 228.799 13.968 224.406 13.968V15.968ZM233.88 18.9373C236.166 20.8358 237.442 23.4096 237.681 26.7512L239.676 26.6088C239.403 22.7824 237.906 19.6815 235.157 17.3987L233.88 18.9373ZM238.678 25.68H230.103V27.68H238.678V25.68ZM231.098 26.5895C230.947 24.9192 230.219 23.5467 228.916 22.5558L227.705 24.1482C228.535 24.7786 229.002 25.6248 229.107 26.7705L231.098 26.5895ZM228.951 22.5838C227.697 21.5393 226.06 21.072 224.15 21.072V23.072C225.74 23.072 226.876 23.458 227.67 24.1202L228.951 22.5838ZM224.15 21.072C222.425 21.072 220.944 21.3867 219.82 22.1359L220.929 23.8C221.597 23.3546 222.633 23.072 224.15 23.072V21.072ZM219.801 22.1488C218.673 22.9385 218.094 24.0804 218.094 25.464H220.094C220.094 24.7143 220.37 24.1921 220.948 23.7872L219.801 22.1488ZM218.094 25.464C218.094 26.2366 218.29 26.9579 218.704 27.5937C219.114 28.223 219.704 28.7167 220.414 29.0975L221.359 27.3345C220.875 27.0753 220.568 26.7903 220.38 26.5023C220.197 26.2208 220.094 25.886 220.094 25.464H218.094ZM220.439 29.1104C221.733 29.7572 223.673 30.3968 226.208 31.0412L226.701 29.1028C224.201 28.4672 222.43 27.8695 221.334 27.3216L220.439 29.1104ZM226.212 31.0421C228.745 31.6753 230.807 32.3231 232.411 32.9812L233.17 31.1308C231.446 30.4236 229.284 29.7487 226.697 29.1019L226.212 31.0421ZM232.411 32.9812C233.915 33.5984 235.212 34.5625 236.307 35.8917L237.85 34.6203C236.556 33.0482 234.994 31.879 233.17 31.1308L232.411 32.9812ZM236.327 35.9161C237.372 37.105 237.959 38.7347 237.999 40.9062L239.998 40.8698C239.952 38.348 239.26 36.223 237.83 34.5959L236.327 35.9161ZM237.999 40.888C237.999 42.735 237.483 44.366 236.455 45.8128L238.086 46.9712C239.362 45.1754 239.999 43.137 239.999 40.888H237.999ZM236.445 45.8273C235.459 47.268 233.998 48.439 232.004 49.3167L232.809 51.1473C235.081 50.1477 236.863 48.7587 238.096 46.9567L236.445 45.8273ZM232.013 49.3129C230.072 50.1444 227.758 50.576 225.047 50.576V52.576C227.967 52.576 230.559 52.1116 232.8 51.1511L232.013 49.3129ZM252.113 50.04L251.693 50.9475L251.7 50.9507L251.707 50.9538L252.113 50.04ZM246.609 45.752L245.805 46.3459L245.809 46.352L245.814 46.358L246.609 45.752ZM244.434 39.8V38.8H243.373L243.435 39.8587L244.434 39.8ZM253.458 39.8L254.45 39.676L254.34 38.8H253.458V39.8ZM255.441 43.192L254.828 43.9813L254.834 43.9867L254.841 43.992L255.441 43.192ZM263.826 43.512L263.254 42.6911L263.246 42.6971L263.237 42.7033L263.826 43.512ZM263.505 38.328L263.045 39.2158L263.065 39.2258L263.084 39.235L263.505 38.328ZM257.938 36.408L258.195 35.4418L258.184 35.4388L258.173 35.436L257.938 36.408ZM251.41 34.424L251.03 35.3492L251.038 35.3525L251.41 34.424ZM247.057 31.288L246.295 31.935L246.301 31.9416L246.306 31.9481L247.057 31.288ZM246.93 20.216L246.114 19.6368L246.109 19.644L246.104 19.6513L246.93 20.216ZM251.794 16.376L251.391 15.4607L251.384 15.4637L251.794 16.376ZM269.393 18.168L268.747 18.9309L268.755 18.9373L269.393 18.168ZM273.553 26.68V27.68H274.627L274.551 26.6088L273.553 26.68ZM264.978 26.68L263.982 26.7705L264.064 27.68H264.978V26.68ZM263.185 23.352L262.545 24.1202L262.563 24.1346L262.58 24.1482L263.185 23.352ZM255.25 22.968L254.695 22.1359L254.685 22.1423L254.676 22.1488L255.25 22.968ZM255.762 28.216L255.289 29.0975L255.302 29.1041L255.314 29.1104L255.762 28.216ZM261.329 30.072L261.083 31.0412L261.087 31.0421L261.329 30.072ZM271.953 35.256L271.182 35.8917L271.192 35.9041L271.202 35.9161L271.953 35.256ZM273.874 40.888H274.874V40.8789L274.873 40.8698L273.874 40.888ZM272.146 46.392L271.33 45.8128L271.325 45.82L271.32 45.8273L272.146 46.392ZM267.281 50.232L267.675 51.1512L267.684 51.1473L267.281 50.232ZM259.922 50.576C257.139 50.576 254.678 50.0854 252.52 49.1262L251.707 50.9538C254.157 52.0426 256.901 52.576 259.922 52.576V50.576ZM252.534 49.1325C250.358 48.1255 248.66 46.7927 247.405 45.146L245.814 46.358C247.29 48.2953 249.261 49.8212 251.693 50.9475L252.534 49.1325ZM247.414 45.1581C246.204 43.5184 245.548 41.7195 245.432 39.7413L243.435 39.8587C243.575 42.2325 244.37 44.4016 245.805 46.3459L247.414 45.1581ZM244.434 40.8H253.458V38.8H244.434V40.8ZM252.465 39.924C252.671 41.5697 253.48 42.9335 254.828 43.9813L256.055 42.4026C255.099 41.6585 254.585 40.7609 254.45 39.676L252.465 39.924ZM254.841 43.992C256.238 45.0391 257.93 45.536 259.858 45.536V43.536C258.286 43.536 257.035 43.1369 256.042 42.392L254.841 43.992ZM259.858 45.536C261.681 45.536 263.241 45.1738 264.414 44.3207L263.237 42.7033C262.533 43.2155 261.448 43.536 259.858 43.536V45.536ZM264.397 44.3329C265.609 43.4896 266.297 42.3255 266.297 40.888H264.297C264.297 41.5839 264.005 42.1691 263.254 42.6911L264.397 44.3329ZM266.297 40.888C266.297 40.1296 266.097 39.423 265.669 38.8105C265.246 38.2061 264.642 37.7532 263.927 37.421L263.084 39.235C263.564 39.4575 263.856 39.7085 264.03 39.9575C264.199 40.1983 264.297 40.4944 264.297 40.888H266.297ZM263.966 37.4402C262.712 36.7903 260.769 36.128 258.195 35.4418L257.68 37.3742C260.226 38.0533 261.995 38.671 263.045 39.2158L263.966 37.4402ZM258.173 35.436C255.554 34.8025 253.428 34.1542 251.781 33.4955L251.038 35.3525C252.805 36.0591 255.03 36.7335 257.702 37.38L258.173 35.436ZM251.789 33.4988C250.274 32.8772 248.949 31.9251 247.809 30.6279L246.306 31.9481C247.641 33.4669 249.217 34.6055 251.03 35.3492L251.789 33.4988ZM247.82 30.641C246.819 29.4614 246.266 27.8154 246.266 25.592H244.266C244.266 28.1473 244.907 30.2986 246.295 31.935L247.82 30.641ZM246.266 25.592C246.266 23.8311 246.759 22.2359 247.755 20.7807L246.104 19.6513C244.881 21.4388 244.266 23.4276 244.266 25.592H246.266ZM247.745 20.7952C248.779 19.3399 250.25 18.1653 252.203 17.2883L251.384 15.4637C249.156 16.4641 247.384 17.8494 246.114 19.6368L247.745 20.7952ZM252.196 17.2913C254.177 16.4196 256.531 15.968 259.281 15.968V13.968C256.315 13.968 253.676 14.455 251.391 15.4607L252.196 17.2913ZM259.281 15.968C263.337 15.968 266.456 16.9894 268.747 18.9309L270.04 17.4051C267.296 15.0799 263.674 13.968 259.281 13.968V15.968ZM268.755 18.9373C271.041 20.8358 272.317 23.4096 272.556 26.7512L274.551 26.6088C274.278 22.7824 272.781 19.6815 270.032 17.3987L268.755 18.9373ZM273.553 25.68H264.978V27.68H273.553V25.68ZM265.973 26.5895C265.822 24.9192 265.094 23.5467 263.791 22.5558L262.58 24.1482C263.41 24.7786 263.877 25.6248 263.982 26.7705L265.973 26.5895ZM263.826 22.5838C262.572 21.5393 260.935 21.072 259.026 21.072V23.072C260.615 23.072 261.751 23.458 262.545 24.1202L263.826 22.5838ZM259.026 21.072C257.3 21.072 255.819 21.3867 254.695 22.1359L255.804 23.8C256.472 23.3546 257.508 23.072 259.026 23.072V21.072ZM254.676 22.1488C253.548 22.9385 252.969 24.0804 252.969 25.464H254.97C254.97 24.7143 255.245 24.1921 255.823 23.7872L254.676 22.1488ZM252.969 25.464C252.969 26.2366 253.165 26.9579 253.579 27.5937C253.989 28.223 254.579 28.7167 255.289 29.0975L256.234 27.3345C255.75 27.0753 255.443 26.7903 255.255 26.5023C255.072 26.2208 254.97 25.886 254.97 25.464H252.969ZM255.314 29.1104C256.608 29.7572 258.548 30.3968 261.083 31.0412L261.576 29.1028C259.076 28.4672 257.305 27.8695 256.209 27.3216L255.314 29.1104ZM261.087 31.0421C263.62 31.6753 265.682 32.3231 267.286 32.9812L268.045 31.1308C266.321 30.4236 264.159 29.7487 261.572 29.1019L261.087 31.0421ZM267.286 32.9812C268.79 33.5984 270.087 34.5625 271.182 35.8917L272.725 34.6203C271.431 33.0482 269.869 31.879 268.045 31.1308L267.286 32.9812ZM271.202 35.9161C272.247 37.105 272.834 38.7347 272.874 40.9062L274.873 40.8698C274.827 38.348 274.135 36.223 272.705 34.5959L271.202 35.9161ZM272.874 40.888C272.874 42.735 272.358 44.366 271.33 45.8128L272.961 46.9712C274.237 45.1754 274.874 43.137 274.874 40.888H272.874ZM271.32 45.8273C270.334 47.268 268.873 48.439 266.879 49.3167L267.684 51.1473C269.956 50.1477 271.738 48.7587 272.971 46.9567L271.32 45.8273ZM266.888 49.3129C264.947 50.1444 262.633 50.576 259.922 50.576V52.576C262.842 52.576 265.434 52.1116 267.675 51.1511L266.888 49.3129ZM281.805 9.848L281.097 10.5551L281.112 10.5698L281.127 10.5839L281.805 9.848ZM281.805 2.36L282.496 3.08199L282.497 3.08138L281.805 2.36ZM289.677 2.36L288.969 3.0671L288.984 3.08183L288.999 3.09593L289.677 2.36ZM289.677 9.848L290.368 10.57L290.369 10.5694L289.677 9.848ZM290.189 15.544H291.189V14.544H290.189V15.544ZM290.189 51V52H291.189V51H290.189ZM281.229 51H280.229V52H281.229V51ZM281.229 15.544V14.544H280.229V15.544H281.229ZM285.772 10.32C284.42 10.32 283.346 9.9078 282.482 9.11207L281.127 10.5839C282.396 11.7509 283.967 12.32 285.772 12.32V10.32ZM282.512 9.14089C281.682 8.31087 281.268 7.30937 281.268 6.072H279.268C279.268 7.82129 279.879 9.33713 281.097 10.5551L282.512 9.14089ZM281.268 6.072C281.268 4.83512 281.681 3.86382 282.496 3.08199L281.113 1.63801C279.88 2.81884 279.268 4.32221 279.268 6.072H281.268ZM282.497 3.08138C283.364 2.24905 284.433 1.824 285.772 1.824V-0.176003C283.955 -0.176003 282.378 0.422945 281.112 1.63861L282.497 3.08138ZM285.772 1.824C287.112 1.824 288.151 2.24847 288.969 3.0671L290.384 1.65289C289.154 0.423523 287.59 -0.176003 285.772 -0.176003V1.824ZM288.999 3.09593C289.853 3.88149 290.276 4.84873 290.276 6.072H292.276C292.276 4.3086 291.633 2.80116 290.354 1.62407L288.999 3.09593ZM290.276 6.072C290.276 7.2961 289.852 8.29329 288.984 9.12661L290.369 10.5694C291.634 9.3547 292.276 7.83456 292.276 6.072H290.276ZM288.985 9.12601C288.168 9.90814 287.125 10.32 285.772 10.32V12.32C287.577 12.32 289.137 11.7505 290.368 10.57L288.985 9.12601ZM289.189 15.544V51H291.189V15.544H289.189ZM290.189 50H281.229V52H290.189V50ZM282.229 51V15.544H280.229V51H282.229ZM281.229 16.544H290.189V14.544H281.229V16.544ZM305.569 49.336L305.079 50.2076L305.089 50.2134L305.569 49.336ZM299.105 42.872L298.23 43.3565L298.236 43.3667L299.105 42.872ZM299.169 23.672L298.306 23.1673L298.3 23.1773L299.169 23.672ZM305.761 17.272L306.235 18.1525L306.246 18.1468L305.761 17.272ZM324.321 17.272L323.836 18.1469L323.847 18.1525L324.321 17.272ZM330.849 23.672L329.98 24.1667L329.986 24.1767L330.849 23.672ZM330.785 42.872L329.927 42.3575L329.922 42.3673L330.785 42.872ZM324.129 49.336L324.603 50.2165L324.608 50.2139L324.129 49.336ZM319.329 42.616L319.808 43.4939L319.817 43.4889L319.329 42.616ZM322.785 39.032L323.665 39.5075L322.785 39.032ZM321.377 25.528L320.653 26.2181L320.661 26.2267L320.67 26.2351L321.377 25.528ZM308.449 25.528L307.725 24.8379L307.725 24.8383L308.449 25.528ZM308.385 41.08L307.644 41.7518L307.652 41.7608L307.661 41.7697L308.385 41.08ZM314.785 50.576C311.523 50.576 308.618 49.8639 306.049 48.4586L305.089 50.2134C307.981 51.7948 311.221 52.576 314.785 52.576V50.576ZM306.059 48.4644C303.49 47.0191 301.465 44.9961 299.974 42.3773L298.236 43.3667C299.903 46.2946 302.187 48.5809 305.079 50.2076L306.059 48.4644ZM299.98 42.3875C298.537 39.7826 297.801 36.7539 297.801 33.272H295.801C295.801 37.0435 296.601 40.4147 298.23 43.3565L299.98 42.3875ZM297.801 33.272C297.801 29.7947 298.556 26.7697 300.038 24.1667L298.3 23.1773C296.624 26.121 295.801 29.4959 295.801 33.272H297.801ZM300.032 24.1767C301.563 21.5587 303.627 19.5569 306.235 18.1525L305.287 16.3915C302.348 17.9738 300.018 20.2387 298.306 23.1673L300.032 24.1767ZM306.246 18.1468C308.859 16.6992 311.784 15.968 315.041 15.968V13.968C311.472 13.968 308.209 14.7728 305.276 16.3972L306.246 18.1468ZM315.041 15.968C318.298 15.968 321.223 16.6992 323.836 18.1468L324.806 16.3972C321.873 14.7728 318.61 13.968 315.041 13.968V15.968ZM323.847 18.1525C326.453 19.5556 328.493 21.5542 329.98 24.1667L331.718 23.1773C330.048 20.2431 327.736 17.9751 324.795 16.3915L323.847 18.1525ZM329.986 24.1767C331.506 26.7779 332.281 29.7994 332.281 33.272H334.281C334.281 29.4913 333.434 26.1127 331.712 23.1673L329.986 24.1767ZM332.281 33.272C332.281 36.74 331.487 39.7578 329.928 42.3575L331.642 43.3865C333.411 40.4395 334.281 37.0574 334.281 33.272H332.281ZM329.922 42.3673C328.392 44.9838 326.306 47.0094 323.65 48.4581L324.608 50.2139C327.584 48.5906 329.935 46.3068 331.648 43.3767L329.922 42.3673ZM323.655 48.4555C321.041 49.863 318.092 50.576 314.785 50.576V52.576C318.39 52.576 321.67 51.7957 324.603 50.2165L323.655 48.4555ZM314.785 44.768C316.572 44.768 318.251 44.3429 319.808 43.4939L318.85 41.7381C317.591 42.4251 316.241 42.768 314.785 42.768V44.768ZM319.817 43.4889C321.446 42.5783 322.729 41.2393 323.665 39.5075L321.905 38.5565C321.135 39.9821 320.113 41.0324 318.841 41.7431L319.817 43.4889ZM323.665 39.5075C324.615 37.7496 325.065 35.657 325.065 33.272H323.065C323.065 35.4096 322.662 37.1571 321.905 38.5565L323.665 39.5075ZM325.065 33.272C325.065 29.7266 324.119 26.856 322.084 24.8209L320.67 26.2351C322.219 27.784 323.065 30.076 323.065 33.272H325.065ZM322.101 24.8379C320.161 22.8031 317.743 21.776 314.913 21.776V23.776C317.203 23.776 319.095 24.5835 320.653 26.2181L322.101 24.8379ZM314.913 21.776C312.083 21.776 309.665 22.8031 307.725 24.8379L309.173 26.2181C310.731 24.5835 312.623 23.776 314.913 23.776V21.776ZM307.725 24.8383C305.785 26.8751 304.889 29.7392 304.889 33.272H306.889C306.889 30.0635 307.7 27.7649 309.173 26.2177L307.725 24.8383ZM304.889 33.272C304.889 36.8004 305.761 39.6756 307.644 41.7518L309.126 40.4082C307.681 38.8151 306.889 36.4849 306.889 33.272H304.889ZM307.661 41.7697C309.563 43.7674 311.962 44.768 314.785 44.768V42.768C312.488 42.768 310.62 41.9766 309.109 40.3903L307.661 41.7697ZM369.742 19.064L369.023 19.7596L369.029 19.7653L369.742 19.064ZM373.646 51V52H374.646V51H373.646ZM364.685 51H363.685V52H364.685V51ZM362.573 24.952L361.836 25.6278L361.846 25.638L362.573 24.952ZM350.926 24.952L350.198 24.2654L350.198 24.266L350.926 24.952ZM348.814 51V52H349.814V51H348.814ZM339.854 51H338.854V52H339.854V51ZM339.854 15.544V14.544H338.854V15.544H339.854ZM348.814 15.544H349.814V14.544H348.814V15.544ZM348.814 19.96H347.814V22.8745L349.603 20.5739L348.814 19.96ZM353.358 16.376L353.779 17.2828L353.788 17.2785L353.358 16.376ZM359.501 16.032C363.493 16.032 366.634 17.292 369.023 19.7596L370.46 18.3684C367.644 15.46 363.958 14.032 359.501 14.032V16.032ZM369.029 19.7653C371.399 22.1741 372.646 25.605 372.646 30.2H374.646C374.646 25.2377 373.29 21.2445 370.454 18.3627L369.029 19.7653ZM372.646 30.2V51H374.646V30.2H372.646ZM373.646 50H364.685V52H373.646V50ZM365.685 51V31.416H363.685V51H365.685ZM365.685 31.416C365.685 28.4411 364.94 26.0047 363.301 24.266L361.846 25.638C363.023 26.886 363.685 28.7589 363.685 31.416H365.685ZM363.311 24.2763C361.681 22.4986 359.475 21.648 356.814 21.648V23.648C359.017 23.648 360.65 24.3334 361.836 25.6277L363.311 24.2763ZM356.814 21.648C354.115 21.648 351.871 22.4949 350.198 24.2654L351.653 25.6386C352.882 24.3371 354.563 23.648 356.814 23.648V21.648ZM350.198 24.266C348.559 26.0047 347.814 28.4411 347.814 31.416H349.814C349.814 28.7589 350.476 26.886 351.653 25.638L350.198 24.266ZM347.814 31.416V51H349.814V31.416H347.814ZM348.814 50H339.854V52H348.814V50ZM340.854 51V15.544H338.854V51H340.854ZM339.854 16.544H348.814V14.544H339.854V16.544ZM347.814 15.544V19.96H349.814V15.544H347.814ZM349.603 20.5739C350.696 19.1684 352.083 18.0718 353.779 17.2827L352.936 15.4693C350.963 16.3869 349.32 17.6796 348.024 19.3461L349.603 20.5739ZM353.788 17.2785C355.522 16.4509 357.422 16.032 359.501 16.032V14.032C357.144 14.032 354.947 14.5091 352.927 15.4735L353.788 17.2785Z" fill="#2B2C32" mask="url(#path-1-outside-1_372_154)"/>
</svg>
