<svg width="449" height="24" viewBox="0 0 449 24" fill="none" xmlns="http://www.w3.org/2000/svg">
<path d="M1.616 4.176C3.344 4.368 5.552 4.464 7.976 4.464C10.28 4.464 12.704 4.32 14.432 4.128V6.096C12.8 6.216 10.184 6.384 7.976 6.384C5.576 6.384 3.512 6.288 1.616 6.12V4.176ZM2.576 13.848C2.288 14.784 2.096 15.672 2.096 16.56C2.096 18.408 3.968 19.656 7.808 19.656C11.096 19.656 14.192 19.296 16.016 18.72L16.04 20.784C14.312 21.24 11.264 21.6 7.856 21.6C2.984 21.6 0.152 20.016 0.152 16.992C0.152 15.744 0.416 14.616 0.632 13.656L2.576 13.848ZM25.616 4.176C27.344 4.368 29.552 4.464 31.976 4.464C34.28 4.464 36.704 4.32 38.432 4.128V6.096C36.8 6.216 34.184 6.384 31.976 6.384C29.576 6.384 27.512 6.288 25.616 6.12V4.176ZM26.576 13.848C26.288 14.784 26.096 15.672 26.096 16.56C26.096 18.408 27.968 19.656 31.808 19.656C35.096 19.656 38.192 19.296 40.016 18.72L40.04 20.784C38.312 21.24 35.264 21.6 31.856 21.6C26.984 21.6 24.152 20.016 24.152 16.992C24.152 15.744 24.416 14.616 24.632 13.656L26.576 13.848ZM49.352 4.272C49.232 4.824 49.16 5.976 49.136 6.6C49.112 8.088 49.136 10.296 49.304 12.264C49.712 16.272 50.864 18.936 52.592 18.936C53.816 18.936 54.944 16.464 55.568 14.064L57.08 15.768C55.616 19.824 54.176 21.216 52.544 21.216C50.264 21.216 48.104 18.96 47.432 12.744C47.216 10.68 47.168 7.752 47.168 6.36C47.168 5.808 47.168 4.776 47.024 4.224L49.352 4.272ZM61.832 4.92C63.992 7.704 65.72 12.816 66.08 16.872L64.136 17.64C63.728 13.32 62.264 8.376 59.984 5.568L61.832 4.92ZM78.152 2.208C77.96 2.856 77.84 3.6 77.696 4.224C77.36 6.144 76.4 10.776 75.584 13.008C77.672 11.544 79.832 10.944 82.328 10.944C86.144 10.944 88.376 12.888 88.376 15.696C88.376 20.712 83.264 22.56 75.968 21.792L75.464 19.872C81.032 20.64 86.408 19.704 86.408 15.744C86.408 13.968 84.944 12.576 82.136 12.576C79.28 12.576 76.616 13.56 75.032 15.456C74.744 15.816 74.528 16.152 74.288 16.56L72.512 15.936C74.336 12.36 75.608 6.408 75.896 4.104C75.992 3.336 76.04 2.76 75.992 2.112L78.152 2.208ZM70.688 5.28C71.96 5.496 73.784 5.664 75.224 5.664C78.296 5.664 83.024 5.304 86.792 4.464L86.84 6.312C83.432 6.912 78.536 7.392 75.248 7.392C73.616 7.392 72.08 7.272 70.712 7.152L70.688 5.28ZM100.976 7.08C102.344 7.224 103.64 7.296 105.056 7.296C107.936 7.296 110.888 7.056 113.312 6.576V8.424C110.768 8.856 107.864 9.048 105.008 9.048C103.64 9.048 102.392 8.976 101 8.88L100.976 7.08ZM109.376 2.784C109.304 3.264 109.256 3.768 109.232 4.224C109.184 5.112 109.16 6.816 109.16 8.232C109.16 11.928 109.52 15.648 109.52 18.144C109.52 20.112 108.608 22.032 105.368 22.032C102.176 22.032 100.4 20.736 100.4 18.576C100.4 16.56 102.176 14.976 105.32 14.976C109.376 14.976 112.184 17.016 114.2 18.84L113.168 20.424C110.624 18.072 108.224 16.44 105.176 16.44C103.376 16.44 102.128 17.232 102.128 18.384C102.128 19.632 103.328 20.28 105.032 20.28C107.072 20.28 107.648 19.248 107.648 17.664C107.648 15.936 107.336 11.424 107.336 8.256C107.336 6.624 107.312 5.088 107.336 4.248C107.336 3.84 107.288 3.216 107.216 2.784H109.376ZM97.544 2.952C97.4 3.36 97.184 4.128 97.112 4.56C96.632 6.792 95.912 11.544 95.912 14.232C95.912 15.408 95.984 16.392 96.176 17.568C96.536 16.488 97.112 15.024 97.544 14.04L98.528 14.808C97.928 16.488 97.04 18.936 96.8 20.112C96.728 20.448 96.68 20.904 96.704 21.192C96.704 21.432 96.752 21.768 96.776 22.032L95.072 22.176C94.616 20.448 94.184 17.808 94.184 14.568C94.184 11.04 94.976 6.456 95.264 4.464C95.36 3.912 95.432 3.288 95.432 2.76L97.544 2.952ZM111.464 1.992C111.896 2.88 112.544 4.368 112.88 5.352L111.656 5.784C111.296 4.728 110.744 3.288 110.264 2.376L111.464 1.992ZM113.864 1.272C114.32 2.16 114.944 3.624 115.304 4.584L114.08 5.016C113.72 3.936 113.168 2.544 112.688 1.656L113.864 1.272ZM129.128 3.192C128.912 3.48 128.624 3.912 128.36 4.368C127.28 6.024 125.072 10.008 123.848 12.336C125 11.304 126.248 10.848 127.4 10.848C129.008 10.848 130.16 11.88 130.232 13.776C130.28 15.192 130.232 17.016 130.328 18.192C130.4 19.392 131.216 19.92 132.248 19.92C134.936 19.92 136.52 16.608 137.12 14.04L138.728 15.336C137.456 19.2 135.44 21.888 131.96 21.888C129.392 21.888 128.552 20.28 128.48 18.864C128.408 17.448 128.432 15.6 128.36 14.28C128.312 13.248 127.688 12.6 126.608 12.6C124.688 12.6 122.864 14.568 121.952 16.464C121.208 17.88 120.2 20.736 119.864 21.912L117.8 21.192C119.552 16.344 124.808 6.504 126.128 4.2C126.392 3.624 126.704 3.048 126.992 2.328L129.128 3.192ZM140.677 5.208C141.589 5.184 142.357 5.136 142.837 5.088C144.373 4.92 148.909 4.488 153.325 4.104C155.965 3.888 158.197 3.744 159.805 3.696L159.829 5.616C158.437 5.592 156.349 5.64 155.125 5.976C151.693 7.08 149.605 10.752 149.605 13.584C149.605 18.264 153.997 19.776 157.885 19.92L157.189 21.888C152.749 21.72 147.709 19.368 147.709 13.992C147.709 10.272 149.989 7.2 152.173 5.904C149.605 6.168 143.485 6.768 140.893 7.32L140.677 5.208ZM156.349 8.544C156.901 9.336 157.813 10.824 158.341 11.904L157.093 12.456C156.541 11.304 155.869 10.08 155.149 9.072L156.349 8.544ZM158.965 7.536C159.565 8.328 160.501 9.792 161.053 10.848L159.829 11.448C159.253 10.296 158.533 9.096 157.789 8.088L158.965 7.536ZM164.029 3.624H173.917V5.256H164.029V3.624ZM168.229 0.887999H169.861V8.352H168.229V0.887999ZM165.877 8.832V12.168H172.237V8.832H165.877ZM164.485 7.392H173.701V13.608H164.485V7.392ZM168.181 12.672L169.357 13.248C168.253 16.056 166.213 19.416 164.269 21.168C164.101 20.688 163.693 19.968 163.429 19.56C165.205 18.072 167.221 15.12 168.181 12.672ZM169.765 13.656C170.533 14.256 173.293 16.8 173.941 17.424L172.837 18.816C172.093 17.76 169.789 15.36 168.853 14.472L169.765 13.656ZM168.325 8.28H169.765V13.008H169.861V22.944H168.229V13.008H168.325V8.28ZM174.109 1.992H185.701V3.576H174.109V1.992ZM176.797 10.968V13.296H183.085V10.968H176.797ZM176.797 14.64V16.992H183.085V14.64H176.797ZM176.797 7.32V9.624H183.085V7.32H176.797ZM175.165 5.904H184.813V18.408H175.165V5.904ZM178.957 2.76L180.901 3.024C180.541 4.416 180.109 5.952 179.749 6.96L178.213 6.648C178.501 5.568 178.813 3.912 178.957 2.76ZM177.277 18.84L178.813 19.752C177.565 21 175.477 22.272 173.677 22.944C173.389 22.632 172.861 22.08 172.477 21.768C174.253 21.096 176.317 19.896 177.277 18.84ZM180.781 19.824L182.125 18.96C183.541 19.848 185.341 21.144 186.229 22.056L184.813 23.016C183.973 22.128 182.197 20.76 180.781 19.824ZM194.917 2.064C194.413 3.84 193.957 7.08 193.813 8.76C194.797 6.288 197.293 3.288 200.341 3.288C203.509 3.288 205.813 6.504 205.813 11.544C205.813 18.192 201.613 21.144 195.685 22.224L194.533 20.496C199.765 19.704 203.821 17.592 203.821 11.568C203.821 7.776 202.549 5.04 200.029 5.04C197.029 5.04 194.245 9.408 193.957 12.552C193.837 13.464 193.837 14.304 194.005 15.504L192.133 15.648C192.013 14.736 191.893 13.392 191.893 11.832C191.893 9.552 192.349 6.024 192.637 4.056C192.733 3.336 192.781 2.664 192.829 1.992L194.917 2.064ZM221.725 4.8C224.341 5.256 229.213 5.16 231.589 4.8V6.744C229.021 7.032 224.365 7.032 221.749 6.744L221.725 4.8ZM222.661 14.592C222.445 15.456 222.325 16.128 222.325 16.776C222.325 17.88 223.093 18.96 226.381 18.96C228.517 18.96 230.389 18.768 232.309 18.312L232.357 20.328C230.869 20.64 228.853 20.832 226.357 20.832C222.349 20.832 220.549 19.488 220.549 17.232C220.549 16.44 220.669 15.576 220.933 14.424L222.661 14.592ZM217.165 2.952C217.021 3.36 216.829 4.128 216.733 4.56C216.277 6.792 215.533 11.064 215.533 13.776C215.533 14.928 215.605 15.936 215.749 17.112C216.157 16.032 216.709 14.592 217.117 13.608L218.125 14.4C217.525 16.104 216.637 18.624 216.421 19.776C216.349 20.112 216.301 20.568 216.301 20.856C216.325 21.096 216.349 21.432 216.373 21.696L214.669 21.816C214.189 20.112 213.781 17.352 213.781 14.088C213.781 10.56 214.573 6.456 214.861 4.464C214.933 3.912 215.005 3.312 215.029 2.784L217.165 2.952ZM237.109 5.88C237.997 5.976 239.029 6.024 240.061 6.024C242.653 6.024 245.677 5.712 248.437 4.8L248.485 6.576C246.133 7.224 242.989 7.752 240.061 7.728C239.173 7.728 238.141 7.704 237.253 7.68L237.109 5.88ZM245.629 1.968C245.317 3.144 244.813 5.4 244.237 7.104C243.085 10.56 240.877 14.928 238.885 17.616L237.037 16.656C239.173 14.16 241.405 9.888 242.389 7.056C242.917 5.544 243.445 3.432 243.517 1.752L245.629 1.968ZM251.293 9.384C251.221 10.368 251.221 11.088 251.245 11.952C251.293 13.512 251.509 17.16 251.509 18.744C251.509 20.664 250.285 22.224 247.309 22.224C244.669 22.224 242.533 21.168 242.533 18.768C242.533 16.56 244.621 15.168 247.309 15.168C251.341 15.168 254.437 17.184 256.405 18.888L255.397 20.52C253.549 18.84 250.789 16.704 247.261 16.704C245.485 16.704 244.285 17.52 244.285 18.624C244.285 19.728 245.221 20.496 247.093 20.496C249.085 20.496 249.757 19.44 249.757 18.144C249.757 16.32 249.493 12.024 249.397 9.384H251.293ZM256.093 10.008C254.797 8.904 252.181 7.44 250.597 6.696L251.557 5.256C253.309 6 256.021 7.56 257.173 8.424L256.093 10.008ZM264.517 3.336C265.045 3.384 265.717 3.408 266.197 3.408C267.469 3.408 273.157 3.24 274.429 3.12C275.149 3.048 275.485 3 275.749 2.904L276.853 4.32C276.421 4.608 275.941 4.92 275.485 5.28C274.309 6.192 271.045 9 269.173 10.536C270.277 10.176 271.429 10.056 272.509 10.056C276.493 10.056 279.349 12.432 279.349 15.672C279.349 19.536 276.157 22.056 271.069 22.056C267.805 22.056 265.813 20.64 265.813 18.624C265.813 16.992 267.301 15.504 269.509 15.504C272.701 15.504 274.309 17.76 274.477 20.184L272.749 20.472C272.605 18.432 271.429 16.968 269.509 16.968C268.405 16.968 267.565 17.64 267.565 18.48C267.565 19.656 268.885 20.352 270.781 20.352C274.861 20.352 277.429 18.672 277.429 15.672C277.429 13.296 275.173 11.544 272.029 11.544C268.045 11.544 265.885 13.224 262.861 16.32L261.469 14.928C263.461 13.296 266.557 10.704 267.925 9.528C269.269 8.424 272.293 5.904 273.493 4.824C272.221 4.896 267.421 5.088 266.173 5.16C265.621 5.208 265.093 5.232 264.565 5.304L264.517 3.336ZM289.357 22.344C287.797 20.448 285.733 18.408 284.029 17.016L285.589 15.648C287.317 17.04 289.477 19.2 290.989 20.952L289.357 22.344ZM300.445 4.968C301.069 5.04 301.957 5.088 302.461 5.088H315.637C316.381 5.088 317.125 5.04 317.701 4.968V7.056C317.101 7.008 316.333 6.96 315.637 6.96H302.461C301.981 6.96 301.045 7.008 300.445 7.056V4.968ZM307.861 19.056V6.168H309.901V19.056H307.861ZM298.981 17.88C299.677 17.976 300.421 18.024 301.093 18.024H316.957C317.677 18.024 318.325 17.928 318.925 17.88V20.04C318.301 19.968 317.413 19.968 316.957 19.968H301.093C300.445 19.968 299.701 19.992 298.981 20.04V17.88ZM323.389 10.608C324.133 10.68 325.381 10.752 326.749 10.752C328.501 10.752 338.125 10.752 339.901 10.752C341.101 10.752 341.941 10.656 342.493 10.608V12.96C341.989 12.936 340.981 12.864 339.925 12.864C338.101 12.864 328.525 12.864 326.749 12.864C325.429 12.864 324.157 12.912 323.389 12.96V10.608ZM362.945 4.968C362.801 5.16 362.489 5.688 362.369 6C361.409 8.376 359.585 11.736 357.593 13.944C354.905 16.944 351.473 19.8 347.681 21.528L346.145 19.92C350.033 18.432 353.561 15.552 356.033 12.816C357.665 10.968 359.417 8.112 360.041 6.12C359.177 6.12 351.497 6.12 350.681 6.12C349.817 6.12 348.521 6.216 348.257 6.24V4.08C348.569 4.128 349.937 4.224 350.681 4.224C351.617 4.224 359.033 4.224 359.945 4.224C360.713 4.224 361.361 4.152 361.745 4.032L362.945 4.968ZM357.905 12.696C360.497 14.856 363.689 18.216 365.321 20.208L363.665 21.672C361.937 19.392 359.129 16.32 356.537 14.04L357.905 12.696ZM381.281 4.632C380.969 7.128 380.489 9.936 379.745 12.504C378.281 17.424 376.361 19.968 374.153 19.968C371.993 19.968 369.857 17.52 369.857 13.536C369.857 8.328 374.489 3.792 380.369 3.792C385.985 3.792 389.561 7.752 389.561 12.624C389.561 17.64 386.249 21 380.537 21.744L379.433 19.968C380.201 19.896 380.921 19.8 381.497 19.68C384.569 18.984 387.593 16.68 387.593 12.528C387.593 8.688 384.929 5.52 380.321 5.52C375.041 5.52 371.753 9.864 371.753 13.392C371.753 16.416 373.121 17.76 374.201 17.76C375.329 17.76 376.625 16.128 377.849 12.072C378.545 9.792 379.049 7.08 379.289 4.584L381.281 4.632ZM393.041 15.528H414.497V17.04H393.041V15.528ZM397.073 6.768H411.929V8.04H397.073V6.768ZM397.073 9.648H412.001V10.944H397.073V9.648ZM396.785 3.696H412.913V5.184H396.785V3.696ZM403.265 4.536H405.017V13.152H403.265V4.536ZM402.809 13.608H404.609V22.92H402.809V13.608ZM402.425 16.08L403.817 16.8C401.441 19.296 397.169 21.576 393.641 22.68C393.377 22.2 392.849 21.528 392.441 21.168C396.017 20.256 400.241 18.24 402.425 16.08ZM405.017 16.08C407.177 18.192 411.377 20.112 414.977 21C414.593 21.36 414.089 22.032 413.825 22.488C410.249 21.432 406.001 19.224 403.625 16.8L405.017 16.08ZM404.393 0.839999L406.409 1.128C405.737 2.4 404.993 3.744 404.369 4.656L402.785 4.32C403.361 3.36 404.057 1.872 404.393 0.839999ZM398.129 0.816L400.001 1.152C398.585 3.792 396.569 6.72 393.713 9.12C393.401 8.712 392.801 8.16 392.393 7.92C395.081 5.808 397.049 3 398.129 0.816ZM395.945 4.68H397.673V12.6H413.849V14.04H395.945V4.68ZM420.785 7.656H434.993V9.216H420.785V7.656ZM430.025 4.584H431.729V17.064C431.729 18.048 431.489 18.528 430.769 18.768C430.097 19.032 428.921 19.032 427.049 19.032C426.977 18.6 426.737 17.928 426.521 17.472C427.889 17.52 429.161 17.52 429.545 17.496C429.905 17.472 430.025 17.376 430.025 17.04V4.584ZM422.585 11.112L423.905 10.416C425.153 11.712 426.377 13.536 426.857 14.784L425.465 15.552C425.009 14.304 423.809 12.432 422.585 11.112ZM417.737 1.968H437.849V22.92H436.001V3.696H419.537V22.92H417.737V1.968ZM418.793 20.112H436.745V21.84H418.793V20.112ZM444.425 15.168C446.441 15.168 448.073 16.8 448.073 18.816C448.073 20.832 446.441 22.464 444.425 22.464C442.409 22.464 440.753 20.832 440.753 18.816C440.753 16.8 442.409 15.168 444.425 15.168ZM444.425 21.24C445.769 21.24 446.849 20.16 446.849 18.816C446.849 17.472 445.769 16.392 444.425 16.392C443.081 16.392 441.977 17.472 441.977 18.816C441.977 20.16 443.081 21.24 444.425 21.24Z" fill="#2B2C32"/>
</svg>
